<svg xmlns:xlink="http://www.w3.org/1999/xlink" height="339" width="542" version="1.1" xmlns="http://www.w3.org/2000/svg"><defs><clipPath id="highcharts-13"><rect stroke-width="0" height="337" width="540" y="1" x="1" fill="none" ry="0" rx="0"></rect></clipPath><radialGradient r="100" cy="154.5" cx="256" gradientUnits="userSpaceOnUse" id="highcharts-14"><stop stop-opacity="1" stop-color="#0c0cff" offset="90%"></stop><stop stop-opacity="1" stop-color="#000094" offset="100%"></stop></radialGradient><radialGradient r="100" cy="154.5" cx="256" gradientUnits="userSpaceOnUse" id="highcharts-15"><stop stop-opacity="1" stop-color="#0cff0c" offset="90%"></stop><stop stop-opacity="1" stop-color="#009400" offset="100%"></stop></radialGradient><radialGradient r="100" cy="154.5" cx="256" gradientUnits="userSpaceOnUse" id="highcharts-16"><stop stop-opacity="1" stop-color="#ff0c0c" offset="90%"></stop><stop stop-opacity="1" stop-color="#940000" offset="100%"></stop></radialGradient></defs><rect fill-opacity="0" stroke="rgb(255,255,255)" stroke-opacity="0.5" stroke-width="1" height="338" width="541" y="0.5" x="0.5" fill="#FFFFFF" ry="0" rx="0"></rect><rect fill-opacity="0" stroke-width="0" height="309" width="512" y="15" x="15" fill="rgb(0,0,0)" ry="0" rx="0"></rect><rect  stroke-linejoin="round" stroke="rgb(0,0,0)" stroke-opacity="0" stroke-width="2" height="311" width="514" y="14" x="14" fill="none" ry="0" rx="0"></rect><g  class="highcharts-series-group"></g><path transform="translate(15,15)"  visibility="" stroke="rgb(118,117,117)" stroke-opacity="1" stroke-width="1" fill="none" d="M 168.27017254797758 202.4945556833103 L 155.1106984301742 209.69373903580683 150.1106984301742 209.69373903580683"></path><path transform="translate(15,15)"  visibility="" stroke="rgb(118,117,117)" stroke-opacity="1" stroke-width="1" fill="none" d="M 339.398808135269 209.67824572797318 L 351.90862935555936 217.95498258716916 356.90862935555936 217.95498258716916"></path><path transform="translate(15,15)"  visibility="" stroke="rgb(118,117,117)" stroke-opacity="1" stroke-width="1" fill="none" d="M 302.6748826133846 66.06100784706574 L 309.6761150053923 52.795159024125596 314.6761150053923 52.795159024125596"></path><g transform="translate(15,15)"  class="highcharts-shadow"><path transform="translate(1,1)"  stroke-linejoin="round" stroke-width="5" stroke="rgb(0,0,0)" stroke-opacity="0.06" fill="none" d="M 356 155 A 100 100 0 0 1 295.1073160036472 247.03595946688924 L 256 155 A 0 0 0 0 0 256 155 Z"></path><path transform="translate(1,1)"  stroke-linejoin="round" stroke-width="3" stroke="rgb(0,0,0)" stroke-opacity="0.12" fill="none" d="M 356 155 A 100 100 0 0 1 295.1073160036472 247.03595946688924 L 256 155 A 0 0 0 0 0 256 155 Z"></path><path transform="translate(1,1)"  stroke-linejoin="round" stroke-width="1" stroke="rgb(0,0,0)" stroke-opacity="0.18" fill="none" d="M 356 155 A 100 100 0 0 1 295.1073160036472 247.03595946688924 L 256 155 A 0 0 0 0 0 256 155 Z"></path></g><g transform="translate(15,15)"  class="highcharts-shadow"><path transform="translate(1,1)"  stroke-linejoin="round" stroke-width="5" stroke="rgb(0,0,0)" stroke-opacity="0.06" fill="none" d="M 295.1072239676682 247.03599857415924 A 100 100 0 0 1 199.58611025465333 72.43200956908379 L 256 155 A 0 0 0 0 0 256 155 Z"></path><path transform="translate(1,1)"  stroke-linejoin="round" stroke-width="3" stroke="rgb(0,0,0)" stroke-opacity="0.12" fill="none" d="M 295.1072239676682 247.03599857415924 A 100 100 0 0 1 199.58611025465333 72.43200956908379 L 256 155 A 0 0 0 0 0 256 155 Z"></path><path transform="translate(1,1)"  stroke-linejoin="round" stroke-width="1" stroke="rgb(0,0,0)" stroke-opacity="0.18" fill="none" d="M 295.1072239676682 247.03599857415924 A 100 100 0 0 1 199.58611025465333 72.43200956908379 L 256 155 A 0 0 0 0 0 256 155 Z"></path></g><g transform="translate(15,15)"  class="highcharts-shadow"><path transform="translate(1,1)"  stroke-linejoin="round" stroke-width="5" stroke="rgb(0,0,0)" stroke-opacity="0.06" fill="none" d="M 199.586192822672 72.43195315523532 A 100 100 0 0 1 355.99999826448175 154.98136928214916 L 256 155 A 0 0 0 0 0 256 155 Z"></path><path transform="translate(1,1)"  stroke-linejoin="round" stroke-width="3" stroke="rgb(0,0,0)" stroke-opacity="0.12" fill="none" d="M 199.586192822672 72.43195315523532 A 100 100 0 0 1 355.99999826448175 154.98136928214916 L 256 155 A 0 0 0 0 0 256 155 Z"></path><path transform="translate(1,1)"  stroke-linejoin="round" stroke-width="1" stroke="rgb(0,0,0)" stroke-opacity="0.18" fill="none" d="M 199.586192822672 72.43195315523532 A 100 100 0 0 1 355.99999826448175 154.98136928214916 L 256 155 A 0 0 0 0 0 256 155 Z"></path></g><g transform="translate(15,15)"  class="highcharts-point"><path stroke-linejoin="round" stroke-width="1" stroke="rgb(192,192,255)" stroke-opacity="0.8" fill="url('#highcharts-14')" d="M 356 155 A 100 100 0 0 1 295.1073160036472 247.03595946688924 L 256 155 A 0 0 0 0 0 256 155 Z"></path><path style=""  visibility="" fill-opacity="0.000001"  fill="rgb(192,192,192)" d="M 356 155 A 100 100 0 0 1 295.1073160036472 247.03595946688924 L 256 155 A 0 0 0 0 0 256 155 Z"></path></g><g transform="translate(15,15)"  class="highcharts-point"><path stroke-linejoin="round" stroke-width="1" stroke="rgb(192,255,192)" stroke-opacity="0.8" fill="url('#highcharts-15')" d="M 295.1072239676682 247.03599857415924 A 100 100 0 0 1 199.58611025465333 72.43200956908379 L 256 155 A 0 0 0 0 0 256 155 Z"></path><path style=""  visibility="" fill-opacity="0.000001"  fill="rgb(192,192,192)" d="M 295.1072239676682 247.03599857415924 A 100 100 0 0 1 199.58611025465333 72.43200956908379 L 256 155 A 0 0 0 0 0 256 155 Z"></path></g><g transform="translate(15,15)"  class="highcharts-point"><path stroke-linejoin="round" stroke-width="1" stroke="rgb(255,192,192)" stroke-opacity="0.8" fill="url('#highcharts-16')" d="M 199.586192822672 72.43195315523532 A 100 100 0 0 1 355.99999826448175 154.98136928214916 L 256 155 A 0 0 0 0 0 256 155 Z"></path><path style=""  visibility="" fill-opacity="0.000001"  fill="rgb(192,192,192)" d="M 199.586192822672 72.43195315523532 A 100 100 0 0 1 355.99999826448175 154.98136928214916 L 256 155 A 0 0 0 0 0 256 155 Z"></path></g><g transform="translate(15,15)"  visibility="" class="highcharts-data-labels"><text visibility=""  text-anchor="start" style="font-family:verdana;font-size:10px;color:#555555;line-height:14px;fill:#555555;" y="222.95498258716916" x="356.90862935555936"><tspan x="356.90862935555936">2010, 1.98M</tspan></text><text visibility=""  text-anchor="end" style="font-family:verdana;font-size:10px;color:#555555;line-height:14px;fill:#555555;" y="214.69373903580683" x="150.1106984301742"><tspan x="150.1106984301742">2009, 4.99M</tspan></text><text visibility=""  text-anchor="start" style="font-family:verdana;font-size:10px;color:#555555;line-height:14px;fill:#555555;" y="57.795159024125596" x="314.6761150053923"><tspan x="314.6761150053923">2008, 3.68M</tspan></text></g><g visibility="hidden"  class="highcharts-tooltip"><rect fill-opacity="1" stroke-width="1" height="0" width="0" y="1.5" x="1.5" fill="rgb(255,255,255)" ry="1" rx="1"></rect><text  style="font-family:verdana;font-size:10px;color:#555555;padding:0;white-space:nowrap;line-height:14px;fill:#555555;" y="11" x="1"><tspan x="1"> </tspan></text></g><text  text-anchor="end" style="font-family:'lucida grande', 'lucida sans unicode', verdana, arial, helvetica, sans-serif;font-size:10px;cursor:pointer;color:#909090;fill:#909090;" y="334" x="532"><tspan x="532">FusionCharts</tspan></text><g transform="translate(15,15)"  class="highcharts-tracker"></g></svg>