<svg xmlns:xlink="http://www.w3.org/1999/xlink" height="277" width="568" version="1.1" xmlns="http://www.w3.org/2000/svg"><defs><linearGradient y2="0%" x2="50%" y1="100%" x1="50%" gradientUnits="objectBoundingBox" id="highcharts-61"><stop stop-opacity="1" stop-color="#ff00ff" offset="0%"></stop><stop stop-opacity="1" stop-color="#ff00ff" offset="30%"></stop><stop stop-opacity="1" stop-color="#ff99ff" offset="60%"></stop><stop stop-opacity="1" stop-color="#ff00ff" offset="90%"></stop><stop stop-opacity="1" stop-color="#ff00ff" offset="100%"></stop></linearGradient><linearGradient y2="0%" x2="50%" y1="100%" x1="50%" gradientUnits="objectBoundingBox" id="highcharts-62"><stop stop-opacity="1" stop-color="#FF0000" offset="0%"></stop><stop stop-opacity="1" stop-color="#FF0000" offset="30%"></stop><stop stop-opacity="1" stop-color="#ff9999" offset="60%"></stop><stop stop-opacity="1" stop-color="#FF0000" offset="90%"></stop><stop stop-opacity="1" stop-color="#FF0000" offset="100%"></stop></linearGradient><linearGradient y2="0%" x2="50%" y1="100%" x1="50%" gradientUnits="objectBoundingBox" id="highcharts-63"><stop stop-opacity="1" stop-color="#00FF00" offset="0%"></stop><stop stop-opacity="1" stop-color="#00FF00" offset="30%"></stop><stop stop-opacity="1" stop-color="#99ff99" offset="60%"></stop><stop stop-opacity="1" stop-color="#00FF00" offset="90%"></stop><stop stop-opacity="1" stop-color="#00FF00" offset="100%"></stop></linearGradient><linearGradient y2="0%" x2="50%" y1="100%" x1="50%" gradientUnits="objectBoundingBox" id="highcharts-64"><stop stop-opacity="1" stop-color="#0000FF" offset="0%"></stop><stop stop-opacity="1" stop-color="#0000FF" offset="30%"></stop><stop stop-opacity="1" stop-color="#9999ff" offset="60%"></stop><stop stop-opacity="1" stop-color="#0000FF" offset="90%"></stop><stop stop-opacity="1" stop-color="#0000FF" offset="100%"></stop></linearGradient><clipPath id="highcharts-65"><rect stroke-width="0" height="275" width="566" y="1" x="1" fill="none" ry="0" rx="0"></rect></clipPath><linearGradient y2="73%" x2="100%" y1="27%" x1="0%" gradientUnits="objectBoundingBox" id="highcharts-66"><stop stop-opacity="1" stop-color="#bbc0b5" offset="0%"></stop><stop stop-opacity="1" stop-color="#ecf0e8" offset="100%"></stop></linearGradient><linearGradient y2="49%" x2="100%" y1="51%" x1="0%" gradientUnits="objectBoundingBox" id="highcharts-67"><stop stop-opacity="1" stop-color="#929e82" offset="0%"></stop><stop stop-opacity="1" stop-color="#e2e7db" offset="100%"></stop></linearGradient><linearGradient y2="0%" x2="25%" y1="100%" x1="75%" gradientUnits="objectBoundingBox" id="highcharts-68"><stop stop-opacity="1" stop-color="#3c4135" offset="0%"></stop><stop stop-opacity="1" stop-color="#818c72" offset="100%"></stop></linearGradient><linearGradient y2="0%" x2="50%" y1="100%" x1="50%" gradientUnits="objectBoundingBox" id="highcharts-69"><stop stop-opacity="1" stop-color="#6f7963" offset="0%"></stop><stop stop-opacity="1" stop-color="#d1dac7" offset="100%"></stop></linearGradient><linearGradient y2="42%" x2="100%" y1="58%" x1="0%" gradientUnits="objectBoundingBox" id="highcharts-70"><stop stop-opacity="1" stop-color="#d800d8" offset="0%"></stop><stop stop-opacity="1" stop-color="#ffa6ff" offset="100%"></stop></linearGradient><linearGradient y2="0%" x2="47%" y1="100%" x1="53%" gradientUnits="objectBoundingBox" id="highcharts-71"><stop stop-opacity="1" stop-color="#590059" offset="0%"></stop><stop stop-opacity="1" stop-color="#bf00bf" offset="100%"></stop></linearGradient><linearGradient y2="0%" x2="50%" y1="100%" x1="50%" gradientUnits="objectBoundingBox" id="highcharts-72"><stop stop-opacity="1" stop-color="#a500a5" offset="0%"></stop><stop stop-opacity="1" stop-color="#ff73ff" offset="100%"></stop></linearGradient><linearGradient y2="42%" x2="100%" y1="58%" x1="0%" gradientUnits="objectBoundingBox" id="highcharts-73"><stop stop-opacity="1" stop-color="#d800d8" offset="0%"></stop><stop stop-opacity="1" stop-color="#ffa6ff" offset="100%"></stop></linearGradient><linearGradient y2="0%" x2="42%" y1="100%" x1="58%" gradientUnits="objectBoundingBox" id="highcharts-74"><stop stop-opacity="1" stop-color="#590059" offset="0%"></stop><stop stop-opacity="1" stop-color="#bf00bf" offset="100%"></stop></linearGradient><linearGradient y2="0%" x2="50%" y1="100%" x1="50%" gradientUnits="objectBoundingBox" id="highcharts-75"><stop stop-opacity="1" stop-color="#a500a5" offset="0%"></stop><stop stop-opacity="1" stop-color="#ff73ff" offset="100%"></stop></linearGradient><linearGradient y2="42%" x2="100%" y1="58%" x1="0%" gradientUnits="objectBoundingBox" id="highcharts-76"><stop stop-opacity="1" stop-color="#d800d8" offset="0%"></stop><stop stop-opacity="1" stop-color="#ffa6ff" offset="100%"></stop></linearGradient><linearGradient y2="0%" x2="37%" y1="100%" x1="63%" gradientUnits="objectBoundingBox" id="highcharts-77"><stop stop-opacity="1" stop-color="#590059" offset="0%"></stop><stop stop-opacity="1" stop-color="#bf00bf" offset="100%"></stop></linearGradient><linearGradient y2="0%" x2="50%" y1="100%" x1="50%" gradientUnits="objectBoundingBox" id="highcharts-78"><stop stop-opacity="1" stop-color="#a500a5" offset="0%"></stop><stop stop-opacity="1" stop-color="#ff73ff" offset="100%"></stop></linearGradient><linearGradient y2="42%" x2="100%" y1="58%" x1="0%" gradientUnits="objectBoundingBox" id="highcharts-79"><stop stop-opacity="1" stop-color="#d800d8" offset="0%"></stop><stop stop-opacity="1" stop-color="#ffa6ff" offset="100%"></stop></linearGradient><linearGradient y2="0%" x2="43%" y1="100%" x1="57%" gradientUnits="objectBoundingBox" id="highcharts-80"><stop stop-opacity="1" stop-color="#590059" offset="0%"></stop><stop stop-opacity="1" stop-color="#bf00bf" offset="100%"></stop></linearGradient><linearGradient y2="0%" x2="50%" y1="100%" x1="50%" gradientUnits="objectBoundingBox" id="highcharts-81"><stop stop-opacity="1" stop-color="#a500a5" offset="0%"></stop><stop stop-opacity="1" stop-color="#ff73ff" offset="100%"></stop></linearGradient><linearGradient y2="42%" x2="100%" y1="58%" x1="0%" gradientUnits="objectBoundingBox" id="highcharts-82"><stop stop-opacity="1" stop-color="#d800d8" offset="0%"></stop><stop stop-opacity="1" stop-color="#ffa6ff" offset="100%"></stop></linearGradient><linearGradient y2="0%" x2="43%" y1="100%" x1="57%" gradientUnits="objectBoundingBox" id="highcharts-83"><stop stop-opacity="1" stop-color="#590059" offset="0%"></stop><stop stop-opacity="1" stop-color="#bf00bf" offset="100%"></stop></linearGradient><linearGradient y2="0%" x2="50%" y1="100%" x1="50%" gradientUnits="objectBoundingBox" id="highcharts-84"><stop stop-opacity="1" stop-color="#a500a5" offset="0%"></stop><stop stop-opacity="1" stop-color="#ff73ff" offset="100%"></stop></linearGradient><clipPath id="highcharts-85"><rect stroke-width="0" height="277" width="568" y="-15" x="-47" fill="none" ry="0" rx="0"></rect></clipPath><linearGradient y2="0%" x2="50%" y1="100%" x1="50%" gradientUnits="objectBoundingBox" id="highcharts-86"><stop stop-opacity="0.7" stop-color="#FF0000" offset="0%"></stop><stop stop-opacity="0.7" stop-color="#FFFFFF" offset="100%"></stop></linearGradient><linearGradient y2="0%" x2="50%" y1="100%" x1="50%" gradientUnits="objectBoundingBox" id="highcharts-87"><stop stop-opacity="0.7" stop-color="#00FF00" offset="0%"></stop><stop stop-opacity="0.7" stop-color="#FFFFFF" offset="100%"></stop></linearGradient><linearGradient y2="0%" x2="50%" y1="100%" x1="50%" gradientUnits="objectBoundingBox" id="highcharts-88"><stop stop-opacity="0.7" stop-color="#0000FF" offset="0%"></stop><stop stop-opacity="0.7" stop-color="#FFFFFF" offset="100%"></stop></linearGradient></defs><rect fill-opacity="0" stroke="rgb(255,255,255)" stroke-opacity="1" stroke-width="1" height="276" width="567" y="0.5" x="0.5" fill="#FFFFFF" ry="0" rx="0"></rect><rect stroke-width="0" height="183" width="503" y="15" x="47" fill="url('#highcharts-66')" ry="0" rx="0"></rect><path fill-opacity="0" fill="rgb(0,0,0)" d="M 106 15 L 106 198 205 198 205 15"></path><path fill-opacity="0" fill="rgb(0,0,0)" d="M 304 15 L 304 198 402 198 402 15"></path><path fill-opacity="0" fill="rgb(0,0,0)" d="M 501 15 L 501 198 550 198 550 15"></path><path stroke-width="0.1" stroke="rgb(0,0,0)" stroke-opacity="0" fill="none" d="M 106.05 15 L 106.05 198"></path><text visibility="" text-anchor="middle" style="font-family: verdana; font-size: 10px; line-height: 12px; color: rgb(73, 86, 58); fill: rgb(73, 86, 58);" y="232" x="96"><tspan x="96">Australia</tspan></text><path stroke-width="0.1" stroke="rgb(0,0,0)" stroke-opacity="0" fill="none" d="M 205.05 15 L 205.05 198"></path><text visibility="" text-anchor="middle" style="font-family: verdana; font-size: 10px; line-height: 12px; color: rgb(73, 86, 58); fill: rgb(73, 86, 58);" y="232" x="195"><tspan x="195">Austria</tspan></text><path stroke-width="0.1" stroke="rgb(0,0,0)" stroke-opacity="0" fill="none" d="M 304.05 15 L 304.05 198"></path><text visibility="" text-anchor="middle" style="font-family: verdana; font-size: 10px; line-height: 12px; color: rgb(73, 86, 58); fill: rgb(73, 86, 58);" y="232" x="294"><tspan x="294">Belgium</tspan></text><path stroke-width="0.1" stroke="rgb(0,0,0)" stroke-opacity="0" fill="none" d="M 402.05 15 L 402.05 198"></path><text visibility="" text-anchor="middle" style="font-family: verdana; font-size: 10px; line-height: 12px; color: rgb(73, 86, 58); fill: rgb(73, 86, 58);" y="232" x="392"><tspan x="392">Canada</tspan></text><path stroke-width="0.1" stroke="rgb(0,0,0)" stroke-opacity="0" fill="none" d="M 501.05 15 L 501.05 198"></path><text visibility="" text-anchor="middle" style="font-family: verdana; font-size: 10px; line-height: 12px; color: rgb(73, 86, 58); fill: rgb(73, 86, 58);" y="232" x="491"><tspan x="491">Denmark</tspan></text><path fill-opacity="0" fill="rgb(0,0,0)" d="M 47 198 L 550 198 550 161 47 161"></path><path fill-opacity="0" fill="rgb(0,0,0)" d="M 47 125 L 550 125 550 88 47 88"></path><path fill-opacity="0" fill="rgb(0,0,0)" d="M 47 52 L 550 52 550 15 47 15"></path><g lighting3D="true" class="highcharts-canvasBase3D"><path fill="none" d="M 47 198 L 550 198 550 208"></path><rect stroke-width="0" height="10" width="503" y="208" x="37" fill="url('#highcharts-69')" ry="0" rx="0"></rect><path stroke-width="0" fill="url('#highcharts-67')" d="M 37 208 L 540 208 550 198 47 198 Z"></path><path stroke-width="0" fill="url('#highcharts-68')" d="M 540 208 L 550 198 550 208 540 218 Z"></path></g><path fill-opacity="1" fill="rgb(176,181,170)" d="M 550 15 L 553 18.6 553 195 550 198 Z"></path><g  class="highcharts-grid"></g><g  class="highcharts-grid"></g><g  class="highcharts-grid"></g><path  stroke-width="0.1" stroke="rgb(0,0,0)" stroke-opacity="0" fill="none" d="M 47 198.05 L 550 198.05"></path><text visibility=""  text-anchor="end" style="font-family: verdana; font-size: 10px; line-height: 12px; color: rgb(73, 86, 58); fill: rgb(73, 86, 58);" y="202" x="43"><tspan x="43">0</tspan></text><path  stroke-width="1" stroke="rgb(172,187,153)" stroke-opacity="1" fill="none" d="M 47 161.5 L 550 161.5"></path><text visibility=""  text-anchor="end" style="font-family: verdana; font-size: 10px; line-height: 12px; color: rgb(73, 86, 58); fill: rgb(73, 86, 58);" y="165" x="43"><tspan x="43">1400</tspan></text><path  stroke-width="1" stroke="rgb(172,187,153)" stroke-opacity="1" fill="none" d="M 47 125.5 L 550 125.5"></path><text visibility=""  text-anchor="end" style="font-family: verdana; font-size: 10px; line-height: 12px; color: rgb(73, 86, 58); fill: rgb(73, 86, 58);" y="129" x="43"><tspan x="43">2800</tspan></text><path  stroke-width="1" stroke="rgb(172,187,153)" stroke-opacity="1" fill="none" d="M 47 88.5 L 550 88.5"></path><text visibility=""  text-anchor="end" style="font-family: verdana; font-size: 10px; line-height: 12px; color: rgb(73, 86, 58); fill: rgb(73, 86, 58);" y="92" x="43"><tspan x="43">4200</tspan></text><path  stroke-width="1" stroke="rgb(172,187,153)" stroke-opacity="1" fill="none" d="M 47 52.5 L 550 52.5"></path><text visibility=""  text-anchor="end" style="font-family: verdana; font-size: 10px; line-height: 12px; color: rgb(73, 86, 58); fill: rgb(73, 86, 58);" y="56" x="43"><tspan x="43">5600</tspan></text><path  stroke-width="0.1" stroke="rgb(0,0,0)" stroke-opacity="0" fill="none" d="M 47 15.05 L 550 15.05"></path><text visibility=""  text-anchor="end" style="font-family: verdana; font-size: 10px; line-height: 12px; color: rgb(73, 86, 58); fill: rgb(73, 86, 58);" y="19" x="43"><tspan x="43">7000</tspan></text><g  class="highcharts-series-group"><g transform="translate(37, 25)" class="highcharts-series-3d"><g  class="highcharts-point"><path transform="translate(1, 1)" stroke-width="5" stroke-opacity="0.06" stroke="rgb(0,0,0)"  fill="none" d="M 44 9 L 94 9 94 173"></path><path transform="translate(1, 1)" stroke-width="3" stroke-opacity="0.12" stroke="rgb(0,0,0)"  fill="none" d="M 44 9 L 94 9 94 173"></path><path transform="translate(1, 1)" stroke-width="1" stroke-opacity="0.18" stroke="rgb(0,0,0)"  fill="none" d="M 44 9 L 94 9 94 173"></path><path fill="none" d="M 44 9 L 94 9 94 173"></path><rect stroke="#FFFFFF" stroke-opacity="0" stroke-width="1" height="164" width="50" y="19" x="34" fill="url('#highcharts-72')" ry="0" rx="0"></rect><path stroke="#FFFFFF" stroke-opacity="0" stroke-width="1" fill="url('#highcharts-70')" d="M 34 19 L 84 19 94 9 44 9 Z"></path><path stroke="#FFFFFF" stroke-opacity="0" stroke-width="1" fill="url('#highcharts-71')" d="M 84 19 L 94 9 94 173 84 183 Z"></path></g><g  class="highcharts-point"><path transform="translate(1, 1)" stroke-width="5" stroke-opacity="0.06" stroke="rgb(0,0,0)"  fill="none" d="M 143 121 L 193 121 193 173"></path><path transform="translate(1, 1)" stroke-width="3" stroke-opacity="0.12" stroke="rgb(0,0,0)"  fill="none" d="M 143 121 L 193 121 193 173"></path><path transform="translate(1, 1)" stroke-width="1" stroke-opacity="0.18" stroke="rgb(0,0,0)"  fill="none" d="M 143 121 L 193 121 193 173"></path><path fill="none" d="M 143 121 L 193 121 193 173"></path><rect stroke="#FFFFFF" stroke-opacity="0" stroke-width="1" height="52" width="50" y="131" x="133" fill="url('#highcharts-75')" ry="0" rx="0"></rect><path stroke="#FFFFFF" stroke-opacity="0" stroke-width="1" fill="url('#highcharts-73')" d="M 133 131 L 183 131 193 121 143 121 Z"></path><path stroke="#FFFFFF" stroke-opacity="0" stroke-width="1" fill="url('#highcharts-74')" d="M 183 131 L 193 121 193 173 183 183 Z"></path></g><g  class="highcharts-point"><path transform="translate(1, 1)" stroke-width="5" stroke-opacity="0.06" stroke="rgb(0,0,0)"  fill="none" d="M 242 144 L 292 144 292 173"></path><path transform="translate(1, 1)" stroke-width="3" stroke-opacity="0.12" stroke="rgb(0,0,0)"  fill="none" d="M 242 144 L 292 144 292 173"></path><path transform="translate(1, 1)" stroke-width="1" stroke-opacity="0.18" stroke="rgb(0,0,0)"  fill="none" d="M 242 144 L 292 144 292 173"></path><path fill="none" d="M 242 144 L 292 144 292 173"></path><rect stroke="#FFFFFF" stroke-opacity="0" stroke-width="1" height="29" width="50" y="154" x="232" fill="url('#highcharts-78')" ry="0" rx="0"></rect><path stroke="#FFFFFF" stroke-opacity="0" stroke-width="1" fill="url('#highcharts-76')" d="M 232 154 L 282 154 292 144 242 144 Z"></path><path stroke="#FFFFFF" stroke-opacity="0" stroke-width="1" fill="url('#highcharts-77')" d="M 282 154 L 292 144 292 173 282 183 Z"></path></g><g  class="highcharts-point"><path transform="translate(1, 1)" stroke-width="5" stroke-opacity="0.06" stroke="rgb(0,0,0)"  fill="none" d="M 340 113 L 390 113 390 173"></path><path transform="translate(1, 1)" stroke-width="3" stroke-opacity="0.12" stroke="rgb(0,0,0)"  fill="none" d="M 340 113 L 390 113 390 173"></path><path transform="translate(1, 1)" stroke-width="1" stroke-opacity="0.18" stroke="rgb(0,0,0)"  fill="none" d="M 340 113 L 390 113 390 173"></path><path fill="none" d="M 340 113 L 390 113 390 173"></path><rect stroke="#FFFFFF" stroke-opacity="0" stroke-width="1" height="60" width="50" y="123" x="330" fill="url('#highcharts-81')" ry="0" rx="0"></rect><path stroke="#FFFFFF" stroke-opacity="0" stroke-width="1" fill="url('#highcharts-79')" d="M 330 123 L 380 123 390 113 340 113 Z"></path><path stroke="#FFFFFF" stroke-opacity="0" stroke-width="1" fill="url('#highcharts-80')" d="M 380 123 L 390 113 390 173 380 183 Z"></path></g><g  class="highcharts-point"><path transform="translate(1, 1)" stroke-width="5" stroke-opacity="0.06" stroke="rgb(0,0,0)"  fill="none" d="M 439 115 L 489 115 489 173"></path><path transform="translate(1, 1)" stroke-width="3" stroke-opacity="0.12" stroke="rgb(0,0,0)"  fill="none" d="M 439 115 L 489 115 489 173"></path><path transform="translate(1, 1)" stroke-width="1" stroke-opacity="0.18" stroke="rgb(0,0,0)"  fill="none" d="M 439 115 L 489 115 489 173"></path><path fill="none" d="M 439 115 L 489 115 489 173"></path><rect stroke="#FFFFFF" stroke-opacity="0" stroke-width="1" height="58" width="50" y="125" x="429" fill="url('#highcharts-84')" ry="0" rx="0"></rect><path stroke="#FFFFFF" stroke-opacity="0" stroke-width="1" fill="url('#highcharts-82')" d="M 429 125 L 479 125 489 115 439 115 Z"></path><path stroke="#FFFFFF" stroke-opacity="0" stroke-width="1" fill="url('#highcharts-83')" d="M 479 125 L 489 115 489 173 479 183 Z"></path></g></g><g transform="translate(37, 25)"  visibility="" clip-path="url('#highcharts-85')" class="highcharts-series"><g class="highcharts-shadow"><path transform="translate(1, 1)"  stroke-linecap="round" stroke-width="5" stroke="rgb(0,0,0)" stroke-opacity="0.06" fill="none" d="M 59.300000000000004 143.78571428571428 L 157.9 167.0267142857143 L 256.5 177.03942857142857 L 355.1 175.5492857142857 L 453.70000000000005 178.45114285714286"></path><path transform="translate(1, 1)"  stroke-linecap="round" stroke-width="3" stroke="rgb(0,0,0)" stroke-opacity="0.12" fill="none" d="M 59.300000000000004 143.78571428571428 L 157.9 167.0267142857143 L 256.5 177.03942857142857 L 355.1 175.5492857142857 L 453.70000000000005 178.45114285714286"></path><path transform="translate(1, 1)"  stroke-linecap="round" stroke-width="1" stroke="rgb(0,0,0)" stroke-opacity="0.18" fill="none" d="M 59.300000000000004 143.78571428571428 L 157.9 167.0267142857143 L 256.5 177.03942857142857 L 355.1 175.5492857142857 L 453.70000000000005 178.45114285714286"></path></g><path fill="url('#highcharts-86')" d="M 59.300000000000004 143.78571428571428 L 157.9 167.0267142857143 L 256.5 177.03942857142857 L 355.1 175.5492857142857 L 453.70000000000005 178.45114285714286 L 453.70000000000005 183 L 59.300000000000004 183"></path><path stroke-linecap="round" stroke-width="1" stroke="#767575" stroke-opacity="0.95" fill="none" d="M 59.300000000000004 143.78571428571428 L 157.9 167.0267142857143 L 256.5 177.03942857142857 L 355.1 175.5492857142857 L 453.70000000000005 178.45114285714286"></path><circle fill="#FFFFFF" fill-opacity="0" stroke-width="1" stroke="#FF0000" stroke-opacity="0" r="3" cy="178.45114285714286" cx="453.70000000000005"></circle><circle fill="#FFFFFF" fill-opacity="0" stroke-width="1" stroke="#FF0000" stroke-opacity="0" r="3" cy="175.5492857142857" cx="355.1"></circle><circle fill="#FFFFFF" fill-opacity="0" stroke-width="1" stroke="#FF0000" stroke-opacity="0" r="3" cy="177.03942857142857" cx="256.5"></circle><circle fill="#FFFFFF" fill-opacity="0" stroke-width="1" stroke="#FF0000" stroke-opacity="0" r="3" cy="167.0267142857143" cx="157.9"></circle><circle fill="#FFFFFF" fill-opacity="0" stroke-width="1" stroke="#FF0000" stroke-opacity="0" r="3" cy="143.78571428571428" cx="59.300000000000004"></circle></g><g transform="translate(37, 25)"  visibility="" clip-path="url('#highcharts-85')" class="highcharts-series"><g class="highcharts-shadow"><path transform="translate(1, 1)"  stroke-linecap="round" stroke-width="5" stroke="rgb(0,0,0)" stroke-opacity="0.06" fill="none" d="M 59.300000000000004 124.64914285714286 L 157.9 170.16385714285715 L 256.5 162.11185714285713 L 355.1 143.57657142857144 L 453.70000000000005 153.72"></path><path transform="translate(1, 1)"  stroke-linecap="round" stroke-width="3" stroke="rgb(0,0,0)" stroke-opacity="0.12" fill="none" d="M 59.300000000000004 124.64914285714286 L 157.9 170.16385714285715 L 256.5 162.11185714285713 L 355.1 143.57657142857144 L 453.70000000000005 153.72"></path><path transform="translate(1, 1)"  stroke-linecap="round" stroke-width="1" stroke="rgb(0,0,0)" stroke-opacity="0.18" fill="none" d="M 59.300000000000004 124.64914285714286 L 157.9 170.16385714285715 L 256.5 162.11185714285713 L 355.1 143.57657142857144 L 453.70000000000005 153.72"></path></g><path fill="url('#highcharts-87')" d="M 59.300000000000004 124.64914285714286 L 157.9 170.16385714285715 L 256.5 162.11185714285713 L 355.1 143.57657142857144 L 453.70000000000005 153.72 L 453.70000000000005 183 L 59.300000000000004 183"></path><path stroke-linecap="round" stroke-width="1" stroke="#767575" stroke-opacity="0.95" fill="none" d="M 59.300000000000004 124.64914285714286 L 157.9 170.16385714285715 L 256.5 162.11185714285713 L 355.1 143.57657142857144 L 453.70000000000005 153.72"></path><circle fill="#FFFFFF" fill-opacity="0" stroke-width="1" stroke="#00FF00" stroke-opacity="0" r="3" cy="153.72" cx="453.70000000000005"></circle><circle fill="#FFFFFF" fill-opacity="0" stroke-width="1" stroke="#00FF00" stroke-opacity="0" r="3" cy="143.57657142857144" cx="355.1"></circle><circle fill="#FFFFFF" fill-opacity="0" stroke-width="1" stroke="#00FF00" stroke-opacity="0" r="3" cy="162.11185714285713" cx="256.5"></circle><circle fill="#FFFFFF" fill-opacity="0" stroke-width="1" stroke="#00FF00" stroke-opacity="0" r="3" cy="170.16385714285715" cx="157.9"></circle><circle fill="#FFFFFF" fill-opacity="0" stroke-width="1" stroke="#00FF00" stroke-opacity="0" r="3" cy="124.64914285714286" cx="59.300000000000004"></circle></g><g transform="translate(37, 25)"  visibility="" clip-path="url('#highcharts-85')" class="highcharts-series"><g class="highcharts-shadow"><path transform="translate(1, 1)"  stroke-linecap="round" stroke-width="5" stroke="rgb(0,0,0)" stroke-opacity="0.06" fill="none" d="M 59.300000000000004 117.27685714285715 L 157.9 160.20342857142856 L 256.5 181.7712857142857 L 355.1 169.92857142857142 L 453.70000000000005 159.393"></path><path transform="translate(1, 1)"  stroke-linecap="round" stroke-width="3" stroke="rgb(0,0,0)" stroke-opacity="0.12" fill="none" d="M 59.300000000000004 117.27685714285715 L 157.9 160.20342857142856 L 256.5 181.7712857142857 L 355.1 169.92857142857142 L 453.70000000000005 159.393"></path><path transform="translate(1, 1)"  stroke-linecap="round" stroke-width="1" stroke="rgb(0,0,0)" stroke-opacity="0.18" fill="none" d="M 59.300000000000004 117.27685714285715 L 157.9 160.20342857142856 L 256.5 181.7712857142857 L 355.1 169.92857142857142 L 453.70000000000005 159.393"></path></g><path fill="url('#highcharts-88')" d="M 59.300000000000004 117.27685714285715 L 157.9 160.20342857142856 L 256.5 181.7712857142857 L 355.1 169.92857142857142 L 453.70000000000005 159.393 L 453.70000000000005 183 L 59.300000000000004 183"></path><path stroke-linecap="round" stroke-width="1" stroke="#767575" stroke-opacity="0.95" fill="none" d="M 59.300000000000004 117.27685714285715 L 157.9 160.20342857142856 L 256.5 181.7712857142857 L 355.1 169.92857142857142 L 453.70000000000005 159.393"></path><circle fill="#FFFFFF" fill-opacity="0" stroke-width="1" stroke="#0000FF" stroke-opacity="0" r="3" cy="159.393" cx="453.70000000000005"></circle><circle fill="#FFFFFF" fill-opacity="0" stroke-width="1" stroke="#0000FF" stroke-opacity="0" r="3" cy="169.92857142857142" cx="355.1"></circle><circle fill="#FFFFFF" fill-opacity="0" stroke-width="1" stroke="#0000FF" stroke-opacity="0" r="3" cy="181.7712857142857" cx="256.5"></circle><circle fill="#FFFFFF" fill-opacity="0" stroke-width="1" stroke="#0000FF" stroke-opacity="0" r="3" cy="160.20342857142856" cx="157.9"></circle><circle fill="#FFFFFF" fill-opacity="0" stroke-width="1" stroke="#0000FF" stroke-opacity="0" r="3" cy="117.27685714285715" cx="59.300000000000004"></circle></g></g><g transform="translate(47, 15)"  visibility="" class="highcharts-data-labels"><text  text-anchor="middle" style="font-family: verdana; font-size: 10px; color: rgb(73, 86, 58); line-height: 12px; text-decoration: none; font-weight: normal; font-style: normal; fill: rgb(73, 86, 58);" y="14" x="59"><tspan x="59">6246</tspan></text><text  text-anchor="middle" style="font-family: verdana; font-size: 10px; color: rgb(73, 86, 58); line-height: 12px; text-decoration: none; font-weight: normal; font-style: normal; fill: rgb(73, 86, 58);" y="125" x="158"><tspan x="158">1974</tspan></text><text  text-anchor="middle" style="font-family: verdana; font-size: 10px; color: rgb(73, 86, 58); line-height: 12px; text-decoration: none; font-weight: normal; font-style: normal; fill: rgb(73, 86, 58);" y="149" x="257"><tspan x="257">1074</tspan></text><text  text-anchor="middle" style="font-family: verdana; font-size: 10px; color: rgb(73, 86, 58); line-height: 12px; text-decoration: none; font-weight: normal; font-style: normal; fill: rgb(73, 86, 58);" y="117" x="355"><tspan x="355">2293</tspan></text><text  text-anchor="middle" style="font-family: verdana; font-size: 10px; color: rgb(73, 86, 58); line-height: 12px; text-decoration: none; font-weight: normal; font-style: normal; fill: rgb(73, 86, 58);" y="120" x="454"><tspan x="454">2197</tspan></text></g><g transform="translate(47, 15)"  visibility="" class="highcharts-data-labels"><text  text-anchor="middle" style="font-family: verdana; font-size: 10px; color: rgb(73, 86, 58); line-height: 12px; text-decoration: none; font-weight: normal; font-style: normal; fill: rgb(73, 86, 58);" y="138" x="59"><tspan x="59">1500</tspan></text><text  text-anchor="middle" style="font-family: verdana; font-size: 10px; color: rgb(73, 86, 58); line-height: 12px; text-decoration: none; font-weight: normal; font-style: normal; fill: rgb(73, 86, 58);" y="161" x="158"><tspan x="158">611</tspan></text><text  text-anchor="middle" style="font-family: verdana; font-size: 10px; color: rgb(73, 86, 58); line-height: 12px; text-decoration: none; font-weight: normal; font-style: normal; fill: rgb(73, 86, 58);" y="171" x="257"><tspan x="257">228</tspan></text><text  text-anchor="middle" style="font-family: verdana; font-size: 10px; color: rgb(73, 86, 58); line-height: 12px; text-decoration: none; font-weight: normal; font-style: normal; fill: rgb(73, 86, 58);" y="170" x="355"><tspan x="355">285</tspan></text><text  text-anchor="middle" style="font-family: verdana; font-size: 10px; color: rgb(73, 86, 58); line-height: 12px; text-decoration: none; font-weight: normal; font-style: normal; fill: rgb(73, 86, 58);" y="172" x="454"><tspan x="454">174</tspan></text></g><g transform="translate(47, 15)"  visibility="" class="highcharts-data-labels"><text  text-anchor="middle" style="font-family: verdana; font-size: 10px; color: rgb(73, 86, 58); line-height: 12px; text-decoration: none; font-weight: normal; font-style: normal; fill: rgb(73, 86, 58);" y="119" x="59"><tspan x="59">2232</tspan></text><text  text-anchor="middle" style="font-family: verdana; font-size: 10px; color: rgb(73, 86, 58); line-height: 12px; text-decoration: none; font-weight: normal; font-style: normal; fill: rgb(73, 86, 58);" y="164" x="158"><tspan x="158">491</tspan></text><text  text-anchor="middle" style="font-family: verdana; font-size: 10px; color: rgb(73, 86, 58); line-height: 12px; text-decoration: none; font-weight: normal; font-style: normal; fill: rgb(73, 86, 58);" y="156" x="257"><tspan x="257">799</tspan></text><text  text-anchor="middle" style="font-family: verdana; font-size: 10px; color: rgb(73, 86, 58); line-height: 12px; text-decoration: none; font-weight: normal; font-style: normal; fill: rgb(73, 86, 58);" y="138" x="355"><tspan x="355">1508</tspan></text><text  text-anchor="middle" style="font-family: verdana; font-size: 10px; color: rgb(73, 86, 58); line-height: 12px; text-decoration: none; font-weight: normal; font-style: normal; fill: rgb(73, 86, 58);" y="170" x="454"><tspan x="454">1120</tspan></text></g><g transform="translate(47, 15)"  visibility="" class="highcharts-data-labels"><text  text-anchor="middle" style="font-family: verdana; font-size: 10px; color: rgb(73, 86, 58); line-height: 12px; text-decoration: none; font-weight: normal; font-style: normal; fill: rgb(73, 86, 58);" y="111" x="59"><tspan x="59">2514</tspan></text><text  text-anchor="middle" style="font-family: verdana; font-size: 10px; color: rgb(73, 86, 58); line-height: 12px; text-decoration: none; font-weight: normal; font-style: normal; fill: rgb(73, 86, 58);" y="176" x="158"><tspan x="158">872</tspan></text><text  text-anchor="middle" style="font-family: verdana; font-size: 10px; color: rgb(73, 86, 58); line-height: 12px; text-decoration: none; font-weight: normal; font-style: normal; fill: rgb(73, 86, 58);" y="176" x="257"><tspan x="257">47</tspan></text><text  text-anchor="middle" style="font-family: verdana; font-size: 10px; color: rgb(73, 86, 58); line-height: 12px; text-decoration: none; font-weight: normal; font-style: normal; fill: rgb(73, 86, 58);" y="164" x="355"><tspan x="355">500</tspan></text><text  text-anchor="middle" style="font-family: verdana; font-size: 10px; color: rgb(73, 86, 58); line-height: 12px; text-decoration: none; font-weight: normal; font-style: normal; fill: rgb(73, 86, 58);" y="153" x="454"><tspan x="454">903</tspan></text></g><g  class="highcharts-axis"></g><g  class="highcharts-axis"></g><g  class="highcharts-axis"></g><g visibility="hidden"  class="highcharts-tooltip"><rect fill-opacity="1" stroke-width="1" height="0" width="0" y="1.5" x="1.5" fill="rgb(255,255,255)" ry="1" rx="1"></rect><text  style="font-family: verdana; font-size: 10px; color: rgb(73, 86, 58); padding: 0pt; white-space: nowrap; line-height: 12px; fill: rgb(73, 86, 58);" y="11" x="1"><tspan x="1"> </tspan></text></g><text  text-anchor="end" style="font-family: 'lucida grande','lucida sans unicode',verdana,arial,helvetica,sans-serif; font-size: 10px; cursor: pointer; color: rgb(144, 144, 144); fill: rgb(144, 144, 144);" y="272" x="558"><tspan x="558">FusionCharts</tspan></text><g transform="translate(47, 15)"  class="highcharts-tracker"><path style=""  visibility="" fill-opacity="0.000001"  fill="rgb(192,192,192)" d="M 24 29 L 24 193 74 193 84 183 84 19 34 19 Z"></path><path style=""  visibility="" fill-opacity="0.000001"  fill="rgb(192,192,192)" d="M 123 141 L 123 193 173 193 183 183 183 131 133 131 Z"></path><path style=""  visibility="" fill-opacity="0.000001"  fill="rgb(192,192,192)" d="M 222 164 L 222 193 272 193 282 183 282 154 232 154 Z"></path><path style=""  visibility="" fill-opacity="0.000001"  fill="rgb(192,192,192)" d="M 320 133 L 320 193 370 193 380 183 380 123 330 123 Z"></path><path style=""  visibility="" fill-opacity="0.000001"  fill="rgb(192,192,192)" d="M 419 135 L 419 193 469 193 479 183 479 125 429 125 Z"></path><path style=""  visibility="" stroke-width="21" stroke="rgb(192,192,192)" stroke-opacity="0.000001"  fill="none" d="M 49.300000000000004 143.78571428571428 L 59.300000000000004 143.78571428571428 L 157.9 167.0267142857143 L 256.5 177.03942857142857 L 355.1 175.5492857142857 L 453.70000000000005 178.45114285714286 L 463.70000000000005 178.45114285714286"></path><path style=""  visibility="" stroke-width="21" stroke="rgb(192,192,192)" stroke-opacity="0.000001"  fill="none" d="M 49.300000000000004 124.64914285714286 L 59.300000000000004 124.64914285714286 L 157.9 170.16385714285715 L 256.5 162.11185714285713 L 355.1 143.57657142857144 L 453.70000000000005 153.72 L 463.70000000000005 153.72"></path><path style=""  visibility="" stroke-width="21" stroke="rgb(192,192,192)" stroke-opacity="0.000001"  fill="none" d="M 49.300000000000004 117.27685714285715 L 59.300000000000004 117.27685714285715 L 157.9 160.20342857142856 L 256.5 181.7712857142857 L 355.1 169.92857142857142 L 453.70000000000005 159.393 L 463.70000000000005 159.393"></path></g><g transform="translate(132, 239)"  class="highcharts-legend"><rect visibility="" transform="translate(1, 1)"  fill-opacity="1" stroke="rgb(0,0,0)" stroke-opacity="0.06" stroke-width="5" height="22" width="335" y="0.5" x="0.5" fill="none" ry="0" rx="0"></rect><rect visibility="" transform="translate(1, 1)"  fill-opacity="1" stroke="rgb(0,0,0)" stroke-opacity="0.12" stroke-width="3" height="22" width="335" y="0.5" x="0.5" fill="none" ry="0" rx="0"></rect><rect visibility="" transform="translate(1, 1)"  fill-opacity="1" stroke="rgb(0,0,0)" stroke-opacity="0.18" stroke-width="1" height="22" width="335" y="0.5" x="0.5" fill="none" ry="0" rx="0"></rect><rect visibility="" fill-opacity="1" stroke="rgb(198,207,184)" stroke-opacity="1" stroke-width="1" height="22" width="335" y="0.5" x="0.5" fill="rgb(240,243,237)" ry="0" rx="0"></rect><text transform="translate(23, 16)"  style="font-family: verdana; font-size: 10px; cursor: pointer; color: rgb(73, 86, 58); line-height: 12px; fill: rgb(73, 86, 58);" y="0" x="0"><tspan x="0">cumulation </tspan></text><text transform="translate(105, 16)"  style="font-family: verdana; font-size: 10px; cursor: pointer; color: rgb(73, 86, 58); line-height: 12px; fill: rgb(73, 86, 58);" y="0" x="0"><tspan x="0">Sum 2010</tspan></text><text transform="translate(187, 16)"  style="font-family: verdana; font-size: 10px; cursor: pointer; color: rgb(73, 86, 58); line-height: 12px; fill: rgb(73, 86, 58);" y="0" x="0"><tspan x="0">Sum 2009</tspan></text><text transform="translate(269, 16)"  style="font-family: verdana; font-size: 10px; cursor: pointer; color: rgb(73, 86, 58); line-height: 12px; fill: rgb(73, 86, 58);" y="0" x="0"><tspan x="0">Sum 2008</tspan></text><path transform="translate(23, 14)" style="cursor: pointer;" stroke="#990099"  stroke-width="0.5" fill="url('#highcharts-61')" d="M -16 2 L -16 -4.3 -13.75 -4.3 -13.75 2 -12.629999999999999 2 -12.629999999999999 -7 -10.379999999999999 -7 -10.379999999999999 2 -9.259999999999998 2 -9.259999999999998 -1.5999999999999996 -7 -1.5999999999999996 -7 2 Z"></path><path transform="translate(105, 14)" style="cursor: pointer;" stroke="#990000"  stroke-width="0.5" fill="url('#highcharts-62')" d="M -16 0.20000000000000018 L -16 -1.6000000000000005 -13.3 -5.2 -10.600000000000001 -1.6000000000000005 -7 -5.2 -7 0.20000000000000018 Z"></path><path transform="translate(187, 14)" style="cursor: pointer;" stroke="#009900"  stroke-width="0.5" fill="url('#highcharts-63')" d="M -16 0.20000000000000018 L -16 -1.6000000000000005 -13.3 -5.2 -10.600000000000001 -1.6000000000000005 -7 -5.2 -7 0.20000000000000018 Z"></path><path transform="translate(269, 14)" style="cursor: pointer;" stroke="#000099"  stroke-width="0.5" fill="url('#highcharts-64')" d="M -16 0.20000000000000018 L -16 -1.6000000000000005 -13.3 -5.2 -10.600000000000001 -1.6000000000000005 -7 -5.2 -7 0.20000000000000018 Z"></path></g></svg>