<svg xmlns:xlink="http://www.w3.org/1999/xlink" height="277" width="568" version="1.1" xmlns="http://www.w3.org/2000/svg"><defs><linearGradient y2="0%" x2="50%" y1="100%" x1="50%" gradientUnits="objectBoundingBox" id="highcharts-33"><stop stop-opacity="1" stop-color="#ff00ff" offset="0%"></stop><stop stop-opacity="1" stop-color="#ff00ff" offset="30%"></stop><stop stop-opacity="1" stop-color="#ff99ff" offset="60%"></stop><stop stop-opacity="1" stop-color="#ff00ff" offset="90%"></stop><stop stop-opacity="1" stop-color="#ff00ff" offset="100%"></stop></linearGradient><linearGradient y2="0%" x2="50%" y1="100%" x1="50%" gradientUnits="objectBoundingBox" id="highcharts-34"><stop stop-opacity="1" stop-color="#00FF00" offset="0%"></stop><stop stop-opacity="1" stop-color="#00FF00" offset="30%"></stop><stop stop-opacity="1" stop-color="#99ff99" offset="60%"></stop><stop stop-opacity="1" stop-color="#00FF00" offset="90%"></stop><stop stop-opacity="1" stop-color="#00FF00" offset="100%"></stop></linearGradient><linearGradient y2="0%" x2="50%" y1="100%" x1="50%" gradientUnits="objectBoundingBox" id="highcharts-35"><stop stop-opacity="1" stop-color="#0000FF" offset="0%"></stop><stop stop-opacity="1" stop-color="#0000FF" offset="30%"></stop><stop stop-opacity="1" stop-color="#9999ff" offset="60%"></stop><stop stop-opacity="1" stop-color="#0000FF" offset="90%"></stop><stop stop-opacity="1" stop-color="#0000FF" offset="100%"></stop></linearGradient><clipPath id="highcharts-36"><rect stroke-width="0" height="275" width="566" y="1" x="1" fill="none" ry="0" rx="0"></rect></clipPath><clipPath id="highcharts-37"><rect stroke-width="0" height="277" width="568" y="-15" x="-47" fill="none" ry="0" rx="0"></rect></clipPath><linearGradient y2="100%" x2="50%" y1="0%" x1="50%" gradientUnits="objectBoundingBox" id="highcharts-38"><stop stop-opacity="1" stop-color="#ff00ff" offset="0%"></stop><stop stop-opacity="1" stop-color="#FFFFFF" offset="100%"></stop></linearGradient><linearGradient y2="100%" x2="50%" y1="0%" x1="50%" gradientUnits="objectBoundingBox" id="highcharts-39"><stop stop-opacity="1" stop-color="#ff00ff" offset="0%"></stop><stop stop-opacity="1" stop-color="#FFFFFF" offset="100%"></stop></linearGradient><linearGradient y2="100%" x2="50%" y1="0%" x1="50%" gradientUnits="objectBoundingBox" id="highcharts-40"><stop stop-opacity="1" stop-color="#ff00ff" offset="0%"></stop><stop stop-opacity="1" stop-color="#FFFFFF" offset="100%"></stop></linearGradient><linearGradient y2="100%" x2="50%" y1="0%" x1="50%" gradientUnits="objectBoundingBox" id="highcharts-41"><stop stop-opacity="1" stop-color="#ff00ff" offset="0%"></stop><stop stop-opacity="1" stop-color="#FFFFFF" offset="100%"></stop></linearGradient><linearGradient y2="100%" x2="50%" y1="0%" x1="50%" gradientUnits="objectBoundingBox" id="highcharts-42"><stop stop-opacity="1" stop-color="#ff00ff" offset="0%"></stop><stop stop-opacity="1" stop-color="#FFFFFF" offset="100%"></stop></linearGradient><linearGradient y2="0%" x2="50%" y1="100%" x1="50%" gradientUnits="objectBoundingBox" id="highcharts-43"><stop stop-opacity="0.7" stop-color="#FF0000" offset="0%"></stop><stop stop-opacity="0.7" stop-color="#FFFFFF" offset="100%"></stop></linearGradient><linearGradient y2="0%" x2="50%" y1="100%" x1="50%" gradientUnits="objectBoundingBox" id="highcharts-44"><stop stop-opacity="0.7" stop-color="#00FF00" offset="0%"></stop><stop stop-opacity="0.7" stop-color="#FFFFFF" offset="100%"></stop></linearGradient><linearGradient y2="0%" x2="50%" y1="100%" x1="50%" gradientUnits="objectBoundingBox" id="highcharts-45"><stop stop-opacity="0.7" stop-color="#0000FF" offset="0%"></stop><stop stop-opacity="0.7" stop-color="#FFFFFF" offset="100%"></stop></linearGradient></defs><rect fill-opacity="0" stroke="rgb(255,255,255)" stroke-opacity="0.5" stroke-width="1" height="276" width="567" y="0.5" x="0.5" fill="#FFFFFF" ry="0" rx="0"></rect><rect fill-opacity="1" stroke-width="0" height="203" width="477" y="15" x="47" fill="#FFFFFF" ry="0" rx="0"></rect><path fill-opacity="0" fill="rgb(0,0,0)" d="M 95 15 L 95 218 190 218 190 15"></path><path fill-opacity="0" fill="rgb(0,0,0)" d="M 286 15 L 286 218 381 218 381 15"></path><path fill-opacity="0" fill="rgb(0,0,0)" d="M 476 15 L 476 218 524 218 524 15"></path><path stroke-width="0.1" stroke="rgb(0,0,0)" stroke-opacity="0" fill="none" d="M 95.05 15 L 95.05 218"></path><text visibility="" text-anchor="middle" style="font-family: verdana; font-size: 10px; line-height: 12px; color: rgb(85, 85, 85); fill: rgb(85, 85, 85);" y="232" x="95"><tspan x="95">Australia</tspan></text><path stroke-width="0.1" stroke="rgb(0,0,0)" stroke-opacity="0" fill="none" d="M 190.05 15 L 190.05 218"></path><text visibility="" text-anchor="middle" style="font-family: verdana; font-size: 10px; line-height: 12px; color: rgb(85, 85, 85); fill: rgb(85, 85, 85);" y="232" x="190"><tspan x="190">Austria</tspan></text><path stroke-width="0.1" stroke="rgb(0,0,0)" stroke-opacity="0" fill="none" d="M 286.05 15 L 286.05 218"></path><text visibility="" text-anchor="middle" style="font-family: verdana; font-size: 10px; line-height: 12px; color: rgb(85, 85, 85); fill: rgb(85, 85, 85);" y="232" x="286"><tspan x="286">Belgium</tspan></text><path stroke-width="0.1" stroke="rgb(0,0,0)" stroke-opacity="0" fill="none" d="M 381.05 15 L 381.05 218"></path><text visibility="" text-anchor="middle" style="font-family: verdana; font-size: 10px; line-height: 12px; color: rgb(85, 85, 85); fill: rgb(85, 85, 85);" y="232" x="381"><tspan x="381">Canada</tspan></text><path stroke-width="0.1" stroke="rgb(0,0,0)" stroke-opacity="0" fill="none" d="M 476.05 15 L 476.05 218"></path><text visibility="" text-anchor="middle" style="font-family: verdana; font-size: 10px; line-height: 12px; color: rgb(85, 85, 85); fill: rgb(85, 85, 85);" y="232" x="476"><tspan x="476">Denmark</tspan></text><path fill-opacity="0" fill="rgb(0,0,0)" d="M 47 218 L 524 218 524 177 47 177"></path><path fill-opacity="0" fill="rgb(0,0,0)" d="M 47 137 L 524 137 524 96 47 96"></path><path fill-opacity="0" fill="rgb(0,0,0)" d="M 47 56 L 524 56 524 15 47 15"></path><path fill-opacity="0" fill="rgb(0,0,0)" d="M 47 218 L 524 218 524 177 47 177"></path><path fill-opacity="0" fill="rgb(0,0,0)" d="M 47 137 L 524 137 524 96 47 96"></path><path fill-opacity="0" fill="rgb(0,0,0)" d="M 47 56 L 524 56 524 15 47 15"></path><g  class="highcharts-grid"></g><g  class="highcharts-grid"></g><g  class="highcharts-grid"></g><path  stroke-width="0.1" stroke="rgb(0,0,0)" stroke-opacity="0" fill="none" d="M 47 218.05 L 524 218.05"></path><text visibility=""  text-anchor="end" style="font-family: verdana; font-size: 10px; line-height: 12px; color: rgb(85, 85, 85); fill: rgb(85, 85, 85);" y="222" x="43"><tspan x="43">0</tspan></text><path  fill-opacity="0.5" fill="rgb(238,238,238)" d="M 47 177 L 524 177 524 137 47 137"></path><path  fill-opacity="0.5" fill="rgb(238,238,238)" d="M 47 96 L 524 96 524 56 47 56"></path><path  stroke-width="0.1" stroke="rgb(0,0,0)" stroke-opacity="0" fill="none" d="M 47 218.05 L 524 218.05"></path><text visibility=""  text-anchor="start" style="font-family: verdana; font-size: 10px; line-height: 12px; color: rgb(85, 85, 85); fill: rgb(85, 85, 85);" y="222" x="528"><tspan x="528">0</tspan></text><rect  stroke-linejoin="round" stroke="rgb(84,84,84)" stroke-opacity="1" stroke-width="2" height="205" width="479" y="14" x="46" fill="none" ry="0" rx="0"></rect><path  stroke-width="1" stroke="rgb(113,113,112)" stroke-opacity="0.4" fill="none" d="M 47 177.5 L 524 177.5"></path><text visibility=""  text-anchor="end" style="font-family: verdana; font-size: 10px; line-height: 12px; color: rgb(85, 85, 85); fill: rgb(85, 85, 85);" y="181" x="43"><tspan x="43">600</tspan></text><path  stroke-width="1" stroke="rgb(113,113,112)" stroke-opacity="0.4" fill="none" d="M 47 137.5 L 524 137.5"></path><text visibility=""  text-anchor="end" style="font-family: verdana; font-size: 10px; line-height: 12px; color: rgb(85, 85, 85); fill: rgb(85, 85, 85);" y="141" x="43"><tspan x="43">1200</tspan></text><path  stroke-width="1" stroke="rgb(113,113,112)" stroke-opacity="0.4" fill="none" d="M 47 96.5 L 524 96.5"></path><text visibility=""  text-anchor="end" style="font-family: verdana; font-size: 10px; line-height: 12px; color: rgb(85, 85, 85); fill: rgb(85, 85, 85);" y="100" x="43"><tspan x="43">1800</tspan></text><path  stroke-width="1" stroke="rgb(113,113,112)" stroke-opacity="0.4" fill="none" d="M 47 56.5 L 524 56.5"></path><text visibility=""  text-anchor="end" style="font-family: verdana; font-size: 10px; line-height: 12px; color: rgb(85, 85, 85); fill: rgb(85, 85, 85);" y="60" x="43"><tspan x="43">2400</tspan></text><path  stroke-width="0.1" stroke="rgb(0,0,0)" stroke-opacity="0" fill="none" d="M 47 15.05 L 524 15.05"></path><text visibility=""  text-anchor="end" style="font-family: verdana; font-size: 10px; line-height: 12px; color: rgb(85, 85, 85); fill: rgb(85, 85, 85);" y="19" x="43"><tspan x="43">3000</tspan></text><path  stroke-width="0.1" stroke="rgb(0,0,0)" stroke-opacity="0" fill="none" d="M 47 177.05 L 524 177.05"></path><text visibility=""  text-anchor="start" style="font-family: verdana; font-size: 10px; line-height: 12px; color: rgb(85, 85, 85); fill: rgb(85, 85, 85);" y="181" x="528"><tspan x="528">1.4K</tspan></text><path  stroke-width="0.1" stroke="rgb(0,0,0)" stroke-opacity="0" fill="none" d="M 47 137.05 L 524 137.05"></path><text visibility=""  text-anchor="start" style="font-family: verdana; font-size: 10px; line-height: 12px; color: rgb(85, 85, 85); fill: rgb(85, 85, 85);" y="141" x="528"><tspan x="528">2.8K</tspan></text><path  stroke-width="0.1" stroke="rgb(0,0,0)" stroke-opacity="0" fill="none" d="M 47 96.05 L 524 96.05"></path><text visibility=""  text-anchor="start" style="font-family: verdana; font-size: 10px; line-height: 12px; color: rgb(85, 85, 85); fill: rgb(85, 85, 85);" y="100" x="528"><tspan x="528">4.2K</tspan></text><path  stroke-width="0.1" stroke="rgb(0,0,0)" stroke-opacity="0" fill="none" d="M 47 56.05 L 524 56.05"></path><text visibility=""  text-anchor="start" style="font-family: verdana; font-size: 10px; line-height: 12px; color: rgb(85, 85, 85); fill: rgb(85, 85, 85);" y="60" x="528"><tspan x="528">5.6K</tspan></text><path  stroke-width="0.1" stroke="rgb(0,0,0)" stroke-opacity="0" fill="none" d="M 47 15.05 L 524 15.05"></path><text visibility=""  text-anchor="start" style="font-family: verdana; font-size: 10px; line-height: 12px; color: rgb(85, 85, 85); fill: rgb(85, 85, 85);" y="19" x="528"><tspan x="528">7K</tspan></text><g  class="highcharts-series-group"><g transform="translate(47, 15)" visibility="" clip-path="url('#highcharts-37')" class="highcharts-series"><rect r="0" stroke="#333333" stroke-opacity="1" stroke-width="1" height="181" width="49" y="21.5" x="23.5" fill="url('#highcharts-38')" ry="0" rx="0"></rect><rect r="0" stroke="#333333" stroke-opacity="1" stroke-width="1" height="57" width="49" y="145.5" x="118.5" fill="url('#highcharts-39')" ry="0" rx="0"></rect><rect r="0" stroke="#333333" stroke-opacity="1" stroke-width="1" height="31" width="49" y="171.5" x="214.5" fill="url('#highcharts-40')" ry="0" rx="0"></rect><rect r="0" stroke="#333333" stroke-opacity="1" stroke-width="1" height="66" width="49" y="136.5" x="309.5" fill="url('#highcharts-41')" ry="0" rx="0"></rect><rect r="0" stroke="#333333" stroke-opacity="1" stroke-width="1" height="63" width="49" y="139.5" x="404.5" fill="url('#highcharts-42')" ry="0" rx="0"></rect></g><g transform="translate(47, 15)" visibility="hidden" clip-path="url('#highcharts-37')" class="highcharts-series"><path fill="url('#highcharts-43')" d="M 47.7 101.5 L 143.10000000000002 161.65566666666666 L 238.5 187.572 L 333.90000000000003 183.715 L 429.3 191.226 L 429.3 203 L 47.7 203"></path><path stroke-linecap="round" stroke-width="1" stroke="#767575" stroke-opacity="0.95" fill="none" d="M 47.7 101.5 L 143.10000000000002 161.65566666666666 L 238.5 187.572 L 333.90000000000003 183.715 L 429.3 191.226"></path><circle fill="#FFFFFF" fill-opacity="0" stroke-width="1" stroke="#FF0000" stroke-opacity="0" r="3" cy="191.226" cx="429.3"></circle><circle fill="#FFFFFF" fill-opacity="0" stroke-width="1" stroke="#FF0000" stroke-opacity="0" r="3" cy="183.715" cx="333.90000000000003"></circle><circle fill="#FFFFFF" fill-opacity="0" stroke-width="1" stroke="#FF0000" stroke-opacity="0" r="3" cy="187.572" cx="238.5"></circle><circle fill="#FFFFFF" fill-opacity="0" stroke-width="1" stroke="#FF0000" stroke-opacity="0" r="3" cy="161.65566666666666" cx="143.10000000000002"></circle><circle fill="#FFFFFF" fill-opacity="0" stroke-width="1" stroke="#FF0000" stroke-opacity="0" r="3" cy="101.5" cx="47.7"></circle></g><g transform="translate(47, 15)" visibility="" clip-path="url('#highcharts-37')" class="highcharts-series"><path fill="url('#highcharts-44')" d="M 47.7 51.96799999999999 L 143.10000000000002 169.77566666666667 L 238.5 148.93433333333334 L 333.90000000000003 100.95866666666667 L 429.3 127.21333333333334 L 429.3 203 L 47.7 203"></path><path stroke-linecap="round" stroke-width="1" stroke="#767575" stroke-opacity="0.95" fill="none" d="M 47.7 51.96799999999999 L 143.10000000000002 169.77566666666667 L 238.5 148.93433333333334 L 333.90000000000003 100.95866666666667 L 429.3 127.21333333333334"></path><circle fill="#FFFFFF" fill-opacity="0" stroke-width="1" stroke="#00FF00" stroke-opacity="0" r="3" cy="127.21333333333334" cx="429.3"></circle><circle fill="#FFFFFF" fill-opacity="0" stroke-width="1" stroke="#00FF00" stroke-opacity="0" r="3" cy="100.95866666666667" cx="333.90000000000003"></circle><circle fill="#FFFFFF" fill-opacity="0" stroke-width="1" stroke="#00FF00" stroke-opacity="0" r="3" cy="148.93433333333334" cx="238.5"></circle><circle fill="#FFFFFF" fill-opacity="0" stroke-width="1" stroke="#00FF00" stroke-opacity="0" r="3" cy="169.77566666666667" cx="143.10000000000002"></circle><circle fill="#FFFFFF" fill-opacity="0" stroke-width="1" stroke="#00FF00" stroke-opacity="0" r="3" cy="51.96799999999999" cx="47.7"></circle></g><g transform="translate(47, 15)" visibility="" clip-path="url('#highcharts-37')" class="highcharts-series"><path fill="url('#highcharts-45')" d="M 47.7 32.885999999999996 L 143.10000000000002 143.99466666666666 L 238.5 199.81966666666668 L 333.90000000000003 169.16666666666666 L 429.3 141.897 L 429.3 203 L 47.7 203"></path><path stroke-linecap="round" stroke-width="1" stroke="#767575" stroke-opacity="0.95" fill="none" d="M 47.7 32.885999999999996 L 143.10000000000002 143.99466666666666 L 238.5 199.81966666666668 L 333.90000000000003 169.16666666666666 L 429.3 141.897"></path><circle fill="#FFFFFF" fill-opacity="0" stroke-width="1" stroke="#0000FF" stroke-opacity="0" r="3" cy="141.897" cx="429.3"></circle><circle fill="#FFFFFF" fill-opacity="0" stroke-width="1" stroke="#0000FF" stroke-opacity="0" r="3" cy="169.16666666666666" cx="333.90000000000003"></circle><circle fill="#FFFFFF" fill-opacity="0" stroke-width="1" stroke="#0000FF" stroke-opacity="0" r="3" cy="199.81966666666668" cx="238.5"></circle><circle fill="#FFFFFF" fill-opacity="0" stroke-width="1" stroke="#0000FF" stroke-opacity="0" r="3" cy="143.99466666666666" cx="143.10000000000002"></circle><circle fill="#FFFFFF" fill-opacity="0" stroke-width="1" stroke="#0000FF" stroke-opacity="0" r="3" cy="32.885999999999996" cx="47.7"></circle></g></g><g transform="translate(47, 15)"  visibility="" class="highcharts-data-labels"><text  text-anchor="middle" style="font-family: verdana; font-size: 10px; color: rgb(85, 85, 85); line-height: 12px; text-decoration: none; font-weight: normal; font-style: normal; fill: rgb(85, 85, 85);" y="16" x="48"><tspan x="48">6.25K</tspan></text><text  text-anchor="middle" style="font-family: verdana; font-size: 10px; color: rgb(85, 85, 85); line-height: 12px; text-decoration: none; font-weight: normal; font-style: normal; fill: rgb(85, 85, 85);" y="140" x="143"><tspan x="143">1.97K</tspan></text><text  text-anchor="middle" style="font-family: verdana; font-size: 10px; color: rgb(85, 85, 85); line-height: 12px; text-decoration: none; font-weight: normal; font-style: normal; fill: rgb(85, 85, 85);" y="166" x="239"><tspan x="239">1.07K</tspan></text><text  text-anchor="middle" style="font-family: verdana; font-size: 10px; color: rgb(85, 85, 85); line-height: 12px; text-decoration: none; font-weight: normal; font-style: normal; fill: rgb(85, 85, 85);" y="131" x="334"><tspan x="334">2.29K</tspan></text><text  text-anchor="middle" style="font-family: verdana; font-size: 10px; color: rgb(85, 85, 85); line-height: 12px; text-decoration: none; font-weight: normal; font-style: normal; fill: rgb(85, 85, 85);" y="133" x="429"><tspan x="429">2.2K</tspan></text></g><g transform="translate(47, 15)"  visibility="hidden" class="highcharts-data-labels"><text  text-anchor="middle" style="font-family: verdana; font-size: 10px; color: rgb(85, 85, 85); line-height: 12px; text-decoration: none; font-weight: normal; font-style: normal; fill: rgb(85, 85, 85);" y="96" x="48"><tspan x="48">1500</tspan></text><text  text-anchor="middle" style="font-family: verdana; font-size: 10px; color: rgb(85, 85, 85); line-height: 12px; text-decoration: none; font-weight: normal; font-style: normal; fill: rgb(85, 85, 85);" y="178" x="143"><tspan x="143">611</tspan></text><text  text-anchor="middle" style="font-family: verdana; font-size: 10px; color: rgb(85, 85, 85); line-height: 12px; text-decoration: none; font-weight: normal; font-style: normal; fill: rgb(85, 85, 85);" y="182" x="239"><tspan x="239">228</tspan></text><text  text-anchor="middle" style="font-family: verdana; font-size: 10px; color: rgb(85, 85, 85); line-height: 12px; text-decoration: none; font-weight: normal; font-style: normal; fill: rgb(85, 85, 85);" y="178" x="334"><tspan x="334">285</tspan></text><text  text-anchor="middle" style="font-family: verdana; font-size: 10px; color: rgb(85, 85, 85); line-height: 12px; text-decoration: none; font-weight: normal; font-style: normal; fill: rgb(85, 85, 85);" y="185" x="429"><tspan x="429">174</tspan></text></g><g transform="translate(47, 15)"  visibility="" class="highcharts-data-labels"><text  text-anchor="middle" style="font-family: verdana; font-size: 10px; color: rgb(85, 85, 85); line-height: 12px; text-decoration: none; font-weight: normal; font-style: normal; fill: rgb(85, 85, 85);" y="46" x="48"><tspan x="48">2232</tspan></text><text  text-anchor="middle" style="font-family: verdana; font-size: 10px; color: rgb(85, 85, 85); line-height: 12px; text-decoration: none; font-weight: normal; font-style: normal; fill: rgb(85, 85, 85);" y="186" x="143"><tspan x="143">491</tspan></text><text  text-anchor="middle" style="font-family: verdana; font-size: 10px; color: rgb(85, 85, 85); line-height: 12px; text-decoration: none; font-weight: normal; font-style: normal; fill: rgb(85, 85, 85);" y="143" x="239"><tspan x="239">799</tspan></text><text  text-anchor="middle" style="font-family: verdana; font-size: 10px; color: rgb(85, 85, 85); line-height: 12px; text-decoration: none; font-weight: normal; font-style: normal; fill: rgb(85, 85, 85);" y="95" x="334"><tspan x="334">1508</tspan></text><text  text-anchor="middle" style="font-family: verdana; font-size: 10px; color: rgb(85, 85, 85); line-height: 12px; text-decoration: none; font-weight: normal; font-style: normal; fill: rgb(85, 85, 85);" y="143" x="429"><tspan x="429">1120</tspan></text></g><g transform="translate(47, 15)"  visibility="" class="highcharts-data-labels"><text  text-anchor="middle" style="font-family: verdana; font-size: 10px; color: rgb(85, 85, 85); line-height: 12px; text-decoration: none; font-weight: normal; font-style: normal; fill: rgb(85, 85, 85);" y="27" x="48"><tspan x="48">2514</tspan></text><text  text-anchor="middle" style="font-family: verdana; font-size: 10px; color: rgb(85, 85, 85); line-height: 12px; text-decoration: none; font-weight: normal; font-style: normal; fill: rgb(85, 85, 85);" y="160" x="143"><tspan x="143">872</tspan></text><text  text-anchor="middle" style="font-family: verdana; font-size: 10px; color: rgb(85, 85, 85); line-height: 12px; text-decoration: none; font-weight: normal; font-style: normal; fill: rgb(85, 85, 85);" y="194" x="239"><tspan x="239">47</tspan></text><text  text-anchor="middle" style="font-family: verdana; font-size: 10px; color: rgb(85, 85, 85); line-height: 12px; text-decoration: none; font-weight: normal; font-style: normal; fill: rgb(85, 85, 85);" y="163" x="334"><tspan x="334">500</tspan></text><text  text-anchor="middle" style="font-family: verdana; font-size: 10px; color: rgb(85, 85, 85); line-height: 12px; text-decoration: none; font-weight: normal; font-style: normal; fill: rgb(85, 85, 85);" y="136" x="429"><tspan x="429">903</tspan></text></g><g  class="highcharts-axis"></g><g  class="highcharts-axis"></g><g  class="highcharts-axis"></g><g visibility="hidden"  class="highcharts-tooltip"><rect fill-opacity="1" stroke-width="1" height="0" width="0" y="1.5" x="1.5" fill="rgb(255,255,255)" ry="1" rx="1"></rect><text  style="font-family: verdana; font-size: 10px; color: rgb(85, 85, 85); padding: 0pt; white-space: nowrap; line-height: 12px; fill: rgb(85, 85, 85);" y="11" x="1"><tspan x="1"> </tspan></text></g><text  text-anchor="end" style="font-family: 'lucida grande','lucida sans unicode',verdana,arial,helvetica,sans-serif; font-size: 10px; cursor: pointer; color: rgb(144, 144, 144); fill: rgb(144, 144, 144);" y="272" x="558"><tspan x="558">FusionCharts</tspan></text><g transform="translate(47, 15)"  class="highcharts-tracker"><rect style=""  visibility="" fill-opacity="0.000001"  stroke-width="0" height="182" width="50" y="21" x="23" fill="rgb(192,192,192)" ry="0" rx="0"></rect><rect style=""  visibility="" fill-opacity="0.000001"  stroke-width="0" height="58" width="50" y="145" x="118" fill="rgb(192,192,192)" ry="0" rx="0"></rect><rect style=""  visibility="" fill-opacity="0.000001"  stroke-width="0" height="32" width="50" y="171" x="214" fill="rgb(192,192,192)" ry="0" rx="0"></rect><rect style=""  visibility="" fill-opacity="0.000001"  stroke-width="0" height="67" width="50" y="136" x="309" fill="rgb(192,192,192)" ry="0" rx="0"></rect><rect style=""  visibility="" fill-opacity="0.000001"  stroke-width="0" height="64" width="50" y="139" x="404" fill="rgb(192,192,192)" ry="0" rx="0"></rect><path style=""  visibility="hidden" stroke-width="21" stroke="rgb(192,192,192)" stroke-opacity="0.000001"  fill="none" d="M 37.7 101.5 L 47.7 101.5 L 143.10000000000002 161.65566666666666 L 238.5 187.572 L 333.90000000000003 183.715 L 429.3 191.226 L 439.3 191.226"></path><path style=""  visibility="" stroke-width="21" stroke="rgb(192,192,192)" stroke-opacity="0.000001"  fill="none" d="M 37.7 51.96799999999999 L 47.7 51.96799999999999 L 143.10000000000002 169.77566666666667 L 238.5 148.93433333333334 L 333.90000000000003 100.95866666666667 L 429.3 127.21333333333334 L 439.3 127.21333333333334"></path><path style=""  visibility="" stroke-width="21" stroke="rgb(192,192,192)" stroke-opacity="0.000001"  fill="none" d="M 37.7 32.885999999999996 L 47.7 32.885999999999996 L 143.10000000000002 143.99466666666666 L 238.5 199.81966666666668 L 333.90000000000003 169.16666666666666 L 429.3 141.897 L 439.3 141.897"></path></g><g transform="translate(118, 239)"  class="highcharts-legend"><rect visibility="" transform="translate(1, 1)"  fill-opacity="1" stroke="rgb(0,0,0)" stroke-opacity="0.06" stroke-width="5" height="22" width="335" y="0.5" x="0.5" fill="none" ry="0" rx="0"></rect><rect visibility="" transform="translate(1, 1)"  fill-opacity="1" stroke="rgb(0,0,0)" stroke-opacity="0.12" stroke-width="3" height="22" width="335" y="0.5" x="0.5" fill="none" ry="0" rx="0"></rect><rect visibility="" transform="translate(1, 1)"  fill-opacity="1" stroke="rgb(0,0,0)" stroke-opacity="0.18" stroke-width="1" height="22" width="335" y="0.5" x="0.5" fill="none" ry="0" rx="0"></rect><rect visibility="" fill-opacity="1" stroke="rgb(84,84,84)" stroke-opacity="1" stroke-width="1" height="22" width="335" y="0.5" x="0.5" fill="rgb(255,255,255)" ry="0" rx="0"></rect><text transform="translate(23, 16)"  style="font-family: verdana; font-size: 10px; cursor: pointer; color: rgb(85, 85, 85); line-height: 12px; fill: rgb(85, 85, 85);" y="0" x="0"><tspan x="0">cumulation </tspan></text><text transform="translate(105, 14)"  style="font-family: 'lucida grande','lucida sans unicode',verdana,arial,helvetica,sans-serif; font-size: 12px; color: rgb(192, 192, 192); fill: rgb(192, 192, 192);" y="0" x="0"><tspan x="0">Sum 2010</tspan></text><text transform="translate(187, 16)"  style="font-family: verdana; font-size: 10px; cursor: pointer; color: rgb(85, 85, 85); line-height: 12px; fill: rgb(85, 85, 85);" y="0" x="0"><tspan x="0">Sum 2009</tspan></text><text transform="translate(269, 16)"  style="font-family: verdana; font-size: 10px; cursor: pointer; color: rgb(85, 85, 85); line-height: 12px; fill: rgb(85, 85, 85);" y="0" x="0"><tspan x="0">Sum 2008</tspan></text><path transform="translate(23, 14)" style="cursor: pointer;" stroke="#990099"  stroke-width="0.5" fill="url('#highcharts-33')" d="M -16 2 L -16 -4.3 -13.75 -4.3 -13.75 2 -12.629999999999999 2 -12.629999999999999 -7 -10.379999999999999 -7 -10.379999999999999 2 -9.259999999999998 2 -9.259999999999998 -1.5999999999999996 -7 -1.5999999999999996 -7 2 Z"></path><path transform="translate(105, 14)" style="cursor: pointer;" stroke="#C0C0C0"  stroke-width="0.5" fill="#C0C0C0" d="M -16 0.20000000000000018 L -16 -1.6000000000000005 -13.3 -5.2 -10.600000000000001 -1.6000000000000005 -7 -5.2 -7 0.20000000000000018 Z"></path><path transform="translate(187, 14)" style="cursor: pointer;" stroke="#009900"  stroke-width="0.5" fill="url('#highcharts-34')" d="M -16 0.20000000000000018 L -16 -1.6000000000000005 -13.3 -5.2 -10.600000000000001 -1.6000000000000005 -7 -5.2 -7 0.20000000000000018 Z"></path><path transform="translate(269, 14)" style="cursor: pointer;" stroke="#000099"  stroke-width="0.5" fill="url('#highcharts-35')" d="M -16 0.20000000000000018 L -16 -1.6000000000000005 -13.3 -5.2 -10.600000000000001 -1.6000000000000005 -7 -5.2 -7 0.20000000000000018 Z"></path></g></svg>