<svg xmlns:xlink="http://www.w3.org/1999/xlink" height="339" width="542" version="1.1" xmlns="http://www.w3.org/2000/svg"><defs><clipPath id="highcharts-587"><rect stroke-width="0" height="337" width="540" y="1" x="1" fill="none" ry="0" rx="0"></rect></clipPath><linearGradient y2="50%" x2="100%" y1="50%" x1="0%" gradientUnits="objectBoundingBox" id="highcharts-588"><stop stop-opacity="1" stop-color="#000099" offset="0%"></stop><stop stop-opacity="1" stop-color="#6666ff" offset="60%"></stop><stop stop-opacity="1" stop-color="#0000FF" offset="100%"></stop></linearGradient><linearGradient y2="50%" x2="100%" y1="50%" x1="0%" gradientUnits="objectBoundingBox" id="highcharts-589"><stop stop-opacity="1" stop-color="#0000FF" offset="0%"></stop><stop stop-opacity="1" stop-color="#6666ff" offset="40%"></stop><stop stop-opacity="1" stop-color="#000099" offset="100%"></stop></linearGradient><linearGradient y2="50%" x2="100%" y1="50%" x1="0%" gradientUnits="objectBoundingBox" id="highcharts-590"><stop stop-opacity="1" stop-color="#990000" offset="0%"></stop><stop stop-opacity="1" stop-color="#ff6666" offset="60%"></stop><stop stop-opacity="1" stop-color="#FF0000" offset="100%"></stop></linearGradient><linearGradient y2="50%" x2="100%" y1="50%" x1="0%" gradientUnits="objectBoundingBox" id="highcharts-591"><stop stop-opacity="1" stop-color="#FF0000" offset="0%"></stop><stop stop-opacity="1" stop-color="#ff6666" offset="40%"></stop><stop stop-opacity="1" stop-color="#990000" offset="100%"></stop></linearGradient></defs><rect fill-opacity="0" stroke="rgb(255,255,255)" stroke-opacity="0.5" stroke-width="1" height="338" width="541" y="0.5" x="0.5" fill="#FFFFFF" ry="0" rx="0"></rect><rect fill-opacity="0" stroke-width="0" height="213" width="419" y="80" x="15" fill="rgb(0,0,0)" ry="0" rx="0"></rect><g  class="highcharts-series-group"><g transform="translate(15,80)" visibility="" class="highcharts-series"><g class="highcharts-point"><path fill-opacity="0.000001" fill="rgb(192,192,192)" d="M 30.180000000000007 95.69 A 179.88779550892502 35.977559101785005 0 1 1 388.82 95.69 L 341.11 215.1 A 132.02464393155054 26.40492878631011 0 0 1 77.88999999999999 215.1 Z"></path><path stroke-width="0" fill="url('#highcharts-588')" d="M 30.180000000000007 95.69 A 179.88779550892502 35.977559101785005 0 1 1 388.82 95.69 L 341.11 215.1 A 132.02464393155054 26.40492878631011 0 1 0 77.88999999999999 215.1 Z"></path><path stroke-width="0" fill="url('#highcharts-589')" d="M 30.180000000000007 95.69 A 179.88779550892502 35.977559101785005 0 0 0 388.82 95.69 L 341.11 215.1 A 132.02464393155054 26.40492878631011 0 0 1 77.88999999999999 215.1 Z"></path><path stroke="rgb(85,85,85)" stroke-opacity="1" stroke-width="1" fill="none" d="M 341.52464393155054 213 L 394.52464393155054 213"></path><text text-anchor="start" style="font-family:verdana;font-size:10px;color:#555555;line-height:14px;text-decoration:none;font-weight:normal;font-style:normal;fill:#555555;" y="216" x="398"><tspan x="398">2010, 1.98M</tspan></text></g><g class="highcharts-point"><path fill-opacity="0.000001" fill="rgb(192,192,192)" d="M 0.4300000000000068 2.67 A 209.5 41.900000000000006 0 1 1 418.57 2.67 L 389.02 95.12 A 179.88779550892502 35.977559101785005 0 0 1 29.97999999999999 95.12 Z"></path><path stroke-width="0" fill="url('#highcharts-590')" d="M 0.4300000000000068 2.67 A 209.5 41.900000000000006 0 1 1 418.57 2.67 L 389.02 95.12 A 179.88779550892502 35.977559101785005 0 1 0 29.97999999999999 95.12 Z"></path><path stroke-width="0" fill="url('#highcharts-591')" d="M 0.4300000000000068 2.67 A 209.5 41.900000000000006 0 0 0 418.57 2.67 L 389.02 95.12 A 179.88779550892502 35.977559101785005 0 0 1 29.97999999999999 95.12 Z"></path><path stroke="rgb(85,85,85)" stroke-opacity="1" stroke-width="1" fill="none" d="M 389.387795508925 92.82117260538534 L 442.387795508925 92.82117260538534"></path><text text-anchor="start" style="font-family:verdana;font-size:10px;color:#555555;line-height:14px;text-decoration:none;font-weight:normal;font-style:normal;fill:#555555;" y="96" x="445"><tspan x="445">2008, 3.68M</tspan></text><text text-anchor="middle" style="font-family:verdana;font-size:10px;color:#555555;line-height:14px;text-decoration:none;font-weight:normal;font-style:normal;fill:#555555;" y="-48" x="210"><tspan x="210">2009, 4.99M</tspan></text></g></g></g><g transform="translate(15,80)"  visibility="" class="highcharts-data-labels"></g><g visibility="hidden"  class="highcharts-tooltip"><rect fill-opacity="1" stroke-width="1" height="0" width="0" y="1.5" x="1.5" fill="rgb(255,255,255)" ry="1" rx="1"></rect><text  style="font-family:verdana;font-size:10px;color:#555555;padding:0;white-space:nowrap;line-height:14px;fill:#555555;" y="11" x="1"><tspan x="1"> </tspan></text></g><text  text-anchor="end" style="font-family:'lucida grande', 'lucida sans unicode', verdana, arial, helvetica, sans-serif;font-size:10px;cursor:pointer;color:#909090;fill:#909090;" y="334" x="532"><tspan x="532">FusionCharts</tspan></text><g transform="translate(15,80)"  class="highcharts-tracker"><path style=""  visibility="" fill-opacity="0.000001"  fill="rgb(192,192,192)" d="M 30.180000000000007 95.69 A 179.88779550892502 35.977559101785005 0 1 1 388.82 95.69 L 341.11 215.1 A 132.02464393155054 26.40492878631011 0 0 1 77.88999999999999 215.1 Z"></path><path style=""  visibility="" fill-opacity="0.000001"  fill="rgb(192,192,192)" d="M 0.4300000000000068 2.67 A 209.5 41.900000000000006 0 1 1 418.57 2.67 L 389.02 95.12 A 179.88779550892502 35.977559101785005 0 0 1 29.97999999999999 95.12 Z"></path></g></svg>