<svg xmlns:xlink="http://www.w3.org/1999/xlink" height="277" width="568" version="1.1" xmlns="http://www.w3.org/2000/svg"><defs><linearGradient y2="0%" x2="50%" y1="100%" x1="50%" gradientUnits="objectBoundingBox" id="highcharts-45"><stop stop-opacity="1" stop-color="#FF0000" offset="0%"></stop><stop stop-opacity="1" stop-color="#FF0000" offset="30%"></stop><stop stop-opacity="1" stop-color="#ff9999" offset="60%"></stop><stop stop-opacity="1" stop-color="#FF0000" offset="90%"></stop><stop stop-opacity="1" stop-color="#FF0000" offset="100%"></stop></linearGradient><linearGradient y2="0%" x2="50%" y1="100%" x1="50%" gradientUnits="objectBoundingBox" id="highcharts-46"><stop stop-opacity="1" stop-color="#00FF00" offset="0%"></stop><stop stop-opacity="1" stop-color="#00FF00" offset="30%"></stop><stop stop-opacity="1" stop-color="#99ff99" offset="60%"></stop><stop stop-opacity="1" stop-color="#00FF00" offset="90%"></stop><stop stop-opacity="1" stop-color="#00FF00" offset="100%"></stop></linearGradient><linearGradient y2="0%" x2="50%" y1="100%" x1="50%" gradientUnits="objectBoundingBox" id="highcharts-47"><stop stop-opacity="1" stop-color="#0000FF" offset="0%"></stop><stop stop-opacity="1" stop-color="#0000FF" offset="30%"></stop><stop stop-opacity="1" stop-color="#9999ff" offset="60%"></stop><stop stop-opacity="1" stop-color="#0000FF" offset="90%"></stop><stop stop-opacity="1" stop-color="#0000FF" offset="100%"></stop></linearGradient><clipPath id="highcharts-48"><rect stroke-width="0" height="275" width="566" y="1" x="1" fill="none" ry="0" rx="0"></rect></clipPath><clipPath id="highcharts-49"><rect stroke-width="0" height="277" width="568" y="-15" x="-47" fill="none" ry="0" rx="0"></rect></clipPath><linearGradient y2="100%" x2="50%" y1="0%" x1="50%" gradientUnits="objectBoundingBox" id="highcharts-50"><stop stop-opacity="1" stop-color="#FF0000" offset="0%"></stop><stop stop-opacity="1" stop-color="#FFFFFF" offset="100%"></stop></linearGradient><linearGradient y2="100%" x2="50%" y1="0%" x1="50%" gradientUnits="objectBoundingBox" id="highcharts-51"><stop stop-opacity="1" stop-color="#FF0000" offset="0%"></stop><stop stop-opacity="1" stop-color="#FFFFFF" offset="100%"></stop></linearGradient><linearGradient y2="100%" x2="50%" y1="0%" x1="50%" gradientUnits="objectBoundingBox" id="highcharts-52"><stop stop-opacity="1" stop-color="#FF0000" offset="0%"></stop><stop stop-opacity="1" stop-color="#FFFFFF" offset="100%"></stop></linearGradient><linearGradient y2="100%" x2="50%" y1="0%" x1="50%" gradientUnits="objectBoundingBox" id="highcharts-53"><stop stop-opacity="1" stop-color="#FF0000" offset="0%"></stop><stop stop-opacity="1" stop-color="#FFFFFF" offset="100%"></stop></linearGradient><linearGradient y2="100%" x2="50%" y1="0%" x1="50%" gradientUnits="objectBoundingBox" id="highcharts-54"><stop stop-opacity="1" stop-color="#FF0000" offset="0%"></stop><stop stop-opacity="1" stop-color="#FFFFFF" offset="100%"></stop></linearGradient><linearGradient y2="100%" x2="50%" y1="0%" x1="50%" gradientUnits="objectBoundingBox" id="highcharts-55"><stop stop-opacity="1" stop-color="#00FF00" offset="0%"></stop><stop stop-opacity="1" stop-color="#FFFFFF" offset="100%"></stop></linearGradient><linearGradient y2="100%" x2="50%" y1="0%" x1="50%" gradientUnits="objectBoundingBox" id="highcharts-56"><stop stop-opacity="1" stop-color="#00FF00" offset="0%"></stop><stop stop-opacity="1" stop-color="#FFFFFF" offset="100%"></stop></linearGradient><linearGradient y2="100%" x2="50%" y1="0%" x1="50%" gradientUnits="objectBoundingBox" id="highcharts-57"><stop stop-opacity="1" stop-color="#00FF00" offset="0%"></stop><stop stop-opacity="1" stop-color="#FFFFFF" offset="100%"></stop></linearGradient><linearGradient y2="100%" x2="50%" y1="0%" x1="50%" gradientUnits="objectBoundingBox" id="highcharts-58"><stop stop-opacity="1" stop-color="#00FF00" offset="0%"></stop><stop stop-opacity="1" stop-color="#FFFFFF" offset="100%"></stop></linearGradient><linearGradient y2="100%" x2="50%" y1="0%" x1="50%" gradientUnits="objectBoundingBox" id="highcharts-59"><stop stop-opacity="1" stop-color="#00FF00" offset="0%"></stop><stop stop-opacity="1" stop-color="#FFFFFF" offset="100%"></stop></linearGradient><linearGradient y2="100%" x2="50%" y1="0%" x1="50%" gradientUnits="objectBoundingBox" id="highcharts-60"><stop stop-opacity="1" stop-color="#0000FF" offset="0%"></stop><stop stop-opacity="1" stop-color="#FFFFFF" offset="100%"></stop></linearGradient><linearGradient y2="100%" x2="50%" y1="0%" x1="50%" gradientUnits="objectBoundingBox" id="highcharts-61"><stop stop-opacity="1" stop-color="#0000FF" offset="0%"></stop><stop stop-opacity="1" stop-color="#FFFFFF" offset="100%"></stop></linearGradient><linearGradient y2="100%" x2="50%" y1="0%" x1="50%" gradientUnits="objectBoundingBox" id="highcharts-62"><stop stop-opacity="1" stop-color="#0000FF" offset="0%"></stop><stop stop-opacity="1" stop-color="#FFFFFF" offset="100%"></stop></linearGradient><linearGradient y2="100%" x2="50%" y1="0%" x1="50%" gradientUnits="objectBoundingBox" id="highcharts-63"><stop stop-opacity="1" stop-color="#0000FF" offset="0%"></stop><stop stop-opacity="1" stop-color="#FFFFFF" offset="100%"></stop></linearGradient><linearGradient y2="100%" x2="50%" y1="0%" x1="50%" gradientUnits="objectBoundingBox" id="highcharts-64"><stop stop-opacity="1" stop-color="#0000FF" offset="0%"></stop><stop stop-opacity="1" stop-color="#FFFFFF" offset="100%"></stop></linearGradient></defs><rect fill-opacity="0" stroke="rgb(255,255,255)" stroke-opacity="0.5" stroke-width="1" height="276" width="567" y="0.5" x="0.5" fill="#FFFFFF" ry="0" rx="0"></rect><rect fill-opacity="1" stroke-width="0" height="203" width="506" y="15" x="47" fill="#FFFFFF" ry="0" rx="0"></rect><path fill-opacity="0" fill="rgb(0,0,0)" d="M 98 15 L 98 218 199 218 199 15"></path><path fill-opacity="0" fill="rgb(0,0,0)" d="M 300 15 L 300 218 401 218 401 15"></path><path fill-opacity="0" fill="rgb(0,0,0)" d="M 502 15 L 502 218 553 218 553 15"></path><path stroke-width="0.1" stroke="rgb(0,0,0)" stroke-opacity="0" fill="none" d="M 98.05 15 L 98.05 218"></path><text visibility="" text-anchor="middle" style="font-family: verdana; font-size: 10px; line-height: 12px; color: rgb(85, 85, 85); fill: rgb(85, 85, 85);" y="232" x="98"><tspan x="98">Australia</tspan></text><path stroke-width="0.1" stroke="rgb(0,0,0)" stroke-opacity="0" fill="none" d="M 199.05 15 L 199.05 218"></path><text visibility="" text-anchor="middle" style="font-family: verdana; font-size: 10px; line-height: 12px; color: rgb(85, 85, 85); fill: rgb(85, 85, 85);" y="232" x="199"><tspan x="199">Austria</tspan></text><path stroke-width="0.1" stroke="rgb(0,0,0)" stroke-opacity="0" fill="none" d="M 300.05 15 L 300.05 218"></path><text visibility="" text-anchor="middle" style="font-family: verdana; font-size: 10px; line-height: 12px; color: rgb(85, 85, 85); fill: rgb(85, 85, 85);" y="232" x="300"><tspan x="300">Belgium</tspan></text><path stroke-width="0.1" stroke="rgb(0,0,0)" stroke-opacity="0" fill="none" d="M 401.05 15 L 401.05 218"></path><text visibility="" text-anchor="middle" style="font-family: verdana; font-size: 10px; line-height: 12px; color: rgb(85, 85, 85); fill: rgb(85, 85, 85);" y="232" x="401"><tspan x="401">Canada</tspan></text><path stroke-width="0.1" stroke="rgb(0,0,0)" stroke-opacity="0" fill="none" d="M 502.05 15 L 502.05 218"></path><text visibility="" text-anchor="middle" style="font-family: verdana; font-size: 10px; line-height: 12px; color: rgb(85, 85, 85); fill: rgb(85, 85, 85);" y="232" x="502"><tspan x="502">Denmark</tspan></text><path fill-opacity="0" fill="rgb(0,0,0)" d="M 47 218 L 553 218 553 177 47 177"></path><path fill-opacity="0" fill="rgb(0,0,0)" d="M 47 137 L 553 137 553 96 47 96"></path><path fill-opacity="0" fill="rgb(0,0,0)" d="M 47 56 L 553 56 553 15 47 15"></path><g  class="highcharts-grid"></g><g  class="highcharts-grid"></g><g  class="highcharts-grid"></g><path  stroke-width="0.1" stroke="rgb(0,0,0)" stroke-opacity="0" fill="none" d="M 47 218.05 L 553 218.05"></path><text visibility=""  text-anchor="end" style="font-family: verdana; font-size: 10px; line-height: 12px; color: rgb(85, 85, 85); fill: rgb(85, 85, 85);" y="222" x="43"><tspan x="43">0</tspan></text><path  fill-opacity="0.5" fill="rgb(238,238,238)" d="M 47 177 L 553 177 553 137 47 137"></path><path  fill-opacity="0.5" fill="rgb(238,238,238)" d="M 47 96 L 553 96 553 56 47 56"></path><rect  stroke-linejoin="round" stroke="rgb(84,84,84)" stroke-opacity="1" stroke-width="2" height="205" width="508" y="14" x="46" fill="none" ry="0" rx="0"></rect><path  stroke-width="1" stroke="rgb(113,113,112)" stroke-opacity="0.4" fill="none" d="M 47 177.5 L 553 177.5"></path><text visibility=""  text-anchor="end" style="font-family: verdana; font-size: 10px; line-height: 12px; color: rgb(85, 85, 85); fill: rgb(85, 85, 85);" y="181" x="43"><tspan x="43">1400</tspan></text><path  stroke-width="1" stroke="rgb(113,113,112)" stroke-opacity="0.4" fill="none" d="M 47 137.5 L 553 137.5"></path><text visibility=""  text-anchor="end" style="font-family: verdana; font-size: 10px; line-height: 12px; color: rgb(85, 85, 85); fill: rgb(85, 85, 85);" y="141" x="43"><tspan x="43">2800</tspan></text><path  stroke-width="1" stroke="rgb(113,113,112)" stroke-opacity="0.4" fill="none" d="M 47 96.5 L 553 96.5"></path><text visibility=""  text-anchor="end" style="font-family: verdana; font-size: 10px; line-height: 12px; color: rgb(85, 85, 85); fill: rgb(85, 85, 85);" y="100" x="43"><tspan x="43">4200</tspan></text><path  stroke-width="1" stroke="rgb(113,113,112)" stroke-opacity="0.4" fill="none" d="M 47 56.5 L 553 56.5"></path><text visibility=""  text-anchor="end" style="font-family: verdana; font-size: 10px; line-height: 12px; color: rgb(85, 85, 85); fill: rgb(85, 85, 85);" y="60" x="43"><tspan x="43">5600</tspan></text><path  stroke-width="0.1" stroke="rgb(0,0,0)" stroke-opacity="0" fill="none" d="M 47 15.05 L 553 15.05"></path><text visibility=""  text-anchor="end" style="font-family: verdana; font-size: 10px; line-height: 12px; color: rgb(85, 85, 85); fill: rgb(85, 85, 85);" y="19" x="43"><tspan x="43">7000</tspan></text><g  class="highcharts-series-group"><g transform="translate(47, 15)" visibility="" clip-path="url('#highcharts-49')" class="highcharts-series"><rect r="0" stroke="#333333" stroke-opacity="1" stroke-width="1" height="43" width="49" y="159.5" x="26.5" fill="url('#highcharts-50')" ry="0" rx="0"></rect><rect r="0" stroke="#333333" stroke-opacity="1" stroke-width="1" height="17" width="49" y="185.5" x="127.5" fill="url('#highcharts-51')" ry="0" rx="0"></rect><rect r="0" stroke="#333333" stroke-opacity="1" stroke-width="1" height="6" width="49" y="196.5" x="228.5" fill="url('#highcharts-52')" ry="0" rx="0"></rect><rect r="0" stroke="#333333" stroke-opacity="1" stroke-width="1" height="8" width="49" y="194.5" x="329.5" fill="url('#highcharts-53')" ry="0" rx="0"></rect><rect r="0" stroke="#333333" stroke-opacity="1" stroke-width="1" height="5" width="49" y="197.5" x="430.5" fill="url('#highcharts-54')" ry="0" rx="0"></rect></g><g transform="translate(47, 15)" visibility="" clip-path="url('#highcharts-49')" class="highcharts-series"><rect r="0" stroke="#333333" stroke-opacity="1" stroke-width="1" height="65" width="49" y="94.5" x="26.5" fill="url('#highcharts-55')" ry="0" rx="0"></rect><rect r="0" stroke="#333333" stroke-opacity="1" stroke-width="1" height="14" width="49" y="171.5" x="127.5" fill="url('#highcharts-56')" ry="0" rx="0"></rect><rect r="0" stroke="#333333" stroke-opacity="1" stroke-width="1" height="23" width="49" y="173.5" x="228.5" fill="url('#highcharts-57')" ry="0" rx="0"></rect><rect r="0" stroke="#333333" stroke-opacity="1" stroke-width="1" height="43" width="49" y="151.5" x="329.5" fill="url('#highcharts-58')" ry="0" rx="0"></rect><rect r="0" stroke="#333333" stroke-opacity="1" stroke-width="1" height="32" width="49" y="165.5" x="430.5" fill="url('#highcharts-59')" ry="0" rx="0"></rect></g><g transform="translate(47, 15)" visibility="" clip-path="url('#highcharts-49')" class="highcharts-series"><rect r="0" stroke="#333333" stroke-opacity="1" stroke-width="1" height="73" width="49" y="21.5" x="26.5" fill="url('#highcharts-60')" ry="0" rx="0"></rect><rect r="0" stroke="#333333" stroke-opacity="1" stroke-width="1" height="26" width="49" y="145.5" x="127.5" fill="url('#highcharts-61')" ry="0" rx="0"></rect><rect r="0" stroke="#333333" stroke-opacity="1" stroke-width="1" height="2" width="49" y="171.5" x="228.5" fill="url('#highcharts-62')" ry="0" rx="0"></rect><rect r="0" stroke="#333333" stroke-opacity="1" stroke-width="1" height="15" width="49" y="136.5" x="329.5" fill="url('#highcharts-63')" ry="0" rx="0"></rect><rect r="0" stroke="#333333" stroke-opacity="1" stroke-width="1" height="26" width="49" y="139.5" x="430.5" fill="url('#highcharts-64')" ry="0" rx="0"></rect></g></g><g transform="translate(47, 15)"  visibility="" class="highcharts-data-labels"><text  text-anchor="middle" style="font-family: verdana; font-size: 10px; color: rgb(85, 85, 85); line-height: 12px; text-decoration: none; font-weight: normal; font-style: normal; fill: rgb(85, 85, 85);" y="186" x="51"><tspan x="51">1500</tspan></text><text  text-anchor="middle" style="font-family: verdana; font-size: 10px; color: rgb(85, 85, 85); line-height: 12px; text-decoration: none; font-weight: normal; font-style: normal; fill: rgb(85, 85, 85);" y="199" x="152"><tspan x="152">611</tspan></text><text  text-anchor="middle" style="font-family: verdana; font-size: 10px; color: rgb(85, 85, 85); line-height: 12px; text-decoration: none; font-weight: normal; font-style: normal; fill: rgb(85, 85, 85);" y="204" x="253"><tspan x="253">228</tspan></text><text  text-anchor="middle" style="font-family: verdana; font-size: 10px; color: rgb(85, 85, 85); line-height: 12px; text-decoration: none; font-weight: normal; font-style: normal; fill: rgb(85, 85, 85);" y="203" x="354"><tspan x="354">285</tspan></text><text  text-anchor="middle" style="font-family: verdana; font-size: 10px; color: rgb(85, 85, 85); line-height: 12px; text-decoration: none; font-weight: normal; font-style: normal; fill: rgb(85, 85, 85);" y="205" x="455"><tspan x="455">174</tspan></text></g><g transform="translate(47, 15)"  visibility="" class="highcharts-data-labels"><text  text-anchor="middle" style="font-family: verdana; font-size: 10px; color: rgb(85, 85, 85); line-height: 12px; text-decoration: none; font-weight: normal; font-style: normal; fill: rgb(85, 85, 85);" y="132" x="51"><tspan x="51">2232</tspan></text><text  text-anchor="middle" style="font-family: verdana; font-size: 10px; color: rgb(85, 85, 85); line-height: 12px; text-decoration: none; font-weight: normal; font-style: normal; fill: rgb(85, 85, 85);" y="183" x="152"><tspan x="152">491</tspan></text><text  text-anchor="middle" style="font-family: verdana; font-size: 10px; color: rgb(85, 85, 85); line-height: 12px; text-decoration: none; font-weight: normal; font-style: normal; fill: rgb(85, 85, 85);" y="190" x="253"><tspan x="253">799</tspan></text><text  text-anchor="middle" style="font-family: verdana; font-size: 10px; color: rgb(85, 85, 85); line-height: 12px; text-decoration: none; font-weight: normal; font-style: normal; fill: rgb(85, 85, 85);" y="178" x="354"><tspan x="354">1508</tspan></text><text  text-anchor="middle" style="font-family: verdana; font-size: 10px; color: rgb(85, 85, 85); line-height: 12px; text-decoration: none; font-weight: normal; font-style: normal; fill: rgb(85, 85, 85);" y="186" x="455"><tspan x="455">1120</tspan></text></g><g transform="translate(47, 15)"  visibility="" class="highcharts-data-labels"><text  text-anchor="middle" style="font-family: verdana; font-size: 10px; color: rgb(85, 85, 85); line-height: 12px; text-decoration: none; font-weight: normal; font-style: normal; fill: rgb(85, 85, 85);" y="63" x="51"><tspan x="51">2514</tspan></text><text  text-anchor="middle" style="font-family: verdana; font-size: 10px; color: rgb(85, 85, 85); line-height: 12px; text-decoration: none; font-weight: normal; font-style: normal; fill: rgb(85, 85, 85);" y="163" x="152"><tspan x="152">872</tspan></text><text  text-anchor="middle" style="font-family: verdana; font-size: 10px; color: rgb(85, 85, 85); line-height: 12px; text-decoration: none; font-weight: normal; font-style: normal; fill: rgb(85, 85, 85);" y="177" x="253"><tspan x="253">47</tspan></text><text  text-anchor="middle" style="font-family: verdana; font-size: 10px; color: rgb(85, 85, 85); line-height: 12px; text-decoration: none; font-weight: normal; font-style: normal; fill: rgb(85, 85, 85);" y="149" x="354"><tspan x="354">500</tspan></text><text  text-anchor="middle" style="font-family: verdana; font-size: 10px; color: rgb(85, 85, 85); line-height: 12px; text-decoration: none; font-weight: normal; font-style: normal; fill: rgb(85, 85, 85);" y="157" x="455"><tspan x="455">903</tspan></text></g><g  class="highcharts-axis"></g><g  class="highcharts-axis"></g><g  class="highcharts-axis"></g><g visibility="hidden"  class="highcharts-tooltip"><rect fill-opacity="1" stroke-width="1" height="0" width="0" y="1.5" x="1.5" fill="rgb(255,255,255)" ry="1" rx="1"></rect><text  style="font-family: verdana; font-size: 10px; color: rgb(85, 85, 85); padding: 0pt; white-space: nowrap; line-height: 12px; fill: rgb(85, 85, 85);" y="11" x="1"><tspan x="1"> </tspan></text></g><text  text-anchor="end" style="font-family: 'lucida grande','lucida sans unicode',verdana,arial,helvetica,sans-serif; font-size: 10px; cursor: pointer; color: rgb(144, 144, 144); fill: rgb(144, 144, 144);" y="272" x="558"><tspan x="558">FusionCharts</tspan></text><g transform="translate(47, 15)"  class="highcharts-tracker"><rect style=""  visibility="" fill-opacity="0.000001"  stroke-width="0" height="44" width="50" y="159" x="26" fill="rgb(192,192,192)" ry="0" rx="0"></rect><rect style=""  visibility="" fill-opacity="0.000001"  stroke-width="0" height="18" width="50" y="185" x="127" fill="rgb(192,192,192)" ry="0" rx="0"></rect><rect style=""  visibility="" fill-opacity="0.000001"  stroke-width="0" height="7" width="50" y="196" x="228" fill="rgb(192,192,192)" ry="0" rx="0"></rect><rect style=""  visibility="" fill-opacity="0.000001"  stroke-width="0" height="9" width="50" y="194" x="329" fill="rgb(192,192,192)" ry="0" rx="0"></rect><rect style=""  visibility="" fill-opacity="0.000001"  stroke-width="0" height="6" width="50" y="197" x="430" fill="rgb(192,192,192)" ry="0" rx="0"></rect><rect style=""  visibility="" fill-opacity="0.000001"  stroke-width="0" height="66" width="50" y="94" x="26" fill="rgb(192,192,192)" ry="0" rx="0"></rect><rect style=""  visibility="" fill-opacity="0.000001"  stroke-width="0" height="15" width="50" y="171" x="127" fill="rgb(192,192,192)" ry="0" rx="0"></rect><rect style=""  visibility="" fill-opacity="0.000001"  stroke-width="0" height="24" width="50" y="173" x="228" fill="rgb(192,192,192)" ry="0" rx="0"></rect><rect style=""  visibility="" fill-opacity="0.000001"  stroke-width="0" height="44" width="50" y="151" x="329" fill="rgb(192,192,192)" ry="0" rx="0"></rect><rect style=""  visibility="" fill-opacity="0.000001"  stroke-width="0" height="33" width="50" y="165" x="430" fill="rgb(192,192,192)" ry="0" rx="0"></rect><rect style=""  visibility="" fill-opacity="0.000001"  stroke-width="0" height="74" width="50" y="21" x="26" fill="rgb(192,192,192)" ry="0" rx="0"></rect><rect style=""  visibility="" fill-opacity="0.000001"  stroke-width="0" height="27" width="50" y="145" x="127" fill="rgb(192,192,192)" ry="0" rx="0"></rect><rect style=""  visibility="" fill-opacity="0.000001"  stroke-width="0" height="3" width="50" y="171" x="228" fill="rgb(192,192,192)" ry="0" rx="0"></rect><rect style=""  visibility="" fill-opacity="0.000001"  stroke-width="0" height="16" width="50" y="136" x="329" fill="rgb(192,192,192)" ry="0" rx="0"></rect><rect style=""  visibility="" fill-opacity="0.000001"  stroke-width="0" height="27" width="50" y="139" x="430" fill="rgb(192,192,192)" ry="0" rx="0"></rect></g><g transform="translate(179, 239)"  class="highcharts-legend"><rect visibility="" transform="translate(1, 1)"  fill-opacity="1" stroke="rgb(0,0,0)" stroke-opacity="0.06" stroke-width="5" height="22" width="241" y="0.5" x="0.5" fill="none" ry="0" rx="0"></rect><rect visibility="" transform="translate(1, 1)"  fill-opacity="1" stroke="rgb(0,0,0)" stroke-opacity="0.12" stroke-width="3" height="22" width="241" y="0.5" x="0.5" fill="none" ry="0" rx="0"></rect><rect visibility="" transform="translate(1, 1)"  fill-opacity="1" stroke="rgb(0,0,0)" stroke-opacity="0.18" stroke-width="1" height="22" width="241" y="0.5" x="0.5" fill="none" ry="0" rx="0"></rect><rect visibility="" fill-opacity="1" stroke="rgb(84,84,84)" stroke-opacity="1" stroke-width="1" height="22" width="241" y="0.5" x="0.5" fill="rgb(255,255,255)" ry="0" rx="0"></rect><text transform="translate(23, 16)"  style="font-family: verdana; font-size: 10px; cursor: pointer; color: rgb(85, 85, 85); line-height: 12px; fill: rgb(85, 85, 85);" y="0" x="0"><tspan x="0">Sum 2010</tspan></text><text transform="translate(101, 16)"  style="font-family: verdana; font-size: 10px; cursor: pointer; color: rgb(85, 85, 85); line-height: 12px; fill: rgb(85, 85, 85);" y="0" x="0"><tspan x="0">Sum 2009</tspan></text><text transform="translate(179, 16)"  style="font-family: verdana; font-size: 10px; cursor: pointer; color: rgb(85, 85, 85); line-height: 12px; fill: rgb(85, 85, 85);" y="0" x="0"><tspan x="0">Sum 2008</tspan></text><path transform="translate(23, 14)" style="cursor: pointer;" stroke="#990000"  stroke-width="0.5" fill="url('#highcharts-45')" d="M -16 2 L -16 -4.3 -13.75 -4.3 -13.75 2 -12.629999999999999 2 -12.629999999999999 -7 -10.379999999999999 -7 -10.379999999999999 2 -9.259999999999998 2 -9.259999999999998 -1.5999999999999996 -7 -1.5999999999999996 -7 2 Z"></path><path transform="translate(101, 14)" style="cursor: pointer;" stroke="#009900"  stroke-width="0.5" fill="url('#highcharts-46')" d="M -16 2 L -16 -4.3 -13.75 -4.3 -13.75 2 -12.629999999999999 2 -12.629999999999999 -7 -10.379999999999999 -7 -10.379999999999999 2 -9.259999999999998 2 -9.259999999999998 -1.5999999999999996 -7 -1.5999999999999996 -7 2 Z"></path><path transform="translate(179, 14)" style="cursor: pointer;" stroke="#000099"  stroke-width="0.5" fill="url('#highcharts-47')" d="M -16 2 L -16 -4.3 -13.75 -4.3 -13.75 2 -12.629999999999999 2 -12.629999999999999 -7 -10.379999999999999 -7 -10.379999999999999 2 -9.259999999999998 2 -9.259999999999998 -1.5999999999999996 -7 -1.5999999999999996 -7 2 Z"></path></g></svg>