<svg xmlns:xlink="http://www.w3.org/1999/xlink" height="277" width="568" version="1.1" xmlns="http://www.w3.org/2000/svg"><defs><linearGradient y2="50%" x2="100%" y1="50%" x1="0%" gradientUnits="objectBoundingBox" id="highcharts-114"><stop stop-opacity="1" stop-color="#FF0000" offset="0%"></stop><stop stop-opacity="1" stop-color="#FF0000" offset="30%"></stop><stop stop-opacity="1" stop-color="#ff9999" offset="60%"></stop><stop stop-opacity="1" stop-color="#FF0000" offset="90%"></stop><stop stop-opacity="1" stop-color="#FF0000" offset="100%"></stop></linearGradient><linearGradient y2="50%" x2="100%" y1="50%" x1="0%" gradientUnits="objectBoundingBox" id="highcharts-115"><stop stop-opacity="1" stop-color="#00FF00" offset="0%"></stop><stop stop-opacity="1" stop-color="#00FF00" offset="30%"></stop><stop stop-opacity="1" stop-color="#99ff99" offset="60%"></stop><stop stop-opacity="1" stop-color="#00FF00" offset="90%"></stop><stop stop-opacity="1" stop-color="#00FF00" offset="100%"></stop></linearGradient><linearGradient y2="50%" x2="100%" y1="50%" x1="0%" gradientUnits="objectBoundingBox" id="highcharts-116"><stop stop-opacity="1" stop-color="#0000FF" offset="0%"></stop><stop stop-opacity="1" stop-color="#0000FF" offset="30%"></stop><stop stop-opacity="1" stop-color="#9999ff" offset="60%"></stop><stop stop-opacity="1" stop-color="#0000FF" offset="90%"></stop><stop stop-opacity="1" stop-color="#0000FF" offset="100%"></stop></linearGradient><clipPath id="highcharts-117"><rect stroke-width="0" height="275" width="566" y="1" x="1" fill="none" ry="0" rx="0"></rect></clipPath><linearGradient y2="73%" x2="100%" y1="27%" x1="0%" gradientUnits="objectBoundingBox" id="highcharts-118"><stop stop-opacity="1" stop-color="#bbc0b5" offset="0%"></stop><stop stop-opacity="1" stop-color="#ecf0e8" offset="100%"></stop></linearGradient><linearGradient y2="33%" x2="100%" y1="67%" x1="0%" gradientUnits="objectBoundingBox" id="highcharts-119"><stop stop-opacity="1" stop-color="#929e82" offset="0%"></stop><stop stop-opacity="1" stop-color="#e2e7db" offset="100%"></stop></linearGradient><linearGradient y2="0%" x2="49%" y1="100%" x1="51%" gradientUnits="objectBoundingBox" id="highcharts-120"><stop stop-opacity="1" stop-color="#3c4135" offset="0%"></stop><stop stop-opacity="1" stop-color="#818c72" offset="100%"></stop></linearGradient><linearGradient y2="0%" x2="50%" y1="100%" x1="50%" gradientUnits="objectBoundingBox" id="highcharts-121"><stop stop-opacity="1" stop-color="#6f7963" offset="0%"></stop><stop stop-opacity="1" stop-color="#d1dac7" offset="100%"></stop></linearGradient><linearGradient y2="42%" x2="100%" y1="58%" x1="0%" gradientUnits="objectBoundingBox" id="highcharts-122"><stop stop-opacity="1" stop-color="#d80000" offset="0%"></stop><stop stop-opacity="1" stop-color="#ffa6a6" offset="100%"></stop></linearGradient><linearGradient y2="0%" x2="33%" y1="100%" x1="67%" gradientUnits="objectBoundingBox" id="highcharts-123"><stop stop-opacity="1" stop-color="#590000" offset="0%"></stop><stop stop-opacity="1" stop-color="#bf0000" offset="100%"></stop></linearGradient><linearGradient y2="0%" x2="50%" y1="100%" x1="50%" gradientUnits="objectBoundingBox" id="highcharts-124"><stop stop-opacity="1" stop-color="#a50000" offset="0%"></stop><stop stop-opacity="1" stop-color="#ff7373" offset="100%"></stop></linearGradient><linearGradient y2="49%" x2="100%" y1="51%" x1="0%" gradientUnits="objectBoundingBox" id="highcharts-125"><stop stop-opacity="1" stop-color="#00d800" offset="0%"></stop><stop stop-opacity="1" stop-color="#a6ffa6" offset="100%"></stop></linearGradient><linearGradient y2="0%" x2="33%" y1="100%" x1="67%" gradientUnits="objectBoundingBox" id="highcharts-126"><stop stop-opacity="1" stop-color="#005900" offset="0%"></stop><stop stop-opacity="1" stop-color="#00bf00" offset="100%"></stop></linearGradient><linearGradient y2="0%" x2="50%" y1="100%" x1="50%" gradientUnits="objectBoundingBox" id="highcharts-127"><stop stop-opacity="1" stop-color="#00a500" offset="0%"></stop><stop stop-opacity="1" stop-color="#73ff73" offset="100%"></stop></linearGradient><linearGradient y2="48%" x2="100%" y1="52%" x1="0%" gradientUnits="objectBoundingBox" id="highcharts-128"><stop stop-opacity="1" stop-color="#0000d8" offset="0%"></stop><stop stop-opacity="1" stop-color="#a6a6ff" offset="100%"></stop></linearGradient><linearGradient y2="0%" x2="33%" y1="100%" x1="67%" gradientUnits="objectBoundingBox" id="highcharts-129"><stop stop-opacity="1" stop-color="#000059" offset="0%"></stop><stop stop-opacity="1" stop-color="#0000bf" offset="100%"></stop></linearGradient><linearGradient y2="0%" x2="50%" y1="100%" x1="50%" gradientUnits="objectBoundingBox" id="highcharts-130"><stop stop-opacity="1" stop-color="#0000a5" offset="0%"></stop><stop stop-opacity="1" stop-color="#7373ff" offset="100%"></stop></linearGradient><linearGradient y2="45%" x2="100%" y1="55%" x1="0%" gradientUnits="objectBoundingBox" id="highcharts-131"><stop stop-opacity="1" stop-color="#d80000" offset="0%"></stop><stop stop-opacity="1" stop-color="#ffa6a6" offset="100%"></stop></linearGradient><linearGradient y2="0%" x2="33%" y1="100%" x1="67%" gradientUnits="objectBoundingBox" id="highcharts-132"><stop stop-opacity="1" stop-color="#590000" offset="0%"></stop><stop stop-opacity="1" stop-color="#bf0000" offset="100%"></stop></linearGradient><linearGradient y2="0%" x2="50%" y1="100%" x1="50%" gradientUnits="objectBoundingBox" id="highcharts-133"><stop stop-opacity="1" stop-color="#a50000" offset="0%"></stop><stop stop-opacity="1" stop-color="#ff7373" offset="100%"></stop></linearGradient><linearGradient y2="49%" x2="100%" y1="51%" x1="0%" gradientUnits="objectBoundingBox" id="highcharts-134"><stop stop-opacity="1" stop-color="#00d800" offset="0%"></stop><stop stop-opacity="1" stop-color="#a6ffa6" offset="100%"></stop></linearGradient><linearGradient y2="0%" x2="33%" y1="100%" x1="67%" gradientUnits="objectBoundingBox" id="highcharts-135"><stop stop-opacity="1" stop-color="#005900" offset="0%"></stop><stop stop-opacity="1" stop-color="#00bf00" offset="100%"></stop></linearGradient><linearGradient y2="0%" x2="50%" y1="100%" x1="50%" gradientUnits="objectBoundingBox" id="highcharts-136"><stop stop-opacity="1" stop-color="#00a500" offset="0%"></stop><stop stop-opacity="1" stop-color="#73ff73" offset="100%"></stop></linearGradient><linearGradient y2="47%" x2="100%" y1="53%" x1="0%" gradientUnits="objectBoundingBox" id="highcharts-137"><stop stop-opacity="1" stop-color="#0000d8" offset="0%"></stop><stop stop-opacity="1" stop-color="#a6a6ff" offset="100%"></stop></linearGradient><linearGradient y2="0%" x2="33%" y1="100%" x1="67%" gradientUnits="objectBoundingBox" id="highcharts-138"><stop stop-opacity="1" stop-color="#000059" offset="0%"></stop><stop stop-opacity="1" stop-color="#0000bf" offset="100%"></stop></linearGradient><linearGradient y2="0%" x2="50%" y1="100%" x1="50%" gradientUnits="objectBoundingBox" id="highcharts-139"><stop stop-opacity="1" stop-color="#0000a5" offset="0%"></stop><stop stop-opacity="1" stop-color="#7373ff" offset="100%"></stop></linearGradient><linearGradient y2="44%" x2="100%" y1="56%" x1="0%" gradientUnits="objectBoundingBox" id="highcharts-140"><stop stop-opacity="1" stop-color="#d80000" offset="0%"></stop><stop stop-opacity="1" stop-color="#ffa6a6" offset="100%"></stop></linearGradient><linearGradient y2="0%" x2="33%" y1="100%" x1="67%" gradientUnits="objectBoundingBox" id="highcharts-141"><stop stop-opacity="1" stop-color="#590000" offset="0%"></stop><stop stop-opacity="1" stop-color="#bf0000" offset="100%"></stop></linearGradient><linearGradient y2="0%" x2="50%" y1="100%" x1="50%" gradientUnits="objectBoundingBox" id="highcharts-142"><stop stop-opacity="1" stop-color="#a50000" offset="0%"></stop><stop stop-opacity="1" stop-color="#ff7373" offset="100%"></stop></linearGradient><linearGradient y2="48%" x2="100%" y1="52%" x1="0%" gradientUnits="objectBoundingBox" id="highcharts-143"><stop stop-opacity="1" stop-color="#00d800" offset="0%"></stop><stop stop-opacity="1" stop-color="#a6ffa6" offset="100%"></stop></linearGradient><linearGradient y2="0%" x2="33%" y1="100%" x1="67%" gradientUnits="objectBoundingBox" id="highcharts-144"><stop stop-opacity="1" stop-color="#005900" offset="0%"></stop><stop stop-opacity="1" stop-color="#00bf00" offset="100%"></stop></linearGradient><linearGradient y2="0%" x2="50%" y1="100%" x1="50%" gradientUnits="objectBoundingBox" id="highcharts-145"><stop stop-opacity="1" stop-color="#00a500" offset="0%"></stop><stop stop-opacity="1" stop-color="#73ff73" offset="100%"></stop></linearGradient><linearGradient y2="31%" x2="100%" y1="69%" x1="0%" gradientUnits="objectBoundingBox" id="highcharts-146"><stop stop-opacity="1" stop-color="#0000d8" offset="0%"></stop><stop stop-opacity="1" stop-color="#a6a6ff" offset="100%"></stop></linearGradient><linearGradient y2="0%" x2="33%" y1="100%" x1="67%" gradientUnits="objectBoundingBox" id="highcharts-147"><stop stop-opacity="1" stop-color="#000059" offset="0%"></stop><stop stop-opacity="1" stop-color="#0000bf" offset="100%"></stop></linearGradient><linearGradient y2="0%" x2="50%" y1="100%" x1="50%" gradientUnits="objectBoundingBox" id="highcharts-148"><stop stop-opacity="1" stop-color="#0000a5" offset="0%"></stop><stop stop-opacity="1" stop-color="#7373ff" offset="100%"></stop></linearGradient><linearGradient y2="47%" x2="100%" y1="53%" x1="0%" gradientUnits="objectBoundingBox" id="highcharts-149"><stop stop-opacity="1" stop-color="#d80000" offset="0%"></stop><stop stop-opacity="1" stop-color="#ffa6a6" offset="100%"></stop></linearGradient><linearGradient y2="0%" x2="33%" y1="100%" x1="67%" gradientUnits="objectBoundingBox" id="highcharts-150"><stop stop-opacity="1" stop-color="#590000" offset="0%"></stop><stop stop-opacity="1" stop-color="#bf0000" offset="100%"></stop></linearGradient><linearGradient y2="0%" x2="50%" y1="100%" x1="50%" gradientUnits="objectBoundingBox" id="highcharts-151"><stop stop-opacity="1" stop-color="#a50000" offset="0%"></stop><stop stop-opacity="1" stop-color="#ff7373" offset="100%"></stop></linearGradient><linearGradient y2="47%" x2="100%" y1="53%" x1="0%" gradientUnits="objectBoundingBox" id="highcharts-152"><stop stop-opacity="1" stop-color="#00d800" offset="0%"></stop><stop stop-opacity="1" stop-color="#a6ffa6" offset="100%"></stop></linearGradient><linearGradient y2="0%" x2="33%" y1="100%" x1="67%" gradientUnits="objectBoundingBox" id="highcharts-153"><stop stop-opacity="1" stop-color="#005900" offset="0%"></stop><stop stop-opacity="1" stop-color="#00bf00" offset="100%"></stop></linearGradient><linearGradient y2="0%" x2="50%" y1="100%" x1="50%" gradientUnits="objectBoundingBox" id="highcharts-154"><stop stop-opacity="1" stop-color="#00a500" offset="0%"></stop><stop stop-opacity="1" stop-color="#73ff73" offset="100%"></stop></linearGradient><linearGradient y2="48%" x2="100%" y1="52%" x1="0%" gradientUnits="objectBoundingBox" id="highcharts-155"><stop stop-opacity="1" stop-color="#0000d8" offset="0%"></stop><stop stop-opacity="1" stop-color="#a6a6ff" offset="100%"></stop></linearGradient><linearGradient y2="0%" x2="33%" y1="100%" x1="67%" gradientUnits="objectBoundingBox" id="highcharts-156"><stop stop-opacity="1" stop-color="#000059" offset="0%"></stop><stop stop-opacity="1" stop-color="#0000bf" offset="100%"></stop></linearGradient><linearGradient y2="0%" x2="50%" y1="100%" x1="50%" gradientUnits="objectBoundingBox" id="highcharts-157"><stop stop-opacity="1" stop-color="#0000a5" offset="0%"></stop><stop stop-opacity="1" stop-color="#7373ff" offset="100%"></stop></linearGradient><linearGradient y2="49%" x2="100%" y1="51%" x1="0%" gradientUnits="objectBoundingBox" id="highcharts-158"><stop stop-opacity="1" stop-color="#d80000" offset="0%"></stop><stop stop-opacity="1" stop-color="#ffa6a6" offset="100%"></stop></linearGradient><linearGradient y2="0%" x2="33%" y1="100%" x1="67%" gradientUnits="objectBoundingBox" id="highcharts-159"><stop stop-opacity="1" stop-color="#590000" offset="0%"></stop><stop stop-opacity="1" stop-color="#bf0000" offset="100%"></stop></linearGradient><linearGradient y2="0%" x2="50%" y1="100%" x1="50%" gradientUnits="objectBoundingBox" id="highcharts-160"><stop stop-opacity="1" stop-color="#a50000" offset="0%"></stop><stop stop-opacity="1" stop-color="#ff7373" offset="100%"></stop></linearGradient><linearGradient y2="49%" x2="100%" y1="51%" x1="0%" gradientUnits="objectBoundingBox" id="highcharts-161"><stop stop-opacity="1" stop-color="#00d800" offset="0%"></stop><stop stop-opacity="1" stop-color="#a6ffa6" offset="100%"></stop></linearGradient><linearGradient y2="0%" x2="33%" y1="100%" x1="67%" gradientUnits="objectBoundingBox" id="highcharts-162"><stop stop-opacity="1" stop-color="#005900" offset="0%"></stop><stop stop-opacity="1" stop-color="#00bf00" offset="100%"></stop></linearGradient><linearGradient y2="0%" x2="50%" y1="100%" x1="50%" gradientUnits="objectBoundingBox" id="highcharts-163"><stop stop-opacity="1" stop-color="#00a500" offset="0%"></stop><stop stop-opacity="1" stop-color="#73ff73" offset="100%"></stop></linearGradient><linearGradient y2="49%" x2="100%" y1="51%" x1="0%" gradientUnits="objectBoundingBox" id="highcharts-164"><stop stop-opacity="1" stop-color="#0000d8" offset="0%"></stop><stop stop-opacity="1" stop-color="#a6a6ff" offset="100%"></stop></linearGradient><linearGradient y2="0%" x2="33%" y1="100%" x1="67%" gradientUnits="objectBoundingBox" id="highcharts-165"><stop stop-opacity="1" stop-color="#000059" offset="0%"></stop><stop stop-opacity="1" stop-color="#0000bf" offset="100%"></stop></linearGradient><linearGradient y2="0%" x2="50%" y1="100%" x1="50%" gradientUnits="objectBoundingBox" id="highcharts-166"><stop stop-opacity="1" stop-color="#0000a5" offset="0%"></stop><stop stop-opacity="1" stop-color="#7373ff" offset="100%"></stop></linearGradient></defs><rect fill-opacity="0" stroke="rgb(255,255,255)" stroke-opacity="1" stroke-width="1" height="276" width="567" y="0.5" x="0.5" fill="#FFFFFF" ry="0" rx="0"></rect><rect stroke-width="0" height="195" width="463" y="18" x="85" fill="url('#highcharts-118')" ry="0" rx="0"></rect><path fill-opacity="0" fill="rgb(0,0,0)" d="M 85 41 L 548.002132196162 41 548.002132196162 135 85 135"></path><path stroke-width="0.1" stroke="rgb(0,0,0)" stroke-opacity="0" fill="none" d="M 85 41.05 L 548.002132196162 41.05"></path><text visibility="" text-anchor="end" style="font-family: verdana; font-size: 10px; line-height: 12px; color: rgb(73, 86, 58); fill: rgb(73, 86, 58);" y="45" x="66"><tspan x="66">Australia</tspan></text><path stroke-width="0.1" stroke="rgb(0,0,0)" stroke-opacity="0" fill="none" d="M 85 79.05 L 548.002132196162 79.05"></path><text visibility="" text-anchor="end" style="font-family: verdana; font-size: 10px; line-height: 12px; color: rgb(73, 86, 58); fill: rgb(73, 86, 58);" y="83" x="66"><tspan x="66">Austria</tspan></text><path stroke-width="0.1" stroke="rgb(0,0,0)" stroke-opacity="0" fill="none" d="M 85 117.05 L 548.002132196162 117.05"></path><text visibility="" text-anchor="end" style="font-family: verdana; font-size: 10px; line-height: 12px; color: rgb(73, 86, 58); fill: rgb(73, 86, 58);" y="121" x="66"><tspan x="66">Belgium</tspan></text><path stroke-width="0.1" stroke="rgb(0,0,0)" stroke-opacity="0" fill="none" d="M 85 154.05 L 548.002132196162 154.05"></path><text visibility="" text-anchor="end" style="font-family: verdana; font-size: 10px; line-height: 12px; color: rgb(73, 86, 58); fill: rgb(73, 86, 58);" y="158" x="66"><tspan x="66">Canada</tspan></text><path stroke-width="0.1" stroke="rgb(0,0,0)" stroke-opacity="0" fill="none" d="M 85 192.05 L 548.002132196162 192.05"></path><text visibility="" text-anchor="end" style="font-family: verdana; font-size: 10px; line-height: 12px; color: rgb(73, 86, 58); fill: rgb(73, 86, 58);" y="196" x="66"><tspan x="66">Denmark</tspan></text><path fill-opacity="0" fill="rgb(0,0,0)" d="M 85 18 L 85 213 178 213 178 18"></path><path fill-opacity="0" fill="rgb(0,0,0)" d="M 270 18 L 270 213 363 213 363 18"></path><path fill-opacity="0" fill="rgb(0,0,0)" d="M 455 18 L 455 213 548 213 548 18"></path><g lighting3D="true" class="highcharts-canvasBase3D"><path fill="none" d="M 75 18 L 85 18 85 213"></path><rect stroke-width="0" height="195" width="10" y="23" x="70" fill="url('#highcharts-121')" ry="0" rx="0"></rect><path stroke-width="0" fill="url('#highcharts-119')" d="M 70 23 L 80 23 85 18 75 18 Z"></path><path stroke-width="0" fill="url('#highcharts-120')" d="M 80 23 L 85 18 85 213 80 218 Z"></path></g><path fill-opacity="1" fill="rgb(176,181,170)" d="M 85 18 L 88.6 15 545 15 548 18 Z"></path><g  class="highcharts-grid"></g><g  class="highcharts-grid"></g><g  class="highcharts-grid"></g><path  stroke-width="0.1" stroke="rgb(0,0,0)" stroke-opacity="0" fill="none" d="M 85.05 18 L 85.05 213"></path><text visibility=""  text-anchor="middle" style="font-family: verdana; font-size: 10px; line-height: 12px; color: rgb(73, 86, 58); fill: rgb(73, 86, 58);" y="232" x="80"><tspan x="80">0</tspan></text><path  stroke-width="1" stroke="rgb(172,187,153)" stroke-opacity="1" fill="none" d="M 178.5 18 L 178.5 213"></path><text visibility=""  text-anchor="middle" style="font-family: verdana; font-size: 10px; line-height: 12px; color: rgb(73, 86, 58); fill: rgb(73, 86, 58);" y="232" x="174"><tspan x="174">600</tspan></text><path  stroke-width="1" stroke="rgb(172,187,153)" stroke-opacity="1" fill="none" d="M 270.5 18 L 270.5 213"></path><text visibility=""  text-anchor="middle" style="font-family: verdana; font-size: 10px; line-height: 12px; color: rgb(73, 86, 58); fill: rgb(73, 86, 58);" y="232" x="266"><tspan x="266">1200</tspan></text><path  stroke-width="1" stroke="rgb(172,187,153)" stroke-opacity="1" fill="none" d="M 363.5 18 L 363.5 213"></path><text visibility=""  text-anchor="middle" style="font-family: verdana; font-size: 10px; line-height: 12px; color: rgb(73, 86, 58); fill: rgb(73, 86, 58);" y="232" x="359"><tspan x="359">1800</tspan></text><path  stroke-width="1" stroke="rgb(172,187,153)" stroke-opacity="1" fill="none" d="M 455.5 18 L 455.5 213"></path><text visibility=""  text-anchor="middle" style="font-family: verdana; font-size: 10px; line-height: 12px; color: rgb(73, 86, 58); fill: rgb(73, 86, 58);" y="232" x="451"><tspan x="451">2400</tspan></text><path  stroke-width="0.1" stroke="rgb(0,0,0)" stroke-opacity="0" fill="none" d="M 548.05 18 L 548.05 213"></path><text visibility=""  text-anchor="middle" style="font-family: verdana; font-size: 10px; line-height: 12px; color: rgb(73, 86, 58); fill: rgb(73, 86, 58);" y="232" x="543"><tspan x="543">3000</tspan></text><g  class="highcharts-series-group"><g transform="translate(80, 23)" class="highcharts-series-3d"><g  class="highcharts-point"><path transform="translate(1, 1)" stroke-width="5" stroke-opacity="0.06" stroke="rgb(0,0,0)"  fill="none" d="M 5 174 L 32 174 32 184"></path><path transform="translate(1, 1)" stroke-width="3" stroke-opacity="0.12" stroke="rgb(0,0,0)"  fill="none" d="M 5 174 L 32 174 32 184"></path><path transform="translate(1, 1)" stroke-width="1" stroke-opacity="0.18" stroke="rgb(0,0,0)"  fill="none" d="M 5 174 L 32 174 32 184"></path><path fill="none" d="M 5 174 L 32 174 32 184"></path><rect stroke="#FFFFFF" stroke-opacity="0" stroke-width="1" height="10" width="27" y="179" x="0" fill="url('#highcharts-124')" ry="0" rx="0"></rect><path stroke="#FFFFFF" stroke-opacity="0" stroke-width="1" fill="url('#highcharts-122')" d="M 0 179 L 27 179 32 174 5 174 Z"></path><path stroke="#FFFFFF" stroke-opacity="0" stroke-width="1" fill="url('#highcharts-123')" d="M 27 179 L 32 174 32 184 27 189 Z"></path></g><g  class="highcharts-point"><path transform="translate(1, 1)" stroke-width="5" stroke-opacity="0.06" stroke="rgb(0,0,0)"  fill="none" d="M 5 164 L 178 164 178 174"></path><path transform="translate(1, 1)" stroke-width="3" stroke-opacity="0.12" stroke="rgb(0,0,0)"  fill="none" d="M 5 164 L 178 164 178 174"></path><path transform="translate(1, 1)" stroke-width="1" stroke-opacity="0.18" stroke="rgb(0,0,0)"  fill="none" d="M 5 164 L 178 164 178 174"></path><path fill="none" d="M 5 164 L 178 164 178 174"></path><rect stroke="#FFFFFF" stroke-opacity="0" stroke-width="1" height="10" width="173" y="169" x="0" fill="url('#highcharts-127')" ry="0" rx="0"></rect><path stroke="#FFFFFF" stroke-opacity="0" stroke-width="1" fill="url('#highcharts-125')" d="M 0 169 L 173 169 178 164 5 164 Z"></path><path stroke="#FFFFFF" stroke-opacity="0" stroke-width="1" fill="url('#highcharts-126')" d="M 173 169 L 178 164 178 174 173 179 Z"></path></g><g  class="highcharts-point"><path transform="translate(1, 1)" stroke-width="5" stroke-opacity="0.06" stroke="rgb(0,0,0)"  fill="none" d="M 5 154 L 145 154 145 164"></path><path transform="translate(1, 1)" stroke-width="3" stroke-opacity="0.12" stroke="rgb(0,0,0)"  fill="none" d="M 5 154 L 145 154 145 164"></path><path transform="translate(1, 1)" stroke-width="1" stroke-opacity="0.18" stroke="rgb(0,0,0)"  fill="none" d="M 5 154 L 145 154 145 164"></path><path fill="none" d="M 5 154 L 145 154 145 164"></path><rect stroke="#FFFFFF" stroke-opacity="0" stroke-width="1" height="10" width="140" y="159" x="0" fill="url('#highcharts-130')" ry="0" rx="0"></rect><path stroke="#FFFFFF" stroke-opacity="0" stroke-width="1" fill="url('#highcharts-128')" d="M 0 159 L 140 159 145 154 5 154 Z"></path><path stroke="#FFFFFF" stroke-opacity="0" stroke-width="1" fill="url('#highcharts-129')" d="M 140 159 L 145 154 145 164 140 169 Z"></path></g><g  class="highcharts-point"><path transform="translate(1, 1)" stroke-width="5" stroke-opacity="0.06" stroke="rgb(0,0,0)"  fill="none" d="M 5 136 L 49 136 49 146"></path><path transform="translate(1, 1)" stroke-width="3" stroke-opacity="0.12" stroke="rgb(0,0,0)"  fill="none" d="M 5 136 L 49 136 49 146"></path><path transform="translate(1, 1)" stroke-width="1" stroke-opacity="0.18" stroke="rgb(0,0,0)"  fill="none" d="M 5 136 L 49 136 49 146"></path><path fill="none" d="M 5 136 L 49 136 49 146"></path><rect stroke="#FFFFFF" stroke-opacity="0" stroke-width="1" height="10" width="44" y="141" x="0" fill="url('#highcharts-133')" ry="0" rx="0"></rect><path stroke="#FFFFFF" stroke-opacity="0" stroke-width="1" fill="url('#highcharts-131')" d="M 0 141 L 44 141 49 136 5 136 Z"></path><path stroke="#FFFFFF" stroke-opacity="0" stroke-width="1" fill="url('#highcharts-132')" d="M 44 141 L 49 136 49 146 44 151 Z"></path></g><g  class="highcharts-point"><path transform="translate(1, 1)" stroke-width="5" stroke-opacity="0.06" stroke="rgb(0,0,0)"  fill="none" d="M 5 126 L 238 126 238 136"></path><path transform="translate(1, 1)" stroke-width="3" stroke-opacity="0.12" stroke="rgb(0,0,0)"  fill="none" d="M 5 126 L 238 126 238 136"></path><path transform="translate(1, 1)" stroke-width="1" stroke-opacity="0.18" stroke="rgb(0,0,0)"  fill="none" d="M 5 126 L 238 126 238 136"></path><path fill="none" d="M 5 126 L 238 126 238 136"></path><rect stroke="#FFFFFF" stroke-opacity="0" stroke-width="1" height="10" width="233" y="131" x="0" fill="url('#highcharts-136')" ry="0" rx="0"></rect><path stroke="#FFFFFF" stroke-opacity="0" stroke-width="1" fill="url('#highcharts-134')" d="M 0 131 L 233 131 238 126 5 126 Z"></path><path stroke="#FFFFFF" stroke-opacity="0" stroke-width="1" fill="url('#highcharts-135')" d="M 233 131 L 238 126 238 136 233 141 Z"></path></g><g  class="highcharts-point"><path transform="translate(1, 1)" stroke-width="5" stroke-opacity="0.06" stroke="rgb(0,0,0)"  fill="none" d="M 5 116 L 83 116 83 126"></path><path transform="translate(1, 1)" stroke-width="3" stroke-opacity="0.12" stroke="rgb(0,0,0)"  fill="none" d="M 5 116 L 83 116 83 126"></path><path transform="translate(1, 1)" stroke-width="1" stroke-opacity="0.18" stroke="rgb(0,0,0)"  fill="none" d="M 5 116 L 83 116 83 126"></path><path fill="none" d="M 5 116 L 83 116 83 126"></path><rect stroke="#FFFFFF" stroke-opacity="0" stroke-width="1" height="10" width="78" y="121" x="0" fill="url('#highcharts-139')" ry="0" rx="0"></rect><path stroke="#FFFFFF" stroke-opacity="0" stroke-width="1" fill="url('#highcharts-137')" d="M 0 121 L 78 121 83 116 5 116 Z"></path><path stroke="#FFFFFF" stroke-opacity="0" stroke-width="1" fill="url('#highcharts-138')" d="M 78 121 L 83 116 83 126 78 131 Z"></path></g><g  class="highcharts-point"><path transform="translate(1, 1)" stroke-width="5" stroke-opacity="0.06" stroke="rgb(0,0,0)"  fill="none" d="M 5 99 L 41 99 41 109"></path><path transform="translate(1, 1)" stroke-width="3" stroke-opacity="0.12" stroke="rgb(0,0,0)"  fill="none" d="M 5 99 L 41 99 41 109"></path><path transform="translate(1, 1)" stroke-width="1" stroke-opacity="0.18" stroke="rgb(0,0,0)"  fill="none" d="M 5 99 L 41 99 41 109"></path><path fill="none" d="M 5 99 L 41 99 41 109"></path><rect stroke="#FFFFFF" stroke-opacity="0" stroke-width="1" height="10" width="36" y="104" x="0" fill="url('#highcharts-142')" ry="0" rx="0"></rect><path stroke="#FFFFFF" stroke-opacity="0" stroke-width="1" fill="url('#highcharts-140')" d="M 0 104 L 36 104 41 99 5 99 Z"></path><path stroke="#FFFFFF" stroke-opacity="0" stroke-width="1" fill="url('#highcharts-141')" d="M 36 104 L 41 99 41 109 36 114 Z"></path></g><g  class="highcharts-point"><path transform="translate(1, 1)" stroke-width="5" stroke-opacity="0.06" stroke="rgb(0,0,0)"  fill="none" d="M 5 89 L 129 89 129 99"></path><path transform="translate(1, 1)" stroke-width="3" stroke-opacity="0.12" stroke="rgb(0,0,0)"  fill="none" d="M 5 89 L 129 89 129 99"></path><path transform="translate(1, 1)" stroke-width="1" stroke-opacity="0.18" stroke="rgb(0,0,0)"  fill="none" d="M 5 89 L 129 89 129 99"></path><path fill="none" d="M 5 89 L 129 89 129 99"></path><rect stroke="#FFFFFF" stroke-opacity="0" stroke-width="1" height="10" width="124" y="94" x="0" fill="url('#highcharts-145')" ry="0" rx="0"></rect><path stroke="#FFFFFF" stroke-opacity="0" stroke-width="1" fill="url('#highcharts-143')" d="M 0 94 L 124 94 129 89 5 89 Z"></path><path stroke="#FFFFFF" stroke-opacity="0" stroke-width="1" fill="url('#highcharts-144')" d="M 124 94 L 129 89 129 99 124 104 Z"></path></g><g  class="highcharts-point"><path transform="translate(1, 1)" stroke-width="5" stroke-opacity="0.06" stroke="rgb(0,0,0)"  fill="none" d="M 5 78 L 13 78 13 88"></path><path transform="translate(1, 1)" stroke-width="3" stroke-opacity="0.12" stroke="rgb(0,0,0)"  fill="none" d="M 5 78 L 13 78 13 88"></path><path transform="translate(1, 1)" stroke-width="1" stroke-opacity="0.18" stroke="rgb(0,0,0)"  fill="none" d="M 5 78 L 13 78 13 88"></path><path fill="none" d="M 5 78 L 13 78 13 88"></path><rect stroke="#FFFFFF" stroke-opacity="0" stroke-width="1" height="10" width="8" y="83" x="0" fill="url('#highcharts-148')" ry="0" rx="0"></rect><path stroke="#FFFFFF" stroke-opacity="0" stroke-width="1" fill="url('#highcharts-146')" d="M 0 83 L 8 83 13 78 5 78 Z"></path><path stroke="#FFFFFF" stroke-opacity="0" stroke-width="1" fill="url('#highcharts-147')" d="M 8 83 L 13 78 13 88 8 93 Z"></path></g><g  class="highcharts-point"><path transform="translate(1, 1)" stroke-width="5" stroke-opacity="0.06" stroke="rgb(0,0,0)"  fill="none" d="M 5 61 L 100 61 100 71"></path><path transform="translate(1, 1)" stroke-width="3" stroke-opacity="0.12" stroke="rgb(0,0,0)"  fill="none" d="M 5 61 L 100 61 100 71"></path><path transform="translate(1, 1)" stroke-width="1" stroke-opacity="0.18" stroke="rgb(0,0,0)"  fill="none" d="M 5 61 L 100 61 100 71"></path><path fill="none" d="M 5 61 L 100 61 100 71"></path><rect stroke="#FFFFFF" stroke-opacity="0" stroke-width="1" height="10" width="95" y="66" x="0" fill="url('#highcharts-151')" ry="0" rx="0"></rect><path stroke="#FFFFFF" stroke-opacity="0" stroke-width="1" fill="url('#highcharts-149')" d="M 0 66 L 95 66 100 61 5 61 Z"></path><path stroke="#FFFFFF" stroke-opacity="0" stroke-width="1" fill="url('#highcharts-150')" d="M 95 66 L 100 61 100 71 95 76 Z"></path></g><g  class="highcharts-point"><path transform="translate(1, 1)" stroke-width="5" stroke-opacity="0.06" stroke="rgb(0,0,0)"  fill="none" d="M 5 51 L 81 51 81 61"></path><path transform="translate(1, 1)" stroke-width="3" stroke-opacity="0.12" stroke="rgb(0,0,0)"  fill="none" d="M 5 51 L 81 51 81 61"></path><path transform="translate(1, 1)" stroke-width="1" stroke-opacity="0.18" stroke="rgb(0,0,0)"  fill="none" d="M 5 51 L 81 51 81 61"></path><path fill="none" d="M 5 51 L 81 51 81 61"></path><rect stroke="#FFFFFF" stroke-opacity="0" stroke-width="1" height="10" width="76" y="56" x="0" fill="url('#highcharts-154')" ry="0" rx="0"></rect><path stroke="#FFFFFF" stroke-opacity="0" stroke-width="1" fill="url('#highcharts-152')" d="M 0 56 L 76 56 81 51 5 51 Z"></path><path stroke="#FFFFFF" stroke-opacity="0" stroke-width="1" fill="url('#highcharts-153')" d="M 76 56 L 81 51 81 61 76 66 Z"></path></g><g  class="highcharts-point"><path transform="translate(1, 1)" stroke-width="5" stroke-opacity="0.06" stroke="rgb(0,0,0)"  fill="none" d="M 5 41 L 140 41 140 51"></path><path transform="translate(1, 1)" stroke-width="3" stroke-opacity="0.12" stroke="rgb(0,0,0)"  fill="none" d="M 5 41 L 140 41 140 51"></path><path transform="translate(1, 1)" stroke-width="1" stroke-opacity="0.18" stroke="rgb(0,0,0)"  fill="none" d="M 5 41 L 140 41 140 51"></path><path fill="none" d="M 5 41 L 140 41 140 51"></path><rect stroke="#FFFFFF" stroke-opacity="0" stroke-width="1" height="10" width="135" y="46" x="0" fill="url('#highcharts-157')" ry="0" rx="0"></rect><path stroke="#FFFFFF" stroke-opacity="0" stroke-width="1" fill="url('#highcharts-155')" d="M 0 46 L 135 46 140 41 5 41 Z"></path><path stroke="#FFFFFF" stroke-opacity="0" stroke-width="1" fill="url('#highcharts-156')" d="M 135 46 L 140 41 140 51 135 56 Z"></path></g><g  class="highcharts-point"><path transform="translate(1, 1)" stroke-width="5" stroke-opacity="0.06" stroke="rgb(0,0,0)"  fill="none" d="M 5 23 L 237 23 237 33"></path><path transform="translate(1, 1)" stroke-width="3" stroke-opacity="0.12" stroke="rgb(0,0,0)"  fill="none" d="M 5 23 L 237 23 237 33"></path><path transform="translate(1, 1)" stroke-width="1" stroke-opacity="0.18" stroke="rgb(0,0,0)"  fill="none" d="M 5 23 L 237 23 237 33"></path><path fill="none" d="M 5 23 L 237 23 237 33"></path><rect stroke="#FFFFFF" stroke-opacity="0" stroke-width="1" height="10" width="232" y="28" x="0" fill="url('#highcharts-160')" ry="0" rx="0"></rect><path stroke="#FFFFFF" stroke-opacity="0" stroke-width="1" fill="url('#highcharts-158')" d="M 0 28 L 232 28 237 23 5 23 Z"></path><path stroke="#FFFFFF" stroke-opacity="0" stroke-width="1" fill="url('#highcharts-159')" d="M 232 28 L 237 23 237 33 232 38 Z"></path></g><g  class="highcharts-point"><path transform="translate(1, 1)" stroke-width="5" stroke-opacity="0.06" stroke="rgb(0,0,0)"  fill="none" d="M 5 13 L 350 13 350 23"></path><path transform="translate(1, 1)" stroke-width="3" stroke-opacity="0.12" stroke="rgb(0,0,0)"  fill="none" d="M 5 13 L 350 13 350 23"></path><path transform="translate(1, 1)" stroke-width="1" stroke-opacity="0.18" stroke="rgb(0,0,0)"  fill="none" d="M 5 13 L 350 13 350 23"></path><path fill="none" d="M 5 13 L 350 13 350 23"></path><rect stroke="#FFFFFF" stroke-opacity="0" stroke-width="1" height="10" width="345" y="18" x="0" fill="url('#highcharts-163')" ry="0" rx="0"></rect><path stroke="#FFFFFF" stroke-opacity="0" stroke-width="1" fill="url('#highcharts-161')" d="M 0 18 L 345 18 350 13 5 13 Z"></path><path stroke="#FFFFFF" stroke-opacity="0" stroke-width="1" fill="url('#highcharts-162')" d="M 345 18 L 350 13 350 23 345 28 Z"></path></g><g  class="highcharts-point"><path transform="translate(1, 1)" stroke-width="5" stroke-opacity="0.06" stroke="rgb(0,0,0)"  fill="none" d="M 5 3 L 393 3 393 13"></path><path transform="translate(1, 1)" stroke-width="3" stroke-opacity="0.12" stroke="rgb(0,0,0)"  fill="none" d="M 5 3 L 393 3 393 13"></path><path transform="translate(1, 1)" stroke-width="1" stroke-opacity="0.18" stroke="rgb(0,0,0)"  fill="none" d="M 5 3 L 393 3 393 13"></path><path fill="none" d="M 5 3 L 393 3 393 13"></path><rect stroke="#FFFFFF" stroke-opacity="0" stroke-width="1" height="10" width="388" y="8" x="0" fill="url('#highcharts-166')" ry="0" rx="0"></rect><path stroke="#FFFFFF" stroke-opacity="0" stroke-width="1" fill="url('#highcharts-164')" d="M 0 8 L 388 8 393 3 5 3 Z"></path><path stroke="#FFFFFF" stroke-opacity="0" stroke-width="1" fill="url('#highcharts-165')" d="M 388 8 L 393 3 393 13 388 18 Z"></path></g></g></g><g transform="translate(85, 18)"  visibility="" class="highcharts-data-labels"><text  text-anchor="start" style="font-family: verdana; font-size: 10px; color: rgb(73, 86, 58); line-height: 12px; text-decoration: none; font-weight: normal; font-style: normal; fill: rgb(73, 86, 58);" y="35.7752" x="235"><tspan x="235">1500</tspan></text><text  text-anchor="start" style="font-family: verdana; font-size: 10px; color: rgb(73, 86, 58); line-height: 12px; text-decoration: none; font-weight: normal; font-style: normal; fill: rgb(73, 86, 58);" y="73.602" x="98"><tspan x="98">611</tspan></text><text  text-anchor="start" style="font-family: verdana; font-size: 10px; color: rgb(73, 86, 58); line-height: 12px; text-decoration: none; font-weight: normal; font-style: normal; fill: rgb(73, 86, 58);" y="111.429" x="39"><tspan x="39">228</tspan></text><text  text-anchor="start" style="font-family: verdana; font-size: 10px; color: rgb(73, 86, 58); line-height: 12px; text-decoration: none; font-weight: normal; font-style: normal; fill: rgb(73, 86, 58);" y="149.256" x="48"><tspan x="48">285</tspan></text><text  text-anchor="start" style="font-family: verdana; font-size: 10px; color: rgb(73, 86, 58); line-height: 12px; text-decoration: none; font-weight: normal; font-style: normal; fill: rgb(73, 86, 58);" y="187.082" x="31"><tspan x="31">174</tspan></text></g><g transform="translate(85, 18)"  visibility="" class="highcharts-data-labels"><text  text-anchor="start" style="font-family: verdana; font-size: 10px; color: rgb(73, 86, 58); line-height: 12px; text-decoration: none; font-weight: normal; font-style: normal; fill: rgb(73, 86, 58);" y="25.6881" x="348"><tspan x="348">2232</tspan></text><text  text-anchor="start" style="font-family: verdana; font-size: 10px; color: rgb(73, 86, 58); line-height: 12px; text-decoration: none; font-weight: normal; font-style: normal; fill: rgb(73, 86, 58);" y="63.5149" x="80"><tspan x="80">491</tspan></text><text  text-anchor="start" style="font-family: verdana; font-size: 10px; color: rgb(73, 86, 58); line-height: 12px; text-decoration: none; font-weight: normal; font-style: normal; fill: rgb(73, 86, 58);" y="101.342" x="127"><tspan x="127">799</tspan></text><text  text-anchor="start" style="font-family: verdana; font-size: 10px; color: rgb(73, 86, 58); line-height: 12px; text-decoration: none; font-weight: normal; font-style: normal; fill: rgb(73, 86, 58);" y="139.168" x="237"><tspan x="237">1508</tspan></text><text  text-anchor="start" style="font-family: verdana; font-size: 10px; color: rgb(73, 86, 58); line-height: 12px; text-decoration: none; font-weight: normal; font-style: normal; fill: rgb(73, 86, 58);" y="176.995" x="177"><tspan x="177">1120</tspan></text></g><g transform="translate(85, 18)"  visibility="" class="highcharts-data-labels"><text  text-anchor="start" style="font-family: verdana; font-size: 10px; color: rgb(73, 86, 58); line-height: 12px; text-decoration: none; font-weight: normal; font-style: normal; fill: rgb(73, 86, 58);" y="15.6009" x="392"><tspan x="392">2514</tspan></text><text  text-anchor="start" style="font-family: verdana; font-size: 10px; color: rgb(73, 86, 58); line-height: 12px; text-decoration: none; font-weight: normal; font-style: normal; fill: rgb(73, 86, 58);" y="53.4277" x="139"><tspan x="139">872</tspan></text><text  text-anchor="start" style="font-family: verdana; font-size: 10px; color: rgb(73, 86, 58); line-height: 12px; text-decoration: none; font-weight: normal; font-style: normal; fill: rgb(73, 86, 58);" y="91.2545" x="11"><tspan x="11">47</tspan></text><text  text-anchor="start" style="font-family: verdana; font-size: 10px; color: rgb(73, 86, 58); line-height: 12px; text-decoration: none; font-weight: normal; font-style: normal; fill: rgb(73, 86, 58);" y="129.081" x="81"><tspan x="81">500</tspan></text><text  text-anchor="start" style="font-family: verdana; font-size: 10px; color: rgb(73, 86, 58); line-height: 12px; text-decoration: none; font-weight: normal; font-style: normal; fill: rgb(73, 86, 58);" y="166.908" x="143"><tspan x="143">903</tspan></text></g><g  class="highcharts-axis"></g><g  class="highcharts-axis"></g><g  class="highcharts-axis"></g><g visibility="hidden"  class="highcharts-tooltip"><rect fill-opacity="1" stroke-width="1" height="0" width="0" y="1.5" x="1.5" fill="rgb(255,255,255)" ry="1" rx="1"></rect><text  style="font-family: verdana; font-size: 10px; color: rgb(73, 86, 58); padding: 0pt; white-space: nowrap; line-height: 12px; fill: rgb(73, 86, 58);" y="11" x="1"><tspan x="1"> </tspan></text></g><text  text-anchor="end" style="font-family: 'lucida grande','lucida sans unicode',verdana,arial,helvetica,sans-serif; font-size: 10px; cursor: pointer; color: rgb(144, 144, 144); fill: rgb(144, 144, 144);" y="272" x="558"><tspan x="558">FusionCharts</tspan></text><g height="195" width="463" transform="translate(548, 213) rotate(90) scale(-1, 1)"  class="highcharts-tracker"><path style=""  visibility="" fill-opacity="0.000001"  fill="rgb(192,192,192)" d="M 1 441 L 1 468 11 468 16 463 16 436 6 436 Z"></path><path style=""  visibility="" fill-opacity="0.000001"  fill="rgb(192,192,192)" d="M 11 295 L 11 468 21 468 26 463 26 290 16 290 Z"></path><path style=""  visibility="" fill-opacity="0.000001"  fill="rgb(192,192,192)" d="M 21 328 L 21 468 31 468 36 463 36 323 26 323 Z"></path><path style=""  visibility="" fill-opacity="0.000001"  fill="rgb(192,192,192)" d="M 39 424 L 39 468 49 468 54 463 54 419 44 419 Z"></path><path style=""  visibility="" fill-opacity="0.000001"  fill="rgb(192,192,192)" d="M 49 235 L 49 468 59 468 64 463 64 230 54 230 Z"></path><path style=""  visibility="" fill-opacity="0.000001"  fill="rgb(192,192,192)" d="M 59 390 L 59 468 69 468 74 463 74 385 64 385 Z"></path><path style=""  visibility="" fill-opacity="0.000001"  fill="rgb(192,192,192)" d="M 76 432 L 76 468 86 468 91 463 91 427 81 427 Z"></path><path style=""  visibility="" fill-opacity="0.000001"  fill="rgb(192,192,192)" d="M 86 344 L 86 468 96 468 101 463 101 339 91 339 Z"></path><path style=""  visibility="" fill-opacity="0.000001"  fill="rgb(192,192,192)" d="M 97 460 L 97 468 107 468 112 463 112 455 102 455 Z"></path><path style=""  visibility="" fill-opacity="0.000001"  fill="rgb(192,192,192)" d="M 114 373 L 114 468 124 468 129 463 129 368 119 368 Z"></path><path style=""  visibility="" fill-opacity="0.000001"  fill="rgb(192,192,192)" d="M 124 392 L 124 468 134 468 139 463 139 387 129 387 Z"></path><path style=""  visibility="" fill-opacity="0.000001"  fill="rgb(192,192,192)" d="M 134 333 L 134 468 144 468 149 463 149 328 139 328 Z"></path><path style=""  visibility="" fill-opacity="0.000001"  fill="rgb(192,192,192)" d="M 152 236 L 152 468 162 468 167 463 167 231 157 231 Z"></path><path style=""  visibility="" fill-opacity="0.000001"  fill="rgb(192,192,192)" d="M 162 123 L 162 468 172 468 177 463 177 118 167 118 Z"></path><path style=""  visibility="" fill-opacity="0.000001"  fill="rgb(192,192,192)" d="M 172 80 L 172 468 182 468 187 463 187 75 177 75 Z"></path></g><g transform="translate(191, 239)"  class="highcharts-legend"><rect visibility="" transform="translate(1, 1)"  fill-opacity="1" stroke="rgb(0,0,0)" stroke-opacity="0.06" stroke-width="5" height="22" width="241" y="0.5" x="0.5" fill="none" ry="0" rx="0"></rect><rect visibility="" transform="translate(1, 1)"  fill-opacity="1" stroke="rgb(0,0,0)" stroke-opacity="0.12" stroke-width="3" height="22" width="241" y="0.5" x="0.5" fill="none" ry="0" rx="0"></rect><rect visibility="" transform="translate(1, 1)"  fill-opacity="1" stroke="rgb(0,0,0)" stroke-opacity="0.18" stroke-width="1" height="22" width="241" y="0.5" x="0.5" fill="none" ry="0" rx="0"></rect><rect visibility="" fill-opacity="1" stroke="rgb(198,207,184)" stroke-opacity="1" stroke-width="1" height="22" width="241" y="0.5" x="0.5" fill="rgb(240,243,237)" ry="0" rx="0"></rect><text transform="translate(23, 16)"  style="font-family: verdana; font-size: 10px; cursor: pointer; color: rgb(73, 86, 58); line-height: 12px; fill: rgb(73, 86, 58);" y="0" x="0"><tspan x="0">Sum 2010</tspan></text><text transform="translate(101, 16)"  style="font-family: verdana; font-size: 10px; cursor: pointer; color: rgb(73, 86, 58); line-height: 12px; fill: rgb(73, 86, 58);" y="0" x="0"><tspan x="0">Sum 2009</tspan></text><text transform="translate(179, 16)"  style="font-family: verdana; font-size: 10px; cursor: pointer; color: rgb(73, 86, 58); line-height: 12px; fill: rgb(73, 86, 58);" y="0" x="0"><tspan x="0">Sum 2008</tspan></text><path transform="translate(23, 14)" style="cursor: pointer;" stroke="#990000"  stroke-width="0.5" fill="url('#highcharts-114')" d="M -16 -7 L -10.600000000000001 -7 -10.600000000000001 -4.75 -16 -4.75 -16 -3.625 -7 -3.625 -7 -1.375 -16 -1.375 -16 -0.25 -13.3 -0.25 -13.3 2 -16 2 Z"></path><path transform="translate(101, 14)" style="cursor: pointer;" stroke="#009900"  stroke-width="0.5" fill="url('#highcharts-115')" d="M -16 -7 L -10.600000000000001 -7 -10.600000000000001 -4.75 -16 -4.75 -16 -3.625 -7 -3.625 -7 -1.375 -16 -1.375 -16 -0.25 -13.3 -0.25 -13.3 2 -16 2 Z"></path><path transform="translate(179, 14)" style="cursor: pointer;" stroke="#000099"  stroke-width="0.5" fill="url('#highcharts-116')" d="M -16 -7 L -10.600000000000001 -7 -10.600000000000001 -4.75 -16 -4.75 -16 -3.625 -7 -3.625 -7 -1.375 -16 -1.375 -16 -0.25 -13.3 -0.25 -13.3 2 -16 2 Z"></path></g></svg>