<?xml version="1.0" standalone="no"?>
<!DOCTYPE svg PUBLIC "-//W3C//DTD SVG 20010904//EN"
 "http://www.w3.org/TR/2001/REC-SVG-20010904/DTD/svg10.dtd">
<svg version="1.0" xmlns="http://www.w3.org/2000/svg"
 width="48.000000pt" height="48.000000pt" viewBox="0 0 48.000000 48.000000"
 preserveAspectRatio="xMidYMid meet">
<metadata>
Created by potrace 1.13, written by Peter Selinger 2001-2015
</metadata>
<g transform="translate(0.000000,48.000000) scale(0.100000,-0.100000)"
fill="#000000" stroke="none">
<path d="M197 443 c-20 -16 -61 -46 -92 -67 l-56 -40 3 -95 3 -95 74 -57 c40
-31 81 -63 90 -71 14 -12 28 -5 113 57 l97 70 1 93 c0 85 -2 96 -22 113 -30
24 -165 119 -171 119 -2 0 -20 -12 -40 -27z m122 -39 c42 -31 80 -60 84 -64 4
-4 -31 -35 -78 -69 l-85 -62 -85 62 c-47 35 -81 67 -77 71 12 12 156 117 161
118 2 0 38 -25 80 -56z m-166 -144 l77 -55 0 -89 0 -88 -32 24 c-18 14 -57 42
-85 63 l-53 39 0 84 c0 46 4 82 8 80 4 -1 42 -28 85 -58z m267 -29 l0 -79 -84
-61 c-46 -33 -87 -61 -90 -61 -3 0 -6 36 -6 80 0 90 -5 83 105 163 33 25 63
42 68 40 4 -2 7 -39 7 -82z"/>
</g>
</svg>
