<svg xmlns:xlink="http://www.w3.org/1999/xlink" height="339" width="542" version="1.1" xmlns="http://www.w3.org/2000/svg"><defs><clipPath id="highcharts-15"><rect stroke-width="0" height="337" width="540" y="1" x="1" fill="none" ry="0" rx="0"></rect></clipPath><clipPath id="highcharts-16"><rect stroke-width="0" height="542" width="339" y="-47" x="-15" fill="none" ry="0" rx="0"></rect></clipPath><linearGradient y2="100%" x2="50%" y1="0%" x1="50%" gradientUnits="objectBoundingBox" id="highcharts-17"><stop stop-opacity="1" stop-color="#FF0000" offset="0%"></stop><stop stop-opacity="1" stop-color="#FFFFFF" offset="100%"></stop></linearGradient><linearGradient y2="100%" x2="50%" y1="0%" x1="50%" gradientUnits="objectBoundingBox" id="highcharts-18"><stop stop-opacity="1" stop-color="#00FF00" offset="0%"></stop><stop stop-opacity="1" stop-color="#FFFFFF" offset="100%"></stop></linearGradient><linearGradient y2="100%" x2="50%" y1="0%" x1="50%" gradientUnits="objectBoundingBox" id="highcharts-19"><stop stop-opacity="1" stop-color="#0000FF" offset="0%"></stop><stop stop-opacity="1" stop-color="#FFFFFF" offset="100%"></stop></linearGradient></defs><rect fill-opacity="0" stroke="rgb(255,255,255)" stroke-opacity="0.5" stroke-width="1" height="338" width="541" y="0.5" x="0.5" fill="#FFFFFF" ry="0" rx="0"></rect><rect fill-opacity="1" stroke-width="0" height="293" width="480" y="15" x="47" fill="#FFFFFF" ry="0" rx="0"></rect><path fill-opacity="0" fill="rgb(0,0,0)" d="M 47 67 L 527 67 527 162 47 162"></path><path fill-opacity="0" fill="rgb(0,0,0)" d="M 47 256 L 527 256 527 308 47 308"></path><path stroke-width="0.1" stroke="rgb(0,0,0)" stroke-opacity="0" fill="none" d="M 47 67.05 L 527 67.05"></path><text visibility="" text-anchor="end" style="font-family:verdana;font-size:10px;line-height:14px;color:#555555;fill:#555555;" y="71" x="43"><tspan x="43">2008</tspan></text><path stroke-width="0.1" stroke="rgb(0,0,0)" stroke-opacity="0" fill="none" d="M 47 162.05 L 527 162.05"></path><text visibility="" text-anchor="end" style="font-family:verdana;font-size:10px;line-height:14px;color:#555555;fill:#555555;" y="166" x="43"><tspan x="43">2009</tspan></text><path stroke-width="0.1" stroke="rgb(0,0,0)" stroke-opacity="0" fill="none" d="M 47 256.05 L 527 256.05"></path><text visibility="" text-anchor="end" style="font-family:verdana;font-size:10px;line-height:14px;color:#555555;fill:#555555;" y="260" x="43"><tspan x="43">2010</tspan></text><path fill-opacity="0" fill="rgb(0,0,0)" d="M 47 15 L 47 308 143 308 143 15"></path><path fill-opacity="0" fill="rgb(0,0,0)" d="M 239 15 L 239 308 335 308 335 15"></path><path fill-opacity="0" fill="rgb(0,0,0)" d="M 431 15 L 431 308 527 308 527 15"></path><g  class="highcharts-grid"></g><g  class="highcharts-grid"></g><g  class="highcharts-grid"></g><path  stroke-width="0.1" stroke="rgb(0,0,0)" stroke-opacity="0" fill="none" d="M 47.05 15 L 47.05 308"></path><text visibility=""  text-anchor="middle" style="font-family:verdana;font-size:10px;line-height:14px;color:#555555;fill:#555555;" y="324" x="47"><tspan x="47">0</tspan></text><path  fill-opacity="0.1" fill="rgb(118,117,117)" d="M 143 15 L 143 308 239 308 239 15"></path><path  fill-opacity="0.1" fill="rgb(118,117,117)" d="M 335 15 L 335 308 431 308 431 15"></path><rect  stroke-linejoin="round" stroke="rgb(84,84,84)" stroke-opacity="1" stroke-width="2" height="295" width="482" y="14" x="46" fill="none" ry="0" rx="0"></rect><path  stroke-width="1" stroke="rgb(113,113,112)" stroke-opacity="0.4" fill="none" d="M 143.5 15 L 143.5 308"></path><text visibility=""  text-anchor="middle" style="font-family:verdana;font-size:10px;line-height:14px;color:#555555;fill:#555555;" y="324" x="144"><tspan x="144">1M</tspan></text><path  stroke-width="1" stroke="rgb(113,113,112)" stroke-opacity="0.4" fill="none" d="M 239.5 15 L 239.5 308"></path><text visibility=""  text-anchor="middle" style="font-family:verdana;font-size:10px;line-height:14px;color:#555555;fill:#555555;" y="324" x="240"><tspan x="240">2M</tspan></text><path  stroke-width="1" stroke="rgb(113,113,112)" stroke-opacity="0.4" fill="none" d="M 335.5 15 L 335.5 308"></path><text visibility=""  text-anchor="middle" style="font-family:verdana;font-size:10px;line-height:14px;color:#555555;fill:#555555;" y="324" x="336"><tspan x="336">3M</tspan></text><path  stroke-width="1" stroke="rgb(113,113,112)" stroke-opacity="0.4" fill="none" d="M 431.5 15 L 431.5 308"></path><text visibility=""  text-anchor="middle" style="font-family:verdana;font-size:10px;line-height:14px;color:#555555;fill:#555555;" y="324" x="432"><tspan x="432">4M</tspan></text><path  stroke-width="0.1" stroke="rgb(0,0,0)" stroke-opacity="0" fill="none" d="M 527.05 15 L 527.05 308"></path><text visibility=""  text-anchor="middle" style="font-family:verdana;font-size:10px;line-height:14px;color:#555555;fill:#555555;" y="324" x="527"><tspan x="527">5M</tspan></text><g  class="highcharts-series-group"><g visibility="" clip-path="url('#highcharts-16')" transform="translate(527,308) rotate(90) scale(-1,1)" height="293" width="480" class="highcharts-series"><rect r="0" stroke="#333333" stroke-opacity="1" stroke-width="1" height="353" width="49" y="126.5" x="216.5" fill="url('#highcharts-17')" ry="0" rx="0"></rect><rect r="0" stroke="#333333" stroke-opacity="1" stroke-width="1" height="478" width="49" y="1.5" x="121.5" fill="url('#highcharts-18')" ry="0" rx="0"></rect><rect r="0" stroke="#333333" stroke-opacity="1" stroke-width="1" height="190" width="49" y="289.5" x="27.5" fill="url('#highcharts-19')" ry="0" rx="0"></rect></g></g><g transform="translate(47,15)"  visibility="" class="highcharts-data-labels"><text  text-anchor="start" style="font-family:verdana;font-size:10px;color:#555555;line-height:14px;text-decoration:none;font-weight:normal;font-style:normal;fill:#555555;" y="55.58387096774195" x="357"><tspan x="357">3.68M</tspan></text><text  text-anchor="end" style="font-family:verdana;font-size:10px;color:#555555;line-height:14px;text-decoration:none;font-weight:normal;font-style:normal;fill:#555555;" y="150.10000000000002" x="475"><tspan x="475">4.99M</tspan></text><text  text-anchor="start" style="font-family:verdana;font-size:10px;color:#555555;line-height:14px;text-decoration:none;font-weight:normal;font-style:normal;fill:#555555;" y="244.61612903225807" x="194"><tspan x="194">1.98M</tspan></text></g><g  class="highcharts-axis"></g><g  class="highcharts-axis"></g><g  class="highcharts-axis"></g><g visibility="hidden"  class="highcharts-tooltip"><rect fill-opacity="1" stroke-width="1" height="0" width="0" y="1.5" x="1.5" fill="rgb(255,255,255)" ry="1" rx="1"></rect><text  style="font-family:verdana;font-size:10px;color:#555555;padding:0;white-space:nowrap;line-height:14px;fill:#555555;" y="11" x="1"><tspan x="1"> </tspan></text></g><text  text-anchor="end" style="font-family:'lucida grande', 'lucida sans unicode', verdana, arial, helvetica, sans-serif;font-size:10px;cursor:pointer;color:#909090;fill:#909090;" y="334" x="532"><tspan x="532">FusionCharts</tspan></text><g height="293" width="480" transform="translate(527,308) rotate(90) scale(-1,1)"  class="highcharts-tracker"><rect style=""  visibility="" fill-opacity="0.000001"  stroke-width="0" height="354" width="50" y="126" x="216" fill="rgb(192,192,192)" ry="0" rx="0"></rect><rect style=""  visibility="" fill-opacity="0.000001"  stroke-width="0" height="479" width="50" y="1" x="121" fill="rgb(192,192,192)" ry="0" rx="0"></rect><rect style=""  visibility="" fill-opacity="0.000001"  stroke-width="0" height="191" width="50" y="289" x="27" fill="rgb(192,192,192)" ry="0" rx="0"></rect></g></svg>