<svg xmlns:xlink="http://www.w3.org/1999/xlink" height="339" width="542" version="1.1" xmlns="http://www.w3.org/2000/svg"><defs><clipPath id="highcharts-15"><rect stroke-width="0" height="337" width="540" y="1" x="1" fill="none" ry="0" rx="0"></rect></clipPath><clipPath id="highcharts-16"><rect stroke-width="0" height="339" width="542" y="-15" x="-35" fill="none" ry="0" rx="0"></rect></clipPath><linearGradient y2="100%" x2="50%" y1="0%" x1="50%" gradientUnits="objectBoundingBox" id="highcharts-17"><stop stop-opacity="1" stop-color="#FF0000" offset="0%"></stop><stop stop-opacity="1" stop-color="#FFFFFF" offset="100%"></stop></linearGradient><linearGradient y2="100%" x2="50%" y1="0%" x1="50%" gradientUnits="objectBoundingBox" id="highcharts-18"><stop stop-opacity="1" stop-color="#00FF00" offset="0%"></stop><stop stop-opacity="1" stop-color="#FFFFFF" offset="100%"></stop></linearGradient><linearGradient y2="100%" x2="50%" y1="0%" x1="50%" gradientUnits="objectBoundingBox" id="highcharts-19"><stop stop-opacity="1" stop-color="#0000FF" offset="0%"></stop><stop stop-opacity="1" stop-color="#FFFFFF" offset="100%"></stop></linearGradient></defs><rect fill-opacity="0" stroke="rgb(255,255,255)" stroke-opacity="0.5" stroke-width="1" height="338" width="541" y="0.5" x="0.5" fill="#FFFFFF" ry="0" rx="0"></rect><rect fill-opacity="1" stroke-width="0" height="293" width="492" y="15" x="35" fill="#FFFFFF" ry="0" rx="0"></rect><path fill-opacity="0" fill="rgb(0,0,0)" d="M 35 15 L 35 308 117 308 117 15"></path><path fill-opacity="0" fill="rgb(0,0,0)" d="M 199 15 L 199 308 281 308 281 15"></path><path fill-opacity="0" fill="rgb(0,0,0)" d="M 363 15 L 363 308 445 308 445 15"></path><path stroke-width="0.1" stroke="rgb(0,0,0)" stroke-opacity="0" fill="none" d="M 117.05 15 L 117.05 308"></path><text visibility="" text-anchor="middle" style="font-family:verdana;font-size:10px;line-height:14px;color:#555555;fill:#555555;" y="324" x="117"><tspan x="117">2008</tspan></text><path stroke-width="0.1" stroke="rgb(0,0,0)" stroke-opacity="0" fill="none" d="M 281.05 15 L 281.05 308"></path><text visibility="" text-anchor="middle" style="font-family:verdana;font-size:10px;line-height:14px;color:#555555;fill:#555555;" y="324" x="281"><tspan x="281">2009</tspan></text><path stroke-width="0.1" stroke="rgb(0,0,0)" stroke-opacity="0" fill="none" d="M 445.05 15 L 445.05 308"></path><text visibility="" text-anchor="middle" style="font-family:verdana;font-size:10px;line-height:14px;color:#555555;fill:#555555;" y="324" x="445"><tspan x="445">2010</tspan></text><path fill-opacity="0" fill="rgb(0,0,0)" d="M 35 308 L 527 308 527 249 35 249"></path><path fill-opacity="0" fill="rgb(0,0,0)" d="M 35 191 L 527 191 527 132 35 132"></path><path fill-opacity="0" fill="rgb(0,0,0)" d="M 35 74 L 527 74 527 15 35 15"></path><g  class="highcharts-grid"></g><g  class="highcharts-grid"></g><g  class="highcharts-grid"></g><path  stroke-width="0.1" stroke="rgb(0,0,0)" stroke-opacity="0" fill="none" d="M 35 308.05 L 527 308.05"></path><text visibility=""  text-anchor="end" style="font-family:verdana;font-size:10px;line-height:14px;color:#555555;fill:#555555;" y="312" x="31"><tspan x="31">0</tspan></text><path  fill-opacity="0.5" fill="rgb(238,238,238)" d="M 35 249 L 527 249 527 191 35 191"></path><path  fill-opacity="0.5" fill="rgb(238,238,238)" d="M 35 132 L 527 132 527 74 35 74"></path><rect  stroke-linejoin="round" stroke="rgb(84,84,84)" stroke-opacity="1" stroke-width="2" height="295" width="494" y="14" x="34" fill="none" ry="0" rx="0"></rect><path  stroke-width="1" stroke="rgb(113,113,112)" stroke-opacity="0.4" fill="none" d="M 35 249.5 L 527 249.5"></path><text visibility=""  text-anchor="end" style="font-family:verdana;font-size:10px;line-height:14px;color:#555555;fill:#555555;" y="253" x="31"><tspan x="31">1M</tspan></text><path  stroke-width="1" stroke="rgb(113,113,112)" stroke-opacity="0.4" fill="none" d="M 35 191.5 L 527 191.5"></path><text visibility=""  text-anchor="end" style="font-family:verdana;font-size:10px;line-height:14px;color:#555555;fill:#555555;" y="195" x="31"><tspan x="31">2M</tspan></text><path  stroke-width="1" stroke="rgb(113,113,112)" stroke-opacity="0.4" fill="none" d="M 35 132.5 L 527 132.5"></path><text visibility=""  text-anchor="end" style="font-family:verdana;font-size:10px;line-height:14px;color:#555555;fill:#555555;" y="136" x="31"><tspan x="31">3M</tspan></text><path  stroke-width="1" stroke="rgb(113,113,112)" stroke-opacity="0.4" fill="none" d="M 35 74.5 L 527 74.5"></path><text visibility=""  text-anchor="end" style="font-family:verdana;font-size:10px;line-height:14px;color:#555555;fill:#555555;" y="78" x="31"><tspan x="31">4M</tspan></text><path  stroke-width="0.1" stroke="rgb(0,0,0)" stroke-opacity="0" fill="none" d="M 35 15.05 L 527 15.05"></path><text visibility=""  text-anchor="end" style="font-family:verdana;font-size:10px;line-height:14px;color:#555555;fill:#555555;" y="19" x="31"><tspan x="31">5M</tspan></text><g  class="highcharts-series-group"><g transform="translate(35,15)" visibility="" clip-path="url('#highcharts-16')" class="highcharts-series"><rect r="0" stroke="#333333" stroke-opacity="1" stroke-width="1" height="215" width="49" y="77.5" x="57.5" fill="url('#highcharts-17')" ry="0" rx="0"></rect><rect r="0" stroke="#333333" stroke-opacity="1" stroke-width="1" height="292" width="49" y="0.5" x="221.5" fill="url('#highcharts-18')" ry="0" rx="0"></rect><rect r="0" stroke="#333333" stroke-opacity="1" stroke-width="1" height="116" width="49" y="176.5" x="385.5" fill="url('#highcharts-19')" ry="0" rx="0"></rect></g></g><g transform="translate(35,15)"  visibility="" class="highcharts-data-labels"><text  text-anchor="middle" style="font-family:verdana;font-size:10px;color:#555555;line-height:14px;text-decoration:none;font-weight:normal;font-style:normal;fill:#555555;" y="72" x="82"><tspan x="82">3.68M</tspan></text><text  text-anchor="middle" style="font-family:verdana;font-size:10px;color:#555555;line-height:14px;text-decoration:none;font-weight:normal;font-style:normal;fill:#555555;" y="17" x="246"><tspan x="246">4.99M</tspan></text><text  text-anchor="middle" style="font-family:verdana;font-size:10px;color:#555555;line-height:14px;text-decoration:none;font-weight:normal;font-style:normal;fill:#555555;" y="171" x="410"><tspan x="410">1.98M</tspan></text></g><g  class="highcharts-axis"></g><g  class="highcharts-axis"></g><g  class="highcharts-axis"></g><g visibility="hidden"  class="highcharts-tooltip"><rect fill-opacity="1" stroke-width="1" height="0" width="0" y="1.5" x="1.5" fill="rgb(255,255,255)" ry="1" rx="1"></rect><text  style="font-family:verdana;font-size:10px;color:#555555;padding:0;white-space:nowrap;line-height:14px;fill:#555555;" y="11" x="1"><tspan x="1"> </tspan></text></g><text  text-anchor="end" style="font-family:'lucida grande', 'lucida sans unicode', verdana, arial, helvetica, sans-serif;font-size:10px;cursor:pointer;color:#909090;fill:#909090;" y="334" x="532"><tspan x="532">FusionCharts</tspan></text><g transform="translate(35,15)"  class="highcharts-tracker"><rect style=""  visibility="" fill-opacity="0.000001"  stroke-width="0" height="216" width="50" y="77" x="57" fill="rgb(192,192,192)" ry="0" rx="0"></rect><rect style=""  visibility="" fill-opacity="0.000001"  stroke-width="0" height="293" width="50" y="0" x="221" fill="rgb(192,192,192)" ry="0" rx="0"></rect><rect style=""  visibility="" fill-opacity="0.000001"  stroke-width="0" height="117" width="50" y="176" x="385" fill="rgb(192,192,192)" ry="0" rx="0"></rect></g></svg>