<svg xmlns:xlink="http://www.w3.org/1999/xlink" height="250" width="600" version="1.1" xmlns="http://www.w3.org/2000/svg"><defs><linearGradient y2="0%" x2="50%" y1="100%" x1="50%" gradientUnits="objectBoundingBox" id="highcharts-54"><stop stop-opacity="1" stop-color="#d6b880" offset="0%"></stop><stop stop-opacity="1" stop-color="#d6b880" offset="30%"></stop><stop stop-opacity="1" stop-color="#efe3cc" offset="60%"></stop><stop stop-opacity="1" stop-color="#d6b880" offset="90%"></stop><stop stop-opacity="1" stop-color="#d6b880" offset="100%"></stop></linearGradient><clipPath id="highcharts-55"><rect stroke-width="0" height="248" width="598" y="1" x="1" fill="none" ry="0" rx="0"></rect></clipPath><linearGradient y2="69%" x2="100%" y1="31%" x1="0%" gradientUnits="objectBoundingBox" id="highcharts-56"><stop stop-opacity="1" stop-color="#bbc0b5" offset="0%"></stop><stop stop-opacity="1" stop-color="#ecf0e8" offset="100%"></stop></linearGradient><linearGradient y2="49%" x2="100%" y1="51%" x1="0%" gradientUnits="objectBoundingBox" id="highcharts-57"><stop stop-opacity="1" stop-color="#929e82" offset="0%"></stop><stop stop-opacity="1" stop-color="#e2e7db" offset="100%"></stop></linearGradient><linearGradient y2="0%" x2="25%" y1="100%" x1="75%" gradientUnits="objectBoundingBox" id="highcharts-58"><stop stop-opacity="1" stop-color="#3c4135" offset="0%"></stop><stop stop-opacity="1" stop-color="#818c72" offset="100%"></stop></linearGradient><linearGradient y2="0%" x2="50%" y1="100%" x1="50%" gradientUnits="objectBoundingBox" id="highcharts-59"><stop stop-opacity="1" stop-color="#6f7963" offset="0%"></stop><stop stop-opacity="1" stop-color="#d1dac7" offset="100%"></stop></linearGradient><linearGradient y2="42%" x2="100%" y1="58%" x1="0%" gradientUnits="objectBoundingBox" id="highcharts-60"><stop stop-opacity="1" stop-color="#b59c6c" offset="0%"></stop><stop stop-opacity="1" stop-color="#f1e6d3" offset="100%"></stop></linearGradient><linearGradient y2="0%" x2="33%" y1="100%" x1="67%" gradientUnits="objectBoundingBox" id="highcharts-61"><stop stop-opacity="1" stop-color="#4a402c" offset="0%"></stop><stop stop-opacity="1" stop-color="#a08a60" offset="100%"></stop></linearGradient><linearGradient y2="0%" x2="50%" y1="100%" x1="50%" gradientUnits="objectBoundingBox" id="highcharts-62"><stop stop-opacity="1" stop-color="#8b7753" offset="0%"></stop><stop stop-opacity="1" stop-color="#e8d8b9" offset="100%"></stop></linearGradient><linearGradient y2="42%" x2="100%" y1="58%" x1="0%" gradientUnits="objectBoundingBox" id="highcharts-63"><stop stop-opacity="1" stop-color="#b59c6c" offset="0%"></stop><stop stop-opacity="1" stop-color="#f1e6d3" offset="100%"></stop></linearGradient><linearGradient y2="0%" x2="39%" y1="100%" x1="61%" gradientUnits="objectBoundingBox" id="highcharts-64"><stop stop-opacity="1" stop-color="#4a402c" offset="0%"></stop><stop stop-opacity="1" stop-color="#a08a60" offset="100%"></stop></linearGradient><linearGradient y2="0%" x2="50%" y1="100%" x1="50%" gradientUnits="objectBoundingBox" id="highcharts-65"><stop stop-opacity="1" stop-color="#8b7753" offset="0%"></stop><stop stop-opacity="1" stop-color="#e8d8b9" offset="100%"></stop></linearGradient><linearGradient y2="42%" x2="100%" y1="58%" x1="0%" gradientUnits="objectBoundingBox" id="highcharts-66"><stop stop-opacity="1" stop-color="#b59c6c" offset="0%"></stop><stop stop-opacity="1" stop-color="#f1e6d3" offset="100%"></stop></linearGradient><linearGradient y2="0%" x2="32%" y1="100%" x1="68%" gradientUnits="objectBoundingBox" id="highcharts-67"><stop stop-opacity="1" stop-color="#4a402c" offset="0%"></stop><stop stop-opacity="1" stop-color="#a08a60" offset="100%"></stop></linearGradient><linearGradient y2="0%" x2="50%" y1="100%" x1="50%" gradientUnits="objectBoundingBox" id="highcharts-68"><stop stop-opacity="1" stop-color="#8b7753" offset="0%"></stop><stop stop-opacity="1" stop-color="#e8d8b9" offset="100%"></stop></linearGradient><linearGradient y2="42%" x2="100%" y1="58%" x1="0%" gradientUnits="objectBoundingBox" id="highcharts-69"><stop stop-opacity="1" stop-color="#b59c6c" offset="0%"></stop><stop stop-opacity="1" stop-color="#f1e6d3" offset="100%"></stop></linearGradient><linearGradient y2="0%" x2="40%" y1="100%" x1="60%" gradientUnits="objectBoundingBox" id="highcharts-70"><stop stop-opacity="1" stop-color="#4a402c" offset="0%"></stop><stop stop-opacity="1" stop-color="#a08a60" offset="100%"></stop></linearGradient><linearGradient y2="0%" x2="50%" y1="100%" x1="50%" gradientUnits="objectBoundingBox" id="highcharts-71"><stop stop-opacity="1" stop-color="#8b7753" offset="0%"></stop><stop stop-opacity="1" stop-color="#e8d8b9" offset="100%"></stop></linearGradient><linearGradient y2="42%" x2="100%" y1="58%" x1="0%" gradientUnits="objectBoundingBox" id="highcharts-72"><stop stop-opacity="1" stop-color="#b59c6c" offset="0%"></stop><stop stop-opacity="1" stop-color="#f1e6d3" offset="100%"></stop></linearGradient><linearGradient y2="0%" x2="46%" y1="100%" x1="54%" gradientUnits="objectBoundingBox" id="highcharts-73"><stop stop-opacity="1" stop-color="#4a402c" offset="0%"></stop><stop stop-opacity="1" stop-color="#a08a60" offset="100%"></stop></linearGradient><linearGradient y2="0%" x2="50%" y1="100%" x1="50%" gradientUnits="objectBoundingBox" id="highcharts-74"><stop stop-opacity="1" stop-color="#8b7753" offset="0%"></stop><stop stop-opacity="1" stop-color="#e8d8b9" offset="100%"></stop></linearGradient><clipPath id="highcharts-75"><rect stroke-width="0" height="250" width="600" y="-42" x="-54" fill="none" ry="0" rx="0"></rect></clipPath></defs><rect fill-opacity="0" stroke="rgb(255,255,255)" stroke-opacity="1" stroke-width="1" height="249" width="599" y="0.5" x="0.5" fill="#FFFFFF" ry="0" rx="0"></rect><rect stroke-width="0" height="127" width="467" y="42" x="54" fill="url('#highcharts-56')" ry="0" rx="0"></rect><path fill-opacity="0" fill="rgb(0,0,0)" d="M 110 42 L 110 169 201 169 201 42"></path><path fill-opacity="0" fill="rgb(0,0,0)" d="M 293 42 L 293 169 384 169 384 42"></path><path fill-opacity="0" fill="rgb(0,0,0)" d="M 475 42 L 475 169 521 169 521 42"></path><path stroke-width="0.1" stroke="rgb(0,0,0)" stroke-opacity="0" fill="none" d="M 110.05 42 L 110.05 169"></path><text visibility="" text-anchor="middle" style="font-family:verdana;font-size:10px;line-height:14px;color:#49563a;fill:#49563a;" y="205" x="100"><tspan x="100">Australia</tspan></text><path stroke-width="0.1" stroke="rgb(0,0,0)" stroke-opacity="0" fill="none" d="M 201.05 42 L 201.05 169"></path><text visibility="" text-anchor="middle" style="font-family:verdana;font-size:10px;line-height:14px;color:#49563a;fill:#49563a;" y="205" x="191"><tspan x="191">France</tspan></text><path stroke-width="0.1" stroke="rgb(0,0,0)" stroke-opacity="0" fill="none" d="M 293.05 42 L 293.05 169"></path><text visibility="" text-anchor="middle" style="font-family:verdana;font-size:10px;line-height:14px;color:#49563a;fill:#49563a;" y="205" x="283"><tspan x="283">New Zealand</tspan></text><path stroke-width="0.1" stroke="rgb(0,0,0)" stroke-opacity="0" fill="none" d="M 384.05 42 L 384.05 169"></path><text visibility="" text-anchor="middle" style="font-family:verdana;font-size:10px;line-height:14px;color:#49563a;fill:#49563a;" y="205" x="374"><tspan x="374">Spain</tspan></text><path stroke-width="0.1" stroke="rgb(0,0,0)" stroke-opacity="0" fill="none" d="M 475.05 42 L 475.05 169"></path><text visibility="" text-anchor="middle" style="font-family:verdana;font-size:10px;line-height:14px;color:#49563a;fill:#49563a;" y="205" x="465"><tspan x="465">USA</tspan></text><path fill-opacity="0" fill="rgb(0,0,0)" d="M 54 169 L 521 169 521 144 54 144"></path><path fill-opacity="0" fill="rgb(0,0,0)" d="M 54 118 L 521 118 521 93 54 93"></path><path fill-opacity="0" fill="rgb(0,0,0)" d="M 54 67 L 521 67 521 42 54 42"></path><path fill-opacity="0" fill="rgb(0,0,0)" d="M 54 169 L 521 169 521 144 54 144"></path><path fill-opacity="0" fill="rgb(0,0,0)" d="M 54 118 L 521 118 521 93 54 93"></path><path fill-opacity="0" fill="rgb(0,0,0)" d="M 54 67 L 521 67 521 42 54 42"></path><g lighting3D="true" class="highcharts-canvasBase3D"><path fill="none" d="M 54 169 L 521 169 521 179"></path><rect stroke-width="0" height="10" width="467" y="179" x="44" fill="url('#highcharts-59')" ry="0" rx="0"></rect><path stroke-width="0" fill="url('#highcharts-57')" d="M 44 179 L 511 179 521 169 54 169 Z"></path><path stroke-width="0" fill="url('#highcharts-58')" d="M 511 179 L 521 169 521 179 511 189 Z"></path></g><path fill-opacity="1" fill="rgb(176,181,170)" d="M 521 42 L 524 45.6 524 166 521 169 Z"></path><text  class="highcharts-title" text-anchor="middle" style="font-family:verdana;font-size:13px;color:#49563a;font-weight:bold;line-height:17px;fill:#49563a;" y="28" x="289"><tspan x="289">Top 5 Countries</tspan></text><g  class="highcharts-grid"></g><g  class="highcharts-grid"></g><g  class="highcharts-grid"></g><path  stroke-width="0.1" stroke="rgb(0,0,0)" stroke-opacity="0" fill="none" d="M 54 169.05 L 521 169.05"></path><text visibility=""  text-anchor="end" style="font-family:verdana;font-size:10px;line-height:14px;color:#49563a;fill:#49563a;" y="173" x="50"><tspan x="50">0</tspan></text><path  stroke-width="0.1" stroke="rgb(0,0,0)" stroke-opacity="0" fill="none" d="M 54 169.05 L 521 169.05"></path><text visibility=""  text-anchor="start" style="font-family:verdana;font-size:10px;line-height:14px;color:#49563a;fill:#49563a;" y="173" x="528"><tspan x="528">0</tspan></text><path  stroke-width="1" stroke="rgb(172,187,153)" stroke-opacity="1" fill="none" d="M 54 144.5 L 521 144.5"></path><text visibility=""  text-anchor="end" style="font-family:verdana;font-size:10px;line-height:14px;color:#49563a;fill:#49563a;" y="148" x="50"><tspan x="50">8000</tspan></text><path  stroke-width="1" stroke="rgb(172,187,153)" stroke-opacity="1" fill="none" d="M 54 118.5 L 521 118.5"></path><text visibility=""  text-anchor="end" style="font-family:verdana;font-size:10px;line-height:14px;color:#49563a;fill:#49563a;" y="122" x="50"><tspan x="50">16000</tspan></text><path  stroke-width="1" stroke="rgb(172,187,153)" stroke-opacity="1" fill="none" d="M 54 93.5 L 521 93.5"></path><text visibility=""  text-anchor="end" style="font-family:verdana;font-size:10px;line-height:14px;color:#49563a;fill:#49563a;" y="97" x="50"><tspan x="50">24000</tspan></text><path  stroke-width="1" stroke="rgb(172,187,153)" stroke-opacity="1" fill="none" d="M 54 67.5 L 521 67.5"></path><text visibility=""  text-anchor="end" style="font-family:verdana;font-size:10px;line-height:14px;color:#49563a;fill:#49563a;" y="71" x="50"><tspan x="50">32000</tspan></text><path  stroke-width="0.1" stroke="rgb(0,0,0)" stroke-opacity="0" fill="none" d="M 54 42.05 L 521 42.05"></path><text visibility=""  text-anchor="end" style="font-family:verdana;font-size:10px;line-height:14px;color:#49563a;fill:#49563a;" y="46" x="50"><tspan x="50">40000</tspan></text><path  stroke-width="0.1" stroke="rgb(0,0,0)" stroke-opacity="0" fill="none" d="M 54 144.05 L 521 144.05"></path><text visibility=""  text-anchor="start" style="font-family:verdana;font-size:10px;line-height:14px;color:#49563a;fill:#49563a;" y="148" x="528"><tspan x="528">800,000</tspan></text><path  stroke-width="0.1" stroke="rgb(0,0,0)" stroke-opacity="0" fill="none" d="M 54 118.05 L 521 118.05"></path><text visibility=""  text-anchor="start" style="font-family:verdana;font-size:10px;line-height:14px;color:#49563a;fill:#49563a;" y="122" x="528"><tspan x="528">1,600,000</tspan></text><path  stroke-width="0.1" stroke="rgb(0,0,0)" stroke-opacity="0" fill="none" d="M 54 93.05 L 521 93.05"></path><text visibility=""  text-anchor="start" style="font-family:verdana;font-size:10px;line-height:14px;color:#49563a;fill:#49563a;" y="97" x="528"><tspan x="528">2,400,000</tspan></text><path  stroke-width="0.1" stroke="rgb(0,0,0)" stroke-opacity="0" fill="none" d="M 54 67.05 L 521 67.05"></path><text visibility=""  text-anchor="start" style="font-family:verdana;font-size:10px;line-height:14px;color:#49563a;fill:#49563a;" y="71" x="528"><tspan x="528">3,200,000</tspan></text><path  stroke-width="0.1" stroke="rgb(0,0,0)" stroke-opacity="0" fill="none" d="M 54 42.05 L 521 42.05"></path><text visibility=""  text-anchor="start" style="font-family:verdana;font-size:10px;line-height:14px;color:#49563a;fill:#49563a;" y="46" x="528"><tspan x="528">4,000,000</tspan></text><g  class="highcharts-series-group"><g transform="translate(44,52)" class="highcharts-series-3d"><g  class="highcharts-point"><path transform="translate(1,1)" stroke-width="5" stroke-opacity="0.06" stroke="rgb(0,0,0)"  fill="none" d="M 41 97 L 91 97 91 117"></path><path transform="translate(1,1)" stroke-width="3" stroke-opacity="0.12" stroke="rgb(0,0,0)"  fill="none" d="M 41 97 L 91 97 91 117"></path><path transform="translate(1,1)" stroke-width="1" stroke-opacity="0.18" stroke="rgb(0,0,0)"  fill="none" d="M 41 97 L 91 97 91 117"></path><path fill="none" d="M 41 97 L 91 97 91 117"></path><rect stroke="#FFFFFF" stroke-opacity="0" stroke-width="1" height="20" width="50" y="107" x="31" fill="url('#highcharts-62')" ry="0" rx="0"></rect><path stroke="#FFFFFF" stroke-opacity="0" stroke-width="1" fill="url('#highcharts-60')" d="M 31 107 L 81 107 91 97 41 97 Z"></path><path stroke="#FFFFFF" stroke-opacity="0" stroke-width="1" fill="url('#highcharts-61')" d="M 81 107 L 91 97 91 117 81 127 Z"></path></g><g  class="highcharts-point"><path transform="translate(1,1)" stroke-width="5" stroke-opacity="0.06" stroke="rgb(0,0,0)"  fill="none" d="M 132 81 L 182 81 182 117"></path><path transform="translate(1,1)" stroke-width="3" stroke-opacity="0.12" stroke="rgb(0,0,0)"  fill="none" d="M 132 81 L 182 81 182 117"></path><path transform="translate(1,1)" stroke-width="1" stroke-opacity="0.18" stroke="rgb(0,0,0)"  fill="none" d="M 132 81 L 182 81 182 117"></path><path fill="none" d="M 132 81 L 182 81 182 117"></path><rect stroke="#FFFFFF" stroke-opacity="0" stroke-width="1" height="36" width="50" y="91" x="122" fill="url('#highcharts-65')" ry="0" rx="0"></rect><path stroke="#FFFFFF" stroke-opacity="0" stroke-width="1" fill="url('#highcharts-63')" d="M 122 91 L 172 91 182 81 132 81 Z"></path><path stroke="#FFFFFF" stroke-opacity="0" stroke-width="1" fill="url('#highcharts-64')" d="M 172 91 L 182 81 182 117 172 127 Z"></path></g><g  class="highcharts-point"><path transform="translate(1,1)" stroke-width="5" stroke-opacity="0.06" stroke="rgb(0,0,0)"  fill="none" d="M 224 99 L 274 99 274 117"></path><path transform="translate(1,1)" stroke-width="3" stroke-opacity="0.12" stroke="rgb(0,0,0)"  fill="none" d="M 224 99 L 274 99 274 117"></path><path transform="translate(1,1)" stroke-width="1" stroke-opacity="0.18" stroke="rgb(0,0,0)"  fill="none" d="M 224 99 L 274 99 274 117"></path><path fill="none" d="M 224 99 L 274 99 274 117"></path><rect stroke="#FFFFFF" stroke-opacity="0" stroke-width="1" height="18" width="50" y="109" x="214" fill="url('#highcharts-68')" ry="0" rx="0"></rect><path stroke="#FFFFFF" stroke-opacity="0" stroke-width="1" fill="url('#highcharts-66')" d="M 214 109 L 264 109 274 99 224 99 Z"></path><path stroke="#FFFFFF" stroke-opacity="0" stroke-width="1" fill="url('#highcharts-67')" d="M 264 109 L 274 99 274 117 264 127 Z"></path></g><g  class="highcharts-point"><path transform="translate(1,1)" stroke-width="5" stroke-opacity="0.06" stroke="rgb(0,0,0)"  fill="none" d="M 315 77 L 365 77 365 117"></path><path transform="translate(1,1)" stroke-width="3" stroke-opacity="0.12" stroke="rgb(0,0,0)"  fill="none" d="M 315 77 L 365 77 365 117"></path><path transform="translate(1,1)" stroke-width="1" stroke-opacity="0.18" stroke="rgb(0,0,0)"  fill="none" d="M 315 77 L 365 77 365 117"></path><path fill="none" d="M 315 77 L 365 77 365 117"></path><rect stroke="#FFFFFF" stroke-opacity="0" stroke-width="1" height="40" width="50" y="87" x="305" fill="url('#highcharts-71')" ry="0" rx="0"></rect><path stroke="#FFFFFF" stroke-opacity="0" stroke-width="1" fill="url('#highcharts-69')" d="M 305 87 L 355 87 365 77 315 77 Z"></path><path stroke="#FFFFFF" stroke-opacity="0" stroke-width="1" fill="url('#highcharts-70')" d="M 355 87 L 365 77 365 117 355 127 Z"></path></g><g  class="highcharts-point"><path transform="translate(1,1)" stroke-width="5" stroke-opacity="0.06" stroke="rgb(0,0,0)"  fill="none" d="M 406 3 L 456 3 456 117"></path><path transform="translate(1,1)" stroke-width="3" stroke-opacity="0.12" stroke="rgb(0,0,0)"  fill="none" d="M 406 3 L 456 3 456 117"></path><path transform="translate(1,1)" stroke-width="1" stroke-opacity="0.18" stroke="rgb(0,0,0)"  fill="none" d="M 406 3 L 456 3 456 117"></path><path fill="none" d="M 406 3 L 456 3 456 117"></path><rect stroke="#FFFFFF" stroke-opacity="0" stroke-width="1" height="114" width="50" y="13" x="396" fill="url('#highcharts-74')" ry="0" rx="0"></rect><path stroke="#FFFFFF" stroke-opacity="0" stroke-width="1" fill="url('#highcharts-72')" d="M 396 13 L 446 13 456 3 406 3 Z"></path><path stroke="#FFFFFF" stroke-opacity="0" stroke-width="1" fill="url('#highcharts-73')" d="M 446 13 L 456 3 456 117 446 127 Z"></path></g></g><g transform="translate(44,42)"  visibility="" clip-path="url('#highcharts-75')" class="highcharts-series"><g class="highcharts-shadow"><path transform="translate(1,1)"  stroke-linecap="round" stroke-width="6" stroke="rgb(0,0,0)" stroke-opacity="0.06" fill="none" d="M 55.699999999999996 106.977716575 L 147.1 91.72840049000001"></path><path transform="translate(1,1)"  stroke-linecap="round" stroke-width="4" stroke="rgb(0,0,0)" stroke-opacity="0.12" fill="none" d="M 55.699999999999996 106.977716575 L 147.1 91.72840049000001"></path><path transform="translate(1,1)"  stroke-linecap="round" stroke-width="2" stroke="rgb(0,0,0)" stroke-opacity="0.18" fill="none" d="M 55.699999999999996 106.977716575 L 147.1 91.72840049000001"></path><path transform="translate(1,1)"  stroke-linecap="round" stroke-width="6" stroke="rgb(0,0,0)" stroke-opacity="0.06" fill="none" d="M 147.1 91.72840049000001 L 238.5 109.995206095"></path><path transform="translate(1,1)"  stroke-linecap="round" stroke-width="4" stroke="rgb(0,0,0)" stroke-opacity="0.12" fill="none" d="M 147.1 91.72840049000001 L 238.5 109.995206095"></path><path transform="translate(1,1)"  stroke-linecap="round" stroke-width="2" stroke="rgb(0,0,0)" stroke-opacity="0.18" fill="none" d="M 147.1 91.72840049000001 L 238.5 109.995206095"></path><path transform="translate(1,1)"  stroke-linecap="round" stroke-width="6" stroke="rgb(0,0,0)" stroke-opacity="0.06" fill="none" d="M 238.5 109.995206095 L 329.9 88.40194028999997"></path><path transform="translate(1,1)"  stroke-linecap="round" stroke-width="4" stroke="rgb(0,0,0)" stroke-opacity="0.12" fill="none" d="M 238.5 109.995206095 L 329.9 88.40194028999997"></path><path transform="translate(1,1)"  stroke-linecap="round" stroke-width="2" stroke="rgb(0,0,0)" stroke-opacity="0.18" fill="none" d="M 238.5 109.995206095 L 329.9 88.40194028999997"></path><path transform="translate(1,1)"  stroke-linecap="round" stroke-width="6" stroke="rgb(0,0,0)" stroke-opacity="0.06" fill="none" d="M 329.9 88.40194028999997 L 421.29999999999995 11.811386397500158"></path><path transform="translate(1,1)"  stroke-linecap="round" stroke-width="4" stroke="rgb(0,0,0)" stroke-opacity="0.12" fill="none" d="M 329.9 88.40194028999997 L 421.29999999999995 11.811386397500158"></path><path transform="translate(1,1)"  stroke-linecap="round" stroke-width="2" stroke="rgb(0,0,0)" stroke-opacity="0.18" fill="none" d="M 329.9 88.40194028999997 L 421.29999999999995 11.811386397500158"></path></g><path stroke-linecap="round" stroke-width="2" stroke="#000000" stroke-opacity="1" fill="none" d="M 55.699999999999996 106.977716575 L 147.1 91.72840049000001"></path><path stroke-linecap="round" stroke-width="2" stroke="#000000" stroke-opacity="1" fill="none" d="M 147.1 91.72840049000001 L 238.5 109.995206095"></path><path stroke-linecap="round" stroke-width="2" stroke="#000000" stroke-opacity="1" fill="none" d="M 238.5 109.995206095 L 329.9 88.40194028999997"></path><path stroke-linecap="round" stroke-width="2" stroke="#000000" stroke-opacity="1" fill="none" d="M 329.9 88.40194028999997 L 421.29999999999995 11.811386397500158"></path><circle fill="#FFFFFF" fill-opacity="1" stroke-width="1" stroke="#000000" stroke-opacity="1" r="3" cy="11.811386397500158" cx="421.29999999999995"></circle><circle fill="#FFFFFF" fill-opacity="1" stroke-width="1" stroke="#000000" stroke-opacity="1" r="3" cy="88.40194028999997" cx="329.9"></circle><circle fill="#FFFFFF" fill-opacity="1" stroke-width="1" stroke="#000000" stroke-opacity="1" r="3" cy="109.995206095" cx="238.5"></circle><circle fill="#FFFFFF" fill-opacity="1" stroke-width="1" stroke="#000000" stroke-opacity="1" r="3" cy="91.72840049000001" cx="147.1"></circle><circle fill="#FFFFFF" fill-opacity="1" stroke-width="1" stroke="#000000" stroke-opacity="1" r="3" cy="106.977716575" cx="55.699999999999996"></circle></g></g><g transform="translate(54,42)"  visibility="" class="highcharts-data-labels"><text  text-anchor="middle" style="font-family:verdana;font-size:10px;color:#49563a;line-height:14px;text-decoration:none;font-weight:normal;font-style:normal;fill:#49563a;" y="101" x="56"><tspan x="56"> </tspan></text><text  text-anchor="middle" style="font-family:verdana;font-size:10px;color:#49563a;line-height:14px;text-decoration:none;font-weight:normal;font-style:normal;fill:#49563a;" y="86" x="147"><tspan x="147"> </tspan></text><text  text-anchor="middle" style="font-family:verdana;font-size:10px;color:#49563a;line-height:14px;text-decoration:none;font-weight:normal;font-style:normal;fill:#49563a;" y="104" x="239"><tspan x="239"> </tspan></text><text  text-anchor="middle" style="font-family:verdana;font-size:10px;color:#49563a;line-height:14px;text-decoration:none;font-weight:normal;font-style:normal;fill:#49563a;" y="82" x="330"><tspan x="330"> </tspan></text><text  text-anchor="middle" style="font-family:verdana;font-size:10px;color:#49563a;line-height:14px;text-decoration:none;font-weight:normal;font-style:normal;fill:#49563a;" y="40" x="411"><tspan x="411"> </tspan></text></g><g transform="translate(54,42)"  visibility="" class="highcharts-data-labels"><text  text-anchor="middle" style="font-family:verdana;font-size:10px;color:#49563a;line-height:14px;text-decoration:none;font-weight:normal;font-style:normal;fill:#49563a;" y="101" x="56"><tspan x="56"> </tspan></text><text  text-anchor="middle" style="font-family:verdana;font-size:10px;color:#49563a;line-height:14px;text-decoration:none;font-weight:normal;font-style:normal;fill:#49563a;" y="86" x="147"><tspan x="147"> </tspan></text><text  text-anchor="middle" style="font-family:verdana;font-size:10px;color:#49563a;line-height:14px;text-decoration:none;font-weight:normal;font-style:normal;fill:#49563a;" y="126" x="239"><tspan x="239"> </tspan></text><text  text-anchor="middle" style="font-family:verdana;font-size:10px;color:#49563a;line-height:14px;text-decoration:none;font-weight:normal;font-style:normal;fill:#49563a;" y="82" x="330"><tspan x="330"> </tspan></text><text  text-anchor="middle" style="font-family:verdana;font-size:10px;color:#49563a;line-height:14px;text-decoration:none;font-weight:normal;font-style:normal;fill:#49563a;" y="28" x="421"><tspan x="421"> </tspan></text></g><g  class="highcharts-axis"></g><g  class="highcharts-axis"></g><g  class="highcharts-axis"></g><g visibility="hidden"  class="highcharts-tooltip"><rect fill-opacity="1" stroke-width="1" height="0" width="0" y="1.5" x="1.5" fill="rgb(255,255,255)" ry="1" rx="1"></rect><text  style="font-family:verdana;font-size:10px;color:#49563a;padding:0;white-space:nowrap;line-height:14px;fill:#49563a;" y="11" x="1"><tspan x="1"> </tspan></text></g><text  text-anchor="end" style="font-family:'lucida grande', 'lucida sans unicode', verdana, arial, helvetica, sans-serif;font-size:10px;cursor:pointer;color:#909090;fill:#909090;" y="245" x="590"><tspan x="590">FusionCharts</tspan></text><g transform="translate(54,42)"  class="highcharts-tracker"><path style="cursor:pointer;"  visibility="" fill-opacity="0.000001"  fill="rgb(192,192,192)" d="M 21 117 L 21 137 71 137 81 127 81 107 31 107 Z"></path><path style="cursor:pointer;"  visibility="" fill-opacity="0.000001"  fill="rgb(192,192,192)" d="M 112 101 L 112 137 162 137 172 127 172 91 122 91 Z"></path><path style="cursor:pointer;"  visibility="" fill-opacity="0.000001"  fill="rgb(192,192,192)" d="M 204 119 L 204 137 254 137 264 127 264 109 214 109 Z"></path><path style="cursor:pointer;"  visibility="" fill-opacity="0.000001"  fill="rgb(192,192,192)" d="M 295 97 L 295 137 345 137 355 127 355 87 305 87 Z"></path><path style="cursor:pointer;"  visibility="" fill-opacity="0.000001"  fill="rgb(192,192,192)" d="M 386 23 L 386 137 436 137 446 127 446 13 396 13 Z"></path><path style=""  visibility="" stroke-width="22" stroke="rgb(192,192,192)" stroke-opacity="0.000001"  fill="none" d="M 45.699999999999996 106.977716575 L 55.699999999999996 106.977716575 L 147.1 91.72840049000001 L 238.5 109.995206095 L 329.9 88.40194028999997 L 421.29999999999995 11.811386397500158 L 431.29999999999995 11.811386397500158"></path></g><g transform="translate(217,212)"  class="highcharts-legend"><rect visibility="" transform="translate(1,1)"  fill-opacity="1" stroke="rgb(0,0,0)" stroke-opacity="0.06" stroke-width="5" height="22" width="143" y="0.5" x="0.5" fill="none" ry="0" rx="0"></rect><rect visibility="" transform="translate(1,1)"  fill-opacity="1" stroke="rgb(0,0,0)" stroke-opacity="0.12" stroke-width="3" height="22" width="143" y="0.5" x="0.5" fill="none" ry="0" rx="0"></rect><rect visibility="" transform="translate(1,1)"  fill-opacity="1" stroke="rgb(0,0,0)" stroke-opacity="0.18" stroke-width="1" height="22" width="143" y="0.5" x="0.5" fill="none" ry="0" rx="0"></rect><rect visibility="" fill-opacity="1" stroke="rgb(198,207,184)" stroke-opacity="1" stroke-width="1" height="22" width="143" y="0.5" x="0.5" fill="rgb(240,243,237)" ry="0" rx="0"></rect><text transform="translate(23,15)"  style="font-family:verdana;font-size:10px;cursor:pointer;color:#49563a;line-height:14px;fill:#49563a;" y="0" x="0"><tspan x="0">Quantity </tspan></text><text transform="translate(91,15)"  style="font-family:verdana;font-size:10px;cursor:pointer;color:#49563a;line-height:14px;fill:#49563a;" y="0" x="0"><tspan x="0">Price </tspan></text><path transform="translate(91,14)" stroke="#000000" stroke-opacity="1"  stroke-width="2" fill="none" d="M -16 -2.5 L -7 -2.5"></path><path transform="translate(23,14)" style="_cursor:hand;cursor:pointer;" stroke="#806e4c"  stroke-width="0.5" fill="url('#highcharts-54')" d="M -16 2 L -16 -4.3 -13.75 -4.3 -13.75 2 -12.629999999999999 2 -12.629999999999999 -7 -10.379999999999999 -7 -10.379999999999999 2 -9.259999999999998 2 -9.259999999999998 -1.5999999999999996 -7 -1.5999999999999996 -7 2 Z"></path><circle style="_cursor:hand;cursor:pointer;" fill="#FFFFFF" fill-opacity="1" stroke-width="1" stroke="#000000" stroke-opacity="1"  r="3" cy="11.5" cx="79.5"></circle></g></svg>