<svg xmlns:xlink="http://www.w3.org/1999/xlink" height="339" width="542" version="1.1" xmlns="http://www.w3.org/2000/svg"><defs><clipPath id="highcharts-33"><rect stroke-width="0" height="337" width="540" y="1" x="1" fill="none" ry="0" rx="0"></rect></clipPath><linearGradient y2="80%" x2="100%" y1="20%" x1="0%" gradientUnits="objectBoundingBox" id="highcharts-34"><stop stop-opacity="1" stop-color="#bbc0b5" offset="0%"></stop><stop stop-opacity="1" stop-color="#ecf0e8" offset="100%"></stop></linearGradient><linearGradient y2="49%" x2="100%" y1="51%" x1="0%" gradientUnits="objectBoundingBox" id="highcharts-35"><stop stop-opacity="1" stop-color="#929e82" offset="0%"></stop><stop stop-opacity="1" stop-color="#e2e7db" offset="100%"></stop></linearGradient><linearGradient y2="0%" x2="25%" y1="100%" x1="75%" gradientUnits="objectBoundingBox" id="highcharts-36"><stop stop-opacity="1" stop-color="#3c4135" offset="0%"></stop><stop stop-opacity="1" stop-color="#818c72" offset="100%"></stop></linearGradient><linearGradient y2="0%" x2="50%" y1="100%" x1="50%" gradientUnits="objectBoundingBox" id="highcharts-37"><stop stop-opacity="1" stop-color="#6f7963" offset="0%"></stop><stop stop-opacity="1" stop-color="#d1dac7" offset="100%"></stop></linearGradient><linearGradient y2="42%" x2="100%" y1="58%" x1="0%" gradientUnits="objectBoundingBox" id="highcharts-38"><stop stop-opacity="1" stop-color="#d80000" offset="0%"></stop><stop stop-opacity="1" stop-color="#ffa6a6" offset="100%"></stop></linearGradient><linearGradient y2="0%" x2="48%" y1="100%" x1="52%" gradientUnits="objectBoundingBox" id="highcharts-39"><stop stop-opacity="1" stop-color="#590000" offset="0%"></stop><stop stop-opacity="1" stop-color="#bf0000" offset="100%"></stop></linearGradient><linearGradient y2="0%" x2="50%" y1="100%" x1="50%" gradientUnits="objectBoundingBox" id="highcharts-40"><stop stop-opacity="1" stop-color="#a50000" offset="0%"></stop><stop stop-opacity="1" stop-color="#ff7373" offset="100%"></stop></linearGradient><linearGradient y2="42%" x2="100%" y1="58%" x1="0%" gradientUnits="objectBoundingBox" id="highcharts-41"><stop stop-opacity="1" stop-color="#00d800" offset="0%"></stop><stop stop-opacity="1" stop-color="#a6ffa6" offset="100%"></stop></linearGradient><linearGradient y2="0%" x2="48%" y1="100%" x1="52%" gradientUnits="objectBoundingBox" id="highcharts-42"><stop stop-opacity="1" stop-color="#005900" offset="0%"></stop><stop stop-opacity="1" stop-color="#00bf00" offset="100%"></stop></linearGradient><linearGradient y2="0%" x2="50%" y1="100%" x1="50%" gradientUnits="objectBoundingBox" id="highcharts-43"><stop stop-opacity="1" stop-color="#00a500" offset="0%"></stop><stop stop-opacity="1" stop-color="#73ff73" offset="100%"></stop></linearGradient><linearGradient y2="42%" x2="100%" y1="58%" x1="0%" gradientUnits="objectBoundingBox" id="highcharts-44"><stop stop-opacity="1" stop-color="#0000d8" offset="0%"></stop><stop stop-opacity="1" stop-color="#a6a6ff" offset="100%"></stop></linearGradient><linearGradient y2="0%" x2="46%" y1="100%" x1="54%" gradientUnits="objectBoundingBox" id="highcharts-45"><stop stop-opacity="1" stop-color="#000059" offset="0%"></stop><stop stop-opacity="1" stop-color="#0000bf" offset="100%"></stop></linearGradient><linearGradient y2="0%" x2="50%" y1="100%" x1="50%" gradientUnits="objectBoundingBox" id="highcharts-46"><stop stop-opacity="1" stop-color="#0000a5" offset="0%"></stop><stop stop-opacity="1" stop-color="#7373ff" offset="100%"></stop></linearGradient></defs><rect fill-opacity="0" stroke="rgb(255,255,255)" stroke-opacity="1" stroke-width="1" height="338" width="541" y="0.5" x="0.5" fill="#FFFFFF" ry="0" rx="0"></rect><rect stroke-width="0" height="273" width="489" y="15" x="35" fill="url('#highcharts-34')" ry="0" rx="0"></rect><path fill-opacity="0" fill="rgb(0,0,0)" d="M 45 15 L 45 288 125 288 125 15"></path><path fill-opacity="0" fill="rgb(0,0,0)" d="M 205 15 L 205 288 285 288 285 15"></path><path fill-opacity="0" fill="rgb(0,0,0)" d="M 364 15 L 364 288 444 288 444 15"></path><path stroke-width="0.1" stroke="rgb(0,0,0)" stroke-opacity="0" fill="none" d="M 125.05 15 L 125.05 288"></path><text visibility="" text-anchor="middle" style="font-family:verdana;font-size:10px;line-height:14px;color:#49563a;fill:#49563a;" y="324" x="115"><tspan x="115">2008</tspan></text><path stroke-width="0.1" stroke="rgb(0,0,0)" stroke-opacity="0" fill="none" d="M 285.05 15 L 285.05 288"></path><text visibility="" text-anchor="middle" style="font-family:verdana;font-size:10px;line-height:14px;color:#49563a;fill:#49563a;" y="324" x="275"><tspan x="275">2009</tspan></text><path stroke-width="0.1" stroke="rgb(0,0,0)" stroke-opacity="0" fill="none" d="M 444.05 15 L 444.05 288"></path><text visibility="" text-anchor="middle" style="font-family:verdana;font-size:10px;line-height:14px;color:#49563a;fill:#49563a;" y="324" x="434"><tspan x="434">2010</tspan></text><path fill-opacity="0" fill="rgb(0,0,0)" d="M 35 288 L 524 288 524 233 35 233"></path><path fill-opacity="0" fill="rgb(0,0,0)" d="M 35 179 L 524 179 524 124 35 124"></path><path fill-opacity="0" fill="rgb(0,0,0)" d="M 35 70 L 524 70 524 15 35 15"></path><g lighting3D="true" class="highcharts-canvasBase3D"><path fill="none" d="M 35 288 L 524 288 524 298"></path><rect stroke-width="0" height="10" width="489" y="298" x="25" fill="url('#highcharts-37')" ry="0" rx="0"></rect><path stroke-width="0" fill="url('#highcharts-35')" d="M 25 298 L 514 298 524 288 35 288 Z"></path><path stroke-width="0" fill="url('#highcharts-36')" d="M 514 298 L 524 288 524 298 514 308 Z"></path></g><path fill-opacity="1" fill="rgb(176,181,170)" d="M 524 15 L 527 18.6 527 285 524 288 Z"></path><g  class="highcharts-grid"></g><g  class="highcharts-grid"></g><g  class="highcharts-grid"></g><path  stroke-width="0.1" stroke="rgb(0,0,0)" stroke-opacity="0" fill="none" d="M 35 288.05 L 524 288.05"></path><text visibility=""  text-anchor="end" style="font-family:verdana;font-size:10px;line-height:14px;color:#49563a;fill:#49563a;" y="292" x="31"><tspan x="31">0</tspan></text><path  stroke-width="1" stroke="rgb(172,187,153)" stroke-opacity="1" fill="none" d="M 35 233.5 L 524 233.5"></path><text visibility=""  text-anchor="end" style="font-family:verdana;font-size:10px;line-height:14px;color:#49563a;fill:#49563a;" y="237" x="31"><tspan x="31">1M</tspan></text><path  stroke-width="1" stroke="rgb(172,187,153)" stroke-opacity="1" fill="none" d="M 35 179.5 L 524 179.5"></path><text visibility=""  text-anchor="end" style="font-family:verdana;font-size:10px;line-height:14px;color:#49563a;fill:#49563a;" y="183" x="31"><tspan x="31">2M</tspan></text><path  stroke-width="1" stroke="rgb(172,187,153)" stroke-opacity="1" fill="none" d="M 35 124.5 L 524 124.5"></path><text visibility=""  text-anchor="end" style="font-family:verdana;font-size:10px;line-height:14px;color:#49563a;fill:#49563a;" y="128" x="31"><tspan x="31">3M</tspan></text><path  stroke-width="1" stroke="rgb(172,187,153)" stroke-opacity="1" fill="none" d="M 35 70.5 L 524 70.5"></path><text visibility=""  text-anchor="end" style="font-family:verdana;font-size:10px;line-height:14px;color:#49563a;fill:#49563a;" y="74" x="31"><tspan x="31">4M</tspan></text><path  stroke-width="0.1" stroke="rgb(0,0,0)" stroke-opacity="0" fill="none" d="M 35 15.05 L 524 15.05"></path><text visibility=""  text-anchor="end" style="font-family:verdana;font-size:10px;line-height:14px;color:#49563a;fill:#49563a;" y="19" x="31"><tspan x="31">5M</tspan></text><g  class="highcharts-series-group"><g transform="translate(25,25)" class="highcharts-series-3d"><g  class="highcharts-point"><path transform="translate(1,1)" stroke-width="5" stroke-opacity="0.06" stroke="rgb(0,0,0)"  fill="none" d="M 75 62 L 125 62 125 263"></path><path transform="translate(1,1)" stroke-width="3" stroke-opacity="0.12" stroke="rgb(0,0,0)"  fill="none" d="M 75 62 L 125 62 125 263"></path><path transform="translate(1,1)" stroke-width="1" stroke-opacity="0.18" stroke="rgb(0,0,0)"  fill="none" d="M 75 62 L 125 62 125 263"></path><path fill="none" d="M 75 62 L 125 62 125 263"></path><rect stroke="#333333" stroke-opacity="1" stroke-width="0" height="201" width="50" y="72" x="65" fill="url('#highcharts-40')" ry="0" rx="0"></rect><path stroke="#333333" stroke-opacity="1" stroke-width="0" fill="url('#highcharts-38')" d="M 65 72 L 115 72 125 62 75 62 Z"></path><path stroke="#333333" stroke-opacity="1" stroke-width="0" fill="url('#highcharts-39')" d="M 115 72 L 125 62 125 263 115 273 Z"></path></g><g  class="highcharts-point"><path transform="translate(1,1)" stroke-width="5" stroke-opacity="0.06" stroke="rgb(0,0,0)"  fill="none" d="M 234 -10 L 284 -10 284 263"></path><path transform="translate(1,1)" stroke-width="3" stroke-opacity="0.12" stroke="rgb(0,0,0)"  fill="none" d="M 234 -10 L 284 -10 284 263"></path><path transform="translate(1,1)" stroke-width="1" stroke-opacity="0.18" stroke="rgb(0,0,0)"  fill="none" d="M 234 -10 L 284 -10 284 263"></path><path fill="none" d="M 234 -10 L 284 -10 284 263"></path><rect stroke="#333333" stroke-opacity="1" stroke-width="0" height="273" width="50" y="0" x="224" fill="url('#highcharts-43')" ry="0" rx="0"></rect><path stroke="#333333" stroke-opacity="1" stroke-width="0" fill="url('#highcharts-41')" d="M 224 0 L 274 0 284 -10 234 -10 Z"></path><path stroke="#333333" stroke-opacity="1" stroke-width="0" fill="url('#highcharts-42')" d="M 274 0 L 284 -10 284 263 274 273 Z"></path></g><g  class="highcharts-point"><path transform="translate(1,1)" stroke-width="5" stroke-opacity="0.06" stroke="rgb(0,0,0)"  fill="none" d="M 394 154 L 444 154 444 263"></path><path transform="translate(1,1)" stroke-width="3" stroke-opacity="0.12" stroke="rgb(0,0,0)"  fill="none" d="M 394 154 L 444 154 444 263"></path><path transform="translate(1,1)" stroke-width="1" stroke-opacity="0.18" stroke="rgb(0,0,0)"  fill="none" d="M 394 154 L 444 154 444 263"></path><path fill="none" d="M 394 154 L 444 154 444 263"></path><rect stroke="#333333" stroke-opacity="1" stroke-width="0" height="109" width="50" y="164" x="384" fill="url('#highcharts-46')" ry="0" rx="0"></rect><path stroke="#333333" stroke-opacity="1" stroke-width="0" fill="url('#highcharts-44')" d="M 384 164 L 434 164 444 154 394 154 Z"></path><path stroke="#333333" stroke-opacity="1" stroke-width="0" fill="url('#highcharts-45')" d="M 434 164 L 444 154 444 263 434 273 Z"></path></g></g></g><g transform="translate(35,15)"  visibility="" class="highcharts-data-labels"><text  text-anchor="middle" style="font-family:verdana;font-size:10px;color:#49563a;line-height:14px;text-decoration:none;font-weight:normal;font-style:normal;fill:#49563a;" y="66" x="90"><tspan x="90">3.68M</tspan></text><text  text-anchor="middle" style="font-family:verdana;font-size:10px;color:#49563a;line-height:14px;text-decoration:none;font-weight:normal;font-style:normal;fill:#49563a;" y="27" x="239"><tspan x="239">4.99M</tspan></text><text  text-anchor="middle" style="font-family:verdana;font-size:10px;color:#49563a;line-height:14px;text-decoration:none;font-weight:normal;font-style:normal;fill:#49563a;" y="159" x="409"><tspan x="409">1.98M</tspan></text></g><g  class="highcharts-axis"></g><g  class="highcharts-axis"></g><g  class="highcharts-axis"></g><g visibility="hidden"  class="highcharts-tooltip"><rect fill-opacity="1" stroke-width="1" height="0" width="0" y="1.5" x="1.5" fill="rgb(255,255,255)" ry="1" rx="1"></rect><text  style="font-family:verdana;font-size:10px;color:#49563a;padding:0;white-space:nowrap;line-height:14px;fill:#49563a;" y="11" x="1"><tspan x="1"> </tspan></text></g><text  text-anchor="end" style="font-family:'lucida grande', 'lucida sans unicode', verdana, arial, helvetica, sans-serif;font-size:10px;cursor:pointer;color:#909090;fill:#909090;" y="334" x="532"><tspan x="532">FusionCharts</tspan></text><g transform="translate(35,15)"  class="highcharts-tracker"><path style=""  visibility="" fill-opacity="0.000001"  fill="rgb(192,192,192)" d="M 55 82 L 55 283 105 283 115 273 115 72 65 72 Z"></path><path style=""  visibility="" fill-opacity="0.000001"  fill="rgb(192,192,192)" d="M 214 10 L 214 283 264 283 274 273 274 0 224 0 Z"></path><path style=""  visibility="" fill-opacity="0.000001"  fill="rgb(192,192,192)" d="M 374 174 L 374 283 424 283 434 273 434 164 384 164 Z"></path></g></svg>