<svg xmlns:xlink="http://www.w3.org/1999/xlink" height="339" width="542" version="1.1" xmlns="http://www.w3.org/2000/svg"><defs><clipPath id="highcharts-9"><rect stroke-width="0" height="337" width="540" y="1" x="1" fill="none" ry="0" rx="0"></rect></clipPath><clipPath id="highcharts-10"><rect stroke-width="0" height="339" width="542" y="-15" x="-35" fill="none" ry="0" rx="0"></rect></clipPath></defs><rect fill-opacity="0" stroke="rgb(255,255,255)" stroke-opacity="0.5" stroke-width="1" height="338" width="541" y="0.5" x="0.5" fill="#FFFFFF" ry="0" rx="0"></rect><rect fill-opacity="1" stroke-width="0" height="263" width="487" y="15" x="35" fill="#FFFFFF" ry="0" rx="0"></rect><path fill-opacity="0" fill="rgb(0,0,0)" d="M 35 15 L 35 278 157 278 157 15"></path><path fill-opacity="0" fill="rgb(0,0,0)" d="M 279 15 L 279 278 400 278 400 15"></path><path stroke-width="0.1" stroke="rgb(0,0,0)" stroke-opacity="0" fill="none" d="M 35.05 15 L 35.05 278"></path><text visibility="" text-anchor="middle" style="font-family:verdana;font-size:10px;line-height:14px;color:#555555;fill:#555555;" y="294" x="35"><tspan x="35">2008</tspan></text><path stroke-width="0.1" stroke="rgb(0,0,0)" stroke-opacity="0" fill="none" d="M 279.05 15 L 279.05 278"></path><text visibility="" text-anchor="middle" style="font-family:verdana;font-size:10px;line-height:14px;color:#555555;fill:#555555;" y="294" x="279"><tspan x="279">2009</tspan></text><path stroke-width="0.1" stroke="rgb(0,0,0)" stroke-opacity="0" fill="none" d="M 522.05 15 L 522.05 278"></path><text visibility="" text-anchor="middle" style="font-family:verdana;font-size:10px;line-height:14px;color:#555555;fill:#555555;" y="294" x="522"><tspan x="522">2010</tspan></text><path fill-opacity="0" fill="rgb(0,0,0)" d="M 35 278 L 522.0020283975659 278 522.0020283975659 225 35 225"></path><path fill-opacity="0" fill="rgb(0,0,0)" d="M 35 173 L 522.0020283975659 173 522.0020283975659 120 35 120"></path><path fill-opacity="0" fill="rgb(0,0,0)" d="M 35 68 L 522.0020283975659 68 522.0020283975659 15 35 15"></path><g  class="highcharts-grid"></g><g  class="highcharts-grid"></g><g  class="highcharts-grid"></g><path  stroke-width="0.1" stroke="rgb(0,0,0)" stroke-opacity="0" fill="none" d="M 35 278.05 L 522.0020283975659 278.05"></path><text visibility=""  text-anchor="end" style="font-family:verdana;font-size:10px;line-height:14px;color:#555555;fill:#555555;" y="282" x="31"><tspan x="31">0</tspan></text><path  fill-opacity="0.5" fill="rgb(238,238,238)" d="M 35 225 L 522.0020283975659 225 522.0020283975659 173 35 173"></path><path  fill-opacity="0.5" fill="rgb(238,238,238)" d="M 35 120 L 522.0020283975659 120 522.0020283975659 68 35 68"></path><rect  stroke-linejoin="round" stroke="rgb(84,84,84)" stroke-opacity="1" stroke-width="2" height="265" width="489" y="14" x="34" fill="none" ry="0" rx="0"></rect><path  stroke-width="1" stroke="rgb(113,113,112)" stroke-opacity="0.4" fill="none" d="M 35 225.5 L 522.0020283975659 225.5"></path><text visibility=""  text-anchor="end" style="font-family:verdana;font-size:10px;line-height:14px;color:#555555;fill:#555555;" y="229" x="31"><tspan x="31">1M</tspan></text><path  stroke-width="1" stroke="rgb(113,113,112)" stroke-opacity="0.4" fill="none" d="M 35 173.5 L 522.0020283975659 173.5"></path><text visibility=""  text-anchor="end" style="font-family:verdana;font-size:10px;line-height:14px;color:#555555;fill:#555555;" y="177" x="31"><tspan x="31">2M</tspan></text><path  stroke-width="1" stroke="rgb(113,113,112)" stroke-opacity="0.4" fill="none" d="M 35 120.5 L 522.0020283975659 120.5"></path><text visibility=""  text-anchor="end" style="font-family:verdana;font-size:10px;line-height:14px;color:#555555;fill:#555555;" y="124" x="31"><tspan x="31">3M</tspan></text><path  stroke-width="1" stroke="rgb(113,113,112)" stroke-opacity="0.4" fill="none" d="M 35 68.5 L 522.0020283975659 68.5"></path><text visibility=""  text-anchor="end" style="font-family:verdana;font-size:10px;line-height:14px;color:#555555;fill:#555555;" y="72" x="31"><tspan x="31">4M</tspan></text><path  stroke-width="0.1" stroke="rgb(0,0,0)" stroke-opacity="0" fill="none" d="M 35 15.05 L 522.0020283975659 15.05"></path><text visibility=""  text-anchor="end" style="font-family:verdana;font-size:10px;line-height:14px;color:#555555;fill:#555555;" y="19" x="31"><tspan x="31">5M</tspan></text><g  class="highcharts-series-group"><g transform="translate(35,15)" visibility="" clip-path="url('#highcharts-10')" class="highcharts-series"><g class="highcharts-shadow"><path transform="translate(1,1)"  stroke-linecap="round" stroke-width="6" stroke="rgb(0,0,0)" stroke-opacity="0.06" fill="none" d="M 0 69.56933859999987 L 243.5 0.6446214160002341"></path><path transform="translate(1,1)"  stroke-linecap="round" stroke-width="4" stroke="rgb(0,0,0)" stroke-opacity="0.12" fill="none" d="M 0 69.56933859999987 L 243.5 0.6446214160002341"></path><path transform="translate(1,1)"  stroke-linecap="round" stroke-width="2" stroke="rgb(0,0,0)" stroke-opacity="0.18" fill="none" d="M 0 69.56933859999987 L 243.5 0.6446214160002341"></path><path transform="translate(1,1)"  stroke-linecap="round" stroke-width="6" stroke="rgb(0,0,0)" stroke-opacity="0.06" fill="none" d="M 243.5 0.6446214160002341 L 487 158.80858711599996"></path><path transform="translate(1,1)"  stroke-linecap="round" stroke-width="4" stroke="rgb(0,0,0)" stroke-opacity="0.12" fill="none" d="M 243.5 0.6446214160002341 L 487 158.80858711599996"></path><path transform="translate(1,1)"  stroke-linecap="round" stroke-width="2" stroke="rgb(0,0,0)" stroke-opacity="0.18" fill="none" d="M 243.5 0.6446214160002341 L 487 158.80858711599996"></path></g><path stroke-linecap="round" stroke-width="2" stroke="#FF0000" stroke-opacity="1" fill="none" d="M 0 69.56933859999987 L 243.5 0.6446214160002341"></path><path stroke-linecap="round" stroke-width="2" stroke="#FF0000" stroke-opacity="1" fill="none" d="M 243.5 0.6446214160002341 L 487 158.80858711599996"></path><circle fill="#FFFFFF" fill-opacity="1" stroke-width="1" stroke="#FF0000" stroke-opacity="1" r="3" cy="158.80858711599996" cx="487"></circle><circle fill="#FFFFFF" fill-opacity="1" stroke-width="1" stroke="#FF0000" stroke-opacity="1" r="3" cy="0.6446214160002341" cx="243.5"></circle><circle fill="#FFFFFF" fill-opacity="1" stroke-width="1" stroke="#FF0000" stroke-opacity="1" r="3" cy="69.56933859999987" cx="0"></circle></g><g transform="translate(35,15)" visibility="" clip-path="url('#highcharts-10')" class="highcharts-series"><g class="highcharts-shadow"><path transform="translate(1,1)"  stroke-linecap="round" stroke-width="6" stroke="rgb(0,0,0)" stroke-opacity="0.06" fill="none" d="M 0 69.56933859999987 L 243.5 0.6446214160002341"></path><path transform="translate(1,1)"  stroke-linecap="round" stroke-width="4" stroke="rgb(0,0,0)" stroke-opacity="0.12" fill="none" d="M 0 69.56933859999987 L 243.5 0.6446214160002341"></path><path transform="translate(1,1)"  stroke-linecap="round" stroke-width="2" stroke="rgb(0,0,0)" stroke-opacity="0.18" fill="none" d="M 0 69.56933859999987 L 243.5 0.6446214160002341"></path><path transform="translate(1,1)"  stroke-linecap="round" stroke-width="6" stroke="rgb(0,0,0)" stroke-opacity="0.06" fill="none" d="M 243.5 0.6446214160002341 L 487 158.80858711599996"></path><path transform="translate(1,1)"  stroke-linecap="round" stroke-width="4" stroke="rgb(0,0,0)" stroke-opacity="0.12" fill="none" d="M 243.5 0.6446214160002341 L 487 158.80858711599996"></path><path transform="translate(1,1)"  stroke-linecap="round" stroke-width="2" stroke="rgb(0,0,0)" stroke-opacity="0.18" fill="none" d="M 243.5 0.6446214160002341 L 487 158.80858711599996"></path></g><path stroke-linecap="round" stroke-width="2" stroke="#80ff00" stroke-opacity="1" fill="none" d="M 0 69.56933859999987 L 243.5 0.6446214160002341"></path><path stroke-linecap="round" stroke-width="2" stroke="#80ff00" stroke-opacity="1" fill="none" d="M 243.5 0.6446214160002341 L 487 158.80858711599996"></path><circle fill="#FFFFFF" fill-opacity="1" stroke-width="1" stroke="#80ff00" stroke-opacity="1" r="3" cy="158.80858711599996" cx="487"></circle><circle fill="#FFFFFF" fill-opacity="1" stroke-width="1" stroke="#80ff00" stroke-opacity="1" r="3" cy="0.6446214160002341" cx="243.5"></circle><circle fill="#FFFFFF" fill-opacity="1" stroke-width="1" stroke="#80ff00" stroke-opacity="1" r="3" cy="69.56933859999987" cx="0"></circle></g></g><g transform="translate(35,15)"  visibility="" class="highcharts-data-labels"><text  text-anchor="middle" style="font-family:verdana;font-size:10px;color:#555555;line-height:14px;text-decoration:none;font-weight:normal;font-style:normal;fill:#555555;" y="64" x="0"><tspan x="0">3.68M</tspan></text><text  text-anchor="middle" style="font-family:verdana;font-size:10px;color:#555555;line-height:14px;text-decoration:none;font-weight:normal;font-style:normal;fill:#555555;" y="17" x="244"><tspan x="244">4.99M</tspan></text><text  text-anchor="middle" style="font-family:verdana;font-size:10px;color:#555555;line-height:14px;text-decoration:none;font-weight:normal;font-style:normal;fill:#555555;" y="175" x="487"><tspan x="487">1.98M</tspan></text></g><g transform="translate(35,15)"  visibility="" class="highcharts-data-labels"><text  text-anchor="middle" style="font-family:verdana;font-size:10px;color:#555555;line-height:14px;text-decoration:none;font-weight:normal;font-style:normal;fill:#555555;" y="64" x="0"><tspan x="0">3.68M</tspan></text><text  text-anchor="middle" style="font-family:verdana;font-size:10px;color:#555555;line-height:14px;text-decoration:none;font-weight:normal;font-style:normal;fill:#555555;" y="17" x="244"><tspan x="244">4.99M</tspan></text><text  text-anchor="middle" style="font-family:verdana;font-size:10px;color:#555555;line-height:14px;text-decoration:none;font-weight:normal;font-style:normal;fill:#555555;" y="175" x="487"><tspan x="487">1.98M</tspan></text></g><g  class="highcharts-axis"></g><g  class="highcharts-axis"></g><g  class="highcharts-axis"></g><g visibility="hidden"  class="highcharts-tooltip"><rect fill-opacity="1" stroke-width="1" height="0" width="0" y="1.5" x="1.5" fill="rgb(255,255,255)" ry="1" rx="1"></rect><text  style="font-family:verdana;font-size:10px;color:#555555;padding:0;white-space:nowrap;line-height:14px;fill:#555555;" y="11" x="1"><tspan x="1"> </tspan></text></g><text  text-anchor="end" style="font-family:'lucida grande', 'lucida sans unicode', verdana, arial, helvetica, sans-serif;font-size:10px;cursor:pointer;color:#909090;fill:#909090;" y="334" x="532"><tspan x="532">FusionCharts</tspan></text><g transform="translate(35,15)"  class="highcharts-tracker"><path style=""  visibility="" stroke-width="22" stroke="rgb(192,192,192)" stroke-opacity="0.000001"  fill="none" d="M -10 69.56933859999987 L 0 69.56933859999987 L 243.5 0.6446214160002341 L 487 158.80858711599996 L 497 158.80858711599996"></path><path style=""  visibility="" stroke-width="22" stroke="rgb(192,192,192)" stroke-opacity="0.000001"  fill="none" d="M -10 69.56933859999987 L 0 69.56933859999987 L 243.5 0.6446214160002341 L 487 158.80858711599996 L 497 158.80858711599996"></path></g><g transform="translate(190,301)"  class="highcharts-legend"><rect visibility="" transform="translate(1,1)"  fill-opacity="1" stroke="rgb(0,0,0)" stroke-opacity="0.06" stroke-width="5" height="22" width="181" y="0.5" x="0.5" fill="none" ry="0" rx="0"></rect><rect visibility="" transform="translate(1,1)"  fill-opacity="1" stroke="rgb(0,0,0)" stroke-opacity="0.12" stroke-width="3" height="22" width="181" y="0.5" x="0.5" fill="none" ry="0" rx="0"></rect><rect visibility="" transform="translate(1,1)"  fill-opacity="1" stroke="rgb(0,0,0)" stroke-opacity="0.18" stroke-width="1" height="22" width="181" y="0.5" x="0.5" fill="none" ry="0" rx="0"></rect><rect visibility="" fill-opacity="1" stroke="rgb(84,84,84)" stroke-opacity="1" stroke-width="1" height="22" width="181" y="0.5" x="0.5" fill="rgb(255,255,255)" ry="0" rx="0"></rect><text transform="translate(23,15)"  style="font-family:verdana;font-size:10px;cursor:pointer;color:#555555;line-height:14px;fill:#555555;" y="0" x="0"><tspan x="0">Total </tspan></text><path transform="translate(23,14)" stroke="#FF0000" stroke-opacity="1"  stroke-width="2" fill="none" d="M -16 -2.5 L -7 -2.5"></path><text transform="translate(110,15)"  style="font-family:verdana;font-size:10px;cursor:pointer;color:#555555;line-height:14px;fill:#555555;" y="0" x="0"><tspan x="0">Total Check </tspan></text><path transform="translate(110,14)" stroke="#80ff00" stroke-opacity="1"  stroke-width="2" fill="none" d="M -16 -2.5 L -7 -2.5"></path><circle style="_cursor:hand;cursor:pointer;" fill="#FFFFFF" fill-opacity="1" stroke-width="1" stroke="#FF0000" stroke-opacity="1"  r="3" cy="11.5" cx="11.5"></circle><circle style="_cursor:hand;cursor:pointer;" fill="#FFFFFF" fill-opacity="1" stroke-width="1" stroke="#80ff00" stroke-opacity="1"  r="3" cy="11.5" cx="98.5"></circle></g></svg>