<svg xmlns:xlink="http://www.w3.org/1999/xlink" height="339" width="542" version="1.1" xmlns="http://www.w3.org/2000/svg"><defs><linearGradient y2="0%" x2="50%" y1="100%" x1="50%" gradientUnits="objectBoundingBox" id="highcharts-25"><stop stop-opacity="1" stop-color="#FF0000" offset="0%"></stop><stop stop-opacity="1" stop-color="#FF0000" offset="70%"></stop><stop stop-opacity="1" stop-color="#ff9999" offset="100%"></stop></linearGradient><linearGradient y2="0%" x2="50%" y1="100%" x1="50%" gradientUnits="objectBoundingBox" id="highcharts-26"><stop stop-opacity="1" stop-color="#80ff00" offset="0%"></stop><stop stop-opacity="1" stop-color="#80ff00" offset="70%"></stop><stop stop-opacity="1" stop-color="#ccff99" offset="100%"></stop></linearGradient><clipPath id="highcharts-27"><rect stroke-width="0" height="337" width="540" y="1" x="1" fill="none" ry="0" rx="0"></rect></clipPath><clipPath id="highcharts-28"><rect stroke-width="0" height="339" width="542" y="-29" x="-51" fill="none" ry="0" rx="0"></rect></clipPath><linearGradient y2="100%" x2="50%" y1="0%" x1="50%" gradientUnits="objectBoundingBox" id="highcharts-29"><stop stop-opacity="1" stop-color="#FF0000" offset="0%"></stop><stop stop-opacity="1" stop-color="#FFFFFF" offset="100%"></stop></linearGradient><linearGradient y2="100%" x2="50%" y1="0%" x1="50%" gradientUnits="objectBoundingBox" id="highcharts-30"><stop stop-opacity="1" stop-color="#FF0000" offset="0%"></stop><stop stop-opacity="1" stop-color="#FFFFFF" offset="100%"></stop></linearGradient><linearGradient y2="100%" x2="50%" y1="0%" x1="50%" gradientUnits="objectBoundingBox" id="highcharts-31"><stop stop-opacity="1" stop-color="#FF0000" offset="0%"></stop><stop stop-opacity="1" stop-color="#FFFFFF" offset="100%"></stop></linearGradient><linearGradient y2="100%" x2="50%" y1="0%" x1="50%" gradientUnits="objectBoundingBox" id="highcharts-32"><stop stop-opacity="1" stop-color="#80ff00" offset="0%"></stop><stop stop-opacity="1" stop-color="#FFFFFF" offset="100%"></stop></linearGradient><linearGradient y2="100%" x2="50%" y1="0%" x1="50%" gradientUnits="objectBoundingBox" id="highcharts-33"><stop stop-opacity="1" stop-color="#80ff00" offset="0%"></stop><stop stop-opacity="1" stop-color="#FFFFFF" offset="100%"></stop></linearGradient><linearGradient y2="100%" x2="50%" y1="0%" x1="50%" gradientUnits="objectBoundingBox" id="highcharts-34"><stop stop-opacity="1" stop-color="#80ff00" offset="0%"></stop><stop stop-opacity="1" stop-color="#FFFFFF" offset="100%"></stop></linearGradient></defs><rect fill-opacity="0" stroke="rgb(255,255,255)" stroke-opacity="0.5" stroke-width="1" height="338" width="541" y="0.5" x="0.5" fill="#FFFFFF" ry="0" rx="0"></rect><rect fill-opacity="1" stroke-width="0" height="249" width="476" y="29" x="51" fill="#FFFFFF" ry="0" rx="0"></rect><path fill-opacity="0" fill="rgb(0,0,0)" d="M 51 29 L 51 278 146 278 146 29"></path><path fill-opacity="0" fill="rgb(0,0,0)" d="M 241 29 L 241 278 337 278 337 29"></path><path fill-opacity="0" fill="rgb(0,0,0)" d="M 432 29 L 432 278 527 278 527 29"></path><path stroke-width="0.1" stroke="rgb(0,0,0)" stroke-opacity="0" fill="none" d="M 140.05 29 L 140.05 278"></path><text visibility="" text-anchor="middle" style="font-family:verdana;font-size:10px;line-height:14px;color:#555555;fill:#555555;" y="294" x="140"><tspan x="140">2008</tspan></text><path stroke-width="0.1" stroke="rgb(0,0,0)" stroke-opacity="0" fill="none" d="M 292.05 29 L 292.05 278"></path><text visibility="" text-anchor="middle" style="font-family:verdana;font-size:10px;line-height:14px;color:#555555;fill:#555555;" y="294" x="292"><tspan x="292">2009</tspan></text><path stroke-width="0.1" stroke="rgb(0,0,0)" stroke-opacity="0" fill="none" d="M 441.05 29 L 441.05 278"></path><text visibility="" text-anchor="middle" style="font-family:verdana;font-size:10px;line-height:14px;color:#555555;fill:#555555;" y="294" x="441"><tspan x="441">2010</tspan></text><path stroke-width="1" stroke="rgb(0,0,0)" stroke-opacity="0" fill="none" d="M 140.5 29 L 140.5 278"></path><text visibility="" text-anchor="middle" style="font-family:verdana;font-size:10px;color:#555555;line-height:14px;fill:#555555;" y="25" x="141"><tspan x="141">5.25M</tspan></text><path stroke-width="1" stroke="rgb(0,0,0)" stroke-opacity="0" fill="none" d="M 292.5 29 L 292.5 278"></path><text visibility="" text-anchor="middle" style="font-family:verdana;font-size:10px;color:#555555;line-height:14px;fill:#555555;" y="25" x="293"><tspan x="293">3.68M</tspan></text><path stroke-width="1" stroke="rgb(0,0,0)" stroke-opacity="0" fill="none" d="M 441.5 29 L 441.5 278"></path><text visibility="" text-anchor="middle" style="font-family:verdana;font-size:10px;color:#555555;line-height:14px;fill:#555555;" y="25" x="442"><tspan x="442">5.06M</tspan></text><path fill-opacity="0" fill="rgb(0,0,0)" d="M 51 278 L 527 278 527 228 51 228"></path><path fill-opacity="0" fill="rgb(0,0,0)" d="M 51 178 L 527 178 527 129 51 129"></path><path fill-opacity="0" fill="rgb(0,0,0)" d="M 51 79 L 527 79 527 29 51 29"></path><g  class="highcharts-grid"></g><g  class="highcharts-grid"></g><g  class="highcharts-grid"></g><path  stroke-width="0.1" stroke="rgb(0,0,0)" stroke-opacity="0" fill="none" d="M 51 278.05 L 527 278.05"></path><text visibility=""  text-anchor="end" style="font-family:verdana;font-size:10px;line-height:14px;color:#555555;fill:#555555;" y="282" x="47"><tspan x="47">0%</tspan></text><path  fill-opacity="0.5" fill="rgb(238,238,238)" d="M 51 228 L 527 228 527 178 51 178"></path><path  fill-opacity="0.5" fill="rgb(238,238,238)" d="M 51 129 L 527 129 527 79 51 79"></path><rect  stroke-linejoin="round" stroke="rgb(84,84,84)" stroke-opacity="1" stroke-width="2" height="251" width="478" y="28" x="50" fill="none" ry="0" rx="0"></rect><path  stroke-width="1" stroke="rgb(113,113,112)" stroke-opacity="0.4" fill="none" d="M 51 228.5 L 527 228.5"></path><text visibility=""  text-anchor="end" style="font-family:verdana;font-size:10px;line-height:14px;color:#555555;fill:#555555;" y="232" x="47"><tspan x="47">20%</tspan></text><path  stroke-width="1" stroke="rgb(113,113,112)" stroke-opacity="0.4" fill="none" d="M 51 178.5 L 527 178.5"></path><text visibility=""  text-anchor="end" style="font-family:verdana;font-size:10px;line-height:14px;color:#555555;fill:#555555;" y="182" x="47"><tspan x="47">40%</tspan></text><path  stroke-width="1" stroke="rgb(113,113,112)" stroke-opacity="0.4" fill="none" d="M 51 129.5 L 527 129.5"></path><text visibility=""  text-anchor="end" style="font-family:verdana;font-size:10px;line-height:14px;color:#555555;fill:#555555;" y="133" x="47"><tspan x="47">60%</tspan></text><path  stroke-width="1" stroke="rgb(113,113,112)" stroke-opacity="0.4" fill="none" d="M 51 79.5 L 527 79.5"></path><text visibility=""  text-anchor="end" style="font-family:verdana;font-size:10px;line-height:14px;color:#555555;fill:#555555;" y="83" x="47"><tspan x="47">80%</tspan></text><path  stroke-width="0.1" stroke="rgb(0,0,0)" stroke-opacity="0" fill="none" d="M 51 29.05 L 527 29.05"></path><text visibility=""  text-anchor="end" style="font-family:verdana;font-size:10px;line-height:14px;color:#555555;fill:#555555;" y="33" x="47"><tspan x="47">100%</tspan></text><g  class="highcharts-series-group"><g transform="translate(51,29)" visibility="" clip-path="url('#highcharts-28')" class="highcharts-series"><rect r="0" stroke="#333333" stroke-opacity="1" stroke-width="1" height="73" width="177" y="175.5" x="0.5" fill="url('#highcharts-29')" ry="0" rx="0"></rect><rect r="0" stroke="#333333" stroke-opacity="1" stroke-width="1" height="140" width="124" y="108.5" x="178.5" fill="url('#highcharts-30')" ry="0" rx="0"></rect><rect r="0" stroke="#333333" stroke-opacity="1" stroke-width="1" height="150" width="171" y="98.5" x="303.5" fill="url('#highcharts-31')" ry="0" rx="0"></rect></g><g transform="translate(51,29)" visibility="" clip-path="url('#highcharts-28')" class="highcharts-series"><rect r="0" stroke="#333333" stroke-opacity="1" stroke-width="1" height="174" width="177" y="0.5" x="0.5" fill="url('#highcharts-32')" ry="0" rx="0"></rect><rect r="0" stroke="#333333" stroke-opacity="1" stroke-width="1" height="107" width="124" y="0.5" x="178.5" fill="url('#highcharts-33')" ry="0" rx="0"></rect><rect r="0" stroke="#333333" stroke-opacity="1" stroke-width="1" height="97" width="171" y="0.5" x="303.5" fill="url('#highcharts-34')" ry="0" rx="0"></rect></g></g><path  stroke-width="1" stroke="rgb(0,0,0)" stroke-opacity="0" fill="none" d="M 230.5 29 L 230.5 278"></path><rect stroke-opacity="1" fill-opacity="1" stroke="#555555" stroke-width="1" height="17" width="49" y="260.5" x="206.5" fill="#ffffff" ry="0" rx="0"></rect><text visibility=""  text-anchor="middle" style="font-family:verdana;font-size:10px;color:#555555;line-height:14px;border:1px solid;border-color:#555555;background-color:#ffffff;background-opacity:1;fill:#555555;" y="273" x="231"><tspan x="231">37.56%</tspan></text><path  stroke-width="1" stroke="rgb(0,0,0)" stroke-opacity="0" fill="none" d="M 355.5 29 L 355.5 278"></path><rect stroke-opacity="1" fill-opacity="1" stroke="#555555" stroke-width="1" height="17" width="49" y="260.5" x="331.5" fill="#ffffff" ry="0" rx="0"></rect><text visibility=""  text-anchor="middle" style="font-family:verdana;font-size:10px;color:#555555;line-height:14px;border:1px solid;border-color:#555555;background-color:#ffffff;background-opacity:1;fill:#555555;" y="273" x="356"><tspan x="356">63.82%</tspan></text><g transform="translate(51,29)"  visibility="" class="highcharts-data-labels"><text  text-anchor="middle" style="font-family:verdana;font-size:10px;color:#555555;line-height:14px;text-decoration:none;font-weight:normal;font-style:normal;fill:#555555;" y="216" x="89"><tspan x="89">1.58M</tspan></text><text  text-anchor="middle" style="font-family:verdana;font-size:10px;color:#555555;line-height:14px;text-decoration:none;font-weight:normal;font-style:normal;fill:#555555;" y="183" x="241"><tspan x="241">2.09M</tspan></text><text  text-anchor="middle" style="font-family:verdana;font-size:10px;color:#555555;line-height:14px;text-decoration:none;font-weight:normal;font-style:normal;fill:#555555;" y="178" x="390"><tspan x="390">3.08M</tspan></text></g><g transform="translate(51,29)"  visibility="" class="highcharts-data-labels"><text  text-anchor="middle" style="font-family:verdana;font-size:10px;color:#555555;line-height:14px;text-decoration:none;font-weight:normal;font-style:normal;fill:#555555;" y="92" x="89"><tspan x="89">3.68M</tspan></text><text  text-anchor="middle" style="font-family:verdana;font-size:10px;color:#555555;line-height:14px;text-decoration:none;font-weight:normal;font-style:normal;fill:#555555;" y="58" x="241"><tspan x="241">1.59M</tspan></text><text  text-anchor="middle" style="font-family:verdana;font-size:10px;color:#555555;line-height:14px;text-decoration:none;font-weight:normal;font-style:normal;fill:#555555;" y="53" x="390"><tspan x="390">1.98M</tspan></text></g><g  class="highcharts-axis"></g><g  class="highcharts-axis"></g><g  class="highcharts-axis"></g><g visibility="hidden"  class="highcharts-tooltip"><rect fill-opacity="1" stroke-width="1" height="0" width="0" y="1.5" x="1.5" fill="rgb(255,255,255)" ry="1" rx="1"></rect><text  style="font-family:verdana;font-size:10px;color:#555555;padding:0;white-space:nowrap;line-height:14px;fill:#555555;" y="11" x="1"><tspan x="1"> </tspan></text></g><text  text-anchor="end" style="font-family:'lucida grande', 'lucida sans unicode', verdana, arial, helvetica, sans-serif;font-size:10px;cursor:pointer;color:#909090;fill:#909090;" y="334" x="532"><tspan x="532">FusionCharts</tspan></text><g transform="translate(51,29)"  class="highcharts-tracker"><rect style=""  visibility="" fill-opacity="0.000001"  stroke-width="0" height="74" width="178" y="175" x="0" fill="rgb(192,192,192)" ry="0" rx="0"></rect><rect style=""  visibility="" fill-opacity="0.000001"  stroke-width="0" height="141" width="125" y="108" x="178" fill="rgb(192,192,192)" ry="0" rx="0"></rect><rect style=""  visibility="" fill-opacity="0.000001"  stroke-width="0" height="151" width="172" y="98" x="303" fill="rgb(192,192,192)" ry="0" rx="0"></rect><rect style=""  visibility="" fill-opacity="0.000001"  stroke-width="0" height="175" width="178" y="0" x="0" fill="rgb(192,192,192)" ry="0" rx="0"></rect><rect style=""  visibility="" fill-opacity="0.000001"  stroke-width="0" height="108" width="125" y="0" x="178" fill="rgb(192,192,192)" ry="0" rx="0"></rect><rect style=""  visibility="" fill-opacity="0.000001"  stroke-width="0" height="98" width="172" y="0" x="303" fill="rgb(192,192,192)" ry="0" rx="0"></rect></g><g transform="translate(198,301)"  class="highcharts-legend"><rect visibility="" transform="translate(1,1)"  fill-opacity="1" stroke="rgb(0,0,0)" stroke-opacity="0.06" stroke-width="5" height="22" width="181" y="0.5" x="0.5" fill="none" ry="0" rx="0"></rect><rect visibility="" transform="translate(1,1)"  fill-opacity="1" stroke="rgb(0,0,0)" stroke-opacity="0.12" stroke-width="3" height="22" width="181" y="0.5" x="0.5" fill="none" ry="0" rx="0"></rect><rect visibility="" transform="translate(1,1)"  fill-opacity="1" stroke="rgb(0,0,0)" stroke-opacity="0.18" stroke-width="1" height="22" width="181" y="0.5" x="0.5" fill="none" ry="0" rx="0"></rect><rect visibility="" fill-opacity="1" stroke="rgb(84,84,84)" stroke-opacity="1" stroke-width="1" height="22" width="181" y="0.5" x="0.5" fill="rgb(255,255,255)" ry="0" rx="0"></rect><text transform="translate(23,15)"  style="font-family:verdana;font-size:10px;cursor:default;color:#555555;line-height:14px;fill:#555555;" y="0" x="0"><tspan x="0">Total </tspan></text><text transform="translate(110,15)"  style="font-family:verdana;font-size:10px;cursor:default;color:#555555;line-height:14px;fill:#555555;" y="0" x="0"><tspan x="0">Total Check </tspan></text><path transform="translate(23,14)" style="" stroke="#990000"  stroke-width="0.5" fill="url('#highcharts-25')" d="M -16 -7 L -7 -7 -7 2 -16 2 Z"></path><path transform="translate(110,14)" style="" stroke="#4c9900"  stroke-width="0.5" fill="url('#highcharts-26')" d="M -16 -7 L -7 -7 -7 2 -16 2 Z"></path></g></svg>