<svg xmlns:xlink="http://www.w3.org/1999/xlink" height="277" width="568" version="1.1" xmlns="http://www.w3.org/2000/svg"><defs><linearGradient y2="0%" x2="50%" y1="100%" x1="50%" gradientUnits="objectBoundingBox" id="highcharts-33"><stop stop-opacity="1" stop-color="#ff00ff" offset="0%"></stop><stop stop-opacity="1" stop-color="#ff00ff" offset="30%"></stop><stop stop-opacity="1" stop-color="#ff99ff" offset="60%"></stop><stop stop-opacity="1" stop-color="#ff00ff" offset="90%"></stop><stop stop-opacity="1" stop-color="#ff00ff" offset="100%"></stop></linearGradient><linearGradient y2="0%" x2="50%" y1="100%" x1="50%" gradientUnits="objectBoundingBox" id="highcharts-34"><stop stop-opacity="1" stop-color="#FF0000" offset="0%"></stop><stop stop-opacity="1" stop-color="#FF0000" offset="30%"></stop><stop stop-opacity="1" stop-color="#ff9999" offset="60%"></stop><stop stop-opacity="1" stop-color="#FF0000" offset="90%"></stop><stop stop-opacity="1" stop-color="#FF0000" offset="100%"></stop></linearGradient><linearGradient y2="0%" x2="50%" y1="100%" x1="50%" gradientUnits="objectBoundingBox" id="highcharts-35"><stop stop-opacity="1" stop-color="#00FF00" offset="0%"></stop><stop stop-opacity="1" stop-color="#00FF00" offset="30%"></stop><stop stop-opacity="1" stop-color="#99ff99" offset="60%"></stop><stop stop-opacity="1" stop-color="#00FF00" offset="90%"></stop><stop stop-opacity="1" stop-color="#00FF00" offset="100%"></stop></linearGradient><linearGradient y2="0%" x2="50%" y1="100%" x1="50%" gradientUnits="objectBoundingBox" id="highcharts-36"><stop stop-opacity="1" stop-color="#0000FF" offset="0%"></stop><stop stop-opacity="1" stop-color="#0000FF" offset="30%"></stop><stop stop-opacity="1" stop-color="#9999ff" offset="60%"></stop><stop stop-opacity="1" stop-color="#0000FF" offset="90%"></stop><stop stop-opacity="1" stop-color="#0000FF" offset="100%"></stop></linearGradient><clipPath id="highcharts-37"><rect stroke-width="0" height="275" width="566" y="1" x="1" fill="none" ry="0" rx="0"></rect></clipPath><clipPath id="highcharts-38"><rect stroke-width="0" height="277" width="568" y="-15" x="-47" fill="none" ry="0" rx="0"></rect></clipPath><linearGradient y2="100%" x2="50%" y1="0%" x1="50%" gradientUnits="objectBoundingBox" id="highcharts-39"><stop stop-opacity="1" stop-color="#ff00ff" offset="0%"></stop><stop stop-opacity="1" stop-color="#FFFFFF" offset="100%"></stop></linearGradient><linearGradient y2="100%" x2="50%" y1="0%" x1="50%" gradientUnits="objectBoundingBox" id="highcharts-40"><stop stop-opacity="1" stop-color="#ff00ff" offset="0%"></stop><stop stop-opacity="1" stop-color="#FFFFFF" offset="100%"></stop></linearGradient><linearGradient y2="100%" x2="50%" y1="0%" x1="50%" gradientUnits="objectBoundingBox" id="highcharts-41"><stop stop-opacity="1" stop-color="#ff00ff" offset="0%"></stop><stop stop-opacity="1" stop-color="#FFFFFF" offset="100%"></stop></linearGradient><linearGradient y2="100%" x2="50%" y1="0%" x1="50%" gradientUnits="objectBoundingBox" id="highcharts-42"><stop stop-opacity="1" stop-color="#ff00ff" offset="0%"></stop><stop stop-opacity="1" stop-color="#FFFFFF" offset="100%"></stop></linearGradient><linearGradient y2="100%" x2="50%" y1="0%" x1="50%" gradientUnits="objectBoundingBox" id="highcharts-43"><stop stop-opacity="1" stop-color="#ff00ff" offset="0%"></stop><stop stop-opacity="1" stop-color="#FFFFFF" offset="100%"></stop></linearGradient><linearGradient y2="0%" x2="50%" y1="100%" x1="50%" gradientUnits="objectBoundingBox" id="highcharts-44"><stop stop-opacity="0.7" stop-color="#FF0000" offset="0%"></stop><stop stop-opacity="0.7" stop-color="#FFFFFF" offset="100%"></stop></linearGradient><linearGradient y2="0%" x2="50%" y1="100%" x1="50%" gradientUnits="objectBoundingBox" id="highcharts-45"><stop stop-opacity="0.7" stop-color="#00FF00" offset="0%"></stop><stop stop-opacity="0.7" stop-color="#FFFFFF" offset="100%"></stop></linearGradient><linearGradient y2="0%" x2="50%" y1="100%" x1="50%" gradientUnits="objectBoundingBox" id="highcharts-46"><stop stop-opacity="0.7" stop-color="#0000FF" offset="0%"></stop><stop stop-opacity="0.7" stop-color="#FFFFFF" offset="100%"></stop></linearGradient></defs><rect fill-opacity="0" stroke="rgb(255,255,255)" stroke-opacity="0.5" stroke-width="1" height="276" width="567" y="0.5" x="0.5" fill="#FFFFFF" ry="0" rx="0"></rect><rect fill-opacity="1" stroke-width="0" height="203" width="506" y="15" x="47" fill="#FFFFFF" ry="0" rx="0"></rect><path fill-opacity="0" fill="rgb(0,0,0)" d="M 98 15 L 98 218 199 218 199 15"></path><path fill-opacity="0" fill="rgb(0,0,0)" d="M 300 15 L 300 218 401 218 401 15"></path><path fill-opacity="0" fill="rgb(0,0,0)" d="M 502 15 L 502 218 553 218 553 15"></path><path stroke-width="0.1" stroke="rgb(0,0,0)" stroke-opacity="0" fill="none" d="M 98.05 15 L 98.05 218"></path><text visibility="" text-anchor="middle" style="font-family: verdana; font-size: 10px; line-height: 12px; color: rgb(85, 85, 85); fill: rgb(85, 85, 85);" y="232" x="98"><tspan x="98">Australia</tspan></text><path stroke-width="0.1" stroke="rgb(0,0,0)" stroke-opacity="0" fill="none" d="M 199.05 15 L 199.05 218"></path><text visibility="" text-anchor="middle" style="font-family: verdana; font-size: 10px; line-height: 12px; color: rgb(85, 85, 85); fill: rgb(85, 85, 85);" y="232" x="199"><tspan x="199">Austria</tspan></text><path stroke-width="0.1" stroke="rgb(0,0,0)" stroke-opacity="0" fill="none" d="M 300.05 15 L 300.05 218"></path><text visibility="" text-anchor="middle" style="font-family: verdana; font-size: 10px; line-height: 12px; color: rgb(85, 85, 85); fill: rgb(85, 85, 85);" y="232" x="300"><tspan x="300">Belgium</tspan></text><path stroke-width="0.1" stroke="rgb(0,0,0)" stroke-opacity="0" fill="none" d="M 401.05 15 L 401.05 218"></path><text visibility="" text-anchor="middle" style="font-family: verdana; font-size: 10px; line-height: 12px; color: rgb(85, 85, 85); fill: rgb(85, 85, 85);" y="232" x="401"><tspan x="401">Canada</tspan></text><path stroke-width="0.1" stroke="rgb(0,0,0)" stroke-opacity="0" fill="none" d="M 502.05 15 L 502.05 218"></path><text visibility="" text-anchor="middle" style="font-family: verdana; font-size: 10px; line-height: 12px; color: rgb(85, 85, 85); fill: rgb(85, 85, 85);" y="232" x="502"><tspan x="502">Denmark</tspan></text><path fill-opacity="0" fill="rgb(0,0,0)" d="M 47 218 L 553 218 553 177 47 177"></path><path fill-opacity="0" fill="rgb(0,0,0)" d="M 47 137 L 553 137 553 96 47 96"></path><path fill-opacity="0" fill="rgb(0,0,0)" d="M 47 56 L 553 56 553 15 47 15"></path><g  class="highcharts-grid"></g><g  class="highcharts-grid"></g><g  class="highcharts-grid"></g><path  stroke-width="0.1" stroke="rgb(0,0,0)" stroke-opacity="0" fill="none" d="M 47 218.05 L 553 218.05"></path><text visibility=""  text-anchor="end" style="font-family: verdana; font-size: 10px; line-height: 12px; color: rgb(85, 85, 85); fill: rgb(85, 85, 85);" y="222" x="43"><tspan x="43">0</tspan></text><path  fill-opacity="0.5" fill="rgb(238,238,238)" d="M 47 177 L 553 177 553 137 47 137"></path><path  fill-opacity="0.5" fill="rgb(238,238,238)" d="M 47 96 L 553 96 553 56 47 56"></path><rect  stroke-linejoin="round" stroke="rgb(84,84,84)" stroke-opacity="1" stroke-width="2" height="205" width="508" y="14" x="46" fill="none" ry="0" rx="0"></rect><path  stroke-width="1" stroke="rgb(113,113,112)" stroke-opacity="0.4" fill="none" d="M 47 177.5 L 553 177.5"></path><text visibility=""  text-anchor="end" style="font-family: verdana; font-size: 10px; line-height: 12px; color: rgb(85, 85, 85); fill: rgb(85, 85, 85);" y="181" x="43"><tspan x="43">1400</tspan></text><path  stroke-width="1" stroke="rgb(113,113,112)" stroke-opacity="0.4" fill="none" d="M 47 137.5 L 553 137.5"></path><text visibility=""  text-anchor="end" style="font-family: verdana; font-size: 10px; line-height: 12px; color: rgb(85, 85, 85); fill: rgb(85, 85, 85);" y="141" x="43"><tspan x="43">2800</tspan></text><path  stroke-width="1" stroke="rgb(113,113,112)" stroke-opacity="0.4" fill="none" d="M 47 96.5 L 553 96.5"></path><text visibility=""  text-anchor="end" style="font-family: verdana; font-size: 10px; line-height: 12px; color: rgb(85, 85, 85); fill: rgb(85, 85, 85);" y="100" x="43"><tspan x="43">4200</tspan></text><path  stroke-width="1" stroke="rgb(113,113,112)" stroke-opacity="0.4" fill="none" d="M 47 56.5 L 553 56.5"></path><text visibility=""  text-anchor="end" style="font-family: verdana; font-size: 10px; line-height: 12px; color: rgb(85, 85, 85); fill: rgb(85, 85, 85);" y="60" x="43"><tspan x="43">5600</tspan></text><path  stroke-width="0.1" stroke="rgb(0,0,0)" stroke-opacity="0" fill="none" d="M 47 15.05 L 553 15.05"></path><text visibility=""  text-anchor="end" style="font-family: verdana; font-size: 10px; line-height: 12px; color: rgb(85, 85, 85); fill: rgb(85, 85, 85);" y="19" x="43"><tspan x="43">7000</tspan></text><g  class="highcharts-series-group"><g transform="translate(47, 15)" visibility="" clip-path="url('#highcharts-38')" class="highcharts-series"><rect r="0" stroke="#333333" stroke-opacity="1" stroke-width="1" height="181" width="49" y="21.5" x="26.5" fill="url('#highcharts-39')" ry="0" rx="0"></rect><rect r="0" stroke="#333333" stroke-opacity="1" stroke-width="1" height="57" width="49" y="145.5" x="127.5" fill="url('#highcharts-40')" ry="0" rx="0"></rect><rect r="0" stroke="#333333" stroke-opacity="1" stroke-width="1" height="31" width="49" y="171.5" x="228.5" fill="url('#highcharts-41')" ry="0" rx="0"></rect><rect r="0" stroke="#333333" stroke-opacity="1" stroke-width="1" height="66" width="49" y="136.5" x="329.5" fill="url('#highcharts-42')" ry="0" rx="0"></rect><rect r="0" stroke="#333333" stroke-opacity="1" stroke-width="1" height="63" width="49" y="139.5" x="430.5" fill="url('#highcharts-43')" ry="0" rx="0"></rect></g><g transform="translate(47, 15)" visibility="" clip-path="url('#highcharts-38')" class="highcharts-series"><path fill="url('#highcharts-44')" d="M 50.6 159.5 L 151.8 185.281 L 253 196.388 L 354.2 194.735 L 455.40000000000003 197.954 L 455.40000000000003 203 L 50.6 203"></path><path stroke-linecap="round" stroke-width="1" stroke="#767575" stroke-opacity="0.95" fill="none" d="M 50.6 159.5 L 151.8 185.281 L 253 196.388 L 354.2 194.735 L 455.40000000000003 197.954"></path><circle fill="#FFFFFF" fill-opacity="0" stroke-width="1" stroke="#FF0000" stroke-opacity="0" r="3" cy="197.954" cx="455.40000000000003"></circle><circle fill="#FFFFFF" fill-opacity="0" stroke-width="1" stroke="#FF0000" stroke-opacity="0" r="3" cy="194.735" cx="354.2"></circle><circle fill="#FFFFFF" fill-opacity="0" stroke-width="1" stroke="#FF0000" stroke-opacity="0" r="3" cy="196.388" cx="253"></circle><circle fill="#FFFFFF" fill-opacity="0" stroke-width="1" stroke="#FF0000" stroke-opacity="0" r="3" cy="185.281" cx="151.8"></circle><circle fill="#FFFFFF" fill-opacity="0" stroke-width="1" stroke="#FF0000" stroke-opacity="0" r="3" cy="159.5" cx="50.6"></circle></g><g transform="translate(47, 15)" visibility="" clip-path="url('#highcharts-38')" class="highcharts-series"><path fill="url('#highcharts-45')" d="M 50.6 138.272 L 151.8 188.761 L 253 179.829 L 354.2 159.268 L 455.40000000000003 170.51999999999998 L 455.40000000000003 203 L 50.6 203"></path><path stroke-linecap="round" stroke-width="1" stroke="#767575" stroke-opacity="0.95" fill="none" d="M 50.6 138.272 L 151.8 188.761 L 253 179.829 L 354.2 159.268 L 455.40000000000003 170.51999999999998"></path><circle fill="#FFFFFF" fill-opacity="0" stroke-width="1" stroke="#00FF00" stroke-opacity="0" r="3" cy="170.51999999999998" cx="455.40000000000003"></circle><circle fill="#FFFFFF" fill-opacity="0" stroke-width="1" stroke="#00FF00" stroke-opacity="0" r="3" cy="159.268" cx="354.2"></circle><circle fill="#FFFFFF" fill-opacity="0" stroke-width="1" stroke="#00FF00" stroke-opacity="0" r="3" cy="179.829" cx="253"></circle><circle fill="#FFFFFF" fill-opacity="0" stroke-width="1" stroke="#00FF00" stroke-opacity="0" r="3" cy="188.761" cx="151.8"></circle><circle fill="#FFFFFF" fill-opacity="0" stroke-width="1" stroke="#00FF00" stroke-opacity="0" r="3" cy="138.272" cx="50.6"></circle></g><g transform="translate(47, 15)" visibility="" clip-path="url('#highcharts-38')" class="highcharts-series"><path fill="url('#highcharts-46')" d="M 50.6 130.094 L 151.8 177.712 L 253 201.637 L 354.2 188.5 L 455.40000000000003 176.813 L 455.40000000000003 203 L 50.6 203"></path><path stroke-linecap="round" stroke-width="1" stroke="#767575" stroke-opacity="0.95" fill="none" d="M 50.6 130.094 L 151.8 177.712 L 253 201.637 L 354.2 188.5 L 455.40000000000003 176.813"></path><circle fill="#FFFFFF" fill-opacity="0" stroke-width="1" stroke="#0000FF" stroke-opacity="0" r="3" cy="176.813" cx="455.40000000000003"></circle><circle fill="#FFFFFF" fill-opacity="0" stroke-width="1" stroke="#0000FF" stroke-opacity="0" r="3" cy="188.5" cx="354.2"></circle><circle fill="#FFFFFF" fill-opacity="0" stroke-width="1" stroke="#0000FF" stroke-opacity="0" r="3" cy="201.637" cx="253"></circle><circle fill="#FFFFFF" fill-opacity="0" stroke-width="1" stroke="#0000FF" stroke-opacity="0" r="3" cy="177.712" cx="151.8"></circle><circle fill="#FFFFFF" fill-opacity="0" stroke-width="1" stroke="#0000FF" stroke-opacity="0" r="3" cy="130.094" cx="50.6"></circle></g></g><g transform="translate(47, 15)"  visibility="" class="highcharts-data-labels"><text  text-anchor="middle" style="font-family: verdana; font-size: 10px; color: rgb(85, 85, 85); line-height: 12px; text-decoration: none; font-weight: normal; font-style: normal; fill: rgb(85, 85, 85);" y="16" x="51"><tspan x="51">6246</tspan></text><text  text-anchor="middle" style="font-family: verdana; font-size: 10px; color: rgb(85, 85, 85); line-height: 12px; text-decoration: none; font-weight: normal; font-style: normal; fill: rgb(85, 85, 85);" y="140" x="152"><tspan x="152">1974</tspan></text><text  text-anchor="middle" style="font-family: verdana; font-size: 10px; color: rgb(85, 85, 85); line-height: 12px; text-decoration: none; font-weight: normal; font-style: normal; fill: rgb(85, 85, 85);" y="166" x="253"><tspan x="253">1074</tspan></text><text  text-anchor="middle" style="font-family: verdana; font-size: 10px; color: rgb(85, 85, 85); line-height: 12px; text-decoration: none; font-weight: normal; font-style: normal; fill: rgb(85, 85, 85);" y="131" x="354"><tspan x="354">2293</tspan></text><text  text-anchor="middle" style="font-family: verdana; font-size: 10px; color: rgb(85, 85, 85); line-height: 12px; text-decoration: none; font-weight: normal; font-style: normal; fill: rgb(85, 85, 85);" y="133" x="455"><tspan x="455">2197</tspan></text></g><g transform="translate(47, 15)"  visibility="" class="highcharts-data-labels"><text  text-anchor="middle" style="font-family: verdana; font-size: 10px; color: rgb(85, 85, 85); line-height: 12px; text-decoration: none; font-weight: normal; font-style: normal; fill: rgb(85, 85, 85);" y="154" x="51"><tspan x="51">1500</tspan></text><text  text-anchor="middle" style="font-family: verdana; font-size: 10px; color: rgb(85, 85, 85); line-height: 12px; text-decoration: none; font-weight: normal; font-style: normal; fill: rgb(85, 85, 85);" y="201" x="152"><tspan x="152">611</tspan></text><text  text-anchor="middle" style="font-family: verdana; font-size: 10px; color: rgb(85, 85, 85); line-height: 12px; text-decoration: none; font-weight: normal; font-style: normal; fill: rgb(85, 85, 85);" y="190" x="253"><tspan x="253">228</tspan></text><text  text-anchor="middle" style="font-family: verdana; font-size: 10px; color: rgb(85, 85, 85); line-height: 12px; text-decoration: none; font-weight: normal; font-style: normal; fill: rgb(85, 85, 85);" y="189" x="354"><tspan x="354">285</tspan></text><text  text-anchor="middle" style="font-family: verdana; font-size: 10px; color: rgb(85, 85, 85); line-height: 12px; text-decoration: none; font-weight: normal; font-style: normal; fill: rgb(85, 85, 85);" y="192" x="455"><tspan x="455">174</tspan></text></g><g transform="translate(47, 15)"  visibility="" class="highcharts-data-labels"><text  text-anchor="middle" style="font-family: verdana; font-size: 10px; color: rgb(85, 85, 85); line-height: 12px; text-decoration: none; font-weight: normal; font-style: normal; fill: rgb(85, 85, 85);" y="132" x="51"><tspan x="51">2232</tspan></text><text  text-anchor="middle" style="font-family: verdana; font-size: 10px; color: rgb(85, 85, 85); line-height: 12px; text-decoration: none; font-weight: normal; font-style: normal; fill: rgb(85, 85, 85);" y="183" x="152"><tspan x="152">491</tspan></text><text  text-anchor="middle" style="font-family: verdana; font-size: 10px; color: rgb(85, 85, 85); line-height: 12px; text-decoration: none; font-weight: normal; font-style: normal; fill: rgb(85, 85, 85);" y="174" x="253"><tspan x="253">799</tspan></text><text  text-anchor="middle" style="font-family: verdana; font-size: 10px; color: rgb(85, 85, 85); line-height: 12px; text-decoration: none; font-weight: normal; font-style: normal; fill: rgb(85, 85, 85);" y="153" x="354"><tspan x="354">1508</tspan></text><text  text-anchor="middle" style="font-family: verdana; font-size: 10px; color: rgb(85, 85, 85); line-height: 12px; text-decoration: none; font-weight: normal; font-style: normal; fill: rgb(85, 85, 85);" y="187" x="455"><tspan x="455">1120</tspan></text></g><g transform="translate(47, 15)"  visibility="" class="highcharts-data-labels"><text  text-anchor="middle" style="font-family: verdana; font-size: 10px; color: rgb(85, 85, 85); line-height: 12px; text-decoration: none; font-weight: normal; font-style: normal; fill: rgb(85, 85, 85);" y="124" x="51"><tspan x="51">2514</tspan></text><text  text-anchor="middle" style="font-family: verdana; font-size: 10px; color: rgb(85, 85, 85); line-height: 12px; text-decoration: none; font-weight: normal; font-style: normal; fill: rgb(85, 85, 85);" y="194" x="152"><tspan x="152">872</tspan></text><text  text-anchor="middle" style="font-family: verdana; font-size: 10px; color: rgb(85, 85, 85); line-height: 12px; text-decoration: none; font-weight: normal; font-style: normal; fill: rgb(85, 85, 85);" y="196" x="253"><tspan x="253">47</tspan></text><text  text-anchor="middle" style="font-family: verdana; font-size: 10px; color: rgb(85, 85, 85); line-height: 12px; text-decoration: none; font-weight: normal; font-style: normal; fill: rgb(85, 85, 85);" y="183" x="354"><tspan x="354">500</tspan></text><text  text-anchor="middle" style="font-family: verdana; font-size: 10px; color: rgb(85, 85, 85); line-height: 12px; text-decoration: none; font-weight: normal; font-style: normal; fill: rgb(85, 85, 85);" y="171" x="455"><tspan x="455">903</tspan></text></g><g  class="highcharts-axis"></g><g  class="highcharts-axis"></g><g  class="highcharts-axis"></g><g visibility="hidden"  class="highcharts-tooltip"><rect fill-opacity="1" stroke-width="1" height="0" width="0" y="1.5" x="1.5" fill="rgb(255,255,255)" ry="1" rx="1"></rect><text  style="font-family: verdana; font-size: 10px; color: rgb(85, 85, 85); padding: 0pt; white-space: nowrap; line-height: 12px; fill: rgb(85, 85, 85);" y="11" x="1"><tspan x="1"> </tspan></text></g><text  text-anchor="end" style="font-family: 'lucida grande','lucida sans unicode',verdana,arial,helvetica,sans-serif; font-size: 10px; cursor: pointer; color: rgb(144, 144, 144); fill: rgb(144, 144, 144);" y="272" x="558"><tspan x="558">FusionCharts</tspan></text><g transform="translate(47, 15)"  class="highcharts-tracker"><rect style=""  visibility="" fill-opacity="0.000001"  stroke-width="0" height="182" width="50" y="21" x="26" fill="rgb(192,192,192)" ry="0" rx="0"></rect><rect style=""  visibility="" fill-opacity="0.000001"  stroke-width="0" height="58" width="50" y="145" x="127" fill="rgb(192,192,192)" ry="0" rx="0"></rect><rect style=""  visibility="" fill-opacity="0.000001"  stroke-width="0" height="32" width="50" y="171" x="228" fill="rgb(192,192,192)" ry="0" rx="0"></rect><rect style=""  visibility="" fill-opacity="0.000001"  stroke-width="0" height="67" width="50" y="136" x="329" fill="rgb(192,192,192)" ry="0" rx="0"></rect><rect style=""  visibility="" fill-opacity="0.000001"  stroke-width="0" height="64" width="50" y="139" x="430" fill="rgb(192,192,192)" ry="0" rx="0"></rect><path style=""  visibility="" stroke-width="21" stroke="rgb(192,192,192)" stroke-opacity="0.000001"  fill="none" d="M 40.6 159.5 L 50.6 159.5 L 151.8 185.281 L 253 196.388 L 354.2 194.735 L 455.40000000000003 197.954 L 465.40000000000003 197.954"></path><path style=""  visibility="" stroke-width="21" stroke="rgb(192,192,192)" stroke-opacity="0.000001"  fill="none" d="M 40.6 138.272 L 50.6 138.272 L 151.8 188.761 L 253 179.829 L 354.2 159.268 L 455.40000000000003 170.51999999999998 L 465.40000000000003 170.51999999999998"></path><path style=""  visibility="" stroke-width="21" stroke="rgb(192,192,192)" stroke-opacity="0.000001"  fill="none" d="M 40.6 130.094 L 50.6 130.094 L 151.8 177.712 L 253 201.637 L 354.2 188.5 L 455.40000000000003 176.813 L 465.40000000000003 176.813"></path></g><g transform="translate(132, 239)"  class="highcharts-legend"><rect visibility="" transform="translate(1, 1)"  fill-opacity="1" stroke="rgb(0,0,0)" stroke-opacity="0.06" stroke-width="5" height="22" width="335" y="0.5" x="0.5" fill="none" ry="0" rx="0"></rect><rect visibility="" transform="translate(1, 1)"  fill-opacity="1" stroke="rgb(0,0,0)" stroke-opacity="0.12" stroke-width="3" height="22" width="335" y="0.5" x="0.5" fill="none" ry="0" rx="0"></rect><rect visibility="" transform="translate(1, 1)"  fill-opacity="1" stroke="rgb(0,0,0)" stroke-opacity="0.18" stroke-width="1" height="22" width="335" y="0.5" x="0.5" fill="none" ry="0" rx="0"></rect><rect visibility="" fill-opacity="1" stroke="rgb(84,84,84)" stroke-opacity="1" stroke-width="1" height="22" width="335" y="0.5" x="0.5" fill="rgb(255,255,255)" ry="0" rx="0"></rect><text transform="translate(23, 16)"  style="font-family: verdana; font-size: 10px; cursor: pointer; color: rgb(85, 85, 85); line-height: 12px; fill: rgb(85, 85, 85);" y="0" x="0"><tspan x="0">cumulation </tspan></text><text transform="translate(105, 16)"  style="font-family: verdana; font-size: 10px; cursor: pointer; color: rgb(85, 85, 85); line-height: 12px; fill: rgb(85, 85, 85);" y="0" x="0"><tspan x="0">Sum 2010</tspan></text><text transform="translate(187, 16)"  style="font-family: verdana; font-size: 10px; cursor: pointer; color: rgb(85, 85, 85); line-height: 12px; fill: rgb(85, 85, 85);" y="0" x="0"><tspan x="0">Sum 2009</tspan></text><text transform="translate(269, 16)"  style="font-family: verdana; font-size: 10px; cursor: pointer; color: rgb(85, 85, 85); line-height: 12px; fill: rgb(85, 85, 85);" y="0" x="0"><tspan x="0">Sum 2008</tspan></text><path transform="translate(23, 14)" style="cursor: pointer;" stroke="#990099"  stroke-width="0.5" fill="url('#highcharts-33')" d="M -16 2 L -16 -4.3 -13.75 -4.3 -13.75 2 -12.629999999999999 2 -12.629999999999999 -7 -10.379999999999999 -7 -10.379999999999999 2 -9.259999999999998 2 -9.259999999999998 -1.5999999999999996 -7 -1.5999999999999996 -7 2 Z"></path><path transform="translate(105, 14)" style="cursor: pointer;" stroke="#990000"  stroke-width="0.5" fill="url('#highcharts-34')" d="M -16 0.20000000000000018 L -16 -1.6000000000000005 -13.3 -5.2 -10.600000000000001 -1.6000000000000005 -7 -5.2 -7 0.20000000000000018 Z"></path><path transform="translate(187, 14)" style="cursor: pointer;" stroke="#009900"  stroke-width="0.5" fill="url('#highcharts-35')" d="M -16 0.20000000000000018 L -16 -1.6000000000000005 -13.3 -5.2 -10.600000000000001 -1.6000000000000005 -7 -5.2 -7 0.20000000000000018 Z"></path><path transform="translate(269, 14)" style="cursor: pointer;" stroke="#000099"  stroke-width="0.5" fill="url('#highcharts-36')" d="M -16 0.20000000000000018 L -16 -1.6000000000000005 -13.3 -5.2 -10.600000000000001 -1.6000000000000005 -7 -5.2 -7 0.20000000000000018 Z"></path></g></svg>