<svg xmlns:xlink="http://www.w3.org/1999/xlink" height="277" width="568" version="1.1" xmlns="http://www.w3.org/2000/svg"><defs><linearGradient y2="0%" x2="50%" y1="100%" x1="50%" gradientUnits="objectBoundingBox" id="highcharts-45"><stop stop-opacity="1" stop-color="#FF0000" offset="0%"></stop><stop stop-opacity="1" stop-color="#FF0000" offset="30%"></stop><stop stop-opacity="1" stop-color="#ff9999" offset="60%"></stop><stop stop-opacity="1" stop-color="#FF0000" offset="90%"></stop><stop stop-opacity="1" stop-color="#FF0000" offset="100%"></stop></linearGradient><linearGradient y2="0%" x2="50%" y1="100%" x1="50%" gradientUnits="objectBoundingBox" id="highcharts-46"><stop stop-opacity="1" stop-color="#00FF00" offset="0%"></stop><stop stop-opacity="1" stop-color="#00FF00" offset="30%"></stop><stop stop-opacity="1" stop-color="#99ff99" offset="60%"></stop><stop stop-opacity="1" stop-color="#00FF00" offset="90%"></stop><stop stop-opacity="1" stop-color="#00FF00" offset="100%"></stop></linearGradient><linearGradient y2="0%" x2="50%" y1="100%" x1="50%" gradientUnits="objectBoundingBox" id="highcharts-47"><stop stop-opacity="1" stop-color="#0000FF" offset="0%"></stop><stop stop-opacity="1" stop-color="#0000FF" offset="30%"></stop><stop stop-opacity="1" stop-color="#9999ff" offset="60%"></stop><stop stop-opacity="1" stop-color="#0000FF" offset="90%"></stop><stop stop-opacity="1" stop-color="#0000FF" offset="100%"></stop></linearGradient><clipPath id="highcharts-48"><rect stroke-width="0" height="275" width="566" y="1" x="1" fill="none" ry="0" rx="0"></rect></clipPath><clipPath id="highcharts-49"><rect stroke-width="0" height="277" width="568" y="-15" x="-47" fill="none" ry="0" rx="0"></rect></clipPath><linearGradient y2="100%" x2="50%" y1="0%" x1="50%" gradientUnits="objectBoundingBox" id="highcharts-50"><stop stop-opacity="1" stop-color="#FF0000" offset="0%"></stop><stop stop-opacity="1" stop-color="#FFFFFF" offset="100%"></stop></linearGradient><linearGradient y2="100%" x2="50%" y1="0%" x1="50%" gradientUnits="objectBoundingBox" id="highcharts-51"><stop stop-opacity="1" stop-color="#FF0000" offset="0%"></stop><stop stop-opacity="1" stop-color="#FFFFFF" offset="100%"></stop></linearGradient><linearGradient y2="100%" x2="50%" y1="0%" x1="50%" gradientUnits="objectBoundingBox" id="highcharts-52"><stop stop-opacity="1" stop-color="#FF0000" offset="0%"></stop><stop stop-opacity="1" stop-color="#FFFFFF" offset="100%"></stop></linearGradient><linearGradient y2="100%" x2="50%" y1="0%" x1="50%" gradientUnits="objectBoundingBox" id="highcharts-53"><stop stop-opacity="1" stop-color="#FF0000" offset="0%"></stop><stop stop-opacity="1" stop-color="#FFFFFF" offset="100%"></stop></linearGradient><linearGradient y2="100%" x2="50%" y1="0%" x1="50%" gradientUnits="objectBoundingBox" id="highcharts-54"><stop stop-opacity="1" stop-color="#FF0000" offset="0%"></stop><stop stop-opacity="1" stop-color="#FFFFFF" offset="100%"></stop></linearGradient><linearGradient y2="100%" x2="50%" y1="0%" x1="50%" gradientUnits="objectBoundingBox" id="highcharts-55"><stop stop-opacity="1" stop-color="#00FF00" offset="0%"></stop><stop stop-opacity="1" stop-color="#FFFFFF" offset="100%"></stop></linearGradient><linearGradient y2="100%" x2="50%" y1="0%" x1="50%" gradientUnits="objectBoundingBox" id="highcharts-56"><stop stop-opacity="1" stop-color="#00FF00" offset="0%"></stop><stop stop-opacity="1" stop-color="#FFFFFF" offset="100%"></stop></linearGradient><linearGradient y2="100%" x2="50%" y1="0%" x1="50%" gradientUnits="objectBoundingBox" id="highcharts-57"><stop stop-opacity="1" stop-color="#00FF00" offset="0%"></stop><stop stop-opacity="1" stop-color="#FFFFFF" offset="100%"></stop></linearGradient><linearGradient y2="100%" x2="50%" y1="0%" x1="50%" gradientUnits="objectBoundingBox" id="highcharts-58"><stop stop-opacity="1" stop-color="#00FF00" offset="0%"></stop><stop stop-opacity="1" stop-color="#FFFFFF" offset="100%"></stop></linearGradient><linearGradient y2="100%" x2="50%" y1="0%" x1="50%" gradientUnits="objectBoundingBox" id="highcharts-59"><stop stop-opacity="1" stop-color="#00FF00" offset="0%"></stop><stop stop-opacity="1" stop-color="#FFFFFF" offset="100%"></stop></linearGradient><linearGradient y2="100%" x2="50%" y1="0%" x1="50%" gradientUnits="objectBoundingBox" id="highcharts-60"><stop stop-opacity="1" stop-color="#0000FF" offset="0%"></stop><stop stop-opacity="1" stop-color="#FFFFFF" offset="100%"></stop></linearGradient><linearGradient y2="100%" x2="50%" y1="0%" x1="50%" gradientUnits="objectBoundingBox" id="highcharts-61"><stop stop-opacity="1" stop-color="#0000FF" offset="0%"></stop><stop stop-opacity="1" stop-color="#FFFFFF" offset="100%"></stop></linearGradient><linearGradient y2="100%" x2="50%" y1="0%" x1="50%" gradientUnits="objectBoundingBox" id="highcharts-62"><stop stop-opacity="1" stop-color="#0000FF" offset="0%"></stop><stop stop-opacity="1" stop-color="#FFFFFF" offset="100%"></stop></linearGradient><linearGradient y2="100%" x2="50%" y1="0%" x1="50%" gradientUnits="objectBoundingBox" id="highcharts-63"><stop stop-opacity="1" stop-color="#0000FF" offset="0%"></stop><stop stop-opacity="1" stop-color="#FFFFFF" offset="100%"></stop></linearGradient><linearGradient y2="100%" x2="50%" y1="0%" x1="50%" gradientUnits="objectBoundingBox" id="highcharts-64"><stop stop-opacity="1" stop-color="#0000FF" offset="0%"></stop><stop stop-opacity="1" stop-color="#FFFFFF" offset="100%"></stop></linearGradient></defs><rect fill-opacity="0" stroke="rgb(255,255,255)" stroke-opacity="0.5" stroke-width="1" height="276" width="567" y="0.5" x="0.5" fill="#FFFFFF" ry="0" rx="0"></rect><rect fill-opacity="1" stroke-width="0" height="203" width="477" y="15" x="47" fill="#FFFFFF" ry="0" rx="0"></rect><path fill-opacity="0" fill="rgb(0,0,0)" d="M 95 15 L 95 218 190 218 190 15"></path><path fill-opacity="0" fill="rgb(0,0,0)" d="M 286 15 L 286 218 381 218 381 15"></path><path fill-opacity="0" fill="rgb(0,0,0)" d="M 476 15 L 476 218 524 218 524 15"></path><path stroke-width="0.1" stroke="rgb(0,0,0)" stroke-opacity="0" fill="none" d="M 95.05 15 L 95.05 218"></path><text visibility="" text-anchor="middle" style="font-family: verdana; font-size: 10px; line-height: 12px; color: rgb(85, 85, 85); fill: rgb(85, 85, 85);" y="232" x="95"><tspan x="95">Australia</tspan></text><path stroke-width="0.1" stroke="rgb(0,0,0)" stroke-opacity="0" fill="none" d="M 190.05 15 L 190.05 218"></path><text visibility="" text-anchor="middle" style="font-family: verdana; font-size: 10px; line-height: 12px; color: rgb(85, 85, 85); fill: rgb(85, 85, 85);" y="232" x="190"><tspan x="190">Austria</tspan></text><path stroke-width="0.1" stroke="rgb(0,0,0)" stroke-opacity="0" fill="none" d="M 286.05 15 L 286.05 218"></path><text visibility="" text-anchor="middle" style="font-family: verdana; font-size: 10px; line-height: 12px; color: rgb(85, 85, 85); fill: rgb(85, 85, 85);" y="232" x="286"><tspan x="286">Belgium</tspan></text><path stroke-width="0.1" stroke="rgb(0,0,0)" stroke-opacity="0" fill="none" d="M 381.05 15 L 381.05 218"></path><text visibility="" text-anchor="middle" style="font-family: verdana; font-size: 10px; line-height: 12px; color: rgb(85, 85, 85); fill: rgb(85, 85, 85);" y="232" x="381"><tspan x="381">Canada</tspan></text><path stroke-width="0.1" stroke="rgb(0,0,0)" stroke-opacity="0" fill="none" d="M 476.05 15 L 476.05 218"></path><text visibility="" text-anchor="middle" style="font-family: verdana; font-size: 10px; line-height: 12px; color: rgb(85, 85, 85); fill: rgb(85, 85, 85);" y="232" x="476"><tspan x="476">Denmark</tspan></text><path fill-opacity="0" fill="rgb(0,0,0)" d="M 47 218 L 524 218 524 177 47 177"></path><path fill-opacity="0" fill="rgb(0,0,0)" d="M 47 137 L 524 137 524 96 47 96"></path><path fill-opacity="0" fill="rgb(0,0,0)" d="M 47 56 L 524 56 524 15 47 15"></path><path fill-opacity="0" fill="rgb(0,0,0)" d="M 47 218 L 524 218 524 177 47 177"></path><path fill-opacity="0" fill="rgb(0,0,0)" d="M 47 137 L 524 137 524 96 47 96"></path><path fill-opacity="0" fill="rgb(0,0,0)" d="M 47 56 L 524 56 524 15 47 15"></path><g  class="highcharts-grid"></g><g  class="highcharts-grid"></g><g  class="highcharts-grid"></g><path  stroke-width="0.1" stroke="rgb(0,0,0)" stroke-opacity="0" fill="none" d="M 47 218.05 L 524 218.05"></path><text visibility=""  text-anchor="end" style="font-family: verdana; font-size: 10px; line-height: 12px; color: rgb(85, 85, 85); fill: rgb(85, 85, 85);" y="222" x="43"><tspan x="43">0</tspan></text><path  fill-opacity="0.5" fill="rgb(238,238,238)" d="M 47 177 L 524 177 524 137 47 137"></path><path  fill-opacity="0.5" fill="rgb(238,238,238)" d="M 47 96 L 524 96 524 56 47 56"></path><path  stroke-width="0.1" stroke="rgb(0,0,0)" stroke-opacity="0" fill="none" d="M 47 218.05 L 524 218.05"></path><text visibility=""  text-anchor="start" style="font-family: verdana; font-size: 10px; line-height: 12px; color: rgb(85, 85, 85); fill: rgb(85, 85, 85);" y="222" x="528"><tspan x="528">0</tspan></text><rect  stroke-linejoin="round" stroke="rgb(84,84,84)" stroke-opacity="1" stroke-width="2" height="205" width="479" y="14" x="46" fill="none" ry="0" rx="0"></rect><path  stroke-width="1" stroke="rgb(113,113,112)" stroke-opacity="0.4" fill="none" d="M 47 177.5 L 524 177.5"></path><text visibility=""  text-anchor="end" style="font-family: verdana; font-size: 10px; line-height: 12px; color: rgb(85, 85, 85); fill: rgb(85, 85, 85);" y="181" x="43"><tspan x="43">600</tspan></text><path  stroke-width="1" stroke="rgb(113,113,112)" stroke-opacity="0.4" fill="none" d="M 47 137.5 L 524 137.5"></path><text visibility=""  text-anchor="end" style="font-family: verdana; font-size: 10px; line-height: 12px; color: rgb(85, 85, 85); fill: rgb(85, 85, 85);" y="141" x="43"><tspan x="43">1200</tspan></text><path  stroke-width="1" stroke="rgb(113,113,112)" stroke-opacity="0.4" fill="none" d="M 47 96.5 L 524 96.5"></path><text visibility=""  text-anchor="end" style="font-family: verdana; font-size: 10px; line-height: 12px; color: rgb(85, 85, 85); fill: rgb(85, 85, 85);" y="100" x="43"><tspan x="43">1800</tspan></text><path  stroke-width="1" stroke="rgb(113,113,112)" stroke-opacity="0.4" fill="none" d="M 47 56.5 L 524 56.5"></path><text visibility=""  text-anchor="end" style="font-family: verdana; font-size: 10px; line-height: 12px; color: rgb(85, 85, 85); fill: rgb(85, 85, 85);" y="60" x="43"><tspan x="43">2400</tspan></text><path  stroke-width="0.1" stroke="rgb(0,0,0)" stroke-opacity="0" fill="none" d="M 47 15.05 L 524 15.05"></path><text visibility=""  text-anchor="end" style="font-family: verdana; font-size: 10px; line-height: 12px; color: rgb(85, 85, 85); fill: rgb(85, 85, 85);" y="19" x="43"><tspan x="43">3000</tspan></text><path  stroke-width="0.1" stroke="rgb(0,0,0)" stroke-opacity="0" fill="none" d="M 47 177.05 L 524 177.05"></path><text visibility=""  text-anchor="start" style="font-family: verdana; font-size: 10px; line-height: 12px; color: rgb(85, 85, 85); fill: rgb(85, 85, 85);" y="181" x="528"><tspan x="528">1.4K</tspan></text><path  stroke-width="0.1" stroke="rgb(0,0,0)" stroke-opacity="0" fill="none" d="M 47 137.05 L 524 137.05"></path><text visibility=""  text-anchor="start" style="font-family: verdana; font-size: 10px; line-height: 12px; color: rgb(85, 85, 85); fill: rgb(85, 85, 85);" y="141" x="528"><tspan x="528">2.8K</tspan></text><path  stroke-width="0.1" stroke="rgb(0,0,0)" stroke-opacity="0" fill="none" d="M 47 96.05 L 524 96.05"></path><text visibility=""  text-anchor="start" style="font-family: verdana; font-size: 10px; line-height: 12px; color: rgb(85, 85, 85); fill: rgb(85, 85, 85);" y="100" x="528"><tspan x="528">4.2K</tspan></text><path  stroke-width="0.1" stroke="rgb(0,0,0)" stroke-opacity="0" fill="none" d="M 47 56.05 L 524 56.05"></path><text visibility=""  text-anchor="start" style="font-family: verdana; font-size: 10px; line-height: 12px; color: rgb(85, 85, 85); fill: rgb(85, 85, 85);" y="60" x="528"><tspan x="528">5.6K</tspan></text><path  stroke-width="0.1" stroke="rgb(0,0,0)" stroke-opacity="0" fill="none" d="M 47 15.05 L 524 15.05"></path><text visibility=""  text-anchor="start" style="font-family: verdana; font-size: 10px; line-height: 12px; color: rgb(85, 85, 85); fill: rgb(85, 85, 85);" y="19" x="528"><tspan x="528">7K</tspan></text><g  class="highcharts-series-group"><g transform="translate(47, 15)" visibility="" clip-path="url('#highcharts-49')" class="highcharts-series"><rect r="0" stroke="#333333" stroke-opacity="1" stroke-width="1" height="101" width="24" y="101.5" x="10.5" fill="url('#highcharts-50')" ry="0" rx="0"></rect><rect r="0" stroke="#333333" stroke-opacity="1" stroke-width="1" height="41" width="24" y="161.5" x="105.5" fill="url('#highcharts-51')" ry="0" rx="0"></rect><rect r="0" stroke="#333333" stroke-opacity="1" stroke-width="1" height="15" width="24" y="187.5" x="200.5" fill="url('#highcharts-52')" ry="0" rx="0"></rect><rect r="0" stroke="#333333" stroke-opacity="1" stroke-width="1" height="19" width="24" y="183.5" x="296.5" fill="url('#highcharts-53')" ry="0" rx="0"></rect><rect r="0" stroke="#333333" stroke-opacity="1" stroke-width="1" height="11" width="24" y="191.5" x="391.5" fill="url('#highcharts-54')" ry="0" rx="0"></rect></g><g transform="translate(47, 15)" visibility="" clip-path="url('#highcharts-49')" class="highcharts-series"><rect r="0" stroke="#333333" stroke-opacity="1" stroke-width="1" height="151" width="24" y="51.5" x="35.5" fill="url('#highcharts-55')" ry="0" rx="0"></rect><rect r="0" stroke="#333333" stroke-opacity="1" stroke-width="1" height="33" width="24" y="169.5" x="130.5" fill="url('#highcharts-56')" ry="0" rx="0"></rect><rect r="0" stroke="#333333" stroke-opacity="1" stroke-width="1" height="54" width="24" y="148.5" x="226.5" fill="url('#highcharts-57')" ry="0" rx="0"></rect><rect r="0" stroke="#333333" stroke-opacity="1" stroke-width="1" height="102" width="24" y="100.5" x="321.5" fill="url('#highcharts-58')" ry="0" rx="0"></rect><rect r="0" stroke="#333333" stroke-opacity="1" stroke-width="1" height="75" width="24" y="127.5" x="417.5" fill="url('#highcharts-59')" ry="0" rx="0"></rect></g><g transform="translate(47, 15)" visibility="" clip-path="url('#highcharts-49')" class="highcharts-series"><rect r="0" stroke="#333333" stroke-opacity="1" stroke-width="1" height="170" width="24" y="32.5" x="60.5" fill="url('#highcharts-60')" ry="0" rx="0"></rect><rect r="0" stroke="#333333" stroke-opacity="1" stroke-width="1" height="59" width="24" y="143.5" x="156.5" fill="url('#highcharts-61')" ry="0" rx="0"></rect><rect r="0" stroke="#333333" stroke-opacity="1" stroke-width="1" height="3" width="24" y="199.5" x="251.5" fill="url('#highcharts-62')" ry="0" rx="0"></rect><rect r="0" stroke="#333333" stroke-opacity="1" stroke-width="1" height="33" width="24" y="169.5" x="347.5" fill="url('#highcharts-63')" ry="0" rx="0"></rect><rect r="0" stroke="#333333" stroke-opacity="1" stroke-width="1" height="61" width="24" y="141.5" x="442.5" fill="url('#highcharts-64')" ry="0" rx="0"></rect></g><g transform="translate(47, 15)" visibility="" clip-path="url('#highcharts-49')" class="highcharts-series"><path stroke-linecap="round" stroke-width="2" stroke="#ff00ff" stroke-opacity="1" fill="none" d="M 47.7 21.865999999999985 L 143.10000000000002 145.754"></path><path stroke-linecap="round" stroke-width="2" stroke="#ff00ff" stroke-opacity="1" fill="none" d="M 143.10000000000002 145.754 L 238.5 171.85399999999998"></path><path stroke-linecap="round" stroke-width="2" stroke="#ff00ff" stroke-opacity="1" fill="none" d="M 238.5 171.85399999999998 L 333.90000000000003 136.503"></path><path stroke-linecap="round" stroke-width="2" stroke="#ff00ff" stroke-opacity="1" fill="none" d="M 333.90000000000003 136.503 L 429.3 139.287"></path><circle fill="#FFFFFF" fill-opacity="1" stroke-width="1" stroke="#ff00ff" stroke-opacity="1" r="3" cy="139.287" cx="429.3"></circle><circle fill="#FFFFFF" fill-opacity="1" stroke-width="1" stroke="#ff00ff" stroke-opacity="1" r="3" cy="136.503" cx="333.90000000000003"></circle><circle fill="#FFFFFF" fill-opacity="1" stroke-width="1" stroke="#ff00ff" stroke-opacity="1" r="3" cy="171.85399999999998" cx="238.5"></circle><circle fill="#FFFFFF" fill-opacity="1" stroke-width="1" stroke="#ff00ff" stroke-opacity="1" r="3" cy="145.754" cx="143.10000000000002"></circle><circle fill="#FFFFFF" fill-opacity="1" stroke-width="1" stroke="#ff00ff" stroke-opacity="1" r="3" cy="21.865999999999985" cx="47.7"></circle></g></g><g transform="translate(47, 15)"  visibility="" class="highcharts-data-labels"><text  text-anchor="middle" style="font-family: verdana; font-size: 10px; color: rgb(85, 85, 85); line-height: 12px; text-decoration: none; font-weight: normal; font-style: normal; fill: rgb(85, 85, 85);" y="96" x="22"><tspan x="22">1500</tspan></text><text  text-anchor="middle" style="font-family: verdana; font-size: 10px; color: rgb(85, 85, 85); line-height: 12px; text-decoration: none; font-weight: normal; font-style: normal; fill: rgb(85, 85, 85);" y="156" x="118"><tspan x="118">611</tspan></text><text  text-anchor="middle" style="font-family: verdana; font-size: 10px; color: rgb(85, 85, 85); line-height: 12px; text-decoration: none; font-weight: normal; font-style: normal; fill: rgb(85, 85, 85);" y="182" x="213"><tspan x="213">228</tspan></text><text  text-anchor="middle" style="font-family: verdana; font-size: 10px; color: rgb(85, 85, 85); line-height: 12px; text-decoration: none; font-weight: normal; font-style: normal; fill: rgb(85, 85, 85);" y="178" x="308"><tspan x="308">285</tspan></text><text  text-anchor="middle" style="font-family: verdana; font-size: 10px; color: rgb(85, 85, 85); line-height: 12px; text-decoration: none; font-weight: normal; font-style: normal; fill: rgb(85, 85, 85);" y="185" x="404"><tspan x="404">174</tspan></text></g><g transform="translate(47, 15)"  visibility="" class="highcharts-data-labels"><text  text-anchor="middle" style="font-family: verdana; font-size: 10px; color: rgb(85, 85, 85); line-height: 12px; text-decoration: none; font-weight: normal; font-style: normal; fill: rgb(85, 85, 85);" y="46" x="48"><tspan x="48">2232</tspan></text><text  text-anchor="middle" style="font-family: verdana; font-size: 10px; color: rgb(85, 85, 85); line-height: 12px; text-decoration: none; font-weight: normal; font-style: normal; fill: rgb(85, 85, 85);" y="164" x="143"><tspan x="143">491</tspan></text><text  text-anchor="middle" style="font-family: verdana; font-size: 10px; color: rgb(85, 85, 85); line-height: 12px; text-decoration: none; font-weight: normal; font-style: normal; fill: rgb(85, 85, 85);" y="143" x="239"><tspan x="239">799</tspan></text><text  text-anchor="middle" style="font-family: verdana; font-size: 10px; color: rgb(85, 85, 85); line-height: 12px; text-decoration: none; font-weight: normal; font-style: normal; fill: rgb(85, 85, 85);" y="95" x="334"><tspan x="334">1508</tspan></text><text  text-anchor="middle" style="font-family: verdana; font-size: 10px; color: rgb(85, 85, 85); line-height: 12px; text-decoration: none; font-weight: normal; font-style: normal; fill: rgb(85, 85, 85);" y="121" x="429"><tspan x="429">1120</tspan></text></g><g transform="translate(47, 15)"  visibility="" class="highcharts-data-labels"><text  text-anchor="middle" style="font-family: verdana; font-size: 10px; color: rgb(85, 85, 85); line-height: 12px; text-decoration: none; font-weight: normal; font-style: normal; fill: rgb(85, 85, 85);" y="27" x="73"><tspan x="73">2514</tspan></text><text  text-anchor="middle" style="font-family: verdana; font-size: 10px; color: rgb(85, 85, 85); line-height: 12px; text-decoration: none; font-weight: normal; font-style: normal; fill: rgb(85, 85, 85);" y="138" x="169"><tspan x="169">872</tspan></text><text  text-anchor="middle" style="font-family: verdana; font-size: 10px; color: rgb(85, 85, 85); line-height: 12px; text-decoration: none; font-weight: normal; font-style: normal; fill: rgb(85, 85, 85);" y="194" x="264"><tspan x="264">47</tspan></text><text  text-anchor="middle" style="font-family: verdana; font-size: 10px; color: rgb(85, 85, 85); line-height: 12px; text-decoration: none; font-weight: normal; font-style: normal; fill: rgb(85, 85, 85);" y="163" x="359"><tspan x="359">500</tspan></text><text  text-anchor="middle" style="font-family: verdana; font-size: 10px; color: rgb(85, 85, 85); line-height: 12px; text-decoration: none; font-weight: normal; font-style: normal; fill: rgb(85, 85, 85);" y="136" x="455"><tspan x="455">903</tspan></text></g><g transform="translate(47, 15)"  visibility="" class="highcharts-data-labels"><text  text-anchor="middle" style="font-family: verdana; font-size: 10px; color: rgb(85, 85, 85); line-height: 12px; text-decoration: none; font-weight: normal; font-style: normal; fill: rgb(85, 85, 85);" y="16" x="48"><tspan x="48">6.25K</tspan></text><text  text-anchor="middle" style="font-family: verdana; font-size: 10px; color: rgb(85, 85, 85); line-height: 12px; text-decoration: none; font-weight: normal; font-style: normal; fill: rgb(85, 85, 85);" y="162" x="143"><tspan x="143">1.97K</tspan></text><text  text-anchor="middle" style="font-family: verdana; font-size: 10px; color: rgb(85, 85, 85); line-height: 12px; text-decoration: none; font-weight: normal; font-style: normal; fill: rgb(85, 85, 85);" y="188" x="239"><tspan x="239">1.07K</tspan></text><text  text-anchor="middle" style="font-family: verdana; font-size: 10px; color: rgb(85, 85, 85); line-height: 12px; text-decoration: none; font-weight: normal; font-style: normal; fill: rgb(85, 85, 85);" y="131" x="334"><tspan x="334">2.29K</tspan></text><text  text-anchor="middle" style="font-family: verdana; font-size: 10px; color: rgb(85, 85, 85); line-height: 12px; text-decoration: none; font-weight: normal; font-style: normal; fill: rgb(85, 85, 85);" y="155" x="429"><tspan x="429">2.2K</tspan></text></g><g  class="highcharts-axis"></g><g  class="highcharts-axis"></g><g  class="highcharts-axis"></g><g visibility="hidden"  class="highcharts-tooltip"><rect fill-opacity="1" stroke-width="1" height="0" width="0" y="1.5" x="1.5" fill="rgb(255,255,255)" ry="1" rx="1"></rect><text  style="font-family: verdana; font-size: 10px; color: rgb(85, 85, 85); padding: 0pt; white-space: nowrap; line-height: 12px; fill: rgb(85, 85, 85);" y="11" x="1"><tspan x="1"> </tspan></text></g><text  text-anchor="end" style="font-family: 'lucida grande','lucida sans unicode',verdana,arial,helvetica,sans-serif; font-size: 10px; cursor: pointer; color: rgb(144, 144, 144); fill: rgb(144, 144, 144);" y="272" x="558"><tspan x="558">FusionCharts</tspan></text><g transform="translate(47, 15)"  class="highcharts-tracker"><rect style=""  visibility="" fill-opacity="0.000001"  stroke-width="0" height="102" width="25" y="101" x="10" fill="rgb(192,192,192)" ry="0" rx="0"></rect><rect style=""  visibility="" fill-opacity="0.000001"  stroke-width="0" height="42" width="25" y="161" x="105" fill="rgb(192,192,192)" ry="0" rx="0"></rect><rect style=""  visibility="" fill-opacity="0.000001"  stroke-width="0" height="16" width="25" y="187" x="200" fill="rgb(192,192,192)" ry="0" rx="0"></rect><rect style=""  visibility="" fill-opacity="0.000001"  stroke-width="0" height="20" width="25" y="183" x="296" fill="rgb(192,192,192)" ry="0" rx="0"></rect><rect style=""  visibility="" fill-opacity="0.000001"  stroke-width="0" height="12" width="25" y="191" x="391" fill="rgb(192,192,192)" ry="0" rx="0"></rect><rect style=""  visibility="" fill-opacity="0.000001"  stroke-width="0" height="152" width="25" y="51" x="35" fill="rgb(192,192,192)" ry="0" rx="0"></rect><rect style=""  visibility="" fill-opacity="0.000001"  stroke-width="0" height="34" width="25" y="169" x="130" fill="rgb(192,192,192)" ry="0" rx="0"></rect><rect style=""  visibility="" fill-opacity="0.000001"  stroke-width="0" height="55" width="25" y="148" x="226" fill="rgb(192,192,192)" ry="0" rx="0"></rect><rect style=""  visibility="" fill-opacity="0.000001"  stroke-width="0" height="103" width="25" y="100" x="321" fill="rgb(192,192,192)" ry="0" rx="0"></rect><rect style=""  visibility="" fill-opacity="0.000001"  stroke-width="0" height="76" width="25" y="127" x="417" fill="rgb(192,192,192)" ry="0" rx="0"></rect><rect style=""  visibility="" fill-opacity="0.000001"  stroke-width="0" height="171" width="25" y="32" x="60" fill="rgb(192,192,192)" ry="0" rx="0"></rect><rect style=""  visibility="" fill-opacity="0.000001"  stroke-width="0" height="60" width="25" y="143" x="156" fill="rgb(192,192,192)" ry="0" rx="0"></rect><rect style=""  visibility="" fill-opacity="0.000001"  stroke-width="0" height="4" width="25" y="199" x="251" fill="rgb(192,192,192)" ry="0" rx="0"></rect><rect style=""  visibility="" fill-opacity="0.000001"  stroke-width="0" height="34" width="25" y="169" x="347" fill="rgb(192,192,192)" ry="0" rx="0"></rect><rect style=""  visibility="" fill-opacity="0.000001"  stroke-width="0" height="62" width="25" y="141" x="442" fill="rgb(192,192,192)" ry="0" rx="0"></rect><path style=""  visibility="" stroke-width="22" stroke="rgb(192,192,192)" stroke-opacity="0.000001"  fill="none" d="M 37.7 21.865999999999985 L 47.7 21.865999999999985 L 143.10000000000002 145.754 L 238.5 171.85399999999998 L 333.90000000000003 136.503 L 429.3 139.287 L 439.3 139.287"></path></g><g transform="translate(118, 239)"  class="highcharts-legend"><rect visibility="" transform="translate(1, 1)"  fill-opacity="1" stroke="rgb(0,0,0)" stroke-opacity="0.06" stroke-width="5" height="22" width="335" y="0.5" x="0.5" fill="none" ry="0" rx="0"></rect><rect visibility="" transform="translate(1, 1)"  fill-opacity="1" stroke="rgb(0,0,0)" stroke-opacity="0.12" stroke-width="3" height="22" width="335" y="0.5" x="0.5" fill="none" ry="0" rx="0"></rect><rect visibility="" transform="translate(1, 1)"  fill-opacity="1" stroke="rgb(0,0,0)" stroke-opacity="0.18" stroke-width="1" height="22" width="335" y="0.5" x="0.5" fill="none" ry="0" rx="0"></rect><rect visibility="" fill-opacity="1" stroke="rgb(84,84,84)" stroke-opacity="1" stroke-width="1" height="22" width="335" y="0.5" x="0.5" fill="rgb(255,255,255)" ry="0" rx="0"></rect><text transform="translate(23, 16)"  style="font-family: verdana; font-size: 10px; cursor: pointer; color: rgb(85, 85, 85); line-height: 12px; fill: rgb(85, 85, 85);" y="0" x="0"><tspan x="0">Sum 2010</tspan></text><text transform="translate(105, 16)"  style="font-family: verdana; font-size: 10px; cursor: pointer; color: rgb(85, 85, 85); line-height: 12px; fill: rgb(85, 85, 85);" y="0" x="0"><tspan x="0">Sum 2009</tspan></text><text transform="translate(187, 16)"  style="font-family: verdana; font-size: 10px; cursor: pointer; color: rgb(85, 85, 85); line-height: 12px; fill: rgb(85, 85, 85);" y="0" x="0"><tspan x="0">Sum 2008</tspan></text><text transform="translate(269, 16)"  style="font-family: verdana; font-size: 10px; cursor: pointer; color: rgb(85, 85, 85); line-height: 12px; fill: rgb(85, 85, 85);" y="0" x="0"><tspan x="0">cumulation </tspan></text><path transform="translate(269, 14)" stroke="#ff00ff" stroke-opacity="1"  stroke-width="2" fill="none" d="M -16 -2.5 L -7 -2.5"></path><path transform="translate(23, 14)" style="cursor: pointer;" stroke="#990000"  stroke-width="0.5" fill="url('#highcharts-45')" d="M -16 2 L -16 -4.3 -13.75 -4.3 -13.75 2 -12.629999999999999 2 -12.629999999999999 -7 -10.379999999999999 -7 -10.379999999999999 2 -9.259999999999998 2 -9.259999999999998 -1.5999999999999996 -7 -1.5999999999999996 -7 2 Z"></path><path transform="translate(105, 14)" style="cursor: pointer;" stroke="#009900"  stroke-width="0.5" fill="url('#highcharts-46')" d="M -16 2 L -16 -4.3 -13.75 -4.3 -13.75 2 -12.629999999999999 2 -12.629999999999999 -7 -10.379999999999999 -7 -10.379999999999999 2 -9.259999999999998 2 -9.259999999999998 -1.5999999999999996 -7 -1.5999999999999996 -7 2 Z"></path><path transform="translate(187, 14)" style="cursor: pointer;" stroke="#000099"  stroke-width="0.5" fill="url('#highcharts-47')" d="M -16 2 L -16 -4.3 -13.75 -4.3 -13.75 2 -12.629999999999999 2 -12.629999999999999 -7 -10.379999999999999 -7 -10.379999999999999 2 -9.259999999999998 2 -9.259999999999998 -1.5999999999999996 -7 -1.5999999999999996 -7 2 Z"></path><circle style="cursor: pointer;" fill="#FFFFFF" fill-opacity="1" stroke-width="1" stroke="#ff00ff" stroke-opacity="1"  r="3" cy="11.5" cx="257.5"></circle></g></svg>