<svg xmlns:xlink="http://www.w3.org/1999/xlink" height="277" width="568" version="1.1" xmlns="http://www.w3.org/2000/svg"><defs><linearGradient y2="0%" x2="50%" y1="100%" x1="50%" gradientUnits="objectBoundingBox" id="highcharts-114"><stop stop-opacity="1" stop-color="#FF0000" offset="0%"></stop><stop stop-opacity="1" stop-color="#FF0000" offset="30%"></stop><stop stop-opacity="1" stop-color="#ff9999" offset="60%"></stop><stop stop-opacity="1" stop-color="#FF0000" offset="90%"></stop><stop stop-opacity="1" stop-color="#FF0000" offset="100%"></stop></linearGradient><linearGradient y2="0%" x2="50%" y1="100%" x1="50%" gradientUnits="objectBoundingBox" id="highcharts-115"><stop stop-opacity="1" stop-color="#00FF00" offset="0%"></stop><stop stop-opacity="1" stop-color="#00FF00" offset="30%"></stop><stop stop-opacity="1" stop-color="#99ff99" offset="60%"></stop><stop stop-opacity="1" stop-color="#00FF00" offset="90%"></stop><stop stop-opacity="1" stop-color="#00FF00" offset="100%"></stop></linearGradient><linearGradient y2="0%" x2="50%" y1="100%" x1="50%" gradientUnits="objectBoundingBox" id="highcharts-116"><stop stop-opacity="1" stop-color="#0000FF" offset="0%"></stop><stop stop-opacity="1" stop-color="#0000FF" offset="30%"></stop><stop stop-opacity="1" stop-color="#9999ff" offset="60%"></stop><stop stop-opacity="1" stop-color="#0000FF" offset="90%"></stop><stop stop-opacity="1" stop-color="#0000FF" offset="100%"></stop></linearGradient><clipPath id="highcharts-117"><rect stroke-width="0" height="275" width="566" y="1" x="1" fill="none" ry="0" rx="0"></rect></clipPath><linearGradient y2="73%" x2="100%" y1="27%" x1="0%" gradientUnits="objectBoundingBox" id="highcharts-118"><stop stop-opacity="1" stop-color="#bbc0b5" offset="0%"></stop><stop stop-opacity="1" stop-color="#ecf0e8" offset="100%"></stop></linearGradient><linearGradient y2="49%" x2="100%" y1="51%" x1="0%" gradientUnits="objectBoundingBox" id="highcharts-119"><stop stop-opacity="1" stop-color="#929e82" offset="0%"></stop><stop stop-opacity="1" stop-color="#e2e7db" offset="100%"></stop></linearGradient><linearGradient y2="0%" x2="25%" y1="100%" x1="75%" gradientUnits="objectBoundingBox" id="highcharts-120"><stop stop-opacity="1" stop-color="#3c4135" offset="0%"></stop><stop stop-opacity="1" stop-color="#818c72" offset="100%"></stop></linearGradient><linearGradient y2="0%" x2="50%" y1="100%" x1="50%" gradientUnits="objectBoundingBox" id="highcharts-121"><stop stop-opacity="1" stop-color="#6f7963" offset="0%"></stop><stop stop-opacity="1" stop-color="#d1dac7" offset="100%"></stop></linearGradient><linearGradient y2="36%" x2="100%" y1="64%" x1="0%" gradientUnits="objectBoundingBox" id="highcharts-122"><stop stop-opacity="1" stop-color="#d80000" offset="0%"></stop><stop stop-opacity="1" stop-color="#ffa6a6" offset="100%"></stop></linearGradient><linearGradient y2="0%" x2="45%" y1="100%" x1="55%" gradientUnits="objectBoundingBox" id="highcharts-123"><stop stop-opacity="1" stop-color="#590000" offset="0%"></stop><stop stop-opacity="1" stop-color="#bf0000" offset="100%"></stop></linearGradient><linearGradient y2="0%" x2="50%" y1="100%" x1="50%" gradientUnits="objectBoundingBox" id="highcharts-124"><stop stop-opacity="1" stop-color="#a50000" offset="0%"></stop><stop stop-opacity="1" stop-color="#ff7373" offset="100%"></stop></linearGradient><linearGradient y2="36%" x2="100%" y1="64%" x1="0%" gradientUnits="objectBoundingBox" id="highcharts-125"><stop stop-opacity="1" stop-color="#00d800" offset="0%"></stop><stop stop-opacity="1" stop-color="#a6ffa6" offset="100%"></stop></linearGradient><linearGradient y2="0%" x2="47%" y1="100%" x1="53%" gradientUnits="objectBoundingBox" id="highcharts-126"><stop stop-opacity="1" stop-color="#005900" offset="0%"></stop><stop stop-opacity="1" stop-color="#00bf00" offset="100%"></stop></linearGradient><linearGradient y2="0%" x2="50%" y1="100%" x1="50%" gradientUnits="objectBoundingBox" id="highcharts-127"><stop stop-opacity="1" stop-color="#00a500" offset="0%"></stop><stop stop-opacity="1" stop-color="#73ff73" offset="100%"></stop></linearGradient><linearGradient y2="36%" x2="100%" y1="64%" x1="0%" gradientUnits="objectBoundingBox" id="highcharts-128"><stop stop-opacity="1" stop-color="#0000d8" offset="0%"></stop><stop stop-opacity="1" stop-color="#a6a6ff" offset="100%"></stop></linearGradient><linearGradient y2="0%" x2="47%" y1="100%" x1="53%" gradientUnits="objectBoundingBox" id="highcharts-129"><stop stop-opacity="1" stop-color="#000059" offset="0%"></stop><stop stop-opacity="1" stop-color="#0000bf" offset="100%"></stop></linearGradient><linearGradient y2="0%" x2="50%" y1="100%" x1="50%" gradientUnits="objectBoundingBox" id="highcharts-130"><stop stop-opacity="1" stop-color="#0000a5" offset="0%"></stop><stop stop-opacity="1" stop-color="#7373ff" offset="100%"></stop></linearGradient><linearGradient y2="36%" x2="100%" y1="64%" x1="0%" gradientUnits="objectBoundingBox" id="highcharts-131"><stop stop-opacity="1" stop-color="#d80000" offset="0%"></stop><stop stop-opacity="1" stop-color="#ffa6a6" offset="100%"></stop></linearGradient><linearGradient y2="0%" x2="40%" y1="100%" x1="60%" gradientUnits="objectBoundingBox" id="highcharts-132"><stop stop-opacity="1" stop-color="#590000" offset="0%"></stop><stop stop-opacity="1" stop-color="#bf0000" offset="100%"></stop></linearGradient><linearGradient y2="0%" x2="50%" y1="100%" x1="50%" gradientUnits="objectBoundingBox" id="highcharts-133"><stop stop-opacity="1" stop-color="#a50000" offset="0%"></stop><stop stop-opacity="1" stop-color="#ff7373" offset="100%"></stop></linearGradient><linearGradient y2="36%" x2="100%" y1="64%" x1="0%" gradientUnits="objectBoundingBox" id="highcharts-134"><stop stop-opacity="1" stop-color="#00d800" offset="0%"></stop><stop stop-opacity="1" stop-color="#a6ffa6" offset="100%"></stop></linearGradient><linearGradient y2="0%" x2="37%" y1="100%" x1="63%" gradientUnits="objectBoundingBox" id="highcharts-135"><stop stop-opacity="1" stop-color="#005900" offset="0%"></stop><stop stop-opacity="1" stop-color="#00bf00" offset="100%"></stop></linearGradient><linearGradient y2="0%" x2="50%" y1="100%" x1="50%" gradientUnits="objectBoundingBox" id="highcharts-136"><stop stop-opacity="1" stop-color="#00a500" offset="0%"></stop><stop stop-opacity="1" stop-color="#73ff73" offset="100%"></stop></linearGradient><linearGradient y2="36%" x2="100%" y1="64%" x1="0%" gradientUnits="objectBoundingBox" id="highcharts-137"><stop stop-opacity="1" stop-color="#0000d8" offset="0%"></stop><stop stop-opacity="1" stop-color="#a6a6ff" offset="100%"></stop></linearGradient><linearGradient y2="0%" x2="42%" y1="100%" x1="58%" gradientUnits="objectBoundingBox" id="highcharts-138"><stop stop-opacity="1" stop-color="#000059" offset="0%"></stop><stop stop-opacity="1" stop-color="#0000bf" offset="100%"></stop></linearGradient><linearGradient y2="0%" x2="50%" y1="100%" x1="50%" gradientUnits="objectBoundingBox" id="highcharts-139"><stop stop-opacity="1" stop-color="#0000a5" offset="0%"></stop><stop stop-opacity="1" stop-color="#7373ff" offset="100%"></stop></linearGradient><linearGradient y2="36%" x2="100%" y1="64%" x1="0%" gradientUnits="objectBoundingBox" id="highcharts-140"><stop stop-opacity="1" stop-color="#d80000" offset="0%"></stop><stop stop-opacity="1" stop-color="#ffa6a6" offset="100%"></stop></linearGradient><linearGradient y2="0%" x2="29%" y1="100%" x1="71%" gradientUnits="objectBoundingBox" id="highcharts-141"><stop stop-opacity="1" stop-color="#590000" offset="0%"></stop><stop stop-opacity="1" stop-color="#bf0000" offset="100%"></stop></linearGradient><linearGradient y2="0%" x2="50%" y1="100%" x1="50%" gradientUnits="objectBoundingBox" id="highcharts-142"><stop stop-opacity="1" stop-color="#a50000" offset="0%"></stop><stop stop-opacity="1" stop-color="#ff7373" offset="100%"></stop></linearGradient><linearGradient y2="36%" x2="100%" y1="64%" x1="0%" gradientUnits="objectBoundingBox" id="highcharts-143"><stop stop-opacity="1" stop-color="#00d800" offset="0%"></stop><stop stop-opacity="1" stop-color="#a6ffa6" offset="100%"></stop></linearGradient><linearGradient y2="0%" x2="42%" y1="100%" x1="58%" gradientUnits="objectBoundingBox" id="highcharts-144"><stop stop-opacity="1" stop-color="#005900" offset="0%"></stop><stop stop-opacity="1" stop-color="#00bf00" offset="100%"></stop></linearGradient><linearGradient y2="0%" x2="50%" y1="100%" x1="50%" gradientUnits="objectBoundingBox" id="highcharts-145"><stop stop-opacity="1" stop-color="#00a500" offset="0%"></stop><stop stop-opacity="1" stop-color="#73ff73" offset="100%"></stop></linearGradient><linearGradient y2="36%" x2="100%" y1="64%" x1="0%" gradientUnits="objectBoundingBox" id="highcharts-146"><stop stop-opacity="1" stop-color="#0000d8" offset="0%"></stop><stop stop-opacity="1" stop-color="#a6a6ff" offset="100%"></stop></linearGradient><linearGradient y2="0%" x2="12%" y1="100%" x1="88%" gradientUnits="objectBoundingBox" id="highcharts-147"><stop stop-opacity="1" stop-color="#000059" offset="0%"></stop><stop stop-opacity="1" stop-color="#0000bf" offset="100%"></stop></linearGradient><linearGradient y2="0%" x2="50%" y1="100%" x1="50%" gradientUnits="objectBoundingBox" id="highcharts-148"><stop stop-opacity="1" stop-color="#0000a5" offset="0%"></stop><stop stop-opacity="1" stop-color="#7373ff" offset="100%"></stop></linearGradient><linearGradient y2="36%" x2="100%" y1="64%" x1="0%" gradientUnits="objectBoundingBox" id="highcharts-149"><stop stop-opacity="1" stop-color="#d80000" offset="0%"></stop><stop stop-opacity="1" stop-color="#ffa6a6" offset="100%"></stop></linearGradient><linearGradient y2="0%" x2="32%" y1="100%" x1="68%" gradientUnits="objectBoundingBox" id="highcharts-150"><stop stop-opacity="1" stop-color="#590000" offset="0%"></stop><stop stop-opacity="1" stop-color="#bf0000" offset="100%"></stop></linearGradient><linearGradient y2="0%" x2="50%" y1="100%" x1="50%" gradientUnits="objectBoundingBox" id="highcharts-151"><stop stop-opacity="1" stop-color="#a50000" offset="0%"></stop><stop stop-opacity="1" stop-color="#ff7373" offset="100%"></stop></linearGradient><linearGradient y2="36%" x2="100%" y1="64%" x1="0%" gradientUnits="objectBoundingBox" id="highcharts-152"><stop stop-opacity="1" stop-color="#00d800" offset="0%"></stop><stop stop-opacity="1" stop-color="#a6ffa6" offset="100%"></stop></linearGradient><linearGradient y2="0%" x2="45%" y1="100%" x1="55%" gradientUnits="objectBoundingBox" id="highcharts-153"><stop stop-opacity="1" stop-color="#005900" offset="0%"></stop><stop stop-opacity="1" stop-color="#00bf00" offset="100%"></stop></linearGradient><linearGradient y2="0%" x2="50%" y1="100%" x1="50%" gradientUnits="objectBoundingBox" id="highcharts-154"><stop stop-opacity="1" stop-color="#00a500" offset="0%"></stop><stop stop-opacity="1" stop-color="#73ff73" offset="100%"></stop></linearGradient><linearGradient y2="36%" x2="100%" y1="64%" x1="0%" gradientUnits="objectBoundingBox" id="highcharts-155"><stop stop-opacity="1" stop-color="#0000d8" offset="0%"></stop><stop stop-opacity="1" stop-color="#a6a6ff" offset="100%"></stop></linearGradient><linearGradient y2="0%" x2="38%" y1="100%" x1="62%" gradientUnits="objectBoundingBox" id="highcharts-156"><stop stop-opacity="1" stop-color="#000059" offset="0%"></stop><stop stop-opacity="1" stop-color="#0000bf" offset="100%"></stop></linearGradient><linearGradient y2="0%" x2="50%" y1="100%" x1="50%" gradientUnits="objectBoundingBox" id="highcharts-157"><stop stop-opacity="1" stop-color="#0000a5" offset="0%"></stop><stop stop-opacity="1" stop-color="#7373ff" offset="100%"></stop></linearGradient><linearGradient y2="36%" x2="100%" y1="64%" x1="0%" gradientUnits="objectBoundingBox" id="highcharts-158"><stop stop-opacity="1" stop-color="#d80000" offset="0%"></stop><stop stop-opacity="1" stop-color="#ffa6a6" offset="100%"></stop></linearGradient><linearGradient y2="0%" x2="26%" y1="100%" x1="74%" gradientUnits="objectBoundingBox" id="highcharts-159"><stop stop-opacity="1" stop-color="#590000" offset="0%"></stop><stop stop-opacity="1" stop-color="#bf0000" offset="100%"></stop></linearGradient><linearGradient y2="0%" x2="50%" y1="100%" x1="50%" gradientUnits="objectBoundingBox" id="highcharts-160"><stop stop-opacity="1" stop-color="#a50000" offset="0%"></stop><stop stop-opacity="1" stop-color="#ff7373" offset="100%"></stop></linearGradient><linearGradient y2="36%" x2="100%" y1="64%" x1="0%" gradientUnits="objectBoundingBox" id="highcharts-161"><stop stop-opacity="1" stop-color="#00d800" offset="0%"></stop><stop stop-opacity="1" stop-color="#a6ffa6" offset="100%"></stop></linearGradient><linearGradient y2="0%" x2="44%" y1="100%" x1="56%" gradientUnits="objectBoundingBox" id="highcharts-162"><stop stop-opacity="1" stop-color="#005900" offset="0%"></stop><stop stop-opacity="1" stop-color="#00bf00" offset="100%"></stop></linearGradient><linearGradient y2="0%" x2="50%" y1="100%" x1="50%" gradientUnits="objectBoundingBox" id="highcharts-163"><stop stop-opacity="1" stop-color="#00a500" offset="0%"></stop><stop stop-opacity="1" stop-color="#73ff73" offset="100%"></stop></linearGradient><linearGradient y2="36%" x2="100%" y1="64%" x1="0%" gradientUnits="objectBoundingBox" id="highcharts-164"><stop stop-opacity="1" stop-color="#0000d8" offset="0%"></stop><stop stop-opacity="1" stop-color="#a6a6ff" offset="100%"></stop></linearGradient><linearGradient y2="0%" x2="42%" y1="100%" x1="58%" gradientUnits="objectBoundingBox" id="highcharts-165"><stop stop-opacity="1" stop-color="#000059" offset="0%"></stop><stop stop-opacity="1" stop-color="#0000bf" offset="100%"></stop></linearGradient><linearGradient y2="0%" x2="50%" y1="100%" x1="50%" gradientUnits="objectBoundingBox" id="highcharts-166"><stop stop-opacity="1" stop-color="#0000a5" offset="0%"></stop><stop stop-opacity="1" stop-color="#7373ff" offset="100%"></stop></linearGradient></defs><rect fill-opacity="0" stroke="rgb(255,255,255)" stroke-opacity="1" stroke-width="1" height="276" width="567" y="0.5" x="0.5" fill="#FFFFFF" ry="0" rx="0"></rect><rect stroke-width="0" height="183" width="503" y="15" x="47" fill="url('#highcharts-118')" ry="0" rx="0"></rect><path fill-opacity="0" fill="rgb(0,0,0)" d="M 106 15 L 106 198 205 198 205 15"></path><path fill-opacity="0" fill="rgb(0,0,0)" d="M 304 15 L 304 198 402 198 402 15"></path><path fill-opacity="0" fill="rgb(0,0,0)" d="M 501 15 L 501 198 550 198 550 15"></path><path stroke-width="0.1" stroke="rgb(0,0,0)" stroke-opacity="0" fill="none" d="M 106.05 15 L 106.05 198"></path><text visibility="" text-anchor="middle" style="font-family: verdana; font-size: 10px; line-height: 12px; color: rgb(73, 86, 58); fill: rgb(73, 86, 58);" y="232" x="96"><tspan x="96">Australia</tspan></text><path stroke-width="0.1" stroke="rgb(0,0,0)" stroke-opacity="0" fill="none" d="M 205.05 15 L 205.05 198"></path><text visibility="" text-anchor="middle" style="font-family: verdana; font-size: 10px; line-height: 12px; color: rgb(73, 86, 58); fill: rgb(73, 86, 58);" y="232" x="195"><tspan x="195">Austria</tspan></text><path stroke-width="0.1" stroke="rgb(0,0,0)" stroke-opacity="0" fill="none" d="M 304.05 15 L 304.05 198"></path><text visibility="" text-anchor="middle" style="font-family: verdana; font-size: 10px; line-height: 12px; color: rgb(73, 86, 58); fill: rgb(73, 86, 58);" y="232" x="294"><tspan x="294">Belgium</tspan></text><path stroke-width="0.1" stroke="rgb(0,0,0)" stroke-opacity="0" fill="none" d="M 402.05 15 L 402.05 198"></path><text visibility="" text-anchor="middle" style="font-family: verdana; font-size: 10px; line-height: 12px; color: rgb(73, 86, 58); fill: rgb(73, 86, 58);" y="232" x="392"><tspan x="392">Canada</tspan></text><path stroke-width="0.1" stroke="rgb(0,0,0)" stroke-opacity="0" fill="none" d="M 501.05 15 L 501.05 198"></path><text visibility="" text-anchor="middle" style="font-family: verdana; font-size: 10px; line-height: 12px; color: rgb(73, 86, 58); fill: rgb(73, 86, 58);" y="232" x="491"><tspan x="491">Denmark</tspan></text><path fill-opacity="0" fill="rgb(0,0,0)" d="M 47 198 L 550 198 550 161 47 161"></path><path fill-opacity="0" fill="rgb(0,0,0)" d="M 47 125 L 550 125 550 88 47 88"></path><path fill-opacity="0" fill="rgb(0,0,0)" d="M 47 52 L 550 52 550 15 47 15"></path><g lighting3D="true" class="highcharts-canvasBase3D"><path fill="none" d="M 47 198 L 550 198 550 208"></path><rect stroke-width="0" height="10" width="503" y="208" x="37" fill="url('#highcharts-121')" ry="0" rx="0"></rect><path stroke-width="0" fill="url('#highcharts-119')" d="M 37 208 L 540 208 550 198 47 198 Z"></path><path stroke-width="0" fill="url('#highcharts-120')" d="M 540 208 L 550 198 550 208 540 218 Z"></path></g><path fill-opacity="1" fill="rgb(176,181,170)" d="M 550 15 L 553 18.6 553 195 550 198 Z"></path><g  class="highcharts-grid"></g><g  class="highcharts-grid"></g><g  class="highcharts-grid"></g><path  stroke-width="0.1" stroke="rgb(0,0,0)" stroke-opacity="0" fill="none" d="M 47 198.05 L 550 198.05"></path><text visibility=""  text-anchor="end" style="font-family: verdana; font-size: 10px; line-height: 12px; color: rgb(73, 86, 58); fill: rgb(73, 86, 58);" y="202" x="43"><tspan x="43">0</tspan></text><path  stroke-width="1" stroke="rgb(172,187,153)" stroke-opacity="1" fill="none" d="M 47 161.5 L 550 161.5"></path><text visibility=""  text-anchor="end" style="font-family: verdana; font-size: 10px; line-height: 12px; color: rgb(73, 86, 58); fill: rgb(73, 86, 58);" y="165" x="43"><tspan x="43">600</tspan></text><path  stroke-width="1" stroke="rgb(172,187,153)" stroke-opacity="1" fill="none" d="M 47 125.5 L 550 125.5"></path><text visibility=""  text-anchor="end" style="font-family: verdana; font-size: 10px; line-height: 12px; color: rgb(73, 86, 58); fill: rgb(73, 86, 58);" y="129" x="43"><tspan x="43">1200</tspan></text><path  stroke-width="1" stroke="rgb(172,187,153)" stroke-opacity="1" fill="none" d="M 47 88.5 L 550 88.5"></path><text visibility=""  text-anchor="end" style="font-family: verdana; font-size: 10px; line-height: 12px; color: rgb(73, 86, 58); fill: rgb(73, 86, 58);" y="92" x="43"><tspan x="43">1800</tspan></text><path  stroke-width="1" stroke="rgb(172,187,153)" stroke-opacity="1" fill="none" d="M 47 52.5 L 550 52.5"></path><text visibility=""  text-anchor="end" style="font-family: verdana; font-size: 10px; line-height: 12px; color: rgb(73, 86, 58); fill: rgb(73, 86, 58);" y="56" x="43"><tspan x="43">2400</tspan></text><path  stroke-width="0.1" stroke="rgb(0,0,0)" stroke-opacity="0" fill="none" d="M 47 15.05 L 550 15.05"></path><text visibility=""  text-anchor="end" style="font-family: verdana; font-size: 10px; line-height: 12px; color: rgb(73, 86, 58); fill: rgb(73, 86, 58);" y="19" x="43"><tspan x="43">3000</tspan></text><g  class="highcharts-series-group"><g transform="translate(37, 25)" class="highcharts-series-3d"><g  class="highcharts-point"><path transform="translate(1, 1)" stroke-width="5" stroke-opacity="0.06" stroke="rgb(0,0,0)"  fill="none" d="M 30 81 L 56 81 56 173"></path><path transform="translate(1, 1)" stroke-width="3" stroke-opacity="0.12" stroke="rgb(0,0,0)"  fill="none" d="M 30 81 L 56 81 56 173"></path><path transform="translate(1, 1)" stroke-width="1" stroke-opacity="0.18" stroke="rgb(0,0,0)"  fill="none" d="M 30 81 L 56 81 56 173"></path><path fill="none" d="M 30 81 L 56 81 56 173"></path><rect stroke="#FFFFFF" stroke-opacity="0" stroke-width="1" height="92" width="26" y="91" x="20" fill="url('#highcharts-124')" ry="0" rx="0"></rect><path stroke="#FFFFFF" stroke-opacity="0" stroke-width="1" fill="url('#highcharts-122')" d="M 20 91 L 46 91 56 81 30 81 Z"></path><path stroke="#FFFFFF" stroke-opacity="0" stroke-width="1" fill="url('#highcharts-123')" d="M 46 91 L 56 81 56 173 46 183 Z"></path></g><g  class="highcharts-point"><path transform="translate(1, 1)" stroke-width="5" stroke-opacity="0.06" stroke="rgb(0,0,0)"  fill="none" d="M 56 36 L 82 36 82 173"></path><path transform="translate(1, 1)" stroke-width="3" stroke-opacity="0.12" stroke="rgb(0,0,0)"  fill="none" d="M 56 36 L 82 36 82 173"></path><path transform="translate(1, 1)" stroke-width="1" stroke-opacity="0.18" stroke="rgb(0,0,0)"  fill="none" d="M 56 36 L 82 36 82 173"></path><path fill="none" d="M 56 36 L 82 36 82 173"></path><rect stroke="#FFFFFF" stroke-opacity="0" stroke-width="1" height="137" width="26" y="46" x="46" fill="url('#highcharts-127')" ry="0" rx="0"></rect><path stroke="#FFFFFF" stroke-opacity="0" stroke-width="1" fill="url('#highcharts-125')" d="M 46 46 L 72 46 82 36 56 36 Z"></path><path stroke="#FFFFFF" stroke-opacity="0" stroke-width="1" fill="url('#highcharts-126')" d="M 72 46 L 82 36 82 173 72 183 Z"></path></g><g  class="highcharts-point"><path transform="translate(1, 1)" stroke-width="5" stroke-opacity="0.06" stroke="rgb(0,0,0)"  fill="none" d="M 82 19 L 108 19 108 173"></path><path transform="translate(1, 1)" stroke-width="3" stroke-opacity="0.12" stroke="rgb(0,0,0)"  fill="none" d="M 82 19 L 108 19 108 173"></path><path transform="translate(1, 1)" stroke-width="1" stroke-opacity="0.18" stroke="rgb(0,0,0)"  fill="none" d="M 82 19 L 108 19 108 173"></path><path fill="none" d="M 82 19 L 108 19 108 173"></path><rect stroke="#FFFFFF" stroke-opacity="0" stroke-width="1" height="154" width="26" y="29" x="72" fill="url('#highcharts-130')" ry="0" rx="0"></rect><path stroke="#FFFFFF" stroke-opacity="0" stroke-width="1" fill="url('#highcharts-128')" d="M 72 29 L 98 29 108 19 82 19 Z"></path><path stroke="#FFFFFF" stroke-opacity="0" stroke-width="1" fill="url('#highcharts-129')" d="M 98 29 L 108 19 108 173 98 183 Z"></path></g><g  class="highcharts-point"><path transform="translate(1, 1)" stroke-width="5" stroke-opacity="0.06" stroke="rgb(0,0,0)"  fill="none" d="M 128 135 L 154 135 154 173"></path><path transform="translate(1, 1)" stroke-width="3" stroke-opacity="0.12" stroke="rgb(0,0,0)"  fill="none" d="M 128 135 L 154 135 154 173"></path><path transform="translate(1, 1)" stroke-width="1" stroke-opacity="0.18" stroke="rgb(0,0,0)"  fill="none" d="M 128 135 L 154 135 154 173"></path><path fill="none" d="M 128 135 L 154 135 154 173"></path><rect stroke="#FFFFFF" stroke-opacity="0" stroke-width="1" height="38" width="26" y="145" x="118" fill="url('#highcharts-133')" ry="0" rx="0"></rect><path stroke="#FFFFFF" stroke-opacity="0" stroke-width="1" fill="url('#highcharts-131')" d="M 118 145 L 144 145 154 135 128 135 Z"></path><path stroke="#FFFFFF" stroke-opacity="0" stroke-width="1" fill="url('#highcharts-132')" d="M 144 145 L 154 135 154 173 144 183 Z"></path></g><g  class="highcharts-point"><path transform="translate(1, 1)" stroke-width="5" stroke-opacity="0.06" stroke="rgb(0,0,0)"  fill="none" d="M 155 143 L 181 143 181 173"></path><path transform="translate(1, 1)" stroke-width="3" stroke-opacity="0.12" stroke="rgb(0,0,0)"  fill="none" d="M 155 143 L 181 143 181 173"></path><path transform="translate(1, 1)" stroke-width="1" stroke-opacity="0.18" stroke="rgb(0,0,0)"  fill="none" d="M 155 143 L 181 143 181 173"></path><path fill="none" d="M 155 143 L 181 143 181 173"></path><rect stroke="#FFFFFF" stroke-opacity="0" stroke-width="1" height="30" width="26" y="153" x="145" fill="url('#highcharts-136')" ry="0" rx="0"></rect><path stroke="#FFFFFF" stroke-opacity="0" stroke-width="1" fill="url('#highcharts-134')" d="M 145 153 L 171 153 181 143 155 143 Z"></path><path stroke="#FFFFFF" stroke-opacity="0" stroke-width="1" fill="url('#highcharts-135')" d="M 171 153 L 181 143 181 173 171 183 Z"></path></g><g  class="highcharts-point"><path transform="translate(1, 1)" stroke-width="5" stroke-opacity="0.06" stroke="rgb(0,0,0)"  fill="none" d="M 181 119 L 207 119 207 173"></path><path transform="translate(1, 1)" stroke-width="3" stroke-opacity="0.12" stroke="rgb(0,0,0)"  fill="none" d="M 181 119 L 207 119 207 173"></path><path transform="translate(1, 1)" stroke-width="1" stroke-opacity="0.18" stroke="rgb(0,0,0)"  fill="none" d="M 181 119 L 207 119 207 173"></path><path fill="none" d="M 181 119 L 207 119 207 173"></path><rect stroke="#FFFFFF" stroke-opacity="0" stroke-width="1" height="54" width="26" y="129" x="171" fill="url('#highcharts-139')" ry="0" rx="0"></rect><path stroke="#FFFFFF" stroke-opacity="0" stroke-width="1" fill="url('#highcharts-137')" d="M 171 129 L 197 129 207 119 181 119 Z"></path><path stroke="#FFFFFF" stroke-opacity="0" stroke-width="1" fill="url('#highcharts-138')" d="M 197 129 L 207 119 207 173 197 183 Z"></path></g><g  class="highcharts-point"><path transform="translate(1, 1)" stroke-width="5" stroke-opacity="0.06" stroke="rgb(0,0,0)"  fill="none" d="M 227 159 L 253 159 253 173"></path><path transform="translate(1, 1)" stroke-width="3" stroke-opacity="0.12" stroke="rgb(0,0,0)"  fill="none" d="M 227 159 L 253 159 253 173"></path><path transform="translate(1, 1)" stroke-width="1" stroke-opacity="0.18" stroke="rgb(0,0,0)"  fill="none" d="M 227 159 L 253 159 253 173"></path><path fill="none" d="M 227 159 L 253 159 253 173"></path><rect stroke="#FFFFFF" stroke-opacity="0" stroke-width="1" height="14" width="26" y="169" x="217" fill="url('#highcharts-142')" ry="0" rx="0"></rect><path stroke="#FFFFFF" stroke-opacity="0" stroke-width="1" fill="url('#highcharts-140')" d="M 217 169 L 243 169 253 159 227 159 Z"></path><path stroke="#FFFFFF" stroke-opacity="0" stroke-width="1" fill="url('#highcharts-141')" d="M 243 169 L 253 159 253 173 243 183 Z"></path></g><g  class="highcharts-point"><path transform="translate(1, 1)" stroke-width="5" stroke-opacity="0.06" stroke="rgb(0,0,0)"  fill="none" d="M 253 124 L 279 124 279 173"></path><path transform="translate(1, 1)" stroke-width="3" stroke-opacity="0.12" stroke="rgb(0,0,0)"  fill="none" d="M 253 124 L 279 124 279 173"></path><path transform="translate(1, 1)" stroke-width="1" stroke-opacity="0.18" stroke="rgb(0,0,0)"  fill="none" d="M 253 124 L 279 124 279 173"></path><path fill="none" d="M 253 124 L 279 124 279 173"></path><rect stroke="#FFFFFF" stroke-opacity="0" stroke-width="1" height="49" width="26" y="134" x="243" fill="url('#highcharts-145')" ry="0" rx="0"></rect><path stroke="#FFFFFF" stroke-opacity="0" stroke-width="1" fill="url('#highcharts-143')" d="M 243 134 L 269 134 279 124 253 124 Z"></path><path stroke="#FFFFFF" stroke-opacity="0" stroke-width="1" fill="url('#highcharts-144')" d="M 269 134 L 279 124 279 173 269 183 Z"></path></g><g  class="highcharts-point"><path transform="translate(1, 1)" stroke-width="5" stroke-opacity="0.06" stroke="rgb(0,0,0)"  fill="none" d="M 280 170 L 306 170 306 173"></path><path transform="translate(1, 1)" stroke-width="3" stroke-opacity="0.12" stroke="rgb(0,0,0)"  fill="none" d="M 280 170 L 306 170 306 173"></path><path transform="translate(1, 1)" stroke-width="1" stroke-opacity="0.18" stroke="rgb(0,0,0)"  fill="none" d="M 280 170 L 306 170 306 173"></path><path fill="none" d="M 280 170 L 306 170 306 173"></path><rect stroke="#FFFFFF" stroke-opacity="0" stroke-width="1" height="3" width="26" y="180" x="270" fill="url('#highcharts-148')" ry="0" rx="0"></rect><path stroke="#FFFFFF" stroke-opacity="0" stroke-width="1" fill="url('#highcharts-146')" d="M 270 180 L 296 180 306 170 280 170 Z"></path><path stroke="#FFFFFF" stroke-opacity="0" stroke-width="1" fill="url('#highcharts-147')" d="M 296 180 L 306 170 306 173 296 183 Z"></path></g><g  class="highcharts-point"><path transform="translate(1, 1)" stroke-width="5" stroke-opacity="0.06" stroke="rgb(0,0,0)"  fill="none" d="M 326 155 L 352 155 352 173"></path><path transform="translate(1, 1)" stroke-width="3" stroke-opacity="0.12" stroke="rgb(0,0,0)"  fill="none" d="M 326 155 L 352 155 352 173"></path><path transform="translate(1, 1)" stroke-width="1" stroke-opacity="0.18" stroke="rgb(0,0,0)"  fill="none" d="M 326 155 L 352 155 352 173"></path><path fill="none" d="M 326 155 L 352 155 352 173"></path><rect stroke="#FFFFFF" stroke-opacity="0" stroke-width="1" height="18" width="26" y="165" x="316" fill="url('#highcharts-151')" ry="0" rx="0"></rect><path stroke="#FFFFFF" stroke-opacity="0" stroke-width="1" fill="url('#highcharts-149')" d="M 316 165 L 342 165 352 155 326 155 Z"></path><path stroke="#FFFFFF" stroke-opacity="0" stroke-width="1" fill="url('#highcharts-150')" d="M 342 165 L 352 155 352 173 342 183 Z"></path></g><g  class="highcharts-point"><path transform="translate(1, 1)" stroke-width="5" stroke-opacity="0.06" stroke="rgb(0,0,0)"  fill="none" d="M 352 81 L 378 81 378 173"></path><path transform="translate(1, 1)" stroke-width="3" stroke-opacity="0.12" stroke="rgb(0,0,0)"  fill="none" d="M 352 81 L 378 81 378 173"></path><path transform="translate(1, 1)" stroke-width="1" stroke-opacity="0.18" stroke="rgb(0,0,0)"  fill="none" d="M 352 81 L 378 81 378 173"></path><path fill="none" d="M 352 81 L 378 81 378 173"></path><rect stroke="#FFFFFF" stroke-opacity="0" stroke-width="1" height="92" width="26" y="91" x="342" fill="url('#highcharts-154')" ry="0" rx="0"></rect><path stroke="#FFFFFF" stroke-opacity="0" stroke-width="1" fill="url('#highcharts-152')" d="M 342 91 L 368 91 378 81 352 81 Z"></path><path stroke="#FFFFFF" stroke-opacity="0" stroke-width="1" fill="url('#highcharts-153')" d="M 368 91 L 378 81 378 173 368 183 Z"></path></g><g  class="highcharts-point"><path transform="translate(1, 1)" stroke-width="5" stroke-opacity="0.06" stroke="rgb(0,0,0)"  fill="none" d="M 378 142 L 404 142 404 173"></path><path transform="translate(1, 1)" stroke-width="3" stroke-opacity="0.12" stroke="rgb(0,0,0)"  fill="none" d="M 378 142 L 404 142 404 173"></path><path transform="translate(1, 1)" stroke-width="1" stroke-opacity="0.18" stroke="rgb(0,0,0)"  fill="none" d="M 378 142 L 404 142 404 173"></path><path fill="none" d="M 378 142 L 404 142 404 173"></path><rect stroke="#FFFFFF" stroke-opacity="0" stroke-width="1" height="31" width="26" y="152" x="368" fill="url('#highcharts-157')" ry="0" rx="0"></rect><path stroke="#FFFFFF" stroke-opacity="0" stroke-width="1" fill="url('#highcharts-155')" d="M 368 152 L 394 152 404 142 378 142 Z"></path><path stroke="#FFFFFF" stroke-opacity="0" stroke-width="1" fill="url('#highcharts-156')" d="M 394 152 L 404 142 404 173 394 183 Z"></path></g><g  class="highcharts-point"><path transform="translate(1, 1)" stroke-width="5" stroke-opacity="0.06" stroke="rgb(0,0,0)"  fill="none" d="M 424 162 L 450 162 450 173"></path><path transform="translate(1, 1)" stroke-width="3" stroke-opacity="0.12" stroke="rgb(0,0,0)"  fill="none" d="M 424 162 L 450 162 450 173"></path><path transform="translate(1, 1)" stroke-width="1" stroke-opacity="0.18" stroke="rgb(0,0,0)"  fill="none" d="M 424 162 L 450 162 450 173"></path><path fill="none" d="M 424 162 L 450 162 450 173"></path><rect stroke="#FFFFFF" stroke-opacity="0" stroke-width="1" height="11" width="26" y="172" x="414" fill="url('#highcharts-160')" ry="0" rx="0"></rect><path stroke="#FFFFFF" stroke-opacity="0" stroke-width="1" fill="url('#highcharts-158')" d="M 414 172 L 440 172 450 162 424 162 Z"></path><path stroke="#FFFFFF" stroke-opacity="0" stroke-width="1" fill="url('#highcharts-159')" d="M 440 172 L 450 162 450 173 440 183 Z"></path></g><g  class="highcharts-point"><path transform="translate(1, 1)" stroke-width="5" stroke-opacity="0.06" stroke="rgb(0,0,0)"  fill="none" d="M 451 104 L 477 104 477 173"></path><path transform="translate(1, 1)" stroke-width="3" stroke-opacity="0.12" stroke="rgb(0,0,0)"  fill="none" d="M 451 104 L 477 104 477 173"></path><path transform="translate(1, 1)" stroke-width="1" stroke-opacity="0.18" stroke="rgb(0,0,0)"  fill="none" d="M 451 104 L 477 104 477 173"></path><path fill="none" d="M 451 104 L 477 104 477 173"></path><rect stroke="#FFFFFF" stroke-opacity="0" stroke-width="1" height="69" width="26" y="114" x="441" fill="url('#highcharts-163')" ry="0" rx="0"></rect><path stroke="#FFFFFF" stroke-opacity="0" stroke-width="1" fill="url('#highcharts-161')" d="M 441 114 L 467 114 477 104 451 104 Z"></path><path stroke="#FFFFFF" stroke-opacity="0" stroke-width="1" fill="url('#highcharts-162')" d="M 467 114 L 477 104 477 173 467 183 Z"></path></g><g  class="highcharts-point"><path transform="translate(1, 1)" stroke-width="5" stroke-opacity="0.06" stroke="rgb(0,0,0)"  fill="none" d="M 477 117 L 503 117 503 173"></path><path transform="translate(1, 1)" stroke-width="3" stroke-opacity="0.12" stroke="rgb(0,0,0)"  fill="none" d="M 477 117 L 503 117 503 173"></path><path transform="translate(1, 1)" stroke-width="1" stroke-opacity="0.18" stroke="rgb(0,0,0)"  fill="none" d="M 477 117 L 503 117 503 173"></path><path fill="none" d="M 477 117 L 503 117 503 173"></path><rect stroke="#FFFFFF" stroke-opacity="0" stroke-width="1" height="56" width="26" y="127" x="467" fill="url('#highcharts-166')" ry="0" rx="0"></rect><path stroke="#FFFFFF" stroke-opacity="0" stroke-width="1" fill="url('#highcharts-164')" d="M 467 127 L 493 127 503 117 477 117 Z"></path><path stroke="#FFFFFF" stroke-opacity="0" stroke-width="1" fill="url('#highcharts-165')" d="M 493 127 L 503 117 503 173 493 183 Z"></path></g></g></g><g transform="translate(47, 15)"  visibility="" class="highcharts-data-labels"><text  text-anchor="middle" style="font-family: verdana; font-size: 10px; color: rgb(73, 86, 58); line-height: 12px; text-decoration: none; font-weight: normal; font-style: normal; fill: rgb(73, 86, 58);" y="86" x="33"><tspan x="33">1500</tspan></text><text  text-anchor="middle" style="font-family: verdana; font-size: 10px; color: rgb(73, 86, 58); line-height: 12px; text-decoration: none; font-weight: normal; font-style: normal; fill: rgb(73, 86, 58);" y="140" x="132"><tspan x="132">611</tspan></text><text  text-anchor="middle" style="font-family: verdana; font-size: 10px; color: rgb(73, 86, 58); line-height: 12px; text-decoration: none; font-weight: normal; font-style: normal; fill: rgb(73, 86, 58);" y="163" x="230"><tspan x="230">228</tspan></text><text  text-anchor="middle" style="font-family: verdana; font-size: 10px; color: rgb(73, 86, 58); line-height: 12px; text-decoration: none; font-weight: normal; font-style: normal; fill: rgb(73, 86, 58);" y="160" x="329"><tspan x="329">285</tspan></text><text  text-anchor="middle" style="font-family: verdana; font-size: 10px; color: rgb(73, 86, 58); line-height: 12px; text-decoration: none; font-weight: normal; font-style: normal; fill: rgb(73, 86, 58);" y="166" x="427"><tspan x="427">174</tspan></text></g><g transform="translate(47, 15)"  visibility="" class="highcharts-data-labels"><text  text-anchor="middle" style="font-family: verdana; font-size: 10px; color: rgb(73, 86, 58); line-height: 12px; text-decoration: none; font-weight: normal; font-style: normal; fill: rgb(73, 86, 58);" y="41" x="59"><tspan x="59">2232</tspan></text><text  text-anchor="middle" style="font-family: verdana; font-size: 10px; color: rgb(73, 86, 58); line-height: 12px; text-decoration: none; font-weight: normal; font-style: normal; fill: rgb(73, 86, 58);" y="147" x="158"><tspan x="158">491</tspan></text><text  text-anchor="middle" style="font-family: verdana; font-size: 10px; color: rgb(73, 86, 58); line-height: 12px; text-decoration: none; font-weight: normal; font-style: normal; fill: rgb(73, 86, 58);" y="128" x="257"><tspan x="257">799</tspan></text><text  text-anchor="middle" style="font-family: verdana; font-size: 10px; color: rgb(73, 86, 58); line-height: 12px; text-decoration: none; font-weight: normal; font-style: normal; fill: rgb(73, 86, 58);" y="85" x="355"><tspan x="355">1508</tspan></text><text  text-anchor="middle" style="font-family: verdana; font-size: 10px; color: rgb(73, 86, 58); line-height: 12px; text-decoration: none; font-weight: normal; font-style: normal; fill: rgb(73, 86, 58);" y="109" x="454"><tspan x="454">1120</tspan></text></g><g transform="translate(47, 15)"  visibility="" class="highcharts-data-labels"><text  text-anchor="middle" style="font-family: verdana; font-size: 10px; color: rgb(73, 86, 58); line-height: 12px; text-decoration: none; font-weight: normal; font-style: normal; fill: rgb(73, 86, 58);" y="24" x="86"><tspan x="86">2514</tspan></text><text  text-anchor="middle" style="font-family: verdana; font-size: 10px; color: rgb(73, 86, 58); line-height: 12px; text-decoration: none; font-weight: normal; font-style: normal; fill: rgb(73, 86, 58);" y="124" x="184"><tspan x="184">872</tspan></text><text  text-anchor="middle" style="font-family: verdana; font-size: 10px; color: rgb(73, 86, 58); line-height: 12px; text-decoration: none; font-weight: normal; font-style: normal; fill: rgb(73, 86, 58);" y="174" x="283"><tspan x="283">47</tspan></text><text  text-anchor="middle" style="font-family: verdana; font-size: 10px; color: rgb(73, 86, 58); line-height: 12px; text-decoration: none; font-weight: normal; font-style: normal; fill: rgb(73, 86, 58);" y="147" x="381"><tspan x="381">500</tspan></text><text  text-anchor="middle" style="font-family: verdana; font-size: 10px; color: rgb(73, 86, 58); line-height: 12px; text-decoration: none; font-weight: normal; font-style: normal; fill: rgb(73, 86, 58);" y="122" x="480"><tspan x="480">903</tspan></text></g><g  class="highcharts-axis"></g><g  class="highcharts-axis"></g><g  class="highcharts-axis"></g><g visibility="hidden"  class="highcharts-tooltip"><rect fill-opacity="1" stroke-width="1" height="0" width="0" y="1.5" x="1.5" fill="rgb(255,255,255)" ry="1" rx="1"></rect><text  style="font-family: verdana; font-size: 10px; color: rgb(73, 86, 58); padding: 0pt; white-space: nowrap; line-height: 12px; fill: rgb(73, 86, 58);" y="11" x="1"><tspan x="1"> </tspan></text></g><text  text-anchor="end" style="font-family: 'lucida grande','lucida sans unicode',verdana,arial,helvetica,sans-serif; font-size: 10px; cursor: pointer; color: rgb(144, 144, 144); fill: rgb(144, 144, 144);" y="272" x="558"><tspan x="558">FusionCharts</tspan></text><g transform="translate(47, 15)"  class="highcharts-tracker"><path style=""  visibility="" fill-opacity="0.000001"  fill="rgb(192,192,192)" d="M 10 101 L 10 193 36 193 46 183 46 91 20 91 Z"></path><path style=""  visibility="" fill-opacity="0.000001"  fill="rgb(192,192,192)" d="M 36 56 L 36 193 62 193 72 183 72 46 46 46 Z"></path><path style=""  visibility="" fill-opacity="0.000001"  fill="rgb(192,192,192)" d="M 62 39 L 62 193 88 193 98 183 98 29 72 29 Z"></path><path style=""  visibility="" fill-opacity="0.000001"  fill="rgb(192,192,192)" d="M 108 155 L 108 193 134 193 144 183 144 145 118 145 Z"></path><path style=""  visibility="" fill-opacity="0.000001"  fill="rgb(192,192,192)" d="M 135 163 L 135 193 161 193 171 183 171 153 145 153 Z"></path><path style=""  visibility="" fill-opacity="0.000001"  fill="rgb(192,192,192)" d="M 161 139 L 161 193 187 193 197 183 197 129 171 129 Z"></path><path style=""  visibility="" fill-opacity="0.000001"  fill="rgb(192,192,192)" d="M 207 179 L 207 193 233 193 243 183 243 169 217 169 Z"></path><path style=""  visibility="" fill-opacity="0.000001"  fill="rgb(192,192,192)" d="M 233 144 L 233 193 259 193 269 183 269 134 243 134 Z"></path><path style=""  visibility="" fill-opacity="0.000001"  fill="rgb(192,192,192)" d="M 260 190 L 260 193 286 193 296 183 296 180 270 180 Z"></path><path style=""  visibility="" fill-opacity="0.000001"  fill="rgb(192,192,192)" d="M 306 175 L 306 193 332 193 342 183 342 165 316 165 Z"></path><path style=""  visibility="" fill-opacity="0.000001"  fill="rgb(192,192,192)" d="M 332 101 L 332 193 358 193 368 183 368 91 342 91 Z"></path><path style=""  visibility="" fill-opacity="0.000001"  fill="rgb(192,192,192)" d="M 358 162 L 358 193 384 193 394 183 394 152 368 152 Z"></path><path style=""  visibility="" fill-opacity="0.000001"  fill="rgb(192,192,192)" d="M 404 182 L 404 193 430 193 440 183 440 172 414 172 Z"></path><path style=""  visibility="" fill-opacity="0.000001"  fill="rgb(192,192,192)" d="M 431 124 L 431 193 457 193 467 183 467 114 441 114 Z"></path><path style=""  visibility="" fill-opacity="0.000001"  fill="rgb(192,192,192)" d="M 457 137 L 457 193 483 193 493 183 493 127 467 127 Z"></path></g><g transform="translate(179, 239)"  class="highcharts-legend"><rect visibility="" transform="translate(1, 1)"  fill-opacity="1" stroke="rgb(0,0,0)" stroke-opacity="0.06" stroke-width="5" height="22" width="241" y="0.5" x="0.5" fill="none" ry="0" rx="0"></rect><rect visibility="" transform="translate(1, 1)"  fill-opacity="1" stroke="rgb(0,0,0)" stroke-opacity="0.12" stroke-width="3" height="22" width="241" y="0.5" x="0.5" fill="none" ry="0" rx="0"></rect><rect visibility="" transform="translate(1, 1)"  fill-opacity="1" stroke="rgb(0,0,0)" stroke-opacity="0.18" stroke-width="1" height="22" width="241" y="0.5" x="0.5" fill="none" ry="0" rx="0"></rect><rect visibility="" fill-opacity="1" stroke="rgb(198,207,184)" stroke-opacity="1" stroke-width="1" height="22" width="241" y="0.5" x="0.5" fill="rgb(240,243,237)" ry="0" rx="0"></rect><text transform="translate(23, 16)"  style="font-family: verdana; font-size: 10px; cursor: pointer; color: rgb(73, 86, 58); line-height: 12px; fill: rgb(73, 86, 58);" y="0" x="0"><tspan x="0">Sum 2010</tspan></text><text transform="translate(101, 16)"  style="font-family: verdana; font-size: 10px; cursor: pointer; color: rgb(73, 86, 58); line-height: 12px; fill: rgb(73, 86, 58);" y="0" x="0"><tspan x="0">Sum 2009</tspan></text><text transform="translate(179, 16)"  style="font-family: verdana; font-size: 10px; cursor: pointer; color: rgb(73, 86, 58); line-height: 12px; fill: rgb(73, 86, 58);" y="0" x="0"><tspan x="0">Sum 2008</tspan></text><path transform="translate(23, 14)" style="cursor: pointer;" stroke="#990000"  stroke-width="0.5" fill="url('#highcharts-114')" d="M -16 2 L -16 -4.3 -13.75 -4.3 -13.75 2 -12.629999999999999 2 -12.629999999999999 -7 -10.379999999999999 -7 -10.379999999999999 2 -9.259999999999998 2 -9.259999999999998 -1.5999999999999996 -7 -1.5999999999999996 -7 2 Z"></path><path transform="translate(101, 14)" style="cursor: pointer;" stroke="#009900"  stroke-width="0.5" fill="url('#highcharts-115')" d="M -16 2 L -16 -4.3 -13.75 -4.3 -13.75 2 -12.629999999999999 2 -12.629999999999999 -7 -10.379999999999999 -7 -10.379999999999999 2 -9.259999999999998 2 -9.259999999999998 -1.5999999999999996 -7 -1.5999999999999996 -7 2 Z"></path><path transform="translate(179, 14)" style="cursor: pointer;" stroke="#000099"  stroke-width="0.5" fill="url('#highcharts-116')" d="M -16 2 L -16 -4.3 -13.75 -4.3 -13.75 2 -12.629999999999999 2 -12.629999999999999 -7 -10.379999999999999 -7 -10.379999999999999 2 -9.259999999999998 2 -9.259999999999998 -1.5999999999999996 -7 -1.5999999999999996 -7 2 Z"></path></g></svg>