<svg xmlns:xlink="http://www.w3.org/1999/xlink" height="277" width="568" version="1.1" xmlns="http://www.w3.org/2000/svg"><defs><clipPath id="highcharts-9"><rect stroke-width="0" height="275" width="566" y="1" x="1" fill="none" ry="0" rx="0"></rect></clipPath><clipPath id="highcharts-10"><rect stroke-width="0" height="277" width="568" y="-15" x="-47" fill="none" ry="0" rx="0"></rect></clipPath></defs><rect fill-opacity="0" stroke="rgb(255,255,255)" stroke-opacity="0.5" stroke-width="1" height="276" width="567" y="0.5" x="0.5" fill="#FFFFFF" ry="0" rx="0"></rect><rect fill-opacity="1" stroke-width="0" height="203" width="490" y="15" x="47" fill="#FFFFFF" ry="0" rx="0"></rect><path fill-opacity="0" fill="rgb(0,0,0)" d="M 47 15 L 47 218 170 218 170 15"></path><path fill-opacity="0" fill="rgb(0,0,0)" d="M 292 15 L 292 218 415 218 415 15"></path><path stroke-width="0.1" stroke="rgb(0,0,0)" stroke-opacity="0" fill="none" d="M 47.05 15 L 47.05 218"></path><text visibility="" text-anchor="middle" style="font-family: verdana; font-size: 10px; line-height: 12px; color: rgb(85, 85, 85); fill: rgb(85, 85, 85);" y="232" x="47"><tspan x="47">Australia</tspan></text><path stroke-width="0.1" stroke="rgb(0,0,0)" stroke-opacity="0" fill="none" d="M 170.05 15 L 170.05 218"></path><text visibility="" text-anchor="middle" style="font-family: verdana; font-size: 10px; line-height: 12px; color: rgb(85, 85, 85); fill: rgb(85, 85, 85);" y="232" x="170"><tspan x="170">Austria</tspan></text><path stroke-width="0.1" stroke="rgb(0,0,0)" stroke-opacity="0" fill="none" d="M 292.05 15 L 292.05 218"></path><text visibility="" text-anchor="middle" style="font-family: verdana; font-size: 10px; line-height: 12px; color: rgb(85, 85, 85); fill: rgb(85, 85, 85);" y="232" x="292"><tspan x="292">Belgium</tspan></text><path stroke-width="0.1" stroke="rgb(0,0,0)" stroke-opacity="0" fill="none" d="M 415.05 15 L 415.05 218"></path><text visibility="" text-anchor="middle" style="font-family: verdana; font-size: 10px; line-height: 12px; color: rgb(85, 85, 85); fill: rgb(85, 85, 85);" y="232" x="415"><tspan x="415">Canada</tspan></text><path stroke-width="0.1" stroke="rgb(0,0,0)" stroke-opacity="0" fill="none" d="M 537.05 15 L 537.05 218"></path><text visibility="" text-anchor="middle" style="font-family: verdana; font-size: 10px; line-height: 12px; color: rgb(85, 85, 85); fill: rgb(85, 85, 85);" y="232" x="537"><tspan x="537">Denmark</tspan></text><path fill-opacity="0" fill="rgb(0,0,0)" d="M 47 218 L 536.801350048216 218 536.801350048216 177 47 177"></path><path fill-opacity="0" fill="rgb(0,0,0)" d="M 47 137 L 536.801350048216 137 536.801350048216 96 47 96"></path><path fill-opacity="0" fill="rgb(0,0,0)" d="M 47 56 L 536.801350048216 56 536.801350048216 15 47 15"></path><g  class="highcharts-grid"></g><g  class="highcharts-grid"></g><g  class="highcharts-grid"></g><path  stroke-width="0.1" stroke="rgb(0,0,0)" stroke-opacity="0" fill="none" d="M 47 218.05 L 536.801350048216 218.05"></path><text visibility=""  text-anchor="end" style="font-family: verdana; font-size: 10px; line-height: 12px; color: rgb(85, 85, 85); fill: rgb(85, 85, 85);" y="222" x="43"><tspan x="43">0</tspan></text><path  fill-opacity="0.5" fill="rgb(238,238,238)" d="M 47 177 L 536.801350048216 177 536.801350048216 137 47 137"></path><path  fill-opacity="0.5" fill="rgb(238,238,238)" d="M 47 96 L 536.801350048216 96 536.801350048216 56 47 56"></path><rect  stroke-linejoin="round" stroke="rgb(84,84,84)" stroke-opacity="1" stroke-width="2" height="205" width="492" y="14" x="46" fill="none" ry="0" rx="0"></rect><path  stroke-width="1" stroke="rgb(113,113,112)" stroke-opacity="0.4" fill="none" d="M 47 177.5 L 536.801350048216 177.5"></path><text visibility=""  text-anchor="end" style="font-family: verdana; font-size: 10px; line-height: 12px; color: rgb(85, 85, 85); fill: rgb(85, 85, 85);" y="181" x="43"><tspan x="43">600</tspan></text><path  stroke-width="1" stroke="rgb(113,113,112)" stroke-opacity="0.4" fill="none" d="M 47 137.5 L 536.801350048216 137.5"></path><text visibility=""  text-anchor="end" style="font-family: verdana; font-size: 10px; line-height: 12px; color: rgb(85, 85, 85); fill: rgb(85, 85, 85);" y="141" x="43"><tspan x="43">1200</tspan></text><path  stroke-width="1" stroke="rgb(113,113,112)" stroke-opacity="0.4" fill="none" d="M 47 96.5 L 536.801350048216 96.5"></path><text visibility=""  text-anchor="end" style="font-family: verdana; font-size: 10px; line-height: 12px; color: rgb(85, 85, 85); fill: rgb(85, 85, 85);" y="100" x="43"><tspan x="43">1800</tspan></text><path  stroke-width="1" stroke="rgb(113,113,112)" stroke-opacity="0.4" fill="none" d="M 47 56.5 L 536.801350048216 56.5"></path><text visibility=""  text-anchor="end" style="font-family: verdana; font-size: 10px; line-height: 12px; color: rgb(85, 85, 85); fill: rgb(85, 85, 85);" y="60" x="43"><tspan x="43">2400</tspan></text><path  stroke-width="0.1" stroke="rgb(0,0,0)" stroke-opacity="0" fill="none" d="M 47 15.05 L 536.801350048216 15.05"></path><text visibility=""  text-anchor="end" style="font-family: verdana; font-size: 10px; line-height: 12px; color: rgb(85, 85, 85); fill: rgb(85, 85, 85);" y="19" x="43"><tspan x="43">3000</tspan></text><g  class="highcharts-series-group"><g transform="translate(47, 15)" visibility="" clip-path="url('#highcharts-10')" class="highcharts-series"><g class="highcharts-shadow"><path transform="translate(1, 1)"  stroke-linecap="round" stroke-width="6" stroke="rgb(0,0,0)" stroke-opacity="0.06" fill="none" d="M 0 101.5 L 122.5 161.65566666666666"></path><path transform="translate(1, 1)"  stroke-linecap="round" stroke-width="4" stroke="rgb(0,0,0)" stroke-opacity="0.12" fill="none" d="M 0 101.5 L 122.5 161.65566666666666"></path><path transform="translate(1, 1)"  stroke-linecap="round" stroke-width="2" stroke="rgb(0,0,0)" stroke-opacity="0.18" fill="none" d="M 0 101.5 L 122.5 161.65566666666666"></path><path transform="translate(1, 1)"  stroke-linecap="round" stroke-width="6" stroke="rgb(0,0,0)" stroke-opacity="0.06" fill="none" d="M 122.5 161.65566666666666 L 245 187.572"></path><path transform="translate(1, 1)"  stroke-linecap="round" stroke-width="4" stroke="rgb(0,0,0)" stroke-opacity="0.12" fill="none" d="M 122.5 161.65566666666666 L 245 187.572"></path><path transform="translate(1, 1)"  stroke-linecap="round" stroke-width="2" stroke="rgb(0,0,0)" stroke-opacity="0.18" fill="none" d="M 122.5 161.65566666666666 L 245 187.572"></path><path transform="translate(1, 1)"  stroke-linecap="round" stroke-width="6" stroke="rgb(0,0,0)" stroke-opacity="0.06" fill="none" d="M 245 187.572 L 367.5 183.715"></path><path transform="translate(1, 1)"  stroke-linecap="round" stroke-width="4" stroke="rgb(0,0,0)" stroke-opacity="0.12" fill="none" d="M 245 187.572 L 367.5 183.715"></path><path transform="translate(1, 1)"  stroke-linecap="round" stroke-width="2" stroke="rgb(0,0,0)" stroke-opacity="0.18" fill="none" d="M 245 187.572 L 367.5 183.715"></path><path transform="translate(1, 1)"  stroke-linecap="round" stroke-width="6" stroke="rgb(0,0,0)" stroke-opacity="0.06" fill="none" d="M 367.5 183.715 L 490 191.226"></path><path transform="translate(1, 1)"  stroke-linecap="round" stroke-width="4" stroke="rgb(0,0,0)" stroke-opacity="0.12" fill="none" d="M 367.5 183.715 L 490 191.226"></path><path transform="translate(1, 1)"  stroke-linecap="round" stroke-width="2" stroke="rgb(0,0,0)" stroke-opacity="0.18" fill="none" d="M 367.5 183.715 L 490 191.226"></path></g><path stroke-linecap="round" stroke-width="2" stroke="#FF0000" stroke-opacity="1" fill="none" d="M 0 101.5 L 122.5 161.65566666666666"></path><path stroke-linecap="round" stroke-width="2" stroke="#FF0000" stroke-opacity="1" fill="none" d="M 122.5 161.65566666666666 L 245 187.572"></path><path stroke-linecap="round" stroke-width="2" stroke="#FF0000" stroke-opacity="1" fill="none" d="M 245 187.572 L 367.5 183.715"></path><path stroke-linecap="round" stroke-width="2" stroke="#FF0000" stroke-opacity="1" fill="none" d="M 367.5 183.715 L 490 191.226"></path><circle fill="#FFFFFF" fill-opacity="1" stroke-width="1" stroke="#FF0000" stroke-opacity="1" r="3" cy="191.226" cx="490"></circle><circle fill="#FFFFFF" fill-opacity="1" stroke-width="1" stroke="#FF0000" stroke-opacity="1" r="3" cy="183.715" cx="367.5"></circle><circle fill="#FFFFFF" fill-opacity="1" stroke-width="1" stroke="#FF0000" stroke-opacity="1" r="3" cy="187.572" cx="245"></circle><circle fill="#FFFFFF" fill-opacity="1" stroke-width="1" stroke="#FF0000" stroke-opacity="1" r="3" cy="161.65566666666666" cx="122.5"></circle><circle fill="#FFFFFF" fill-opacity="1" stroke-width="1" stroke="#FF0000" stroke-opacity="1" r="3" cy="101.5" cx="0"></circle></g><g transform="translate(47, 15)" visibility="" clip-path="url('#highcharts-10')" class="highcharts-series"><g class="highcharts-shadow"><path transform="translate(1, 1)"  stroke-linecap="round" stroke-width="6" stroke="rgb(0,0,0)" stroke-opacity="0.06" fill="none" d="M 0 51.96799999999999 L 122.5 169.77566666666667"></path><path transform="translate(1, 1)"  stroke-linecap="round" stroke-width="4" stroke="rgb(0,0,0)" stroke-opacity="0.12" fill="none" d="M 0 51.96799999999999 L 122.5 169.77566666666667"></path><path transform="translate(1, 1)"  stroke-linecap="round" stroke-width="2" stroke="rgb(0,0,0)" stroke-opacity="0.18" fill="none" d="M 0 51.96799999999999 L 122.5 169.77566666666667"></path><path transform="translate(1, 1)"  stroke-linecap="round" stroke-width="6" stroke="rgb(0,0,0)" stroke-opacity="0.06" fill="none" d="M 122.5 169.77566666666667 L 245 148.93433333333334"></path><path transform="translate(1, 1)"  stroke-linecap="round" stroke-width="4" stroke="rgb(0,0,0)" stroke-opacity="0.12" fill="none" d="M 122.5 169.77566666666667 L 245 148.93433333333334"></path><path transform="translate(1, 1)"  stroke-linecap="round" stroke-width="2" stroke="rgb(0,0,0)" stroke-opacity="0.18" fill="none" d="M 122.5 169.77566666666667 L 245 148.93433333333334"></path><path transform="translate(1, 1)"  stroke-linecap="round" stroke-width="6" stroke="rgb(0,0,0)" stroke-opacity="0.06" fill="none" d="M 245 148.93433333333334 L 367.5 100.95866666666667"></path><path transform="translate(1, 1)"  stroke-linecap="round" stroke-width="4" stroke="rgb(0,0,0)" stroke-opacity="0.12" fill="none" d="M 245 148.93433333333334 L 367.5 100.95866666666667"></path><path transform="translate(1, 1)"  stroke-linecap="round" stroke-width="2" stroke="rgb(0,0,0)" stroke-opacity="0.18" fill="none" d="M 245 148.93433333333334 L 367.5 100.95866666666667"></path><path transform="translate(1, 1)"  stroke-linecap="round" stroke-width="6" stroke="rgb(0,0,0)" stroke-opacity="0.06" fill="none" d="M 367.5 100.95866666666667 L 490 127.21333333333334"></path><path transform="translate(1, 1)"  stroke-linecap="round" stroke-width="4" stroke="rgb(0,0,0)" stroke-opacity="0.12" fill="none" d="M 367.5 100.95866666666667 L 490 127.21333333333334"></path><path transform="translate(1, 1)"  stroke-linecap="round" stroke-width="2" stroke="rgb(0,0,0)" stroke-opacity="0.18" fill="none" d="M 367.5 100.95866666666667 L 490 127.21333333333334"></path></g><path stroke-linecap="round" stroke-width="2" stroke="#00FF00" stroke-opacity="1" fill="none" d="M 0 51.96799999999999 L 122.5 169.77566666666667"></path><path stroke-linecap="round" stroke-width="2" stroke="#00FF00" stroke-opacity="1" fill="none" d="M 122.5 169.77566666666667 L 245 148.93433333333334"></path><path stroke-linecap="round" stroke-width="2" stroke="#00FF00" stroke-opacity="1" fill="none" d="M 245 148.93433333333334 L 367.5 100.95866666666667"></path><path stroke-linecap="round" stroke-width="2" stroke="#00FF00" stroke-opacity="1" fill="none" d="M 367.5 100.95866666666667 L 490 127.21333333333334"></path><circle fill="#FFFFFF" fill-opacity="1" stroke-width="1" stroke="#00FF00" stroke-opacity="1" r="3" cy="127.21333333333334" cx="490"></circle><circle fill="#FFFFFF" fill-opacity="1" stroke-width="1" stroke="#00FF00" stroke-opacity="1" r="3" cy="100.95866666666667" cx="367.5"></circle><circle fill="#FFFFFF" fill-opacity="1" stroke-width="1" stroke="#00FF00" stroke-opacity="1" r="3" cy="148.93433333333334" cx="245"></circle><circle fill="#FFFFFF" fill-opacity="1" stroke-width="1" stroke="#00FF00" stroke-opacity="1" r="3" cy="169.77566666666667" cx="122.5"></circle><circle fill="#FFFFFF" fill-opacity="1" stroke-width="1" stroke="#00FF00" stroke-opacity="1" r="3" cy="51.96799999999999" cx="0"></circle></g><g transform="translate(47, 15)" visibility="" clip-path="url('#highcharts-10')" class="highcharts-series"><g class="highcharts-shadow"><path transform="translate(1, 1)"  stroke-linecap="round" stroke-width="6" stroke="rgb(0,0,0)" stroke-opacity="0.06" fill="none" d="M 0 32.885999999999996 L 122.5 143.99466666666666"></path><path transform="translate(1, 1)"  stroke-linecap="round" stroke-width="4" stroke="rgb(0,0,0)" stroke-opacity="0.12" fill="none" d="M 0 32.885999999999996 L 122.5 143.99466666666666"></path><path transform="translate(1, 1)"  stroke-linecap="round" stroke-width="2" stroke="rgb(0,0,0)" stroke-opacity="0.18" fill="none" d="M 0 32.885999999999996 L 122.5 143.99466666666666"></path><path transform="translate(1, 1)"  stroke-linecap="round" stroke-width="6" stroke="rgb(0,0,0)" stroke-opacity="0.06" fill="none" d="M 122.5 143.99466666666666 L 245 199.81966666666668"></path><path transform="translate(1, 1)"  stroke-linecap="round" stroke-width="4" stroke="rgb(0,0,0)" stroke-opacity="0.12" fill="none" d="M 122.5 143.99466666666666 L 245 199.81966666666668"></path><path transform="translate(1, 1)"  stroke-linecap="round" stroke-width="2" stroke="rgb(0,0,0)" stroke-opacity="0.18" fill="none" d="M 122.5 143.99466666666666 L 245 199.81966666666668"></path><path transform="translate(1, 1)"  stroke-linecap="round" stroke-width="6" stroke="rgb(0,0,0)" stroke-opacity="0.06" fill="none" d="M 245 199.81966666666668 L 367.5 169.16666666666666"></path><path transform="translate(1, 1)"  stroke-linecap="round" stroke-width="4" stroke="rgb(0,0,0)" stroke-opacity="0.12" fill="none" d="M 245 199.81966666666668 L 367.5 169.16666666666666"></path><path transform="translate(1, 1)"  stroke-linecap="round" stroke-width="2" stroke="rgb(0,0,0)" stroke-opacity="0.18" fill="none" d="M 245 199.81966666666668 L 367.5 169.16666666666666"></path><path transform="translate(1, 1)"  stroke-linecap="round" stroke-width="6" stroke="rgb(0,0,0)" stroke-opacity="0.06" fill="none" d="M 367.5 169.16666666666666 L 490 141.897"></path><path transform="translate(1, 1)"  stroke-linecap="round" stroke-width="4" stroke="rgb(0,0,0)" stroke-opacity="0.12" fill="none" d="M 367.5 169.16666666666666 L 490 141.897"></path><path transform="translate(1, 1)"  stroke-linecap="round" stroke-width="2" stroke="rgb(0,0,0)" stroke-opacity="0.18" fill="none" d="M 367.5 169.16666666666666 L 490 141.897"></path></g><path stroke-linecap="round" stroke-width="2" stroke="#0000FF" stroke-opacity="1" fill="none" d="M 0 32.885999999999996 L 122.5 143.99466666666666"></path><path stroke-linecap="round" stroke-width="2" stroke="#0000FF" stroke-opacity="1" fill="none" d="M 122.5 143.99466666666666 L 245 199.81966666666668"></path><path stroke-linecap="round" stroke-width="2" stroke="#0000FF" stroke-opacity="1" fill="none" d="M 245 199.81966666666668 L 367.5 169.16666666666666"></path><path stroke-linecap="round" stroke-width="2" stroke="#0000FF" stroke-opacity="1" fill="none" d="M 367.5 169.16666666666666 L 490 141.897"></path><circle fill="#FFFFFF" fill-opacity="1" stroke-width="1" stroke="#0000FF" stroke-opacity="1" r="3" cy="141.897" cx="490"></circle><circle fill="#FFFFFF" fill-opacity="1" stroke-width="1" stroke="#0000FF" stroke-opacity="1" r="3" cy="169.16666666666666" cx="367.5"></circle><circle fill="#FFFFFF" fill-opacity="1" stroke-width="1" stroke="#0000FF" stroke-opacity="1" r="3" cy="199.81966666666668" cx="245"></circle><circle fill="#FFFFFF" fill-opacity="1" stroke-width="1" stroke="#0000FF" stroke-opacity="1" r="3" cy="143.99466666666666" cx="122.5"></circle><circle fill="#FFFFFF" fill-opacity="1" stroke-width="1" stroke="#0000FF" stroke-opacity="1" r="3" cy="32.885999999999996" cx="0"></circle></g></g><g transform="translate(47, 15)"  visibility="" class="highcharts-data-labels"><text  text-anchor="middle" style="font-family: verdana; font-size: 10px; color: rgb(85, 85, 85); line-height: 12px; text-decoration: none; font-weight: normal; font-style: normal; fill: rgb(85, 85, 85);" y="96" x="0"><tspan x="0">1500</tspan></text><text  text-anchor="middle" style="font-family: verdana; font-size: 10px; color: rgb(85, 85, 85); line-height: 12px; text-decoration: none; font-weight: normal; font-style: normal; fill: rgb(85, 85, 85);" y="178" x="123"><tspan x="123">611</tspan></text><text  text-anchor="middle" style="font-family: verdana; font-size: 10px; color: rgb(85, 85, 85); line-height: 12px; text-decoration: none; font-weight: normal; font-style: normal; fill: rgb(85, 85, 85);" y="182" x="245"><tspan x="245">228</tspan></text><text  text-anchor="middle" style="font-family: verdana; font-size: 10px; color: rgb(85, 85, 85); line-height: 12px; text-decoration: none; font-weight: normal; font-style: normal; fill: rgb(85, 85, 85);" y="178" x="368"><tspan x="368">285</tspan></text><text  text-anchor="middle" style="font-family: verdana; font-size: 10px; color: rgb(85, 85, 85); line-height: 12px; text-decoration: none; font-weight: normal; font-style: normal; fill: rgb(85, 85, 85);" y="185" x="490"><tspan x="490">174</tspan></text></g><g transform="translate(47, 15)"  visibility="" class="highcharts-data-labels"><text  text-anchor="middle" style="font-family: verdana; font-size: 10px; color: rgb(85, 85, 85); line-height: 12px; text-decoration: none; font-weight: normal; font-style: normal; fill: rgb(85, 85, 85);" y="46" x="0"><tspan x="0">2232</tspan></text><text  text-anchor="middle" style="font-family: verdana; font-size: 10px; color: rgb(85, 85, 85); line-height: 12px; text-decoration: none; font-weight: normal; font-style: normal; fill: rgb(85, 85, 85);" y="186" x="123"><tspan x="123">491</tspan></text><text  text-anchor="middle" style="font-family: verdana; font-size: 10px; color: rgb(85, 85, 85); line-height: 12px; text-decoration: none; font-weight: normal; font-style: normal; fill: rgb(85, 85, 85);" y="143" x="245"><tspan x="245">799</tspan></text><text  text-anchor="middle" style="font-family: verdana; font-size: 10px; color: rgb(85, 85, 85); line-height: 12px; text-decoration: none; font-weight: normal; font-style: normal; fill: rgb(85, 85, 85);" y="95" x="368"><tspan x="368">1508</tspan></text><text  text-anchor="middle" style="font-family: verdana; font-size: 10px; color: rgb(85, 85, 85); line-height: 12px; text-decoration: none; font-weight: normal; font-style: normal; fill: rgb(85, 85, 85);" y="143" x="490"><tspan x="490">1120</tspan></text></g><g transform="translate(47, 15)"  visibility="" class="highcharts-data-labels"><text  text-anchor="middle" style="font-family: verdana; font-size: 10px; color: rgb(85, 85, 85); line-height: 12px; text-decoration: none; font-weight: normal; font-style: normal; fill: rgb(85, 85, 85);" y="27" x="0"><tspan x="0">2514</tspan></text><text  text-anchor="middle" style="font-family: verdana; font-size: 10px; color: rgb(85, 85, 85); line-height: 12px; text-decoration: none; font-weight: normal; font-style: normal; fill: rgb(85, 85, 85);" y="160" x="123"><tspan x="123">872</tspan></text><text  text-anchor="middle" style="font-family: verdana; font-size: 10px; color: rgb(85, 85, 85); line-height: 12px; text-decoration: none; font-weight: normal; font-style: normal; fill: rgb(85, 85, 85);" y="194" x="245"><tspan x="245">47</tspan></text><text  text-anchor="middle" style="font-family: verdana; font-size: 10px; color: rgb(85, 85, 85); line-height: 12px; text-decoration: none; font-weight: normal; font-style: normal; fill: rgb(85, 85, 85);" y="163" x="368"><tspan x="368">500</tspan></text><text  text-anchor="middle" style="font-family: verdana; font-size: 10px; color: rgb(85, 85, 85); line-height: 12px; text-decoration: none; font-weight: normal; font-style: normal; fill: rgb(85, 85, 85);" y="136" x="490"><tspan x="490">903</tspan></text></g><g  class="highcharts-axis"></g><g  class="highcharts-axis"></g><g  class="highcharts-axis"></g><g visibility="hidden"  class="highcharts-tooltip"><rect fill-opacity="1" stroke-width="1" height="0" width="0" y="1.5" x="1.5" fill="rgb(255,255,255)" ry="1" rx="1"></rect><text  style="font-family: verdana; font-size: 10px; color: rgb(85, 85, 85); padding: 0pt; white-space: nowrap; line-height: 12px; fill: rgb(85, 85, 85);" y="11" x="1"><tspan x="1"> </tspan></text></g><text  text-anchor="end" style="font-family: 'lucida grande','lucida sans unicode',verdana,arial,helvetica,sans-serif; font-size: 10px; cursor: pointer; color: rgb(144, 144, 144); fill: rgb(144, 144, 144);" y="272" x="558"><tspan x="558">FusionCharts</tspan></text><g transform="translate(47, 15)"  class="highcharts-tracker"><path style=""  visibility="" stroke-width="22" stroke="rgb(192,192,192)" stroke-opacity="0.000001"  fill="none" d="M -10 101.5 L 0 101.5 L 122.5 161.65566666666666 L 245 187.572 L 367.5 183.715 L 490 191.226 L 500 191.226"></path><path style=""  visibility="" stroke-width="22" stroke="rgb(192,192,192)" stroke-opacity="0.000001"  fill="none" d="M -10 51.96799999999999 L 0 51.96799999999999 L 122.5 169.77566666666667 L 245 148.93433333333334 L 367.5 100.95866666666667 L 490 127.21333333333334 L 500 127.21333333333334"></path><path style=""  visibility="" stroke-width="22" stroke="rgb(192,192,192)" stroke-opacity="0.000001"  fill="none" d="M -10 32.885999999999996 L 0 32.885999999999996 L 122.5 143.99466666666666 L 245 199.81966666666668 L 367.5 169.16666666666666 L 490 141.897 L 500 141.897"></path></g><g transform="translate(179, 239)"  class="highcharts-legend"><rect visibility="" transform="translate(1, 1)"  fill-opacity="1" stroke="rgb(0,0,0)" stroke-opacity="0.06" stroke-width="5" height="22" width="241" y="0.5" x="0.5" fill="none" ry="0" rx="0"></rect><rect visibility="" transform="translate(1, 1)"  fill-opacity="1" stroke="rgb(0,0,0)" stroke-opacity="0.12" stroke-width="3" height="22" width="241" y="0.5" x="0.5" fill="none" ry="0" rx="0"></rect><rect visibility="" transform="translate(1, 1)"  fill-opacity="1" stroke="rgb(0,0,0)" stroke-opacity="0.18" stroke-width="1" height="22" width="241" y="0.5" x="0.5" fill="none" ry="0" rx="0"></rect><rect visibility="" fill-opacity="1" stroke="rgb(84,84,84)" stroke-opacity="1" stroke-width="1" height="22" width="241" y="0.5" x="0.5" fill="rgb(255,255,255)" ry="0" rx="0"></rect><text transform="translate(23, 16)"  style="font-family: verdana; font-size: 10px; cursor: pointer; color: rgb(85, 85, 85); line-height: 12px; fill: rgb(85, 85, 85);" y="0" x="0"><tspan x="0">Sum 2010</tspan></text><path transform="translate(23, 14)" stroke="#FF0000" stroke-opacity="1"  stroke-width="2" fill="none" d="M -16 -2.5 L -7 -2.5"></path><text transform="translate(101, 16)"  style="font-family: verdana; font-size: 10px; cursor: pointer; color: rgb(85, 85, 85); line-height: 12px; fill: rgb(85, 85, 85);" y="0" x="0"><tspan x="0">Sum 2009</tspan></text><path transform="translate(101, 14)" stroke="#00FF00" stroke-opacity="1"  stroke-width="2" fill="none" d="M -16 -2.5 L -7 -2.5"></path><text transform="translate(179, 16)"  style="font-family: verdana; font-size: 10px; cursor: pointer; color: rgb(85, 85, 85); line-height: 12px; fill: rgb(85, 85, 85);" y="0" x="0"><tspan x="0">Sum 2008</tspan></text><path transform="translate(179, 14)" stroke="#0000FF" stroke-opacity="1"  stroke-width="2" fill="none" d="M -16 -2.5 L -7 -2.5"></path><circle style="cursor: pointer;" fill="#FFFFFF" fill-opacity="1" stroke-width="1" stroke="#FF0000" stroke-opacity="1"  r="3" cy="11.5" cx="11.5"></circle><circle style="cursor: pointer;" fill="#FFFFFF" fill-opacity="1" stroke-width="1" stroke="#00FF00" stroke-opacity="1"  r="3" cy="11.5" cx="89.5"></circle><circle style="cursor: pointer;" fill="#FFFFFF" fill-opacity="1" stroke-width="1" stroke="#0000FF" stroke-opacity="1"  r="3" cy="11.5" cx="167.5"></circle></g></svg>