<svg xmlns:xlink="http://www.w3.org/1999/xlink" height="277" width="568" version="1.1" xmlns="http://www.w3.org/2000/svg"><defs><linearGradient y2="50%" x2="100%" y1="50%" x1="0%" gradientUnits="objectBoundingBox" id="highcharts-111"><stop stop-opacity="1" stop-color="#FF0000" offset="0%"></stop><stop stop-opacity="1" stop-color="#FF0000" offset="30%"></stop><stop stop-opacity="1" stop-color="#ff9999" offset="60%"></stop><stop stop-opacity="1" stop-color="#FF0000" offset="90%"></stop><stop stop-opacity="1" stop-color="#FF0000" offset="100%"></stop></linearGradient><linearGradient y2="50%" x2="100%" y1="50%" x1="0%" gradientUnits="objectBoundingBox" id="highcharts-112"><stop stop-opacity="1" stop-color="#00FF00" offset="0%"></stop><stop stop-opacity="1" stop-color="#00FF00" offset="30%"></stop><stop stop-opacity="1" stop-color="#99ff99" offset="60%"></stop><stop stop-opacity="1" stop-color="#00FF00" offset="90%"></stop><stop stop-opacity="1" stop-color="#00FF00" offset="100%"></stop></linearGradient><linearGradient y2="50%" x2="100%" y1="50%" x1="0%" gradientUnits="objectBoundingBox" id="highcharts-113"><stop stop-opacity="1" stop-color="#0000FF" offset="0%"></stop><stop stop-opacity="1" stop-color="#0000FF" offset="30%"></stop><stop stop-opacity="1" stop-color="#9999ff" offset="60%"></stop><stop stop-opacity="1" stop-color="#0000FF" offset="90%"></stop><stop stop-opacity="1" stop-color="#0000FF" offset="100%"></stop></linearGradient><clipPath id="highcharts-114"><rect stroke-width="0" height="275" width="566" y="1" x="1" fill="none" ry="0" rx="0"></rect></clipPath><linearGradient y2="73%" x2="100%" y1="27%" x1="0%" gradientUnits="objectBoundingBox" id="highcharts-115"><stop stop-opacity="1" stop-color="#bbc0b5" offset="0%"></stop><stop stop-opacity="1" stop-color="#ecf0e8" offset="100%"></stop></linearGradient><linearGradient y2="33%" x2="100%" y1="67%" x1="0%" gradientUnits="objectBoundingBox" id="highcharts-116"><stop stop-opacity="1" stop-color="#929e82" offset="0%"></stop><stop stop-opacity="1" stop-color="#e2e7db" offset="100%"></stop></linearGradient><linearGradient y2="0%" x2="49%" y1="100%" x1="51%" gradientUnits="objectBoundingBox" id="highcharts-117"><stop stop-opacity="1" stop-color="#3c4135" offset="0%"></stop><stop stop-opacity="1" stop-color="#818c72" offset="100%"></stop></linearGradient><linearGradient y2="0%" x2="50%" y1="100%" x1="50%" gradientUnits="objectBoundingBox" id="highcharts-118"><stop stop-opacity="1" stop-color="#6f7963" offset="0%"></stop><stop stop-opacity="1" stop-color="#d1dac7" offset="100%"></stop></linearGradient><linearGradient y2="35%" x2="100%" y1="65%" x1="0%" gradientUnits="objectBoundingBox" id="highcharts-119"><stop stop-opacity="1" stop-color="#d80000" offset="0%"></stop><stop stop-opacity="1" stop-color="#ffa6a6" offset="100%"></stop></linearGradient><linearGradient y2="0%" x2="43%" y1="100%" x1="57%" gradientUnits="objectBoundingBox" id="highcharts-120"><stop stop-opacity="1" stop-color="#590000" offset="0%"></stop><stop stop-opacity="1" stop-color="#bf0000" offset="100%"></stop></linearGradient><linearGradient y2="0%" x2="50%" y1="100%" x1="50%" gradientUnits="objectBoundingBox" id="highcharts-121"><stop stop-opacity="1" stop-color="#a50000" offset="0%"></stop><stop stop-opacity="1" stop-color="#ff7373" offset="100%"></stop></linearGradient><linearGradient y2="47%" x2="100%" y1="53%" x1="0%" gradientUnits="objectBoundingBox" id="highcharts-122"><stop stop-opacity="1" stop-color="#00d800" offset="0%"></stop><stop stop-opacity="1" stop-color="#a6ffa6" offset="100%"></stop></linearGradient><linearGradient y2="0%" x2="43%" y1="100%" x1="57%" gradientUnits="objectBoundingBox" id="highcharts-123"><stop stop-opacity="1" stop-color="#005900" offset="0%"></stop><stop stop-opacity="1" stop-color="#00bf00" offset="100%"></stop></linearGradient><linearGradient y2="0%" x2="50%" y1="100%" x1="50%" gradientUnits="objectBoundingBox" id="highcharts-124"><stop stop-opacity="1" stop-color="#00a500" offset="0%"></stop><stop stop-opacity="1" stop-color="#73ff73" offset="100%"></stop></linearGradient><linearGradient y2="46%" x2="100%" y1="54%" x1="0%" gradientUnits="objectBoundingBox" id="highcharts-125"><stop stop-opacity="1" stop-color="#0000d8" offset="0%"></stop><stop stop-opacity="1" stop-color="#a6a6ff" offset="100%"></stop></linearGradient><linearGradient y2="0%" x2="43%" y1="100%" x1="57%" gradientUnits="objectBoundingBox" id="highcharts-126"><stop stop-opacity="1" stop-color="#000059" offset="0%"></stop><stop stop-opacity="1" stop-color="#0000bf" offset="100%"></stop></linearGradient><linearGradient y2="0%" x2="50%" y1="100%" x1="50%" gradientUnits="objectBoundingBox" id="highcharts-127"><stop stop-opacity="1" stop-color="#0000a5" offset="0%"></stop><stop stop-opacity="1" stop-color="#7373ff" offset="100%"></stop></linearGradient><linearGradient y2="40%" x2="100%" y1="60%" x1="0%" gradientUnits="objectBoundingBox" id="highcharts-128"><stop stop-opacity="1" stop-color="#d80000" offset="0%"></stop><stop stop-opacity="1" stop-color="#ffa6a6" offset="100%"></stop></linearGradient><linearGradient y2="0%" x2="43%" y1="100%" x1="57%" gradientUnits="objectBoundingBox" id="highcharts-129"><stop stop-opacity="1" stop-color="#590000" offset="0%"></stop><stop stop-opacity="1" stop-color="#bf0000" offset="100%"></stop></linearGradient><linearGradient y2="0%" x2="50%" y1="100%" x1="50%" gradientUnits="objectBoundingBox" id="highcharts-130"><stop stop-opacity="1" stop-color="#a50000" offset="0%"></stop><stop stop-opacity="1" stop-color="#ff7373" offset="100%"></stop></linearGradient><linearGradient y2="48%" x2="100%" y1="52%" x1="0%" gradientUnits="objectBoundingBox" id="highcharts-131"><stop stop-opacity="1" stop-color="#00d800" offset="0%"></stop><stop stop-opacity="1" stop-color="#a6ffa6" offset="100%"></stop></linearGradient><linearGradient y2="0%" x2="43%" y1="100%" x1="57%" gradientUnits="objectBoundingBox" id="highcharts-132"><stop stop-opacity="1" stop-color="#005900" offset="0%"></stop><stop stop-opacity="1" stop-color="#00bf00" offset="100%"></stop></linearGradient><linearGradient y2="0%" x2="50%" y1="100%" x1="50%" gradientUnits="objectBoundingBox" id="highcharts-133"><stop stop-opacity="1" stop-color="#00a500" offset="0%"></stop><stop stop-opacity="1" stop-color="#73ff73" offset="100%"></stop></linearGradient><linearGradient y2="44%" x2="100%" y1="56%" x1="0%" gradientUnits="objectBoundingBox" id="highcharts-134"><stop stop-opacity="1" stop-color="#0000d8" offset="0%"></stop><stop stop-opacity="1" stop-color="#a6a6ff" offset="100%"></stop></linearGradient><linearGradient y2="0%" x2="43%" y1="100%" x1="57%" gradientUnits="objectBoundingBox" id="highcharts-135"><stop stop-opacity="1" stop-color="#000059" offset="0%"></stop><stop stop-opacity="1" stop-color="#0000bf" offset="100%"></stop></linearGradient><linearGradient y2="0%" x2="50%" y1="100%" x1="50%" gradientUnits="objectBoundingBox" id="highcharts-136"><stop stop-opacity="1" stop-color="#0000a5" offset="0%"></stop><stop stop-opacity="1" stop-color="#7373ff" offset="100%"></stop></linearGradient><linearGradient y2="38%" x2="100%" y1="62%" x1="0%" gradientUnits="objectBoundingBox" id="highcharts-137"><stop stop-opacity="1" stop-color="#d80000" offset="0%"></stop><stop stop-opacity="1" stop-color="#ffa6a6" offset="100%"></stop></linearGradient><linearGradient y2="0%" x2="43%" y1="100%" x1="57%" gradientUnits="objectBoundingBox" id="highcharts-138"><stop stop-opacity="1" stop-color="#590000" offset="0%"></stop><stop stop-opacity="1" stop-color="#bf0000" offset="100%"></stop></linearGradient><linearGradient y2="0%" x2="50%" y1="100%" x1="50%" gradientUnits="objectBoundingBox" id="highcharts-139"><stop stop-opacity="1" stop-color="#a50000" offset="0%"></stop><stop stop-opacity="1" stop-color="#ff7373" offset="100%"></stop></linearGradient><linearGradient y2="46%" x2="100%" y1="54%" x1="0%" gradientUnits="objectBoundingBox" id="highcharts-140"><stop stop-opacity="1" stop-color="#00d800" offset="0%"></stop><stop stop-opacity="1" stop-color="#a6ffa6" offset="100%"></stop></linearGradient><linearGradient y2="0%" x2="43%" y1="100%" x1="57%" gradientUnits="objectBoundingBox" id="highcharts-141"><stop stop-opacity="1" stop-color="#005900" offset="0%"></stop><stop stop-opacity="1" stop-color="#00bf00" offset="100%"></stop></linearGradient><linearGradient y2="0%" x2="50%" y1="100%" x1="50%" gradientUnits="objectBoundingBox" id="highcharts-142"><stop stop-opacity="1" stop-color="#00a500" offset="0%"></stop><stop stop-opacity="1" stop-color="#73ff73" offset="100%"></stop></linearGradient><linearGradient y2="25%" x2="100%" y1="75%" x1="0%" gradientUnits="objectBoundingBox" id="highcharts-143"><stop stop-opacity="1" stop-color="#0000d8" offset="0%"></stop><stop stop-opacity="1" stop-color="#a6a6ff" offset="100%"></stop></linearGradient><linearGradient y2="0%" x2="43%" y1="100%" x1="57%" gradientUnits="objectBoundingBox" id="highcharts-144"><stop stop-opacity="1" stop-color="#000059" offset="0%"></stop><stop stop-opacity="1" stop-color="#0000bf" offset="100%"></stop></linearGradient><linearGradient y2="0%" x2="50%" y1="100%" x1="50%" gradientUnits="objectBoundingBox" id="highcharts-145"><stop stop-opacity="1" stop-color="#0000a5" offset="0%"></stop><stop stop-opacity="1" stop-color="#7373ff" offset="100%"></stop></linearGradient><linearGradient y2="45%" x2="100%" y1="55%" x1="0%" gradientUnits="objectBoundingBox" id="highcharts-146"><stop stop-opacity="1" stop-color="#d80000" offset="0%"></stop><stop stop-opacity="1" stop-color="#ffa6a6" offset="100%"></stop></linearGradient><linearGradient y2="0%" x2="43%" y1="100%" x1="57%" gradientUnits="objectBoundingBox" id="highcharts-147"><stop stop-opacity="1" stop-color="#590000" offset="0%"></stop><stop stop-opacity="1" stop-color="#bf0000" offset="100%"></stop></linearGradient><linearGradient y2="0%" x2="50%" y1="100%" x1="50%" gradientUnits="objectBoundingBox" id="highcharts-148"><stop stop-opacity="1" stop-color="#a50000" offset="0%"></stop><stop stop-opacity="1" stop-color="#ff7373" offset="100%"></stop></linearGradient><linearGradient y2="43%" x2="100%" y1="57%" x1="0%" gradientUnits="objectBoundingBox" id="highcharts-149"><stop stop-opacity="1" stop-color="#00d800" offset="0%"></stop><stop stop-opacity="1" stop-color="#a6ffa6" offset="100%"></stop></linearGradient><linearGradient y2="0%" x2="43%" y1="100%" x1="57%" gradientUnits="objectBoundingBox" id="highcharts-150"><stop stop-opacity="1" stop-color="#005900" offset="0%"></stop><stop stop-opacity="1" stop-color="#00bf00" offset="100%"></stop></linearGradient><linearGradient y2="0%" x2="50%" y1="100%" x1="50%" gradientUnits="objectBoundingBox" id="highcharts-151"><stop stop-opacity="1" stop-color="#00a500" offset="0%"></stop><stop stop-opacity="1" stop-color="#73ff73" offset="100%"></stop></linearGradient><linearGradient y2="46%" x2="100%" y1="54%" x1="0%" gradientUnits="objectBoundingBox" id="highcharts-152"><stop stop-opacity="1" stop-color="#0000d8" offset="0%"></stop><stop stop-opacity="1" stop-color="#a6a6ff" offset="100%"></stop></linearGradient><linearGradient y2="0%" x2="43%" y1="100%" x1="57%" gradientUnits="objectBoundingBox" id="highcharts-153"><stop stop-opacity="1" stop-color="#000059" offset="0%"></stop><stop stop-opacity="1" stop-color="#0000bf" offset="100%"></stop></linearGradient><linearGradient y2="0%" x2="50%" y1="100%" x1="50%" gradientUnits="objectBoundingBox" id="highcharts-154"><stop stop-opacity="1" stop-color="#0000a5" offset="0%"></stop><stop stop-opacity="1" stop-color="#7373ff" offset="100%"></stop></linearGradient><linearGradient y2="48%" x2="100%" y1="52%" x1="0%" gradientUnits="objectBoundingBox" id="highcharts-155"><stop stop-opacity="1" stop-color="#d80000" offset="0%"></stop><stop stop-opacity="1" stop-color="#ffa6a6" offset="100%"></stop></linearGradient><linearGradient y2="0%" x2="43%" y1="100%" x1="57%" gradientUnits="objectBoundingBox" id="highcharts-156"><stop stop-opacity="1" stop-color="#590000" offset="0%"></stop><stop stop-opacity="1" stop-color="#bf0000" offset="100%"></stop></linearGradient><linearGradient y2="0%" x2="50%" y1="100%" x1="50%" gradientUnits="objectBoundingBox" id="highcharts-157"><stop stop-opacity="1" stop-color="#a50000" offset="0%"></stop><stop stop-opacity="1" stop-color="#ff7373" offset="100%"></stop></linearGradient><linearGradient y2="48%" x2="100%" y1="52%" x1="0%" gradientUnits="objectBoundingBox" id="highcharts-158"><stop stop-opacity="1" stop-color="#00d800" offset="0%"></stop><stop stop-opacity="1" stop-color="#a6ffa6" offset="100%"></stop></linearGradient><linearGradient y2="0%" x2="43%" y1="100%" x1="57%" gradientUnits="objectBoundingBox" id="highcharts-159"><stop stop-opacity="1" stop-color="#005900" offset="0%"></stop><stop stop-opacity="1" stop-color="#00bf00" offset="100%"></stop></linearGradient><linearGradient y2="0%" x2="50%" y1="100%" x1="50%" gradientUnits="objectBoundingBox" id="highcharts-160"><stop stop-opacity="1" stop-color="#00a500" offset="0%"></stop><stop stop-opacity="1" stop-color="#73ff73" offset="100%"></stop></linearGradient><linearGradient y2="49%" x2="100%" y1="51%" x1="0%" gradientUnits="objectBoundingBox" id="highcharts-161"><stop stop-opacity="1" stop-color="#0000d8" offset="0%"></stop><stop stop-opacity="1" stop-color="#a6a6ff" offset="100%"></stop></linearGradient><linearGradient y2="0%" x2="43%" y1="100%" x1="57%" gradientUnits="objectBoundingBox" id="highcharts-162"><stop stop-opacity="1" stop-color="#000059" offset="0%"></stop><stop stop-opacity="1" stop-color="#0000bf" offset="100%"></stop></linearGradient><linearGradient y2="0%" x2="50%" y1="100%" x1="50%" gradientUnits="objectBoundingBox" id="highcharts-163"><stop stop-opacity="1" stop-color="#0000a5" offset="0%"></stop><stop stop-opacity="1" stop-color="#7373ff" offset="100%"></stop></linearGradient></defs><rect fill-opacity="0" stroke="rgb(255,255,255)" stroke-opacity="1" stroke-width="1" height="276" width="567" y="0.5" x="0.5" fill="#FFFFFF" ry="0" rx="0"></rect><rect stroke-width="0" height="195" width="463" y="18" x="85" fill="url('#highcharts-115')" ry="0" rx="0"></rect><path fill-opacity="0" fill="rgb(0,0,0)" d="M 85 41 L 548.002132196162 41 548.002132196162 135 85 135"></path><path stroke-width="0.1" stroke="rgb(0,0,0)" stroke-opacity="0" fill="none" d="M 85 41.05 L 548.002132196162 41.05"></path><text visibility="" text-anchor="end" style="font-family: verdana; font-size: 10px; line-height: 12px; color: rgb(73, 86, 58); fill: rgb(73, 86, 58);" y="45" x="66"><tspan x="66">Australia</tspan></text><path stroke-width="0.1" stroke="rgb(0,0,0)" stroke-opacity="0" fill="none" d="M 85 79.05 L 548.002132196162 79.05"></path><text visibility="" text-anchor="end" style="font-family: verdana; font-size: 10px; line-height: 12px; color: rgb(73, 86, 58); fill: rgb(73, 86, 58);" y="83" x="66"><tspan x="66">Austria</tspan></text><path stroke-width="0.1" stroke="rgb(0,0,0)" stroke-opacity="0" fill="none" d="M 85 117.05 L 548.002132196162 117.05"></path><text visibility="" text-anchor="end" style="font-family: verdana; font-size: 10px; line-height: 12px; color: rgb(73, 86, 58); fill: rgb(73, 86, 58);" y="121" x="66"><tspan x="66">Belgium</tspan></text><path stroke-width="0.1" stroke="rgb(0,0,0)" stroke-opacity="0" fill="none" d="M 85 154.05 L 548.002132196162 154.05"></path><text visibility="" text-anchor="end" style="font-family: verdana; font-size: 10px; line-height: 12px; color: rgb(73, 86, 58); fill: rgb(73, 86, 58);" y="158" x="66"><tspan x="66">Canada</tspan></text><path stroke-width="0.1" stroke="rgb(0,0,0)" stroke-opacity="0" fill="none" d="M 85 192.05 L 548.002132196162 192.05"></path><text visibility="" text-anchor="end" style="font-family: verdana; font-size: 10px; line-height: 12px; color: rgb(73, 86, 58); fill: rgb(73, 86, 58);" y="196" x="66"><tspan x="66">Denmark</tspan></text><path fill-opacity="0" fill="rgb(0,0,0)" d="M 85 18 L 85 213 178 213 178 18"></path><path fill-opacity="0" fill="rgb(0,0,0)" d="M 270 18 L 270 213 363 213 363 18"></path><path fill-opacity="0" fill="rgb(0,0,0)" d="M 455 18 L 455 213 548 213 548 18"></path><g lighting3D="true" class="highcharts-canvasBase3D"><path fill="none" d="M 75 18 L 85 18 85 213"></path><rect stroke-width="0" height="195" width="10" y="23" x="70" fill="url('#highcharts-118')" ry="0" rx="0"></rect><path stroke-width="0" fill="url('#highcharts-116')" d="M 70 23 L 80 23 85 18 75 18 Z"></path><path stroke-width="0" fill="url('#highcharts-117')" d="M 80 23 L 85 18 85 213 80 218 Z"></path></g><path fill-opacity="1" fill="rgb(176,181,170)" d="M 85 18 L 88.6 15 545 15 548 18 Z"></path><g  class="highcharts-grid"></g><g  class="highcharts-grid"></g><g  class="highcharts-grid"></g><path  stroke-width="0.1" stroke="rgb(0,0,0)" stroke-opacity="0" fill="none" d="M 85.05 18 L 85.05 213"></path><text visibility=""  text-anchor="middle" style="font-family: verdana; font-size: 10px; line-height: 12px; color: rgb(73, 86, 58); fill: rgb(73, 86, 58);" y="232" x="80"><tspan x="80">0</tspan></text><path  stroke-width="1" stroke="rgb(172,187,153)" stroke-opacity="1" fill="none" d="M 178.5 18 L 178.5 213"></path><text visibility=""  text-anchor="middle" style="font-family: verdana; font-size: 10px; line-height: 12px; color: rgb(73, 86, 58); fill: rgb(73, 86, 58);" y="232" x="174"><tspan x="174">1400</tspan></text><path  stroke-width="1" stroke="rgb(172,187,153)" stroke-opacity="1" fill="none" d="M 270.5 18 L 270.5 213"></path><text visibility=""  text-anchor="middle" style="font-family: verdana; font-size: 10px; line-height: 12px; color: rgb(73, 86, 58); fill: rgb(73, 86, 58);" y="232" x="266"><tspan x="266">2800</tspan></text><path  stroke-width="1" stroke="rgb(172,187,153)" stroke-opacity="1" fill="none" d="M 363.5 18 L 363.5 213"></path><text visibility=""  text-anchor="middle" style="font-family: verdana; font-size: 10px; line-height: 12px; color: rgb(73, 86, 58); fill: rgb(73, 86, 58);" y="232" x="359"><tspan x="359">4200</tspan></text><path  stroke-width="1" stroke="rgb(172,187,153)" stroke-opacity="1" fill="none" d="M 455.5 18 L 455.5 213"></path><text visibility=""  text-anchor="middle" style="font-family: verdana; font-size: 10px; line-height: 12px; color: rgb(73, 86, 58); fill: rgb(73, 86, 58);" y="232" x="451"><tspan x="451">5600</tspan></text><path  stroke-width="0.1" stroke="rgb(0,0,0)" stroke-opacity="0" fill="none" d="M 548.05 18 L 548.05 213"></path><text visibility=""  text-anchor="middle" style="font-family: verdana; font-size: 10px; line-height: 12px; color: rgb(73, 86, 58); fill: rgb(73, 86, 58);" y="232" x="543"><tspan x="543">7000</tspan></text><g  class="highcharts-series-group"><g transform="translate(80, 23)" class="highcharts-series-3d"><g  class="highcharts-point"><path transform="translate(1, 1)" stroke-width="5" stroke-opacity="0.06" stroke="rgb(0,0,0)"  fill="none" d="M 5 154 L 17 154 17 184"></path><path transform="translate(1, 1)" stroke-width="3" stroke-opacity="0.12" stroke="rgb(0,0,0)"  fill="none" d="M 5 154 L 17 154 17 184"></path><path transform="translate(1, 1)" stroke-width="1" stroke-opacity="0.18" stroke="rgb(0,0,0)"  fill="none" d="M 5 154 L 17 154 17 184"></path><path fill="none" d="M 5 154 L 17 154 17 184"></path><rect stroke="#FFFFFF" stroke-opacity="0" stroke-width="1" height="30" width="12" y="159" x="0" fill="url('#highcharts-121')" ry="0" rx="0"></rect><path stroke="#FFFFFF" stroke-opacity="0" stroke-width="1" fill="url('#highcharts-119')" d="M 0 159 L 12 159 17 154 5 154 Z"></path><path stroke="#FFFFFF" stroke-opacity="0" stroke-width="1" fill="url('#highcharts-120')" d="M 12 159 L 17 154 17 184 12 189 Z"></path></g><g  class="highcharts-point"><path transform="translate(1, 1)" stroke-width="5" stroke-opacity="0.06" stroke="rgb(0,0,0)"  fill="none" d="M 16 154 L 91 154 91 184"></path><path transform="translate(1, 1)" stroke-width="3" stroke-opacity="0.12" stroke="rgb(0,0,0)"  fill="none" d="M 16 154 L 91 154 91 184"></path><path transform="translate(1, 1)" stroke-width="1" stroke-opacity="0.18" stroke="rgb(0,0,0)"  fill="none" d="M 16 154 L 91 154 91 184"></path><path fill="none" d="M 16 154 L 91 154 91 184"></path><rect stroke="#FFFFFF" stroke-opacity="0" stroke-width="1" height="30" width="75" y="159" x="11" fill="url('#highcharts-124')" ry="0" rx="0"></rect><path stroke="#FFFFFF" stroke-opacity="0" stroke-width="1" fill="url('#highcharts-122')" d="M 11 159 L 86 159 91 154 16 154 Z"></path><path stroke="#FFFFFF" stroke-opacity="0" stroke-width="1" fill="url('#highcharts-123')" d="M 86 159 L 91 154 91 184 86 189 Z"></path></g><g  class="highcharts-point"><path transform="translate(1, 1)" stroke-width="5" stroke-opacity="0.06" stroke="rgb(0,0,0)"  fill="none" d="M 90 154 L 151 154 151 184"></path><path transform="translate(1, 1)" stroke-width="3" stroke-opacity="0.12" stroke="rgb(0,0,0)"  fill="none" d="M 90 154 L 151 154 151 184"></path><path transform="translate(1, 1)" stroke-width="1" stroke-opacity="0.18" stroke="rgb(0,0,0)"  fill="none" d="M 90 154 L 151 154 151 184"></path><path fill="none" d="M 90 154 L 151 154 151 184"></path><rect stroke="#FFFFFF" stroke-opacity="0" stroke-width="1" height="30" width="61" y="159" x="85" fill="url('#highcharts-127')" ry="0" rx="0"></rect><path stroke="#FFFFFF" stroke-opacity="0" stroke-width="1" fill="url('#highcharts-125')" d="M 85 159 L 146 159 151 154 90 154 Z"></path><path stroke="#FFFFFF" stroke-opacity="0" stroke-width="1" fill="url('#highcharts-126')" d="M 146 159 L 151 154 151 184 146 189 Z"></path></g><g  class="highcharts-point"><path transform="translate(1, 1)" stroke-width="5" stroke-opacity="0.06" stroke="rgb(0,0,0)"  fill="none" d="M 5 116 L 24 116 24 146"></path><path transform="translate(1, 1)" stroke-width="3" stroke-opacity="0.12" stroke="rgb(0,0,0)"  fill="none" d="M 5 116 L 24 116 24 146"></path><path transform="translate(1, 1)" stroke-width="1" stroke-opacity="0.18" stroke="rgb(0,0,0)"  fill="none" d="M 5 116 L 24 116 24 146"></path><path fill="none" d="M 5 116 L 24 116 24 146"></path><rect stroke="#FFFFFF" stroke-opacity="0" stroke-width="1" height="30" width="19" y="121" x="0" fill="url('#highcharts-130')" ry="0" rx="0"></rect><path stroke="#FFFFFF" stroke-opacity="0" stroke-width="1" fill="url('#highcharts-128')" d="M 0 121 L 19 121 24 116 5 116 Z"></path><path stroke="#FFFFFF" stroke-opacity="0" stroke-width="1" fill="url('#highcharts-129')" d="M 19 121 L 24 116 24 146 19 151 Z"></path></g><g  class="highcharts-point"><path transform="translate(1, 1)" stroke-width="5" stroke-opacity="0.06" stroke="rgb(0,0,0)"  fill="none" d="M 23 116 L 124 116 124 146"></path><path transform="translate(1, 1)" stroke-width="3" stroke-opacity="0.12" stroke="rgb(0,0,0)"  fill="none" d="M 23 116 L 124 116 124 146"></path><path transform="translate(1, 1)" stroke-width="1" stroke-opacity="0.18" stroke="rgb(0,0,0)"  fill="none" d="M 23 116 L 124 116 124 146"></path><path fill="none" d="M 23 116 L 124 116 124 146"></path><rect stroke="#FFFFFF" stroke-opacity="0" stroke-width="1" height="30" width="101" y="121" x="18" fill="url('#highcharts-133')" ry="0" rx="0"></rect><path stroke="#FFFFFF" stroke-opacity="0" stroke-width="1" fill="url('#highcharts-131')" d="M 18 121 L 119 121 124 116 23 116 Z"></path><path stroke="#FFFFFF" stroke-opacity="0" stroke-width="1" fill="url('#highcharts-132')" d="M 119 121 L 124 116 124 146 119 151 Z"></path></g><g  class="highcharts-point"><path transform="translate(1, 1)" stroke-width="5" stroke-opacity="0.06" stroke="rgb(0,0,0)"  fill="none" d="M 123 116 L 157 116 157 146"></path><path transform="translate(1, 1)" stroke-width="3" stroke-opacity="0.12" stroke="rgb(0,0,0)"  fill="none" d="M 123 116 L 157 116 157 146"></path><path transform="translate(1, 1)" stroke-width="1" stroke-opacity="0.18" stroke="rgb(0,0,0)"  fill="none" d="M 123 116 L 157 116 157 146"></path><path fill="none" d="M 123 116 L 157 116 157 146"></path><rect stroke="#FFFFFF" stroke-opacity="0" stroke-width="1" height="30" width="34" y="121" x="118" fill="url('#highcharts-136')" ry="0" rx="0"></rect><path stroke="#FFFFFF" stroke-opacity="0" stroke-width="1" fill="url('#highcharts-134')" d="M 118 121 L 152 121 157 116 123 116 Z"></path><path stroke="#FFFFFF" stroke-opacity="0" stroke-width="1" fill="url('#highcharts-135')" d="M 152 121 L 157 116 157 146 152 151 Z"></path></g><g  class="highcharts-point"><path transform="translate(1, 1)" stroke-width="5" stroke-opacity="0.06" stroke="rgb(0,0,0)"  fill="none" d="M 5 79 L 21 79 21 109"></path><path transform="translate(1, 1)" stroke-width="3" stroke-opacity="0.12" stroke="rgb(0,0,0)"  fill="none" d="M 5 79 L 21 79 21 109"></path><path transform="translate(1, 1)" stroke-width="1" stroke-opacity="0.18" stroke="rgb(0,0,0)"  fill="none" d="M 5 79 L 21 79 21 109"></path><path fill="none" d="M 5 79 L 21 79 21 109"></path><rect stroke="#FFFFFF" stroke-opacity="0" stroke-width="1" height="30" width="16" y="84" x="0" fill="url('#highcharts-139')" ry="0" rx="0"></rect><path stroke="#FFFFFF" stroke-opacity="0" stroke-width="1" fill="url('#highcharts-137')" d="M 0 84 L 16 84 21 79 5 79 Z"></path><path stroke="#FFFFFF" stroke-opacity="0" stroke-width="1" fill="url('#highcharts-138')" d="M 16 84 L 21 79 21 109 16 114 Z"></path></g><g  class="highcharts-point"><path transform="translate(1, 1)" stroke-width="5" stroke-opacity="0.06" stroke="rgb(0,0,0)"  fill="none" d="M 20 79 L 73 79 73 109"></path><path transform="translate(1, 1)" stroke-width="3" stroke-opacity="0.12" stroke="rgb(0,0,0)"  fill="none" d="M 20 79 L 73 79 73 109"></path><path transform="translate(1, 1)" stroke-width="1" stroke-opacity="0.18" stroke="rgb(0,0,0)"  fill="none" d="M 20 79 L 73 79 73 109"></path><path fill="none" d="M 20 79 L 73 79 73 109"></path><rect stroke="#FFFFFF" stroke-opacity="0" stroke-width="1" height="30" width="53" y="84" x="15" fill="url('#highcharts-142')" ry="0" rx="0"></rect><path stroke="#FFFFFF" stroke-opacity="0" stroke-width="1" fill="url('#highcharts-140')" d="M 15 84 L 68 84 73 79 20 79 Z"></path><path stroke="#FFFFFF" stroke-opacity="0" stroke-width="1" fill="url('#highcharts-141')" d="M 68 84 L 73 79 73 109 68 114 Z"></path></g><g  class="highcharts-point"><path transform="translate(1, 1)" stroke-width="5" stroke-opacity="0.06" stroke="rgb(0,0,0)"  fill="none" d="M 72 79 L 77 79 77 109"></path><path transform="translate(1, 1)" stroke-width="3" stroke-opacity="0.12" stroke="rgb(0,0,0)"  fill="none" d="M 72 79 L 77 79 77 109"></path><path transform="translate(1, 1)" stroke-width="1" stroke-opacity="0.18" stroke="rgb(0,0,0)"  fill="none" d="M 72 79 L 77 79 77 109"></path><path fill="none" d="M 72 79 L 77 79 77 109"></path><rect stroke="#FFFFFF" stroke-opacity="0" stroke-width="1" height="30" width="5" y="84" x="67" fill="url('#highcharts-145')" ry="0" rx="0"></rect><path stroke="#FFFFFF" stroke-opacity="0" stroke-width="1" fill="url('#highcharts-143')" d="M 67 84 L 72 84 77 79 72 79 Z"></path><path stroke="#FFFFFF" stroke-opacity="0" stroke-width="1" fill="url('#highcharts-144')" d="M 72 84 L 77 79 77 109 72 114 Z"></path></g><g  class="highcharts-point"><path transform="translate(1, 1)" stroke-width="5" stroke-opacity="0.06" stroke="rgb(0,0,0)"  fill="none" d="M 5 41 L 46 41 46 71"></path><path transform="translate(1, 1)" stroke-width="3" stroke-opacity="0.12" stroke="rgb(0,0,0)"  fill="none" d="M 5 41 L 46 41 46 71"></path><path transform="translate(1, 1)" stroke-width="1" stroke-opacity="0.18" stroke="rgb(0,0,0)"  fill="none" d="M 5 41 L 46 41 46 71"></path><path fill="none" d="M 5 41 L 46 41 46 71"></path><rect stroke="#FFFFFF" stroke-opacity="0" stroke-width="1" height="30" width="41" y="46" x="0" fill="url('#highcharts-148')" ry="0" rx="0"></rect><path stroke="#FFFFFF" stroke-opacity="0" stroke-width="1" fill="url('#highcharts-146')" d="M 0 46 L 41 46 46 41 5 41 Z"></path><path stroke="#FFFFFF" stroke-opacity="0" stroke-width="1" fill="url('#highcharts-147')" d="M 41 46 L 46 41 46 71 41 76 Z"></path></g><g  class="highcharts-point"><path transform="translate(1, 1)" stroke-width="5" stroke-opacity="0.06" stroke="rgb(0,0,0)"  fill="none" d="M 45 41 L 78 41 78 71"></path><path transform="translate(1, 1)" stroke-width="3" stroke-opacity="0.12" stroke="rgb(0,0,0)"  fill="none" d="M 45 41 L 78 41 78 71"></path><path transform="translate(1, 1)" stroke-width="1" stroke-opacity="0.18" stroke="rgb(0,0,0)"  fill="none" d="M 45 41 L 78 41 78 71"></path><path fill="none" d="M 45 41 L 78 41 78 71"></path><rect stroke="#FFFFFF" stroke-opacity="0" stroke-width="1" height="30" width="33" y="46" x="40" fill="url('#highcharts-151')" ry="0" rx="0"></rect><path stroke="#FFFFFF" stroke-opacity="0" stroke-width="1" fill="url('#highcharts-149')" d="M 40 46 L 73 46 78 41 45 41 Z"></path><path stroke="#FFFFFF" stroke-opacity="0" stroke-width="1" fill="url('#highcharts-150')" d="M 73 46 L 78 41 78 71 73 76 Z"></path></g><g  class="highcharts-point"><path transform="translate(1, 1)" stroke-width="5" stroke-opacity="0.06" stroke="rgb(0,0,0)"  fill="none" d="M 77 41 L 136 41 136 71"></path><path transform="translate(1, 1)" stroke-width="3" stroke-opacity="0.12" stroke="rgb(0,0,0)"  fill="none" d="M 77 41 L 136 41 136 71"></path><path transform="translate(1, 1)" stroke-width="1" stroke-opacity="0.18" stroke="rgb(0,0,0)"  fill="none" d="M 77 41 L 136 41 136 71"></path><path fill="none" d="M 77 41 L 136 41 136 71"></path><rect stroke="#FFFFFF" stroke-opacity="0" stroke-width="1" height="30" width="59" y="46" x="72" fill="url('#highcharts-154')" ry="0" rx="0"></rect><path stroke="#FFFFFF" stroke-opacity="0" stroke-width="1" fill="url('#highcharts-152')" d="M 72 46 L 131 46 136 41 77 41 Z"></path><path stroke="#FFFFFF" stroke-opacity="0" stroke-width="1" fill="url('#highcharts-153')" d="M 131 46 L 136 41 136 71 131 76 Z"></path></g><g  class="highcharts-point"><path transform="translate(1, 1)" stroke-width="5" stroke-opacity="0.06" stroke="rgb(0,0,0)"  fill="none" d="M 5 3 L 105 3 105 33"></path><path transform="translate(1, 1)" stroke-width="3" stroke-opacity="0.12" stroke="rgb(0,0,0)"  fill="none" d="M 5 3 L 105 3 105 33"></path><path transform="translate(1, 1)" stroke-width="1" stroke-opacity="0.18" stroke="rgb(0,0,0)"  fill="none" d="M 5 3 L 105 3 105 33"></path><path fill="none" d="M 5 3 L 105 3 105 33"></path><rect stroke="#FFFFFF" stroke-opacity="0" stroke-width="1" height="30" width="100" y="8" x="0" fill="url('#highcharts-157')" ry="0" rx="0"></rect><path stroke="#FFFFFF" stroke-opacity="0" stroke-width="1" fill="url('#highcharts-155')" d="M 0 8 L 100 8 105 3 5 3 Z"></path><path stroke="#FFFFFF" stroke-opacity="0" stroke-width="1" fill="url('#highcharts-156')" d="M 100 8 L 105 3 105 33 100 38 Z"></path></g><g  class="highcharts-point"><path transform="translate(1, 1)" stroke-width="5" stroke-opacity="0.06" stroke="rgb(0,0,0)"  fill="none" d="M 104 3 L 252 3 252 33"></path><path transform="translate(1, 1)" stroke-width="3" stroke-opacity="0.12" stroke="rgb(0,0,0)"  fill="none" d="M 104 3 L 252 3 252 33"></path><path transform="translate(1, 1)" stroke-width="1" stroke-opacity="0.18" stroke="rgb(0,0,0)"  fill="none" d="M 104 3 L 252 3 252 33"></path><path fill="none" d="M 104 3 L 252 3 252 33"></path><rect stroke="#FFFFFF" stroke-opacity="0" stroke-width="1" height="30" width="148" y="8" x="99" fill="url('#highcharts-160')" ry="0" rx="0"></rect><path stroke="#FFFFFF" stroke-opacity="0" stroke-width="1" fill="url('#highcharts-158')" d="M 99 8 L 247 8 252 3 104 3 Z"></path><path stroke="#FFFFFF" stroke-opacity="0" stroke-width="1" fill="url('#highcharts-159')" d="M 247 8 L 252 3 252 33 247 38 Z"></path></g><g  class="highcharts-point"><path transform="translate(1, 1)" stroke-width="5" stroke-opacity="0.06" stroke="rgb(0,0,0)"  fill="none" d="M 251 3 L 419 3 419 33"></path><path transform="translate(1, 1)" stroke-width="3" stroke-opacity="0.12" stroke="rgb(0,0,0)"  fill="none" d="M 251 3 L 419 3 419 33"></path><path transform="translate(1, 1)" stroke-width="1" stroke-opacity="0.18" stroke="rgb(0,0,0)"  fill="none" d="M 251 3 L 419 3 419 33"></path><path fill="none" d="M 251 3 L 419 3 419 33"></path><rect stroke="#FFFFFF" stroke-opacity="0" stroke-width="1" height="30" width="168" y="8" x="246" fill="url('#highcharts-163')" ry="0" rx="0"></rect><path stroke="#FFFFFF" stroke-opacity="0" stroke-width="1" fill="url('#highcharts-161')" d="M 246 8 L 414 8 419 3 251 3 Z"></path><path stroke="#FFFFFF" stroke-opacity="0" stroke-width="1" fill="url('#highcharts-162')" d="M 414 8 L 419 3 419 33 414 38 Z"></path></g></g></g><g transform="translate(85, 18)"  visibility="" class="highcharts-data-labels"><text  text-anchor="middle" style="font-family: verdana; font-size: 10px; color: rgb(73, 86, 58); line-height: 12px; text-decoration: none; font-weight: normal; font-style: normal; fill: rgb(73, 86, 58);" y="33" x="55"><tspan x="55">1500</tspan></text><text  text-anchor="middle" style="font-family: verdana; font-size: 10px; color: rgb(73, 86, 58); line-height: 12px; text-decoration: none; font-weight: normal; font-style: normal; fill: rgb(73, 86, 58);" y="71" x="25"><tspan x="25">611</tspan></text><text  text-anchor="middle" style="font-family: verdana; font-size: 10px; color: rgb(73, 86, 58); line-height: 12px; text-decoration: none; font-weight: normal; font-style: normal; fill: rgb(73, 86, 58);" y="109" x="13"><tspan x="13">228</tspan></text><text  text-anchor="middle" style="font-family: verdana; font-size: 10px; color: rgb(73, 86, 58); line-height: 12px; text-decoration: none; font-weight: normal; font-style: normal; fill: rgb(73, 86, 58);" y="146" x="14"><tspan x="14">285</tspan></text><text  text-anchor="middle" style="font-family: verdana; font-size: 10px; color: rgb(73, 86, 58); line-height: 12px; text-decoration: none; font-weight: normal; font-style: normal; fill: rgb(73, 86, 58);" y="184" x="11"><tspan x="11">174</tspan></text></g><g transform="translate(85, 18)"  visibility="" class="highcharts-data-labels"><text  text-anchor="middle" style="font-family: verdana; font-size: 10px; color: rgb(73, 86, 58); line-height: 12px; text-decoration: none; font-weight: normal; font-style: normal; fill: rgb(73, 86, 58);" y="33" x="178"><tspan x="178">2232</tspan></text><text  text-anchor="middle" style="font-family: verdana; font-size: 10px; color: rgb(73, 86, 58); line-height: 12px; text-decoration: none; font-weight: normal; font-style: normal; fill: rgb(73, 86, 58);" y="71" x="61"><tspan x="61">491</tspan></text><text  text-anchor="middle" style="font-family: verdana; font-size: 10px; color: rgb(73, 86, 58); line-height: 12px; text-decoration: none; font-weight: normal; font-style: normal; fill: rgb(73, 86, 58);" y="109" x="46"><tspan x="46">799</tspan></text><text  text-anchor="middle" style="font-family: verdana; font-size: 10px; color: rgb(73, 86, 58); line-height: 12px; text-decoration: none; font-weight: normal; font-style: normal; fill: rgb(73, 86, 58);" y="146" x="73"><tspan x="73">1508</tspan></text><text  text-anchor="middle" style="font-family: verdana; font-size: 10px; color: rgb(73, 86, 58); line-height: 12px; text-decoration: none; font-weight: normal; font-style: normal; fill: rgb(73, 86, 58);" y="184" x="53"><tspan x="53">1120</tspan></text></g><g transform="translate(85, 18)"  visibility="" class="highcharts-data-labels"><text  text-anchor="middle" style="font-family: verdana; font-size: 10px; color: rgb(73, 86, 58); line-height: 12px; text-decoration: none; font-weight: normal; font-style: normal; fill: rgb(73, 86, 58);" y="33" x="335"><tspan x="335">2514</tspan></text><text  text-anchor="middle" style="font-family: verdana; font-size: 10px; color: rgb(73, 86, 58); line-height: 12px; text-decoration: none; font-weight: normal; font-style: normal; fill: rgb(73, 86, 58);" y="71" x="106"><tspan x="106">872</tspan></text><text  text-anchor="middle" style="font-family: verdana; font-size: 10px; color: rgb(73, 86, 58); line-height: 12px; text-decoration: none; font-weight: normal; font-style: normal; fill: rgb(73, 86, 58);" y="109" x="74"><tspan x="74">47</tspan></text><text  text-anchor="middle" style="font-family: verdana; font-size: 10px; color: rgb(73, 86, 58); line-height: 12px; text-decoration: none; font-weight: normal; font-style: normal; fill: rgb(73, 86, 58);" y="146" x="140"><tspan x="140">500</tspan></text><text  text-anchor="middle" style="font-family: verdana; font-size: 10px; color: rgb(73, 86, 58); line-height: 12px; text-decoration: none; font-weight: normal; font-style: normal; fill: rgb(73, 86, 58);" y="184" x="120"><tspan x="120">903</tspan></text></g><g  class="highcharts-axis"></g><g  class="highcharts-axis"></g><g  class="highcharts-axis"></g><g visibility="hidden"  class="highcharts-tooltip"><rect fill-opacity="1" stroke-width="1" height="0" width="0" y="1.5" x="1.5" fill="rgb(255,255,255)" ry="1" rx="1"></rect><text  style="font-family: verdana; font-size: 10px; color: rgb(73, 86, 58); padding: 0pt; white-space: nowrap; line-height: 12px; fill: rgb(73, 86, 58);" y="11" x="1"><tspan x="1"> </tspan></text></g><text  text-anchor="end" style="font-family: 'lucida grande','lucida sans unicode',verdana,arial,helvetica,sans-serif; font-size: 10px; cursor: pointer; color: rgb(144, 144, 144); fill: rgb(144, 144, 144);" y="272" x="558"><tspan x="558">FusionCharts</tspan></text><g height="195" width="463" transform="translate(548, 213) rotate(90) scale(-1, 1)"  class="highcharts-tracker"><path style=""  visibility="" fill-opacity="0.000001"  fill="rgb(192,192,192)" d="M 1 456 L 1 468 31 468 36 463 36 451 6 451 Z"></path><path style=""  visibility="" fill-opacity="0.000001"  fill="rgb(192,192,192)" d="M 1 382 L 1 457 31 457 36 452 36 377 6 377 Z"></path><path style=""  visibility="" fill-opacity="0.000001"  fill="rgb(192,192,192)" d="M 1 322 L 1 383 31 383 36 378 36 317 6 317 Z"></path><path style=""  visibility="" fill-opacity="0.000001"  fill="rgb(192,192,192)" d="M 39 449 L 39 468 69 468 74 463 74 444 44 444 Z"></path><path style=""  visibility="" fill-opacity="0.000001"  fill="rgb(192,192,192)" d="M 39 349 L 39 450 69 450 74 445 74 344 44 344 Z"></path><path style=""  visibility="" fill-opacity="0.000001"  fill="rgb(192,192,192)" d="M 39 316 L 39 350 69 350 74 345 74 311 44 311 Z"></path><path style=""  visibility="" fill-opacity="0.000001"  fill="rgb(192,192,192)" d="M 76 452 L 76 468 106 468 111 463 111 447 81 447 Z"></path><path style=""  visibility="" fill-opacity="0.000001"  fill="rgb(192,192,192)" d="M 76 400 L 76 453 106 453 111 448 111 395 81 395 Z"></path><path style=""  visibility="" fill-opacity="0.000001"  fill="rgb(192,192,192)" d="M 76 396 L 76 401 106 401 111 396 111 391 81 391 Z"></path><path style=""  visibility="" fill-opacity="0.000001"  fill="rgb(192,192,192)" d="M 114 427 L 114 468 144 468 149 463 149 422 119 422 Z"></path><path style=""  visibility="" fill-opacity="0.000001"  fill="rgb(192,192,192)" d="M 114 395 L 114 428 144 428 149 423 149 390 119 390 Z"></path><path style=""  visibility="" fill-opacity="0.000001"  fill="rgb(192,192,192)" d="M 114 337 L 114 396 144 396 149 391 149 332 119 332 Z"></path><path style=""  visibility="" fill-opacity="0.000001"  fill="rgb(192,192,192)" d="M 152 368 L 152 468 182 468 187 463 187 363 157 363 Z"></path><path style=""  visibility="" fill-opacity="0.000001"  fill="rgb(192,192,192)" d="M 152 221 L 152 369 182 369 187 364 187 216 157 216 Z"></path><path style=""  visibility="" fill-opacity="0.000001"  fill="rgb(192,192,192)" d="M 152 54 L 152 222 182 222 187 217 187 49 157 49 Z"></path></g><g transform="translate(191, 239)"  class="highcharts-legend"><rect visibility="" transform="translate(1, 1)"  fill-opacity="1" stroke="rgb(0,0,0)" stroke-opacity="0.06" stroke-width="5" height="22" width="241" y="0.5" x="0.5" fill="none" ry="0" rx="0"></rect><rect visibility="" transform="translate(1, 1)"  fill-opacity="1" stroke="rgb(0,0,0)" stroke-opacity="0.12" stroke-width="3" height="22" width="241" y="0.5" x="0.5" fill="none" ry="0" rx="0"></rect><rect visibility="" transform="translate(1, 1)"  fill-opacity="1" stroke="rgb(0,0,0)" stroke-opacity="0.18" stroke-width="1" height="22" width="241" y="0.5" x="0.5" fill="none" ry="0" rx="0"></rect><rect visibility="" fill-opacity="1" stroke="rgb(198,207,184)" stroke-opacity="1" stroke-width="1" height="22" width="241" y="0.5" x="0.5" fill="rgb(240,243,237)" ry="0" rx="0"></rect><text transform="translate(23, 16)"  style="font-family: verdana; font-size: 10px; cursor: pointer; color: rgb(73, 86, 58); line-height: 12px; fill: rgb(73, 86, 58);" y="0" x="0"><tspan x="0">Sum 2010</tspan></text><text transform="translate(101, 16)"  style="font-family: verdana; font-size: 10px; cursor: pointer; color: rgb(73, 86, 58); line-height: 12px; fill: rgb(73, 86, 58);" y="0" x="0"><tspan x="0">Sum 2009</tspan></text><text transform="translate(179, 16)"  style="font-family: verdana; font-size: 10px; cursor: pointer; color: rgb(73, 86, 58); line-height: 12px; fill: rgb(73, 86, 58);" y="0" x="0"><tspan x="0">Sum 2008</tspan></text><path transform="translate(23, 14)" style="cursor: pointer;" stroke="#990000"  stroke-width="0.5" fill="url('#highcharts-111')" d="M -16 -7 L -10.600000000000001 -7 -10.600000000000001 -4.75 -16 -4.75 -16 -3.625 -7 -3.625 -7 -1.375 -16 -1.375 -16 -0.25 -13.3 -0.25 -13.3 2 -16 2 Z"></path><path transform="translate(101, 14)" style="cursor: pointer;" stroke="#009900"  stroke-width="0.5" fill="url('#highcharts-112')" d="M -16 -7 L -10.600000000000001 -7 -10.600000000000001 -4.75 -16 -4.75 -16 -3.625 -7 -3.625 -7 -1.375 -16 -1.375 -16 -0.25 -13.3 -0.25 -13.3 2 -16 2 Z"></path><path transform="translate(179, 14)" style="cursor: pointer;" stroke="#000099"  stroke-width="0.5" fill="url('#highcharts-113')" d="M -16 -7 L -10.600000000000001 -7 -10.600000000000001 -4.75 -16 -4.75 -16 -3.625 -7 -3.625 -7 -1.375 -16 -1.375 -16 -0.25 -13.3 -0.25 -13.3 2 -16 2 Z"></path></g></svg>