<svg xmlns:xlink="http://www.w3.org/1999/xlink" height="277" width="568" version="1.1" xmlns="http://www.w3.org/2000/svg"><defs><linearGradient y2="50%" x2="100%" y1="50%" x1="0%" gradientUnits="objectBoundingBox" id="highcharts-45"><stop stop-opacity="1" stop-color="#FF0000" offset="0%"></stop><stop stop-opacity="1" stop-color="#FF0000" offset="30%"></stop><stop stop-opacity="1" stop-color="#ff9999" offset="60%"></stop><stop stop-opacity="1" stop-color="#FF0000" offset="90%"></stop><stop stop-opacity="1" stop-color="#FF0000" offset="100%"></stop></linearGradient><linearGradient y2="50%" x2="100%" y1="50%" x1="0%" gradientUnits="objectBoundingBox" id="highcharts-46"><stop stop-opacity="1" stop-color="#00FF00" offset="0%"></stop><stop stop-opacity="1" stop-color="#00FF00" offset="30%"></stop><stop stop-opacity="1" stop-color="#99ff99" offset="60%"></stop><stop stop-opacity="1" stop-color="#00FF00" offset="90%"></stop><stop stop-opacity="1" stop-color="#00FF00" offset="100%"></stop></linearGradient><linearGradient y2="50%" x2="100%" y1="50%" x1="0%" gradientUnits="objectBoundingBox" id="highcharts-47"><stop stop-opacity="1" stop-color="#0000FF" offset="0%"></stop><stop stop-opacity="1" stop-color="#0000FF" offset="30%"></stop><stop stop-opacity="1" stop-color="#9999ff" offset="60%"></stop><stop stop-opacity="1" stop-color="#0000FF" offset="90%"></stop><stop stop-opacity="1" stop-color="#0000FF" offset="100%"></stop></linearGradient><clipPath id="highcharts-48"><rect stroke-width="0" height="275" width="566" y="1" x="1" fill="none" ry="0" rx="0"></rect></clipPath><clipPath id="highcharts-49"><rect stroke-width="0" height="568" width="277" y="-70" x="-15" fill="none" ry="0" rx="0"></rect></clipPath><linearGradient y2="100%" x2="50%" y1="0%" x1="50%" gradientUnits="objectBoundingBox" id="highcharts-50"><stop stop-opacity="1" stop-color="#FF0000" offset="0%"></stop><stop stop-opacity="1" stop-color="#FFFFFF" offset="100%"></stop></linearGradient><linearGradient y2="100%" x2="50%" y1="0%" x1="50%" gradientUnits="objectBoundingBox" id="highcharts-51"><stop stop-opacity="1" stop-color="#FF0000" offset="0%"></stop><stop stop-opacity="1" stop-color="#FFFFFF" offset="100%"></stop></linearGradient><linearGradient y2="100%" x2="50%" y1="0%" x1="50%" gradientUnits="objectBoundingBox" id="highcharts-52"><stop stop-opacity="1" stop-color="#FF0000" offset="0%"></stop><stop stop-opacity="1" stop-color="#FFFFFF" offset="100%"></stop></linearGradient><linearGradient y2="100%" x2="50%" y1="0%" x1="50%" gradientUnits="objectBoundingBox" id="highcharts-53"><stop stop-opacity="1" stop-color="#FF0000" offset="0%"></stop><stop stop-opacity="1" stop-color="#FFFFFF" offset="100%"></stop></linearGradient><linearGradient y2="100%" x2="50%" y1="0%" x1="50%" gradientUnits="objectBoundingBox" id="highcharts-54"><stop stop-opacity="1" stop-color="#FF0000" offset="0%"></stop><stop stop-opacity="1" stop-color="#FFFFFF" offset="100%"></stop></linearGradient><linearGradient y2="100%" x2="50%" y1="0%" x1="50%" gradientUnits="objectBoundingBox" id="highcharts-55"><stop stop-opacity="1" stop-color="#00FF00" offset="0%"></stop><stop stop-opacity="1" stop-color="#FFFFFF" offset="100%"></stop></linearGradient><linearGradient y2="100%" x2="50%" y1="0%" x1="50%" gradientUnits="objectBoundingBox" id="highcharts-56"><stop stop-opacity="1" stop-color="#00FF00" offset="0%"></stop><stop stop-opacity="1" stop-color="#FFFFFF" offset="100%"></stop></linearGradient><linearGradient y2="100%" x2="50%" y1="0%" x1="50%" gradientUnits="objectBoundingBox" id="highcharts-57"><stop stop-opacity="1" stop-color="#00FF00" offset="0%"></stop><stop stop-opacity="1" stop-color="#FFFFFF" offset="100%"></stop></linearGradient><linearGradient y2="100%" x2="50%" y1="0%" x1="50%" gradientUnits="objectBoundingBox" id="highcharts-58"><stop stop-opacity="1" stop-color="#00FF00" offset="0%"></stop><stop stop-opacity="1" stop-color="#FFFFFF" offset="100%"></stop></linearGradient><linearGradient y2="100%" x2="50%" y1="0%" x1="50%" gradientUnits="objectBoundingBox" id="highcharts-59"><stop stop-opacity="1" stop-color="#00FF00" offset="0%"></stop><stop stop-opacity="1" stop-color="#FFFFFF" offset="100%"></stop></linearGradient><linearGradient y2="100%" x2="50%" y1="0%" x1="50%" gradientUnits="objectBoundingBox" id="highcharts-60"><stop stop-opacity="1" stop-color="#0000FF" offset="0%"></stop><stop stop-opacity="1" stop-color="#FFFFFF" offset="100%"></stop></linearGradient><linearGradient y2="100%" x2="50%" y1="0%" x1="50%" gradientUnits="objectBoundingBox" id="highcharts-61"><stop stop-opacity="1" stop-color="#0000FF" offset="0%"></stop><stop stop-opacity="1" stop-color="#FFFFFF" offset="100%"></stop></linearGradient><linearGradient y2="100%" x2="50%" y1="0%" x1="50%" gradientUnits="objectBoundingBox" id="highcharts-62"><stop stop-opacity="1" stop-color="#0000FF" offset="0%"></stop><stop stop-opacity="1" stop-color="#FFFFFF" offset="100%"></stop></linearGradient><linearGradient y2="100%" x2="50%" y1="0%" x1="50%" gradientUnits="objectBoundingBox" id="highcharts-63"><stop stop-opacity="1" stop-color="#0000FF" offset="0%"></stop><stop stop-opacity="1" stop-color="#FFFFFF" offset="100%"></stop></linearGradient><linearGradient y2="100%" x2="50%" y1="0%" x1="50%" gradientUnits="objectBoundingBox" id="highcharts-64"><stop stop-opacity="1" stop-color="#0000FF" offset="0%"></stop><stop stop-opacity="1" stop-color="#FFFFFF" offset="100%"></stop></linearGradient></defs><rect fill-opacity="0" stroke="rgb(255,255,255)" stroke-opacity="0.5" stroke-width="1" height="276" width="567" y="0.5" x="0.5" fill="#FFFFFF" ry="0" rx="0"></rect><rect fill-opacity="1" stroke-width="0" height="203" width="478" y="15" x="70" fill="#FFFFFF" ry="0" rx="0"></rect><path fill-opacity="0" fill="rgb(0,0,0)" d="M 70 37 L 548.0020661157025 37 548.0020661157025 136 70 136"></path><path stroke-width="0.1" stroke="rgb(0,0,0)" stroke-opacity="0" fill="none" d="M 70 37.05 L 548.0020661157025 37.05"></path><text visibility="" text-anchor="end" style="font-family: verdana; font-size: 10px; line-height: 12px; color: rgb(85, 85, 85); fill: rgb(85, 85, 85);" y="41" x="66"><tspan x="66">Australia</tspan></text><path stroke-width="0.1" stroke="rgb(0,0,0)" stroke-opacity="0" fill="none" d="M 70 77.05 L 548.0020661157025 77.05"></path><text visibility="" text-anchor="end" style="font-family: verdana; font-size: 10px; line-height: 12px; color: rgb(85, 85, 85); fill: rgb(85, 85, 85);" y="81" x="66"><tspan x="66">Austria</tspan></text><path stroke-width="0.1" stroke="rgb(0,0,0)" stroke-opacity="0" fill="none" d="M 70 117.05 L 548.0020661157025 117.05"></path><text visibility="" text-anchor="end" style="font-family: verdana; font-size: 10px; line-height: 12px; color: rgb(85, 85, 85); fill: rgb(85, 85, 85);" y="121" x="66"><tspan x="66">Belgium</tspan></text><path stroke-width="0.1" stroke="rgb(0,0,0)" stroke-opacity="0" fill="none" d="M 70 156.05 L 548.0020661157025 156.05"></path><text visibility="" text-anchor="end" style="font-family: verdana; font-size: 10px; line-height: 12px; color: rgb(85, 85, 85); fill: rgb(85, 85, 85);" y="160" x="66"><tspan x="66">Canada</tspan></text><path stroke-width="0.1" stroke="rgb(0,0,0)" stroke-opacity="0" fill="none" d="M 70 196.05 L 548.0020661157025 196.05"></path><text visibility="" text-anchor="end" style="font-family: verdana; font-size: 10px; line-height: 12px; color: rgb(85, 85, 85); fill: rgb(85, 85, 85);" y="200" x="66"><tspan x="66">Denmark</tspan></text><path fill-opacity="0" fill="rgb(0,0,0)" d="M 70 15 L 70 218 166 218 166 15"></path><path fill-opacity="0" fill="rgb(0,0,0)" d="M 261 15 L 261 218 357 218 357 15"></path><path fill-opacity="0" fill="rgb(0,0,0)" d="M 452 15 L 452 218 548 218 548 15"></path><g  class="highcharts-grid"></g><g  class="highcharts-grid"></g><g  class="highcharts-grid"></g><path  stroke-width="0.1" stroke="rgb(0,0,0)" stroke-opacity="0" fill="none" d="M 70.05 15 L 70.05 218"></path><text visibility=""  text-anchor="middle" style="font-family: verdana; font-size: 10px; line-height: 12px; color: rgb(85, 85, 85); fill: rgb(85, 85, 85);" y="232" x="70"><tspan x="70">0</tspan></text><path  fill-opacity="0.1" fill="rgb(118,117,117)" d="M 166 15 L 166 218 261 218 261 15"></path><path  fill-opacity="0.1" fill="rgb(118,117,117)" d="M 357 15 L 357 218 452 218 452 15"></path><rect  stroke-linejoin="round" stroke="rgb(84,84,84)" stroke-opacity="1" stroke-width="2" height="205" width="480" y="14" x="69" fill="none" ry="0" rx="0"></rect><path  stroke-width="1" stroke="rgb(113,113,112)" stroke-opacity="0.4" fill="none" d="M 166.5 15 L 166.5 218"></path><text visibility=""  text-anchor="middle" style="font-family: verdana; font-size: 10px; line-height: 12px; color: rgb(85, 85, 85); fill: rgb(85, 85, 85);" y="232" x="167"><tspan x="167">1400</tspan></text><path  stroke-width="1" stroke="rgb(113,113,112)" stroke-opacity="0.4" fill="none" d="M 261.5 15 L 261.5 218"></path><text visibility=""  text-anchor="middle" style="font-family: verdana; font-size: 10px; line-height: 12px; color: rgb(85, 85, 85); fill: rgb(85, 85, 85);" y="232" x="262"><tspan x="262">2800</tspan></text><path  stroke-width="1" stroke="rgb(113,113,112)" stroke-opacity="0.4" fill="none" d="M 357.5 15 L 357.5 218"></path><text visibility=""  text-anchor="middle" style="font-family: verdana; font-size: 10px; line-height: 12px; color: rgb(85, 85, 85); fill: rgb(85, 85, 85);" y="232" x="358"><tspan x="358">4200</tspan></text><path  stroke-width="1" stroke="rgb(113,113,112)" stroke-opacity="0.4" fill="none" d="M 452.5 15 L 452.5 218"></path><text visibility=""  text-anchor="middle" style="font-family: verdana; font-size: 10px; line-height: 12px; color: rgb(85, 85, 85); fill: rgb(85, 85, 85);" y="232" x="453"><tspan x="453">5600</tspan></text><path  stroke-width="0.1" stroke="rgb(0,0,0)" stroke-opacity="0" fill="none" d="M 548.05 15 L 548.05 218"></path><text visibility=""  text-anchor="middle" style="font-family: verdana; font-size: 10px; line-height: 12px; color: rgb(85, 85, 85); fill: rgb(85, 85, 85);" y="232" x="548"><tspan x="548">7000</tspan></text><g  class="highcharts-series-group"><g visibility="" clip-path="url('#highcharts-49')" transform="translate(548, 218) rotate(90) scale(-1, 1)" height="203" width="478" class="highcharts-series"><rect r="0" stroke="#333333" stroke-opacity="1" stroke-width="1" height="102" width="31" y="375.5" x="165.5" fill="url('#highcharts-50')" ry="0" rx="0"></rect><rect r="0" stroke="#333333" stroke-opacity="1" stroke-width="1" height="41" width="31" y="436.5" x="125.5" fill="url('#highcharts-51')" ry="0" rx="0"></rect><rect r="0" stroke="#333333" stroke-opacity="1" stroke-width="1" height="15" width="31" y="462.5" x="86.5" fill="url('#highcharts-52')" ry="0" rx="0"></rect><rect r="0" stroke="#333333" stroke-opacity="1" stroke-width="1" height="19" width="31" y="458.5" x="46.5" fill="url('#highcharts-53')" ry="0" rx="0"></rect><rect r="0" stroke="#333333" stroke-opacity="1" stroke-width="1" height="11" width="31" y="466.5" x="6.5" fill="url('#highcharts-54')" ry="0" rx="0"></rect></g><g visibility="" clip-path="url('#highcharts-49')" transform="translate(548, 218) rotate(90) scale(-1, 1)" height="203" width="478" class="highcharts-series"><rect r="0" stroke="#333333" stroke-opacity="1" stroke-width="1" height="152" width="31" y="223.5" x="165.5" fill="url('#highcharts-55')" ry="0" rx="0"></rect><rect r="0" stroke="#333333" stroke-opacity="1" stroke-width="1" height="34" width="31" y="402.5" x="125.5" fill="url('#highcharts-56')" ry="0" rx="0"></rect><rect r="0" stroke="#333333" stroke-opacity="1" stroke-width="1" height="55" width="31" y="407.5" x="86.5" fill="url('#highcharts-57')" ry="0" rx="0"></rect><rect r="0" stroke="#333333" stroke-opacity="1" stroke-width="1" height="103" width="31" y="355.5" x="46.5" fill="url('#highcharts-58')" ry="0" rx="0"></rect><rect r="0" stroke="#333333" stroke-opacity="1" stroke-width="1" height="77" width="31" y="389.5" x="6.5" fill="url('#highcharts-59')" ry="0" rx="0"></rect></g><g visibility="" clip-path="url('#highcharts-49')" transform="translate(548, 218) rotate(90) scale(-1, 1)" height="203" width="478" class="highcharts-series"><rect r="0" stroke="#333333" stroke-opacity="1" stroke-width="1" height="172" width="31" y="51.5" x="165.5" fill="url('#highcharts-60')" ry="0" rx="0"></rect><rect r="0" stroke="#333333" stroke-opacity="1" stroke-width="1" height="59" width="31" y="343.5" x="125.5" fill="url('#highcharts-61')" ry="0" rx="0"></rect><rect r="0" stroke="#333333" stroke-opacity="1" stroke-width="1" height="3" width="31" y="404.5" x="86.5" fill="url('#highcharts-62')" ry="0" rx="0"></rect><rect r="0" stroke="#333333" stroke-opacity="1" stroke-width="1" height="34" width="31" y="321.5" x="46.5" fill="url('#highcharts-63')" ry="0" rx="0"></rect><rect r="0" stroke="#333333" stroke-opacity="1" stroke-width="1" height="62" width="31" y="327.5" x="6.5" fill="url('#highcharts-64')" ry="0" rx="0"></rect></g></g><g transform="translate(70, 15)"  visibility="" class="highcharts-data-labels"><text  text-anchor="middle" style="font-family: verdana; font-size: 10px; color: rgb(85, 85, 85); line-height: 12px; text-decoration: none; font-weight: normal; font-style: normal; fill: rgb(85, 85, 85);" y="27" x="56"><tspan x="56">1500</tspan></text><text  text-anchor="middle" style="font-family: verdana; font-size: 10px; color: rgb(85, 85, 85); line-height: 12px; text-decoration: none; font-weight: normal; font-style: normal; fill: rgb(85, 85, 85);" y="67" x="26"><tspan x="26">611</tspan></text><text  text-anchor="middle" style="font-family: verdana; font-size: 10px; color: rgb(85, 85, 85); line-height: 12px; text-decoration: none; font-weight: normal; font-style: normal; fill: rgb(85, 85, 85);" y="106" x="13"><tspan x="13">228</tspan></text><text  text-anchor="middle" style="font-family: verdana; font-size: 10px; color: rgb(85, 85, 85); line-height: 12px; text-decoration: none; font-weight: normal; font-style: normal; fill: rgb(85, 85, 85);" y="146" x="15"><tspan x="15">285</tspan></text><text  text-anchor="middle" style="font-family: verdana; font-size: 10px; color: rgb(85, 85, 85); line-height: 12px; text-decoration: none; font-weight: normal; font-style: normal; fill: rgb(85, 85, 85);" y="186" x="11"><tspan x="11">174</tspan></text></g><g transform="translate(70, 15)"  visibility="" class="highcharts-data-labels"><text  text-anchor="middle" style="font-family: verdana; font-size: 10px; color: rgb(85, 85, 85); line-height: 12px; text-decoration: none; font-weight: normal; font-style: normal; fill: rgb(85, 85, 85);" y="27" x="183"><tspan x="183">2232</tspan></text><text  text-anchor="middle" style="font-family: verdana; font-size: 10px; color: rgb(85, 85, 85); line-height: 12px; text-decoration: none; font-weight: normal; font-style: normal; fill: rgb(85, 85, 85);" y="67" x="63"><tspan x="63">491</tspan></text><text  text-anchor="middle" style="font-family: verdana; font-size: 10px; color: rgb(85, 85, 85); line-height: 12px; text-decoration: none; font-weight: normal; font-style: normal; fill: rgb(85, 85, 85);" y="106" x="48"><tspan x="48">799</tspan></text><text  text-anchor="middle" style="font-family: verdana; font-size: 10px; color: rgb(85, 85, 85); line-height: 12px; text-decoration: none; font-weight: normal; font-style: normal; fill: rgb(85, 85, 85);" y="146" x="76"><tspan x="76">1508</tspan></text><text  text-anchor="middle" style="font-family: verdana; font-size: 10px; color: rgb(85, 85, 85); line-height: 12px; text-decoration: none; font-weight: normal; font-style: normal; fill: rgb(85, 85, 85);" y="186" x="55"><tspan x="55">1120</tspan></text></g><g transform="translate(70, 15)"  visibility="" class="highcharts-data-labels"><text  text-anchor="middle" style="font-family: verdana; font-size: 10px; color: rgb(85, 85, 85); line-height: 12px; text-decoration: none; font-weight: normal; font-style: normal; fill: rgb(85, 85, 85);" y="27" x="345"><tspan x="345">2514</tspan></text><text  text-anchor="middle" style="font-family: verdana; font-size: 10px; color: rgb(85, 85, 85); line-height: 12px; text-decoration: none; font-weight: normal; font-style: normal; fill: rgb(85, 85, 85);" y="67" x="110"><tspan x="110">872</tspan></text><text  text-anchor="middle" style="font-family: verdana; font-size: 10px; color: rgb(85, 85, 85); line-height: 12px; text-decoration: none; font-weight: normal; font-style: normal; fill: rgb(85, 85, 85);" y="106" x="77"><tspan x="77">47</tspan></text><text  text-anchor="middle" style="font-family: verdana; font-size: 10px; color: rgb(85, 85, 85); line-height: 12px; text-decoration: none; font-weight: normal; font-style: normal; fill: rgb(85, 85, 85);" y="146" x="144"><tspan x="144">500</tspan></text><text  text-anchor="middle" style="font-family: verdana; font-size: 10px; color: rgb(85, 85, 85); line-height: 12px; text-decoration: none; font-weight: normal; font-style: normal; fill: rgb(85, 85, 85);" y="186" x="124"><tspan x="124">903</tspan></text></g><g  class="highcharts-axis"></g><g  class="highcharts-axis"></g><g  class="highcharts-axis"></g><g visibility="hidden"  class="highcharts-tooltip"><rect fill-opacity="1" stroke-width="1" height="0" width="0" y="1.5" x="1.5" fill="rgb(255,255,255)" ry="1" rx="1"></rect><text  style="font-family: verdana; font-size: 10px; color: rgb(85, 85, 85); padding: 0pt; white-space: nowrap; line-height: 12px; fill: rgb(85, 85, 85);" y="11" x="1"><tspan x="1"> </tspan></text></g><text  text-anchor="end" style="font-family: 'lucida grande','lucida sans unicode',verdana,arial,helvetica,sans-serif; font-size: 10px; cursor: pointer; color: rgb(144, 144, 144); fill: rgb(144, 144, 144);" y="272" x="558"><tspan x="558">FusionCharts</tspan></text><g height="203" width="478" transform="translate(548, 218) rotate(90) scale(-1, 1)"  class="highcharts-tracker"><rect style=""  visibility="" fill-opacity="0.000001"  stroke-width="0" height="103" width="32" y="375" x="165" fill="rgb(192,192,192)" ry="0" rx="0"></rect><rect style=""  visibility="" fill-opacity="0.000001"  stroke-width="0" height="42" width="32" y="436" x="125" fill="rgb(192,192,192)" ry="0" rx="0"></rect><rect style=""  visibility="" fill-opacity="0.000001"  stroke-width="0" height="16" width="32" y="462" x="86" fill="rgb(192,192,192)" ry="0" rx="0"></rect><rect style=""  visibility="" fill-opacity="0.000001"  stroke-width="0" height="20" width="32" y="458" x="46" fill="rgb(192,192,192)" ry="0" rx="0"></rect><rect style=""  visibility="" fill-opacity="0.000001"  stroke-width="0" height="12" width="32" y="466" x="6" fill="rgb(192,192,192)" ry="0" rx="0"></rect><rect style=""  visibility="" fill-opacity="0.000001"  stroke-width="0" height="153" width="32" y="223" x="165" fill="rgb(192,192,192)" ry="0" rx="0"></rect><rect style=""  visibility="" fill-opacity="0.000001"  stroke-width="0" height="35" width="32" y="402" x="125" fill="rgb(192,192,192)" ry="0" rx="0"></rect><rect style=""  visibility="" fill-opacity="0.000001"  stroke-width="0" height="56" width="32" y="407" x="86" fill="rgb(192,192,192)" ry="0" rx="0"></rect><rect style=""  visibility="" fill-opacity="0.000001"  stroke-width="0" height="104" width="32" y="355" x="46" fill="rgb(192,192,192)" ry="0" rx="0"></rect><rect style=""  visibility="" fill-opacity="0.000001"  stroke-width="0" height="78" width="32" y="389" x="6" fill="rgb(192,192,192)" ry="0" rx="0"></rect><rect style=""  visibility="" fill-opacity="0.000001"  stroke-width="0" height="173" width="32" y="51" x="165" fill="rgb(192,192,192)" ry="0" rx="0"></rect><rect style=""  visibility="" fill-opacity="0.000001"  stroke-width="0" height="60" width="32" y="343" x="125" fill="rgb(192,192,192)" ry="0" rx="0"></rect><rect style=""  visibility="" fill-opacity="0.000001"  stroke-width="0" height="4" width="32" y="404" x="86" fill="rgb(192,192,192)" ry="0" rx="0"></rect><rect style=""  visibility="" fill-opacity="0.000001"  stroke-width="0" height="35" width="32" y="321" x="46" fill="rgb(192,192,192)" ry="0" rx="0"></rect><rect style=""  visibility="" fill-opacity="0.000001"  stroke-width="0" height="63" width="32" y="327" x="6" fill="rgb(192,192,192)" ry="0" rx="0"></rect></g><g transform="translate(191, 239)"  class="highcharts-legend"><rect visibility="" transform="translate(1, 1)"  fill-opacity="1" stroke="rgb(0,0,0)" stroke-opacity="0.06" stroke-width="5" height="22" width="241" y="0.5" x="0.5" fill="none" ry="0" rx="0"></rect><rect visibility="" transform="translate(1, 1)"  fill-opacity="1" stroke="rgb(0,0,0)" stroke-opacity="0.12" stroke-width="3" height="22" width="241" y="0.5" x="0.5" fill="none" ry="0" rx="0"></rect><rect visibility="" transform="translate(1, 1)"  fill-opacity="1" stroke="rgb(0,0,0)" stroke-opacity="0.18" stroke-width="1" height="22" width="241" y="0.5" x="0.5" fill="none" ry="0" rx="0"></rect><rect visibility="" fill-opacity="1" stroke="rgb(84,84,84)" stroke-opacity="1" stroke-width="1" height="22" width="241" y="0.5" x="0.5" fill="rgb(255,255,255)" ry="0" rx="0"></rect><text transform="translate(23, 16)"  style="font-family: verdana; font-size: 10px; cursor: pointer; color: rgb(85, 85, 85); line-height: 12px; fill: rgb(85, 85, 85);" y="0" x="0"><tspan x="0">Sum 2010</tspan></text><text transform="translate(101, 16)"  style="font-family: verdana; font-size: 10px; cursor: pointer; color: rgb(85, 85, 85); line-height: 12px; fill: rgb(85, 85, 85);" y="0" x="0"><tspan x="0">Sum 2009</tspan></text><text transform="translate(179, 16)"  style="font-family: verdana; font-size: 10px; cursor: pointer; color: rgb(85, 85, 85); line-height: 12px; fill: rgb(85, 85, 85);" y="0" x="0"><tspan x="0">Sum 2008</tspan></text><path transform="translate(23, 14)" style="cursor: pointer;" stroke="#990000"  stroke-width="0.5" fill="url('#highcharts-45')" d="M -16 -7 L -10.600000000000001 -7 -10.600000000000001 -4.75 -16 -4.75 -16 -3.625 -7 -3.625 -7 -1.375 -16 -1.375 -16 -0.25 -13.3 -0.25 -13.3 2 -16 2 Z"></path><path transform="translate(101, 14)" style="cursor: pointer;" stroke="#009900"  stroke-width="0.5" fill="url('#highcharts-46')" d="M -16 -7 L -10.600000000000001 -7 -10.600000000000001 -4.75 -16 -4.75 -16 -3.625 -7 -3.625 -7 -1.375 -16 -1.375 -16 -0.25 -13.3 -0.25 -13.3 2 -16 2 Z"></path><path transform="translate(179, 14)" style="cursor: pointer;" stroke="#000099"  stroke-width="0.5" fill="url('#highcharts-47')" d="M -16 -7 L -10.600000000000001 -7 -10.600000000000001 -4.75 -16 -4.75 -16 -3.625 -7 -3.625 -7 -1.375 -16 -1.375 -16 -0.25 -13.3 -0.25 -13.3 2 -16 2 Z"></path></g></svg>