<svg xmlns:xlink="http://www.w3.org/1999/xlink" height="277" width="568" version="1.1" xmlns="http://www.w3.org/2000/svg"><defs><linearGradient y2="0%" x2="50%" y1="100%" x1="50%" gradientUnits="objectBoundingBox" id="highcharts-111"><stop stop-opacity="1" stop-color="#FF0000" offset="0%"></stop><stop stop-opacity="1" stop-color="#FF0000" offset="30%"></stop><stop stop-opacity="1" stop-color="#ff9999" offset="60%"></stop><stop stop-opacity="1" stop-color="#FF0000" offset="90%"></stop><stop stop-opacity="1" stop-color="#FF0000" offset="100%"></stop></linearGradient><linearGradient y2="0%" x2="50%" y1="100%" x1="50%" gradientUnits="objectBoundingBox" id="highcharts-112"><stop stop-opacity="1" stop-color="#00FF00" offset="0%"></stop><stop stop-opacity="1" stop-color="#00FF00" offset="30%"></stop><stop stop-opacity="1" stop-color="#99ff99" offset="60%"></stop><stop stop-opacity="1" stop-color="#00FF00" offset="90%"></stop><stop stop-opacity="1" stop-color="#00FF00" offset="100%"></stop></linearGradient><linearGradient y2="0%" x2="50%" y1="100%" x1="50%" gradientUnits="objectBoundingBox" id="highcharts-113"><stop stop-opacity="1" stop-color="#0000FF" offset="0%"></stop><stop stop-opacity="1" stop-color="#0000FF" offset="30%"></stop><stop stop-opacity="1" stop-color="#9999ff" offset="60%"></stop><stop stop-opacity="1" stop-color="#0000FF" offset="90%"></stop><stop stop-opacity="1" stop-color="#0000FF" offset="100%"></stop></linearGradient><clipPath id="highcharts-114"><rect stroke-width="0" height="275" width="566" y="1" x="1" fill="none" ry="0" rx="0"></rect></clipPath><linearGradient y2="73%" x2="100%" y1="27%" x1="0%" gradientUnits="objectBoundingBox" id="highcharts-115"><stop stop-opacity="1" stop-color="#bbc0b5" offset="0%"></stop><stop stop-opacity="1" stop-color="#ecf0e8" offset="100%"></stop></linearGradient><linearGradient y2="49%" x2="100%" y1="51%" x1="0%" gradientUnits="objectBoundingBox" id="highcharts-116"><stop stop-opacity="1" stop-color="#929e82" offset="0%"></stop><stop stop-opacity="1" stop-color="#e2e7db" offset="100%"></stop></linearGradient><linearGradient y2="0%" x2="25%" y1="100%" x1="75%" gradientUnits="objectBoundingBox" id="highcharts-117"><stop stop-opacity="1" stop-color="#3c4135" offset="0%"></stop><stop stop-opacity="1" stop-color="#818c72" offset="100%"></stop></linearGradient><linearGradient y2="0%" x2="50%" y1="100%" x1="50%" gradientUnits="objectBoundingBox" id="highcharts-118"><stop stop-opacity="1" stop-color="#6f7963" offset="0%"></stop><stop stop-opacity="1" stop-color="#d1dac7" offset="100%"></stop></linearGradient><linearGradient y2="42%" x2="100%" y1="58%" x1="0%" gradientUnits="objectBoundingBox" id="highcharts-119"><stop stop-opacity="1" stop-color="#d80000" offset="0%"></stop><stop stop-opacity="1" stop-color="#ffa6a6" offset="100%"></stop></linearGradient><linearGradient y2="0%" x2="40%" y1="100%" x1="60%" gradientUnits="objectBoundingBox" id="highcharts-120"><stop stop-opacity="1" stop-color="#590000" offset="0%"></stop><stop stop-opacity="1" stop-color="#bf0000" offset="100%"></stop></linearGradient><linearGradient y2="0%" x2="50%" y1="100%" x1="50%" gradientUnits="objectBoundingBox" id="highcharts-121"><stop stop-opacity="1" stop-color="#a50000" offset="0%"></stop><stop stop-opacity="1" stop-color="#ff7373" offset="100%"></stop></linearGradient><linearGradient y2="42%" x2="100%" y1="58%" x1="0%" gradientUnits="objectBoundingBox" id="highcharts-122"><stop stop-opacity="1" stop-color="#00d800" offset="0%"></stop><stop stop-opacity="1" stop-color="#a6ffa6" offset="100%"></stop></linearGradient><linearGradient y2="0%" x2="43%" y1="100%" x1="57%" gradientUnits="objectBoundingBox" id="highcharts-123"><stop stop-opacity="1" stop-color="#005900" offset="0%"></stop><stop stop-opacity="1" stop-color="#00bf00" offset="100%"></stop></linearGradient><linearGradient y2="0%" x2="50%" y1="100%" x1="50%" gradientUnits="objectBoundingBox" id="highcharts-124"><stop stop-opacity="1" stop-color="#00a500" offset="0%"></stop><stop stop-opacity="1" stop-color="#73ff73" offset="100%"></stop></linearGradient><linearGradient y2="42%" x2="100%" y1="58%" x1="0%" gradientUnits="objectBoundingBox" id="highcharts-125"><stop stop-opacity="1" stop-color="#0000d8" offset="0%"></stop><stop stop-opacity="1" stop-color="#a6a6ff" offset="100%"></stop></linearGradient><linearGradient y2="0%" x2="44%" y1="100%" x1="56%" gradientUnits="objectBoundingBox" id="highcharts-126"><stop stop-opacity="1" stop-color="#000059" offset="0%"></stop><stop stop-opacity="1" stop-color="#0000bf" offset="100%"></stop></linearGradient><linearGradient y2="0%" x2="50%" y1="100%" x1="50%" gradientUnits="objectBoundingBox" id="highcharts-127"><stop stop-opacity="1" stop-color="#0000a5" offset="0%"></stop><stop stop-opacity="1" stop-color="#7373ff" offset="100%"></stop></linearGradient><linearGradient y2="42%" x2="100%" y1="58%" x1="0%" gradientUnits="objectBoundingBox" id="highcharts-128"><stop stop-opacity="1" stop-color="#d80000" offset="0%"></stop><stop stop-opacity="1" stop-color="#ffa6a6" offset="100%"></stop></linearGradient><linearGradient y2="0%" x2="31%" y1="100%" x1="69%" gradientUnits="objectBoundingBox" id="highcharts-129"><stop stop-opacity="1" stop-color="#590000" offset="0%"></stop><stop stop-opacity="1" stop-color="#bf0000" offset="100%"></stop></linearGradient><linearGradient y2="0%" x2="50%" y1="100%" x1="50%" gradientUnits="objectBoundingBox" id="highcharts-130"><stop stop-opacity="1" stop-color="#a50000" offset="0%"></stop><stop stop-opacity="1" stop-color="#ff7373" offset="100%"></stop></linearGradient><linearGradient y2="42%" x2="100%" y1="58%" x1="0%" gradientUnits="objectBoundingBox" id="highcharts-131"><stop stop-opacity="1" stop-color="#00d800" offset="0%"></stop><stop stop-opacity="1" stop-color="#a6ffa6" offset="100%"></stop></linearGradient><linearGradient y2="0%" x2="29%" y1="100%" x1="71%" gradientUnits="objectBoundingBox" id="highcharts-132"><stop stop-opacity="1" stop-color="#005900" offset="0%"></stop><stop stop-opacity="1" stop-color="#00bf00" offset="100%"></stop></linearGradient><linearGradient y2="0%" x2="50%" y1="100%" x1="50%" gradientUnits="objectBoundingBox" id="highcharts-133"><stop stop-opacity="1" stop-color="#00a500" offset="0%"></stop><stop stop-opacity="1" stop-color="#73ff73" offset="100%"></stop></linearGradient><linearGradient y2="42%" x2="100%" y1="58%" x1="0%" gradientUnits="objectBoundingBox" id="highcharts-134"><stop stop-opacity="1" stop-color="#0000d8" offset="0%"></stop><stop stop-opacity="1" stop-color="#a6a6ff" offset="100%"></stop></linearGradient><linearGradient y2="0%" x2="35%" y1="100%" x1="65%" gradientUnits="objectBoundingBox" id="highcharts-135"><stop stop-opacity="1" stop-color="#000059" offset="0%"></stop><stop stop-opacity="1" stop-color="#0000bf" offset="100%"></stop></linearGradient><linearGradient y2="0%" x2="50%" y1="100%" x1="50%" gradientUnits="objectBoundingBox" id="highcharts-136"><stop stop-opacity="1" stop-color="#0000a5" offset="0%"></stop><stop stop-opacity="1" stop-color="#7373ff" offset="100%"></stop></linearGradient><linearGradient y2="42%" x2="100%" y1="58%" x1="0%" gradientUnits="objectBoundingBox" id="highcharts-137"><stop stop-opacity="1" stop-color="#d80000" offset="0%"></stop><stop stop-opacity="1" stop-color="#ffa6a6" offset="100%"></stop></linearGradient><linearGradient y2="0%" x2="19%" y1="100%" x1="81%" gradientUnits="objectBoundingBox" id="highcharts-138"><stop stop-opacity="1" stop-color="#590000" offset="0%"></stop><stop stop-opacity="1" stop-color="#bf0000" offset="100%"></stop></linearGradient><linearGradient y2="0%" x2="50%" y1="100%" x1="50%" gradientUnits="objectBoundingBox" id="highcharts-139"><stop stop-opacity="1" stop-color="#a50000" offset="0%"></stop><stop stop-opacity="1" stop-color="#ff7373" offset="100%"></stop></linearGradient><linearGradient y2="42%" x2="100%" y1="58%" x1="0%" gradientUnits="objectBoundingBox" id="highcharts-140"><stop stop-opacity="1" stop-color="#00d800" offset="0%"></stop><stop stop-opacity="1" stop-color="#a6ffa6" offset="100%"></stop></linearGradient><linearGradient y2="0%" x2="34%" y1="100%" x1="66%" gradientUnits="objectBoundingBox" id="highcharts-141"><stop stop-opacity="1" stop-color="#005900" offset="0%"></stop><stop stop-opacity="1" stop-color="#00bf00" offset="100%"></stop></linearGradient><linearGradient y2="0%" x2="50%" y1="100%" x1="50%" gradientUnits="objectBoundingBox" id="highcharts-142"><stop stop-opacity="1" stop-color="#00a500" offset="0%"></stop><stop stop-opacity="1" stop-color="#73ff73" offset="100%"></stop></linearGradient><linearGradient y2="42%" x2="100%" y1="58%" x1="0%" gradientUnits="objectBoundingBox" id="highcharts-143"><stop stop-opacity="1" stop-color="#0000d8" offset="0%"></stop><stop stop-opacity="1" stop-color="#a6a6ff" offset="100%"></stop></linearGradient><linearGradient y2="0%" x2="12%" y1="100%" x1="88%" gradientUnits="objectBoundingBox" id="highcharts-144"><stop stop-opacity="1" stop-color="#000059" offset="0%"></stop><stop stop-opacity="1" stop-color="#0000bf" offset="100%"></stop></linearGradient><linearGradient y2="0%" x2="50%" y1="100%" x1="50%" gradientUnits="objectBoundingBox" id="highcharts-145"><stop stop-opacity="1" stop-color="#0000a5" offset="0%"></stop><stop stop-opacity="1" stop-color="#7373ff" offset="100%"></stop></linearGradient><linearGradient y2="42%" x2="100%" y1="58%" x1="0%" gradientUnits="objectBoundingBox" id="highcharts-146"><stop stop-opacity="1" stop-color="#d80000" offset="0%"></stop><stop stop-opacity="1" stop-color="#ffa6a6" offset="100%"></stop></linearGradient><linearGradient y2="0%" x2="22%" y1="100%" x1="78%" gradientUnits="objectBoundingBox" id="highcharts-147"><stop stop-opacity="1" stop-color="#590000" offset="0%"></stop><stop stop-opacity="1" stop-color="#bf0000" offset="100%"></stop></linearGradient><linearGradient y2="0%" x2="50%" y1="100%" x1="50%" gradientUnits="objectBoundingBox" id="highcharts-148"><stop stop-opacity="1" stop-color="#a50000" offset="0%"></stop><stop stop-opacity="1" stop-color="#ff7373" offset="100%"></stop></linearGradient><linearGradient y2="42%" x2="100%" y1="58%" x1="0%" gradientUnits="objectBoundingBox" id="highcharts-149"><stop stop-opacity="1" stop-color="#00d800" offset="0%"></stop><stop stop-opacity="1" stop-color="#a6ffa6" offset="100%"></stop></linearGradient><linearGradient y2="0%" x2="40%" y1="100%" x1="60%" gradientUnits="objectBoundingBox" id="highcharts-150"><stop stop-opacity="1" stop-color="#005900" offset="0%"></stop><stop stop-opacity="1" stop-color="#00bf00" offset="100%"></stop></linearGradient><linearGradient y2="0%" x2="50%" y1="100%" x1="50%" gradientUnits="objectBoundingBox" id="highcharts-151"><stop stop-opacity="1" stop-color="#00a500" offset="0%"></stop><stop stop-opacity="1" stop-color="#73ff73" offset="100%"></stop></linearGradient><linearGradient y2="42%" x2="100%" y1="58%" x1="0%" gradientUnits="objectBoundingBox" id="highcharts-152"><stop stop-opacity="1" stop-color="#0000d8" offset="0%"></stop><stop stop-opacity="1" stop-color="#a6a6ff" offset="100%"></stop></linearGradient><linearGradient y2="0%" x2="29%" y1="100%" x1="71%" gradientUnits="objectBoundingBox" id="highcharts-153"><stop stop-opacity="1" stop-color="#000059" offset="0%"></stop><stop stop-opacity="1" stop-color="#0000bf" offset="100%"></stop></linearGradient><linearGradient y2="0%" x2="50%" y1="100%" x1="50%" gradientUnits="objectBoundingBox" id="highcharts-154"><stop stop-opacity="1" stop-color="#0000a5" offset="0%"></stop><stop stop-opacity="1" stop-color="#7373ff" offset="100%"></stop></linearGradient><linearGradient y2="42%" x2="100%" y1="58%" x1="0%" gradientUnits="objectBoundingBox" id="highcharts-155"><stop stop-opacity="1" stop-color="#d80000" offset="0%"></stop><stop stop-opacity="1" stop-color="#ffa6a6" offset="100%"></stop></linearGradient><linearGradient y2="0%" x2="17%" y1="100%" x1="83%" gradientUnits="objectBoundingBox" id="highcharts-156"><stop stop-opacity="1" stop-color="#590000" offset="0%"></stop><stop stop-opacity="1" stop-color="#bf0000" offset="100%"></stop></linearGradient><linearGradient y2="0%" x2="50%" y1="100%" x1="50%" gradientUnits="objectBoundingBox" id="highcharts-157"><stop stop-opacity="1" stop-color="#a50000" offset="0%"></stop><stop stop-opacity="1" stop-color="#ff7373" offset="100%"></stop></linearGradient><linearGradient y2="42%" x2="100%" y1="58%" x1="0%" gradientUnits="objectBoundingBox" id="highcharts-158"><stop stop-opacity="1" stop-color="#00d800" offset="0%"></stop><stop stop-opacity="1" stop-color="#a6ffa6" offset="100%"></stop></linearGradient><linearGradient y2="0%" x2="37%" y1="100%" x1="63%" gradientUnits="objectBoundingBox" id="highcharts-159"><stop stop-opacity="1" stop-color="#005900" offset="0%"></stop><stop stop-opacity="1" stop-color="#00bf00" offset="100%"></stop></linearGradient><linearGradient y2="0%" x2="50%" y1="100%" x1="50%" gradientUnits="objectBoundingBox" id="highcharts-160"><stop stop-opacity="1" stop-color="#00a500" offset="0%"></stop><stop stop-opacity="1" stop-color="#73ff73" offset="100%"></stop></linearGradient><linearGradient y2="42%" x2="100%" y1="58%" x1="0%" gradientUnits="objectBoundingBox" id="highcharts-161"><stop stop-opacity="1" stop-color="#0000d8" offset="0%"></stop><stop stop-opacity="1" stop-color="#a6a6ff" offset="100%"></stop></linearGradient><linearGradient y2="0%" x2="36%" y1="100%" x1="64%" gradientUnits="objectBoundingBox" id="highcharts-162"><stop stop-opacity="1" stop-color="#000059" offset="0%"></stop><stop stop-opacity="1" stop-color="#0000bf" offset="100%"></stop></linearGradient><linearGradient y2="0%" x2="50%" y1="100%" x1="50%" gradientUnits="objectBoundingBox" id="highcharts-163"><stop stop-opacity="1" stop-color="#0000a5" offset="0%"></stop><stop stop-opacity="1" stop-color="#7373ff" offset="100%"></stop></linearGradient></defs><rect fill-opacity="0" stroke="rgb(255,255,255)" stroke-opacity="1" stroke-width="1" height="276" width="567" y="0.5" x="0.5" fill="#FFFFFF" ry="0" rx="0"></rect><rect stroke-width="0" height="183" width="503" y="15" x="47" fill="url('#highcharts-115')" ry="0" rx="0"></rect><path fill-opacity="0" fill="rgb(0,0,0)" d="M 106 15 L 106 198 205 198 205 15"></path><path fill-opacity="0" fill="rgb(0,0,0)" d="M 304 15 L 304 198 402 198 402 15"></path><path fill-opacity="0" fill="rgb(0,0,0)" d="M 501 15 L 501 198 550 198 550 15"></path><path stroke-width="0.1" stroke="rgb(0,0,0)" stroke-opacity="0" fill="none" d="M 106.05 15 L 106.05 198"></path><text visibility="" text-anchor="middle" style="font-family: verdana; font-size: 10px; line-height: 12px; color: rgb(73, 86, 58); fill: rgb(73, 86, 58);" y="232" x="96"><tspan x="96">Australia</tspan></text><path stroke-width="0.1" stroke="rgb(0,0,0)" stroke-opacity="0" fill="none" d="M 205.05 15 L 205.05 198"></path><text visibility="" text-anchor="middle" style="font-family: verdana; font-size: 10px; line-height: 12px; color: rgb(73, 86, 58); fill: rgb(73, 86, 58);" y="232" x="195"><tspan x="195">Austria</tspan></text><path stroke-width="0.1" stroke="rgb(0,0,0)" stroke-opacity="0" fill="none" d="M 304.05 15 L 304.05 198"></path><text visibility="" text-anchor="middle" style="font-family: verdana; font-size: 10px; line-height: 12px; color: rgb(73, 86, 58); fill: rgb(73, 86, 58);" y="232" x="294"><tspan x="294">Belgium</tspan></text><path stroke-width="0.1" stroke="rgb(0,0,0)" stroke-opacity="0" fill="none" d="M 402.05 15 L 402.05 198"></path><text visibility="" text-anchor="middle" style="font-family: verdana; font-size: 10px; line-height: 12px; color: rgb(73, 86, 58); fill: rgb(73, 86, 58);" y="232" x="392"><tspan x="392">Canada</tspan></text><path stroke-width="0.1" stroke="rgb(0,0,0)" stroke-opacity="0" fill="none" d="M 501.05 15 L 501.05 198"></path><text visibility="" text-anchor="middle" style="font-family: verdana; font-size: 10px; line-height: 12px; color: rgb(73, 86, 58); fill: rgb(73, 86, 58);" y="232" x="491"><tspan x="491">Denmark</tspan></text><path fill-opacity="0" fill="rgb(0,0,0)" d="M 47 198 L 550 198 550 161 47 161"></path><path fill-opacity="0" fill="rgb(0,0,0)" d="M 47 125 L 550 125 550 88 47 88"></path><path fill-opacity="0" fill="rgb(0,0,0)" d="M 47 52 L 550 52 550 15 47 15"></path><g lighting3D="true" class="highcharts-canvasBase3D"><path fill="none" d="M 47 198 L 550 198 550 208"></path><rect stroke-width="0" height="10" width="503" y="208" x="37" fill="url('#highcharts-118')" ry="0" rx="0"></rect><path stroke-width="0" fill="url('#highcharts-116')" d="M 37 208 L 540 208 550 198 47 198 Z"></path><path stroke-width="0" fill="url('#highcharts-117')" d="M 540 208 L 550 198 550 208 540 218 Z"></path></g><path fill-opacity="1" fill="rgb(176,181,170)" d="M 550 15 L 553 18.6 553 195 550 198 Z"></path><g  class="highcharts-grid"></g><g  class="highcharts-grid"></g><g  class="highcharts-grid"></g><path  stroke-width="0.1" stroke="rgb(0,0,0)" stroke-opacity="0" fill="none" d="M 47 198.05 L 550 198.05"></path><text visibility=""  text-anchor="end" style="font-family: verdana; font-size: 10px; line-height: 12px; color: rgb(73, 86, 58); fill: rgb(73, 86, 58);" y="202" x="43"><tspan x="43">0</tspan></text><path  stroke-width="1" stroke="rgb(172,187,153)" stroke-opacity="1" fill="none" d="M 47 161.5 L 550 161.5"></path><text visibility=""  text-anchor="end" style="font-family: verdana; font-size: 10px; line-height: 12px; color: rgb(73, 86, 58); fill: rgb(73, 86, 58);" y="165" x="43"><tspan x="43">1400</tspan></text><path  stroke-width="1" stroke="rgb(172,187,153)" stroke-opacity="1" fill="none" d="M 47 125.5 L 550 125.5"></path><text visibility=""  text-anchor="end" style="font-family: verdana; font-size: 10px; line-height: 12px; color: rgb(73, 86, 58); fill: rgb(73, 86, 58);" y="129" x="43"><tspan x="43">2800</tspan></text><path  stroke-width="1" stroke="rgb(172,187,153)" stroke-opacity="1" fill="none" d="M 47 88.5 L 550 88.5"></path><text visibility=""  text-anchor="end" style="font-family: verdana; font-size: 10px; line-height: 12px; color: rgb(73, 86, 58); fill: rgb(73, 86, 58);" y="92" x="43"><tspan x="43">4200</tspan></text><path  stroke-width="1" stroke="rgb(172,187,153)" stroke-opacity="1" fill="none" d="M 47 52.5 L 550 52.5"></path><text visibility=""  text-anchor="end" style="font-family: verdana; font-size: 10px; line-height: 12px; color: rgb(73, 86, 58); fill: rgb(73, 86, 58);" y="56" x="43"><tspan x="43">5600</tspan></text><path  stroke-width="0.1" stroke="rgb(0,0,0)" stroke-opacity="0" fill="none" d="M 47 15.05 L 550 15.05"></path><text visibility=""  text-anchor="end" style="font-family: verdana; font-size: 10px; line-height: 12px; color: rgb(73, 86, 58); fill: rgb(73, 86, 58);" y="19" x="43"><tspan x="43">7000</tspan></text><g  class="highcharts-series-group"><g transform="translate(37, 25)" class="highcharts-series-3d"><g  class="highcharts-point"><path transform="translate(1, 1)" stroke-width="5" stroke-opacity="0.06" stroke="rgb(0,0,0)"  fill="none" d="M 44 133 L 94 133 94 173"></path><path transform="translate(1, 1)" stroke-width="3" stroke-opacity="0.12" stroke="rgb(0,0,0)"  fill="none" d="M 44 133 L 94 133 94 173"></path><path transform="translate(1, 1)" stroke-width="1" stroke-opacity="0.18" stroke="rgb(0,0,0)"  fill="none" d="M 44 133 L 94 133 94 173"></path><path fill="none" d="M 44 133 L 94 133 94 173"></path><rect stroke="#FFFFFF" stroke-opacity="0" stroke-width="1" height="40" width="50" y="143" x="34" fill="url('#highcharts-121')" ry="0" rx="0"></rect><path stroke="#FFFFFF" stroke-opacity="0" stroke-width="1" fill="url('#highcharts-119')" d="M 34 143 L 84 143 94 133 44 133 Z"></path><path stroke="#FFFFFF" stroke-opacity="0" stroke-width="1" fill="url('#highcharts-120')" d="M 84 143 L 94 133 94 173 84 183 Z"></path></g><g  class="highcharts-point"><path transform="translate(1, 1)" stroke-width="5" stroke-opacity="0.06" stroke="rgb(0,0,0)"  fill="none" d="M 44 75 L 94 75 94 134"></path><path transform="translate(1, 1)" stroke-width="3" stroke-opacity="0.12" stroke="rgb(0,0,0)"  fill="none" d="M 44 75 L 94 75 94 134"></path><path transform="translate(1, 1)" stroke-width="1" stroke-opacity="0.18" stroke="rgb(0,0,0)"  fill="none" d="M 44 75 L 94 75 94 134"></path><path fill="none" d="M 44 75 L 94 75 94 134"></path><rect stroke="#FFFFFF" stroke-opacity="0" stroke-width="1" height="59" width="50" y="85" x="34" fill="url('#highcharts-124')" ry="0" rx="0"></rect><path stroke="#FFFFFF" stroke-opacity="0" stroke-width="1" fill="url('#highcharts-122')" d="M 34 85 L 84 85 94 75 44 75 Z"></path><path stroke="#FFFFFF" stroke-opacity="0" stroke-width="1" fill="url('#highcharts-123')" d="M 84 85 L 94 75 94 134 84 144 Z"></path></g><g  class="highcharts-point"><path transform="translate(1, 1)" stroke-width="5" stroke-opacity="0.06" stroke="rgb(0,0,0)"  fill="none" d="M 44 9 L 94 9 94 76"></path><path transform="translate(1, 1)" stroke-width="3" stroke-opacity="0.12" stroke="rgb(0,0,0)"  fill="none" d="M 44 9 L 94 9 94 76"></path><path transform="translate(1, 1)" stroke-width="1" stroke-opacity="0.18" stroke="rgb(0,0,0)"  fill="none" d="M 44 9 L 94 9 94 76"></path><path fill="none" d="M 44 9 L 94 9 94 76"></path><rect stroke="#FFFFFF" stroke-opacity="0" stroke-width="1" height="67" width="50" y="19" x="34" fill="url('#highcharts-127')" ry="0" rx="0"></rect><path stroke="#FFFFFF" stroke-opacity="0" stroke-width="1" fill="url('#highcharts-125')" d="M 34 19 L 84 19 94 9 44 9 Z"></path><path stroke="#FFFFFF" stroke-opacity="0" stroke-width="1" fill="url('#highcharts-126')" d="M 84 19 L 94 9 94 76 84 86 Z"></path></g><g  class="highcharts-point"><path transform="translate(1, 1)" stroke-width="5" stroke-opacity="0.06" stroke="rgb(0,0,0)"  fill="none" d="M 143 157 L 193 157 193 173"></path><path transform="translate(1, 1)" stroke-width="3" stroke-opacity="0.12" stroke="rgb(0,0,0)"  fill="none" d="M 143 157 L 193 157 193 173"></path><path transform="translate(1, 1)" stroke-width="1" stroke-opacity="0.18" stroke="rgb(0,0,0)"  fill="none" d="M 143 157 L 193 157 193 173"></path><path fill="none" d="M 143 157 L 193 157 193 173"></path><rect stroke="#FFFFFF" stroke-opacity="0" stroke-width="1" height="16" width="50" y="167" x="133" fill="url('#highcharts-130')" ry="0" rx="0"></rect><path stroke="#FFFFFF" stroke-opacity="0" stroke-width="1" fill="url('#highcharts-128')" d="M 133 167 L 183 167 193 157 143 157 Z"></path><path stroke="#FFFFFF" stroke-opacity="0" stroke-width="1" fill="url('#highcharts-129')" d="M 183 167 L 193 157 193 173 183 183 Z"></path></g><g  class="highcharts-point"><path transform="translate(1, 1)" stroke-width="5" stroke-opacity="0.06" stroke="rgb(0,0,0)"  fill="none" d="M 143 144 L 193 144 193 158"></path><path transform="translate(1, 1)" stroke-width="3" stroke-opacity="0.12" stroke="rgb(0,0,0)"  fill="none" d="M 143 144 L 193 144 193 158"></path><path transform="translate(1, 1)" stroke-width="1" stroke-opacity="0.18" stroke="rgb(0,0,0)"  fill="none" d="M 143 144 L 193 144 193 158"></path><path fill="none" d="M 143 144 L 193 144 193 158"></path><rect stroke="#FFFFFF" stroke-opacity="0" stroke-width="1" height="14" width="50" y="154" x="133" fill="url('#highcharts-133')" ry="0" rx="0"></rect><path stroke="#FFFFFF" stroke-opacity="0" stroke-width="1" fill="url('#highcharts-131')" d="M 133 154 L 183 154 193 144 143 144 Z"></path><path stroke="#FFFFFF" stroke-opacity="0" stroke-width="1" fill="url('#highcharts-132')" d="M 183 154 L 193 144 193 158 183 168 Z"></path></g><g  class="highcharts-point"><path transform="translate(1, 1)" stroke-width="5" stroke-opacity="0.06" stroke="rgb(0,0,0)"  fill="none" d="M 143 121 L 193 121 193 145"></path><path transform="translate(1, 1)" stroke-width="3" stroke-opacity="0.12" stroke="rgb(0,0,0)"  fill="none" d="M 143 121 L 193 121 193 145"></path><path transform="translate(1, 1)" stroke-width="1" stroke-opacity="0.18" stroke="rgb(0,0,0)"  fill="none" d="M 143 121 L 193 121 193 145"></path><path fill="none" d="M 143 121 L 193 121 193 145"></path><rect stroke="#FFFFFF" stroke-opacity="0" stroke-width="1" height="24" width="50" y="131" x="133" fill="url('#highcharts-136')" ry="0" rx="0"></rect><path stroke="#FFFFFF" stroke-opacity="0" stroke-width="1" fill="url('#highcharts-134')" d="M 133 131 L 183 131 193 121 143 121 Z"></path><path stroke="#FFFFFF" stroke-opacity="0" stroke-width="1" fill="url('#highcharts-135')" d="M 183 131 L 193 121 193 145 183 155 Z"></path></g><g  class="highcharts-point"><path transform="translate(1, 1)" stroke-width="5" stroke-opacity="0.06" stroke="rgb(0,0,0)"  fill="none" d="M 242 167 L 292 167 292 173"></path><path transform="translate(1, 1)" stroke-width="3" stroke-opacity="0.12" stroke="rgb(0,0,0)"  fill="none" d="M 242 167 L 292 167 292 173"></path><path transform="translate(1, 1)" stroke-width="1" stroke-opacity="0.18" stroke="rgb(0,0,0)"  fill="none" d="M 242 167 L 292 167 292 173"></path><path fill="none" d="M 242 167 L 292 167 292 173"></path><rect stroke="#FFFFFF" stroke-opacity="0" stroke-width="1" height="6" width="50" y="177" x="232" fill="url('#highcharts-139')" ry="0" rx="0"></rect><path stroke="#FFFFFF" stroke-opacity="0" stroke-width="1" fill="url('#highcharts-137')" d="M 232 177 L 282 177 292 167 242 167 Z"></path><path stroke="#FFFFFF" stroke-opacity="0" stroke-width="1" fill="url('#highcharts-138')" d="M 282 177 L 292 167 292 173 282 183 Z"></path></g><g  class="highcharts-point"><path transform="translate(1, 1)" stroke-width="5" stroke-opacity="0.06" stroke="rgb(0,0,0)"  fill="none" d="M 242 146 L 292 146 292 168"></path><path transform="translate(1, 1)" stroke-width="3" stroke-opacity="0.12" stroke="rgb(0,0,0)"  fill="none" d="M 242 146 L 292 146 292 168"></path><path transform="translate(1, 1)" stroke-width="1" stroke-opacity="0.18" stroke="rgb(0,0,0)"  fill="none" d="M 242 146 L 292 146 292 168"></path><path fill="none" d="M 242 146 L 292 146 292 168"></path><rect stroke="#FFFFFF" stroke-opacity="0" stroke-width="1" height="22" width="50" y="156" x="232" fill="url('#highcharts-142')" ry="0" rx="0"></rect><path stroke="#FFFFFF" stroke-opacity="0" stroke-width="1" fill="url('#highcharts-140')" d="M 232 156 L 282 156 292 146 242 146 Z"></path><path stroke="#FFFFFF" stroke-opacity="0" stroke-width="1" fill="url('#highcharts-141')" d="M 282 156 L 292 146 292 168 282 178 Z"></path></g><g  class="highcharts-point"><path transform="translate(1, 1)" stroke-width="5" stroke-opacity="0.06" stroke="rgb(0,0,0)"  fill="none" d="M 242 144 L 292 144 292 147"></path><path transform="translate(1, 1)" stroke-width="3" stroke-opacity="0.12" stroke="rgb(0,0,0)"  fill="none" d="M 242 144 L 292 144 292 147"></path><path transform="translate(1, 1)" stroke-width="1" stroke-opacity="0.18" stroke="rgb(0,0,0)"  fill="none" d="M 242 144 L 292 144 292 147"></path><path fill="none" d="M 242 144 L 292 144 292 147"></path><rect stroke="#FFFFFF" stroke-opacity="0" stroke-width="1" height="3" width="50" y="154" x="232" fill="url('#highcharts-145')" ry="0" rx="0"></rect><path stroke="#FFFFFF" stroke-opacity="0" stroke-width="1" fill="url('#highcharts-143')" d="M 232 154 L 282 154 292 144 242 144 Z"></path><path stroke="#FFFFFF" stroke-opacity="0" stroke-width="1" fill="url('#highcharts-144')" d="M 282 154 L 292 144 292 147 282 157 Z"></path></g><g  class="highcharts-point"><path transform="translate(1, 1)" stroke-width="5" stroke-opacity="0.06" stroke="rgb(0,0,0)"  fill="none" d="M 340 165 L 390 165 390 173"></path><path transform="translate(1, 1)" stroke-width="3" stroke-opacity="0.12" stroke="rgb(0,0,0)"  fill="none" d="M 340 165 L 390 165 390 173"></path><path transform="translate(1, 1)" stroke-width="1" stroke-opacity="0.18" stroke="rgb(0,0,0)"  fill="none" d="M 340 165 L 390 165 390 173"></path><path fill="none" d="M 340 165 L 390 165 390 173"></path><rect stroke="#FFFFFF" stroke-opacity="0" stroke-width="1" height="8" width="50" y="175" x="330" fill="url('#highcharts-148')" ry="0" rx="0"></rect><path stroke="#FFFFFF" stroke-opacity="0" stroke-width="1" fill="url('#highcharts-146')" d="M 330 175 L 380 175 390 165 340 165 Z"></path><path stroke="#FFFFFF" stroke-opacity="0" stroke-width="1" fill="url('#highcharts-147')" d="M 380 175 L 390 165 390 173 380 183 Z"></path></g><g  class="highcharts-point"><path transform="translate(1, 1)" stroke-width="5" stroke-opacity="0.06" stroke="rgb(0,0,0)"  fill="none" d="M 340 126 L 390 126 390 166"></path><path transform="translate(1, 1)" stroke-width="3" stroke-opacity="0.12" stroke="rgb(0,0,0)"  fill="none" d="M 340 126 L 390 126 390 166"></path><path transform="translate(1, 1)" stroke-width="1" stroke-opacity="0.18" stroke="rgb(0,0,0)"  fill="none" d="M 340 126 L 390 126 390 166"></path><path fill="none" d="M 340 126 L 390 126 390 166"></path><rect stroke="#FFFFFF" stroke-opacity="0" stroke-width="1" height="40" width="50" y="136" x="330" fill="url('#highcharts-151')" ry="0" rx="0"></rect><path stroke="#FFFFFF" stroke-opacity="0" stroke-width="1" fill="url('#highcharts-149')" d="M 330 136 L 380 136 390 126 340 126 Z"></path><path stroke="#FFFFFF" stroke-opacity="0" stroke-width="1" fill="url('#highcharts-150')" d="M 380 136 L 390 126 390 166 380 176 Z"></path></g><g  class="highcharts-point"><path transform="translate(1, 1)" stroke-width="5" stroke-opacity="0.06" stroke="rgb(0,0,0)"  fill="none" d="M 340 113 L 390 113 390 127"></path><path transform="translate(1, 1)" stroke-width="3" stroke-opacity="0.12" stroke="rgb(0,0,0)"  fill="none" d="M 340 113 L 390 113 390 127"></path><path transform="translate(1, 1)" stroke-width="1" stroke-opacity="0.18" stroke="rgb(0,0,0)"  fill="none" d="M 340 113 L 390 113 390 127"></path><path fill="none" d="M 340 113 L 390 113 390 127"></path><rect stroke="#FFFFFF" stroke-opacity="0" stroke-width="1" height="14" width="50" y="123" x="330" fill="url('#highcharts-154')" ry="0" rx="0"></rect><path stroke="#FFFFFF" stroke-opacity="0" stroke-width="1" fill="url('#highcharts-152')" d="M 330 123 L 380 123 390 113 340 113 Z"></path><path stroke="#FFFFFF" stroke-opacity="0" stroke-width="1" fill="url('#highcharts-153')" d="M 380 123 L 390 113 390 127 380 137 Z"></path></g><g  class="highcharts-point"><path transform="translate(1, 1)" stroke-width="5" stroke-opacity="0.06" stroke="rgb(0,0,0)"  fill="none" d="M 439 168 L 489 168 489 173"></path><path transform="translate(1, 1)" stroke-width="3" stroke-opacity="0.12" stroke="rgb(0,0,0)"  fill="none" d="M 439 168 L 489 168 489 173"></path><path transform="translate(1, 1)" stroke-width="1" stroke-opacity="0.18" stroke="rgb(0,0,0)"  fill="none" d="M 439 168 L 489 168 489 173"></path><path fill="none" d="M 439 168 L 489 168 489 173"></path><rect stroke="#FFFFFF" stroke-opacity="0" stroke-width="1" height="5" width="50" y="178" x="429" fill="url('#highcharts-157')" ry="0" rx="0"></rect><path stroke="#FFFFFF" stroke-opacity="0" stroke-width="1" fill="url('#highcharts-155')" d="M 429 178 L 479 178 489 168 439 168 Z"></path><path stroke="#FFFFFF" stroke-opacity="0" stroke-width="1" fill="url('#highcharts-156')" d="M 479 178 L 489 168 489 173 479 183 Z"></path></g><g  class="highcharts-point"><path transform="translate(1, 1)" stroke-width="5" stroke-opacity="0.06" stroke="rgb(0,0,0)"  fill="none" d="M 439 139 L 489 139 489 169"></path><path transform="translate(1, 1)" stroke-width="3" stroke-opacity="0.12" stroke="rgb(0,0,0)"  fill="none" d="M 439 139 L 489 139 489 169"></path><path transform="translate(1, 1)" stroke-width="1" stroke-opacity="0.18" stroke="rgb(0,0,0)"  fill="none" d="M 439 139 L 489 139 489 169"></path><path fill="none" d="M 439 139 L 489 139 489 169"></path><rect stroke="#FFFFFF" stroke-opacity="0" stroke-width="1" height="30" width="50" y="149" x="429" fill="url('#highcharts-160')" ry="0" rx="0"></rect><path stroke="#FFFFFF" stroke-opacity="0" stroke-width="1" fill="url('#highcharts-158')" d="M 429 149 L 479 149 489 139 439 139 Z"></path><path stroke="#FFFFFF" stroke-opacity="0" stroke-width="1" fill="url('#highcharts-159')" d="M 479 149 L 489 139 489 169 479 179 Z"></path></g><g  class="highcharts-point"><path transform="translate(1, 1)" stroke-width="5" stroke-opacity="0.06" stroke="rgb(0,0,0)"  fill="none" d="M 439 115 L 489 115 489 140"></path><path transform="translate(1, 1)" stroke-width="3" stroke-opacity="0.12" stroke="rgb(0,0,0)"  fill="none" d="M 439 115 L 489 115 489 140"></path><path transform="translate(1, 1)" stroke-width="1" stroke-opacity="0.18" stroke="rgb(0,0,0)"  fill="none" d="M 439 115 L 489 115 489 140"></path><path fill="none" d="M 439 115 L 489 115 489 140"></path><rect stroke="#FFFFFF" stroke-opacity="0" stroke-width="1" height="25" width="50" y="125" x="429" fill="url('#highcharts-163')" ry="0" rx="0"></rect><path stroke="#FFFFFF" stroke-opacity="0" stroke-width="1" fill="url('#highcharts-161')" d="M 429 125 L 479 125 489 115 439 115 Z"></path><path stroke="#FFFFFF" stroke-opacity="0" stroke-width="1" fill="url('#highcharts-162')" d="M 479 125 L 489 115 489 140 479 150 Z"></path></g></g></g><g transform="translate(47, 15)"  visibility="" class="highcharts-data-labels"><text  text-anchor="middle" style="font-family: verdana; font-size: 10px; color: rgb(73, 86, 58); line-height: 12px; text-decoration: none; font-weight: normal; font-style: normal; fill: rgb(73, 86, 58);" y="168" x="49"><tspan x="49">1500</tspan></text><text  text-anchor="middle" style="font-family: verdana; font-size: 10px; color: rgb(73, 86, 58); line-height: 12px; text-decoration: none; font-weight: normal; font-style: normal; fill: rgb(73, 86, 58);" y="180" x="148"><tspan x="148">611</tspan></text><text  text-anchor="middle" style="font-family: verdana; font-size: 10px; color: rgb(73, 86, 58); line-height: 12px; text-decoration: none; font-weight: normal; font-style: normal; fill: rgb(73, 86, 58);" y="185" x="247"><tspan x="247">228</tspan></text><text  text-anchor="middle" style="font-family: verdana; font-size: 10px; color: rgb(73, 86, 58); line-height: 12px; text-decoration: none; font-weight: normal; font-style: normal; fill: rgb(73, 86, 58);" y="184" x="345"><tspan x="345">285</tspan></text><text  text-anchor="middle" style="font-family: verdana; font-size: 10px; color: rgb(73, 86, 58); line-height: 12px; text-decoration: none; font-weight: normal; font-style: normal; fill: rgb(73, 86, 58);" y="185" x="444"><tspan x="444">174</tspan></text></g><g transform="translate(47, 15)"  visibility="" class="highcharts-data-labels"><text  text-anchor="middle" style="font-family: verdana; font-size: 10px; color: rgb(73, 86, 58); line-height: 12px; text-decoration: none; font-weight: normal; font-style: normal; fill: rgb(73, 86, 58);" y="119" x="49"><tspan x="49">2232</tspan></text><text  text-anchor="middle" style="font-family: verdana; font-size: 10px; color: rgb(73, 86, 58); line-height: 12px; text-decoration: none; font-weight: normal; font-style: normal; fill: rgb(73, 86, 58);" y="166" x="148"><tspan x="148">491</tspan></text><text  text-anchor="middle" style="font-family: verdana; font-size: 10px; color: rgb(73, 86, 58); line-height: 12px; text-decoration: none; font-weight: normal; font-style: normal; fill: rgb(73, 86, 58);" y="172" x="247"><tspan x="247">799</tspan></text><text  text-anchor="middle" style="font-family: verdana; font-size: 10px; color: rgb(73, 86, 58); line-height: 12px; text-decoration: none; font-weight: normal; font-style: normal; fill: rgb(73, 86, 58);" y="161" x="345"><tspan x="345">1508</tspan></text><text  text-anchor="middle" style="font-family: verdana; font-size: 10px; color: rgb(73, 86, 58); line-height: 12px; text-decoration: none; font-weight: normal; font-style: normal; fill: rgb(73, 86, 58);" y="169" x="444"><tspan x="444">1120</tspan></text></g><g transform="translate(47, 15)"  visibility="" class="highcharts-data-labels"><text  text-anchor="middle" style="font-family: verdana; font-size: 10px; color: rgb(73, 86, 58); line-height: 12px; text-decoration: none; font-weight: normal; font-style: normal; fill: rgb(73, 86, 58);" y="57" x="49"><tspan x="49">2514</tspan></text><text  text-anchor="middle" style="font-family: verdana; font-size: 10px; color: rgb(73, 86, 58); line-height: 12px; text-decoration: none; font-weight: normal; font-style: normal; fill: rgb(73, 86, 58);" y="148" x="148"><tspan x="148">872</tspan></text><text  text-anchor="middle" style="font-family: verdana; font-size: 10px; color: rgb(73, 86, 58); line-height: 12px; text-decoration: none; font-weight: normal; font-style: normal; fill: rgb(73, 86, 58);" y="160" x="247"><tspan x="247">47</tspan></text><text  text-anchor="middle" style="font-family: verdana; font-size: 10px; color: rgb(73, 86, 58); line-height: 12px; text-decoration: none; font-weight: normal; font-style: normal; fill: rgb(73, 86, 58);" y="135" x="345"><tspan x="345">500</tspan></text><text  text-anchor="middle" style="font-family: verdana; font-size: 10px; color: rgb(73, 86, 58); line-height: 12px; text-decoration: none; font-weight: normal; font-style: normal; fill: rgb(73, 86, 58);" y="142" x="444"><tspan x="444">903</tspan></text></g><g  class="highcharts-axis"></g><g  class="highcharts-axis"></g><g  class="highcharts-axis"></g><g visibility="hidden"  class="highcharts-tooltip"><rect fill-opacity="1" stroke-width="1" height="0" width="0" y="1.5" x="1.5" fill="rgb(255,255,255)" ry="1" rx="1"></rect><text  style="font-family: verdana; font-size: 10px; color: rgb(73, 86, 58); padding: 0pt; white-space: nowrap; line-height: 12px; fill: rgb(73, 86, 58);" y="11" x="1"><tspan x="1"> </tspan></text></g><text  text-anchor="end" style="font-family: 'lucida grande','lucida sans unicode',verdana,arial,helvetica,sans-serif; font-size: 10px; cursor: pointer; color: rgb(144, 144, 144); fill: rgb(144, 144, 144);" y="272" x="558"><tspan x="558">FusionCharts</tspan></text><g transform="translate(47, 15)"  class="highcharts-tracker"><path style=""  visibility="" fill-opacity="0.000001"  fill="rgb(192,192,192)" d="M 24 153 L 24 193 74 193 84 183 84 143 34 143 Z"></path><path style=""  visibility="" fill-opacity="0.000001"  fill="rgb(192,192,192)" d="M 24 95 L 24 154 74 154 84 144 84 85 34 85 Z"></path><path style=""  visibility="" fill-opacity="0.000001"  fill="rgb(192,192,192)" d="M 24 29 L 24 96 74 96 84 86 84 19 34 19 Z"></path><path style=""  visibility="" fill-opacity="0.000001"  fill="rgb(192,192,192)" d="M 123 177 L 123 193 173 193 183 183 183 167 133 167 Z"></path><path style=""  visibility="" fill-opacity="0.000001"  fill="rgb(192,192,192)" d="M 123 164 L 123 178 173 178 183 168 183 154 133 154 Z"></path><path style=""  visibility="" fill-opacity="0.000001"  fill="rgb(192,192,192)" d="M 123 141 L 123 165 173 165 183 155 183 131 133 131 Z"></path><path style=""  visibility="" fill-opacity="0.000001"  fill="rgb(192,192,192)" d="M 222 187 L 222 193 272 193 282 183 282 177 232 177 Z"></path><path style=""  visibility="" fill-opacity="0.000001"  fill="rgb(192,192,192)" d="M 222 166 L 222 188 272 188 282 178 282 156 232 156 Z"></path><path style=""  visibility="" fill-opacity="0.000001"  fill="rgb(192,192,192)" d="M 222 164 L 222 167 272 167 282 157 282 154 232 154 Z"></path><path style=""  visibility="" fill-opacity="0.000001"  fill="rgb(192,192,192)" d="M 320 185 L 320 193 370 193 380 183 380 175 330 175 Z"></path><path style=""  visibility="" fill-opacity="0.000001"  fill="rgb(192,192,192)" d="M 320 146 L 320 186 370 186 380 176 380 136 330 136 Z"></path><path style=""  visibility="" fill-opacity="0.000001"  fill="rgb(192,192,192)" d="M 320 133 L 320 147 370 147 380 137 380 123 330 123 Z"></path><path style=""  visibility="" fill-opacity="0.000001"  fill="rgb(192,192,192)" d="M 419 188 L 419 193 469 193 479 183 479 178 429 178 Z"></path><path style=""  visibility="" fill-opacity="0.000001"  fill="rgb(192,192,192)" d="M 419 159 L 419 189 469 189 479 179 479 149 429 149 Z"></path><path style=""  visibility="" fill-opacity="0.000001"  fill="rgb(192,192,192)" d="M 419 135 L 419 160 469 160 479 150 479 125 429 125 Z"></path></g><g transform="translate(179, 239)"  class="highcharts-legend"><rect visibility="" transform="translate(1, 1)"  fill-opacity="1" stroke="rgb(0,0,0)" stroke-opacity="0.06" stroke-width="5" height="22" width="241" y="0.5" x="0.5" fill="none" ry="0" rx="0"></rect><rect visibility="" transform="translate(1, 1)"  fill-opacity="1" stroke="rgb(0,0,0)" stroke-opacity="0.12" stroke-width="3" height="22" width="241" y="0.5" x="0.5" fill="none" ry="0" rx="0"></rect><rect visibility="" transform="translate(1, 1)"  fill-opacity="1" stroke="rgb(0,0,0)" stroke-opacity="0.18" stroke-width="1" height="22" width="241" y="0.5" x="0.5" fill="none" ry="0" rx="0"></rect><rect visibility="" fill-opacity="1" stroke="rgb(198,207,184)" stroke-opacity="1" stroke-width="1" height="22" width="241" y="0.5" x="0.5" fill="rgb(240,243,237)" ry="0" rx="0"></rect><text transform="translate(23, 16)"  style="font-family: verdana; font-size: 10px; cursor: pointer; color: rgb(73, 86, 58); line-height: 12px; fill: rgb(73, 86, 58);" y="0" x="0"><tspan x="0">Sum 2010</tspan></text><text transform="translate(101, 16)"  style="font-family: verdana; font-size: 10px; cursor: pointer; color: rgb(73, 86, 58); line-height: 12px; fill: rgb(73, 86, 58);" y="0" x="0"><tspan x="0">Sum 2009</tspan></text><text transform="translate(179, 16)"  style="font-family: verdana; font-size: 10px; cursor: pointer; color: rgb(73, 86, 58); line-height: 12px; fill: rgb(73, 86, 58);" y="0" x="0"><tspan x="0">Sum 2008</tspan></text><path transform="translate(23, 14)" style="cursor: pointer;" stroke="#990000"  stroke-width="0.5" fill="url('#highcharts-111')" d="M -16 2 L -16 -4.3 -13.75 -4.3 -13.75 2 -12.629999999999999 2 -12.629999999999999 -7 -10.379999999999999 -7 -10.379999999999999 2 -9.259999999999998 2 -9.259999999999998 -1.5999999999999996 -7 -1.5999999999999996 -7 2 Z"></path><path transform="translate(101, 14)" style="cursor: pointer;" stroke="#009900"  stroke-width="0.5" fill="url('#highcharts-112')" d="M -16 2 L -16 -4.3 -13.75 -4.3 -13.75 2 -12.629999999999999 2 -12.629999999999999 -7 -10.379999999999999 -7 -10.379999999999999 2 -9.259999999999998 2 -9.259999999999998 -1.5999999999999996 -7 -1.5999999999999996 -7 2 Z"></path><path transform="translate(179, 14)" style="cursor: pointer;" stroke="#000099"  stroke-width="0.5" fill="url('#highcharts-113')" d="M -16 2 L -16 -4.3 -13.75 -4.3 -13.75 2 -12.629999999999999 2 -12.629999999999999 -7 -10.379999999999999 -7 -10.379999999999999 2 -9.259999999999998 2 -9.259999999999998 -1.5999999999999996 -7 -1.5999999999999996 -7 2 Z"></path></g></svg>