<svg xmlns:xlink="http://www.w3.org/1999/xlink" height="339" width="542" version="1.1" xmlns="http://www.w3.org/2000/svg"><defs><clipPath id="highcharts-1951"><rect stroke-width="0" height="337" width="540" y="1" x="1" fill="none" ry="0" rx="0"></rect></clipPath><linearGradient y2="50%" x2="100%" y1="50%" x1="0%" gradientUnits="objectBoundingBox" id="highcharts-1952"><stop stop-opacity="0" stop-color="#0000FF" offset="0%"></stop><stop stop-opacity="1" stop-color="#4c4cff" offset="100%"></stop></linearGradient><linearGradient y2="50%" x2="0%" y1="50%" x1="100%" gradientUnits="objectBoundingBox" id="highcharts-1953"><stop stop-opacity="0" stop-color="#0000FF" offset="0%"></stop><stop stop-opacity="1" stop-color="#4c4cff" offset="100%"></stop></linearGradient><linearGradient y2="0%" x2="100%" y1="100%" x1="0%" gradientUnits="objectBoundingBox" id="highcharts-1954"><stop stop-opacity="1" stop-color="#4c4cff" offset="0%"></stop><stop stop-opacity="1" stop-color="#4c4cff" offset="50%"></stop><stop stop-opacity="0" stop-color="#0000FF" offset="65.0563382445587%"></stop><stop stop-opacity="0" stop-color="#0000FF" offset="100%"></stop></linearGradient><linearGradient y2="50%" x2="100%" y1="50%" x1="0%" gradientUnits="objectBoundingBox" id="highcharts-1955"><stop stop-opacity="1" stop-color="#4c4cff" offset="0%"></stop><stop stop-opacity="1" stop-color="#0000FF" offset="50%"></stop><stop stop-opacity="1" stop-color="#0000cc" offset="100%"></stop></linearGradient><linearGradient y2="50%" x2="100%" y1="50%" x1="0%" gradientUnits="objectBoundingBox" id="highcharts-1956"><stop stop-opacity="1" stop-color="#0000FF" offset="0%"></stop><stop stop-opacity="1" stop-color="#0000FF" offset="50%"></stop><stop stop-opacity="1" stop-color="#0000cc" offset="50%"></stop><stop stop-opacity="1" stop-color="#0000cc" offset="100%"></stop></linearGradient><linearGradient y2="0%" x2="100%" y1="100%" x1="0%" gradientUnits="objectBoundingBox" id="highcharts-1957"><stop stop-opacity="1" stop-color="#3333ff" offset="0%"></stop><stop stop-opacity="1" stop-color="#0000FF" offset="25%"></stop><stop stop-opacity="1" stop-color="#0000cc" offset="55%"></stop><stop stop-opacity="1" stop-color="#0000cc" offset="100%"></stop></linearGradient><linearGradient y2="50%" x2="100%" y1="50%" x1="0%" gradientUnits="objectBoundingBox" id="highcharts-1958"><stop stop-opacity="0" stop-color="#00FF00" offset="0%"></stop><stop stop-opacity="1" stop-color="#4cff4c" offset="100%"></stop></linearGradient><linearGradient y2="50%" x2="0%" y1="50%" x1="100%" gradientUnits="objectBoundingBox" id="highcharts-1959"><stop stop-opacity="0" stop-color="#00FF00" offset="0%"></stop><stop stop-opacity="1" stop-color="#4cff4c" offset="100%"></stop></linearGradient><linearGradient y2="0%" x2="100%" y1="100%" x1="0%" gradientUnits="objectBoundingBox" id="highcharts-1960"><stop stop-opacity="1" stop-color="#4cff4c" offset="0%"></stop><stop stop-opacity="1" stop-color="#4cff4c" offset="50%"></stop><stop stop-opacity="0" stop-color="#00FF00" offset="85.47766799471354%"></stop><stop stop-opacity="0" stop-color="#00FF00" offset="100%"></stop></linearGradient><linearGradient y2="50%" x2="100%" y1="50%" x1="0%" gradientUnits="objectBoundingBox" id="highcharts-1961"><stop stop-opacity="1" stop-color="#4cff4c" offset="0%"></stop><stop stop-opacity="1" stop-color="#00FF00" offset="50%"></stop><stop stop-opacity="1" stop-color="#00cc00" offset="100%"></stop></linearGradient><linearGradient y2="50%" x2="100%" y1="50%" x1="0%" gradientUnits="objectBoundingBox" id="highcharts-1962"><stop stop-opacity="1" stop-color="#00FF00" offset="0%"></stop><stop stop-opacity="1" stop-color="#00FF00" offset="50%"></stop><stop stop-opacity="1" stop-color="#00cc00" offset="50%"></stop><stop stop-opacity="1" stop-color="#00cc00" offset="100%"></stop></linearGradient><linearGradient y2="0%" x2="100%" y1="100%" x1="0%" gradientUnits="objectBoundingBox" id="highcharts-1963"><stop stop-opacity="1" stop-color="#33ff33" offset="0%"></stop><stop stop-opacity="1" stop-color="#00FF00" offset="25%"></stop><stop stop-opacity="1" stop-color="#00cc00" offset="55%"></stop><stop stop-opacity="1" stop-color="#00cc00" offset="100%"></stop></linearGradient><linearGradient y2="50%" x2="100%" y1="50%" x1="0%" gradientUnits="objectBoundingBox" id="highcharts-1964"><stop stop-opacity="0" stop-color="#FF0000" offset="0%"></stop><stop stop-opacity="1" stop-color="#ff4c4c" offset="100%"></stop></linearGradient><linearGradient y2="50%" x2="0%" y1="50%" x1="100%" gradientUnits="objectBoundingBox" id="highcharts-1965"><stop stop-opacity="0" stop-color="#FF0000" offset="0%"></stop><stop stop-opacity="1" stop-color="#ff4c4c" offset="100%"></stop></linearGradient><linearGradient y2="0%" x2="100%" y1="100%" x1="0%" gradientUnits="objectBoundingBox" id="highcharts-1966"><stop stop-opacity="1" stop-color="#ff4c4c" offset="0%"></stop><stop stop-opacity="1" stop-color="#ff4c4c" offset="50%"></stop><stop stop-opacity="0" stop-color="#FF0000" offset="100%"></stop></linearGradient><linearGradient y2="50%" x2="100%" y1="50%" x1="0%" gradientUnits="objectBoundingBox" id="highcharts-1967"><stop stop-opacity="1" stop-color="#ff4c4c" offset="0%"></stop><stop stop-opacity="1" stop-color="#FF0000" offset="50%"></stop><stop stop-opacity="1" stop-color="#cc0000" offset="100%"></stop></linearGradient><linearGradient y2="50%" x2="100%" y1="50%" x1="0%" gradientUnits="objectBoundingBox" id="highcharts-1968"><stop stop-opacity="1" stop-color="#FF0000" offset="0%"></stop><stop stop-opacity="1" stop-color="#FF0000" offset="50%"></stop><stop stop-opacity="1" stop-color="#cc0000" offset="50%"></stop><stop stop-opacity="1" stop-color="#cc0000" offset="100%"></stop></linearGradient><linearGradient y2="0%" x2="100%" y1="100%" x1="0%" gradientUnits="objectBoundingBox" id="highcharts-1969"><stop stop-opacity="1" stop-color="#ff3333" offset="0%"></stop><stop stop-opacity="1" stop-color="#FF0000" offset="25%"></stop><stop stop-opacity="1" stop-color="#cc0000" offset="55%"></stop><stop stop-opacity="1" stop-color="#cc0000" offset="100%"></stop></linearGradient></defs><rect fill-opacity="0" stroke="rgb(255,255,255)" stroke-opacity="0.5" stroke-width="1" height="338" width="541" y="0.5" x="0.5" fill="#FFFFFF" ry="0" rx="0"></rect><rect fill-opacity="0" stroke-width="0" height="258" width="408" y="20" x="15" fill="rgb(0,0,0)" ry="0" rx="0"></rect><g  class="highcharts-series-group"><g transform="translate(15,20)" visibility="" class="highcharts-series"><g class="highcharts-point"><path fill-opacity="0.000001" fill="rgb(192,192,192)" d="M 37.9569715163984 209.99559484690792 L 204 176.7869891501876 370.0430284836016 209.99559484690792 408 258 204 298.8 0 258 Z"></path><path stroke-width="0" fill="url('#highcharts-1956')" d="M 37.9569715163984 209.99559484690792 L 204 243.20420054362825 370.0430284836016 209.99559484690792 408 258 204 298.8 0 258 Z"></path><path stroke-width="0" fill="url('#highcharts-1952')" d="M 204 243.20420054362825 L 204 298.8 199 298.8 199 243.20420054362825 Z"></path><path stroke-width="0" fill="url('#highcharts-1953')" d="M 204 243.20420054362825 L 204 298.8 209 298.8 209 243.20420054362825 Z"></path><path stroke-width="0" fill="url('#highcharts-1957')" d="M 37.9569715163984 209.99559484690792 L 204 243.20420054362825 370.0430284836016 209.99559484690792 204 176.7869891501876 Z"></path><path stroke-width="0" fill="url('#highcharts-1954')" d="M 37.9569715163984 210.49559484690792 L 204 243.70420054362825 204 241.20420054362825 47.9569715163984 209.99559484690792 Z"></path><path stroke-width="0" fill="url('#highcharts-1955')" d="M 370.0430284836016 210.49559484690792 L 204 243.70420054362825 204 241.20420054362825 360.0430284836016 209.99559484690792 Z"></path><path stroke="rgb(85,85,85)" stroke-opacity="1" stroke-width="1" fill="none" d="M 389.0215142418008 233.99779742345396 L 442.0215142418008 233.99779742345396"></path><text text-anchor="start" style="font-family:verdana;font-size:10px;color:#555555;line-height:14px;text-decoration:none;font-weight:normal;font-style:normal;fill:#555555;" y="237" x="445"><tspan x="445">2010, 1.98M</tspan></text></g><g class="highcharts-point"><path fill-opacity="0.000001" fill="rgb(192,192,192)" d="M 133.53313615842734 89.11985721140073 L 204 75.02648444308619 274.46686384157266 89.11985721140073 370.0430284836016 209.99559484690792 204 243.20420054362825 37.9569715163984 209.99559484690792 Z"></path><path stroke-width="0" fill="url('#highcharts-1962')" d="M 133.53313615842734 89.11985721140073 L 204 103.21322997971527 274.46686384157266 89.11985721140073 370.0430284836016 209.99559484690792 204 243.20420054362825 37.9569715163984 209.99559484690792 Z"></path><path stroke-width="0" fill="url('#highcharts-1958')" d="M 204 103.21322997971527 L 204 243.20420054362825 199 243.20420054362825 199 103.21322997971527 Z"></path><path stroke-width="0" fill="url('#highcharts-1959')" d="M 204 103.21322997971527 L 204 243.20420054362825 209 243.20420054362825 209 103.21322997971527 Z"></path><path stroke-width="0" fill="url('#highcharts-1963')" d="M 133.53313615842734 89.11985721140073 L 204 103.21322997971527 274.46686384157266 89.11985721140073 204 75.02648444308619 Z"></path><path stroke-width="0" fill="url('#highcharts-1960')" d="M 133.53313615842734 89.61985721140073 L 204 103.71322997971527 204 101.21322997971527 143.53313615842734 89.11985721140073 Z"></path><path stroke-width="0" fill="url('#highcharts-1961')" d="M 274.46686384157266 89.61985721140073 L 204 103.71322997971527 204 101.21322997971527 264.46686384157266 89.11985721140073 Z"></path><path stroke="rgb(85,85,85)" stroke-opacity="1" stroke-width="1" fill="none" d="M 322.25494616258715 149.5577260291543 L 375.25494616258715 149.5577260291543"></path><text text-anchor="start" style="font-family:verdana;font-size:10px;color:#555555;line-height:14px;text-decoration:none;font-weight:normal;font-style:normal;fill:#555555;" y="153" x="378"><tspan x="378">2009, 4.99M</tspan></text></g><g class="highcharts-point"><path fill-opacity="0.000001" fill="rgb(192,192,192)" d="M 204 0 L 204 0 204 0 274.46686384157266 89.11985721140073 204 103.21322997971527 133.53313615842734 89.11985721140073 Z"></path><path stroke-width="0" fill="url('#highcharts-1968')" d="M 204 0 L 204 0 204 0 274.46686384157266 89.11985721140073 204 103.21322997971527 133.53313615842734 89.11985721140073 Z"></path><path stroke-width="0" fill="url('#highcharts-1964')" d="M 204 0 L 204 103.21322997971527 199 103.21322997971527 204 0 Z"></path><path stroke-width="0" fill="url('#highcharts-1965')" d="M 204 0 L 204 103.21322997971527 209 103.21322997971527 204 0 Z"></path><path stroke-width="0" fill="url('#highcharts-1969')" d="M 204 0 L 204 0 204 0 204 0 Z"></path><path stroke-width="0" fill="url('#highcharts-1966')" d="M 204 0.5 L 204 0.5 204 0 204 0 Z"></path><path stroke-width="0" fill="url('#highcharts-1967')" d="M 204 0.5 L 204 0.5 204 0 204 0 Z"></path><path stroke="rgb(85,85,85)" stroke-opacity="1" stroke-width="1" fill="none" d="M 239.23343192078636 44.559928605700364 L 292.23343192078636 44.559928605700364"></path><text text-anchor="start" style="font-family:verdana;font-size:10px;color:#555555;line-height:14px;text-decoration:none;font-weight:normal;font-style:normal;fill:#555555;" y="48" x="295"><tspan x="295">2008, 3.68M</tspan></text></g></g></g><g transform="translate(15,20)"  visibility="" class="highcharts-data-labels"></g><g visibility="hidden"  class="highcharts-tooltip"><rect fill-opacity="1" stroke-width="1" height="0" width="0" y="1.5" x="1.5" fill="rgb(255,255,255)" ry="1" rx="1"></rect><text  style="font-family:verdana;font-size:10px;color:#555555;padding:0;white-space:nowrap;line-height:14px;fill:#555555;" y="11" x="1"><tspan x="1"> </tspan></text></g><text  text-anchor="end" style="font-family:'lucida grande', 'lucida sans unicode', verdana, arial, helvetica, sans-serif;font-size:10px;cursor:pointer;color:#909090;fill:#909090;" y="334" x="532"><tspan x="532">FusionCharts</tspan></text><g transform="translate(15,20)"  class="highcharts-tracker"><path style=""  visibility="" fill-opacity="0.000001"  fill="rgb(192,192,192)" d="M 37.9569715163984 209.99559484690792 L 204 176.7869891501876 370.0430284836016 209.99559484690792 408 258 204 298.8 0 258 Z"></path><path style=""  visibility="" fill-opacity="0.000001"  fill="rgb(192,192,192)" d="M 133.53313615842734 89.11985721140073 L 204 75.02648444308619 274.46686384157266 89.11985721140073 370.0430284836016 209.99559484690792 204 243.20420054362825 37.9569715163984 209.99559484690792 Z"></path><path style=""  visibility="" fill-opacity="0.000001"  fill="rgb(192,192,192)" d="M 204 0 L 204 0 204 0 274.46686384157266 89.11985721140073 204 103.21322997971527 133.53313615842734 89.11985721140073 Z"></path></g></svg>