<svg xmlns:xlink="http://www.w3.org/1999/xlink" height="339" width="542" version="1.1" xmlns="http://www.w3.org/2000/svg"><defs><linearGradient y2="0%" x2="50%" y1="100%" x1="50%" gradientUnits="objectBoundingBox" id="highcharts-13"><stop stop-opacity="1" stop-color="#FF0000" offset="0%"></stop><stop stop-opacity="1" stop-color="#FF0000" offset="70%"></stop><stop stop-opacity="1" stop-color="#ff9999" offset="100%"></stop></linearGradient><linearGradient y2="0%" x2="50%" y1="100%" x1="50%" gradientUnits="objectBoundingBox" id="highcharts-14"><stop stop-opacity="1" stop-color="#80ff00" offset="0%"></stop><stop stop-opacity="1" stop-color="#80ff00" offset="70%"></stop><stop stop-opacity="1" stop-color="#ccff99" offset="100%"></stop></linearGradient><clipPath id="highcharts-15"><rect stroke-width="0" height="337" width="540" y="1" x="1" fill="none" ry="0" rx="0"></rect></clipPath><clipPath id="highcharts-16"><rect stroke-width="0" height="339" width="542" y="-15" x="-15" fill="none" ry="0" rx="0"></rect></clipPath></defs><rect fill-opacity="0" stroke="rgb(255,255,255)" stroke-opacity="0.5" stroke-width="1" height="338" width="541" y="0.5" x="0.5" fill="#FFFFFF" ry="0" rx="0"></rect><g transform="translate(15,15)" height="279" width="512"  class="highcharts-axis"><text text-anchor="end" style="font-family:verdana;font-size:10px;line-height:14px;color:#555555;fill:#555555;" y="140" x="256"><tspan x="256">0</tspan></text><text text-anchor="end" style="font-family:verdana;font-size:10px;line-height:14px;color:#555555;fill:#555555;" y="115" x="256"><tspan x="256">800K</tspan></text><text text-anchor="end" style="font-family:verdana;font-size:10px;line-height:14px;color:#555555;fill:#555555;" y="91" x="256"><tspan x="256">1.6M</tspan></text><text text-anchor="end" style="font-family:verdana;font-size:10px;line-height:14px;color:#555555;fill:#555555;" y="66" x="256"><tspan x="256">2.4M</tspan></text><text text-anchor="end" style="font-family:verdana;font-size:10px;line-height:14px;color:#555555;fill:#555555;" y="42" x="256"><tspan x="256">3.2M</tspan></text><text text-anchor="end" style="font-family:verdana;font-size:10px;line-height:14px;color:#555555;fill:#555555;" y="17" x="256"><tspan x="256">4M</tspan></text><text text-anchor="start" style="font-family:verdana;font-size:10px;line-height:14px;color:#555555;fill:#555555;" y="206" x="371"><tspan x="371">2010</tspan></text><text text-anchor="end" style="font-family:verdana;font-size:10px;line-height:14px;color:#555555;fill:#555555;" y="206" x="141"><tspan x="141">2009</tspan></text><text text-anchor="middle" style="font-family:verdana;font-size:10px;line-height:14px;color:#555555;fill:#555555;" y="7" x="256"><tspan x="256">2008</tspan></text><path fill-opacity="0.5" stroke-width="2" stroke="rgb(113,113,112)" stroke-opacity="1" fill="rgb(238,238,238)" d="M 362.0881119635937 200.75000000000006 L 149.91188803640625 200.74999999999997 256 17 Z"></path><path stroke-width="1" stroke="rgb(113,113,112)" stroke-opacity="0.4"  fill="none" d="M 256 139.5 L 362.0881119635937 200.75000000000006 M 256 139.5 L 149.91188803640625 200.74999999999997 M 256 139.5 L 256 17"></path><path stroke-width="0.1" stroke="rgb(0,0,0)" stroke-opacity="0"  fill="none" d="M 256 139.5 L 256 139.5 256 139.5 Z"></path><path stroke-width="1" stroke="rgb(113,113,112)" stroke-opacity="0.4"  fill="none" d="M 277.21762239271874 151.75 L 234.78237760728126 151.75 256 115 Z"></path><path stroke-width="1" stroke="rgb(113,113,112)" stroke-opacity="0.4"  fill="none" d="M 298.4352447854375 164.00000000000003 L 213.5647552145625 164 256 90.5 Z"></path><path stroke-width="1" stroke="rgb(113,113,112)" stroke-opacity="0.4"  fill="none" d="M 319.6528671781562 176.25000000000003 L 192.34713282184373 176.24999999999997 256 66 Z"></path><path stroke-width="1" stroke="rgb(113,113,112)" stroke-opacity="0.4"  fill="none" d="M 340.87048957087495 188.50000000000006 L 171.129510429125 188.49999999999997 256 41.5 Z"></path><path stroke-width="0.1" stroke="rgb(0,0,0)" stroke-opacity="0"  fill="none" d="M 362.0881119635937 200.75000000000006 L 149.91188803640625 200.74999999999997 256 17 Z"></path></g><g  class="highcharts-series-group"><g transform="translate(15,15)"  visibility="" clip-path="url('#highcharts-16')" class="highcharts-series"><path stroke-width="1px" fill-opacity="0.5" stroke="#AFD8F8" stroke-opacity="0.95" fill="#FF0000" d="M 256 91.1924618749999 L 200.62877291566633 171.46859286249992 337.70973590254914 186.67513801875003 Z"></path></g><g transform="translate(15,15)"  visibility="" clip-path="url('#highcharts-16')" class="highcharts-series"><path stroke-width="1px" fill-opacity="0.5" stroke="#F6BD0F" stroke-opacity="0.95" fill="#80ff00" d="M 256 26.87996187499992 L 213.88978691111555 163.81234286249992 308.5355051125609 169.83138801875003 Z"></path></g></g><g transform="translate(15,15)"  visibility="" class="highcharts-data-labels"><text  text-anchor="middle" style="font-family:verdana;font-size:10px;color:#555555;line-height:14px;text-decoration:none;font-weight:normal;font-style:normal;fill:#555555;" y="85" x="256"><tspan x="256">1.58M</tspan></text><text  text-anchor="middle" style="font-family:verdana;font-size:10px;color:#555555;line-height:14px;text-decoration:none;font-weight:normal;font-style:normal;fill:#555555;" y="165" x="201"><tspan x="201">2.09M</tspan></text><text  text-anchor="middle" style="font-family:verdana;font-size:10px;color:#555555;line-height:14px;text-decoration:none;font-weight:normal;font-style:normal;fill:#555555;" y="181" x="338"><tspan x="338">3.08M</tspan></text></g><g transform="translate(15,15)"  visibility="" class="highcharts-data-labels"><text  text-anchor="middle" style="font-family:verdana;font-size:10px;color:#555555;line-height:14px;text-decoration:none;font-weight:normal;font-style:normal;fill:#555555;" y="21" x="256"><tspan x="256">3.68M</tspan></text><text  text-anchor="middle" style="font-family:verdana;font-size:10px;color:#555555;line-height:14px;text-decoration:none;font-weight:normal;font-style:normal;fill:#555555;" y="158" x="214"><tspan x="214">1.59M</tspan></text><text  text-anchor="middle" style="font-family:verdana;font-size:10px;color:#555555;line-height:14px;text-decoration:none;font-weight:normal;font-style:normal;fill:#555555;" y="164" x="309"><tspan x="309">1.98M</tspan></text></g><g visibility="hidden"  class="highcharts-tooltip"><rect fill-opacity="1" stroke-width="1" height="0" width="0" y="1.5" x="1.5" fill="rgb(255,255,255)" ry="1" rx="1"></rect><text  style="font-family:verdana;font-size:10px;color:#555555;padding:0;white-space:nowrap;line-height:14px;fill:#555555;" y="11" x="1"><tspan x="1"> </tspan></text></g><text  text-anchor="end" style="font-family:'lucida grande', 'lucida sans unicode', verdana, arial, helvetica, sans-serif;font-size:10px;cursor:pointer;color:#909090;fill:#909090;" y="334" x="532"><tspan x="532">FusionCharts</tspan></text><g transform="translate(15,15)"  class="highcharts-tracker"><circle style=""  fill="#FFFFFF" fill-opacity="1" stroke-width="1" stroke="#FF0000" stroke-opacity="1" r="3" cy="186.67513801875003" cx="337.70973590254914"></circle><circle style=""  fill="#FFFFFF" fill-opacity="1" stroke-width="1" stroke="#FF0000" stroke-opacity="1" r="3" cy="171.46859286249992" cx="200.62877291566633"></circle><circle style=""  fill="#FFFFFF" fill-opacity="1" stroke-width="1" stroke="#FF0000" stroke-opacity="1" r="3" cy="91.1924618749999" cx="256"></circle><circle style=""  fill="#FFFFFF" fill-opacity="1" stroke-width="1" stroke="#80ff00" stroke-opacity="1" r="3" cy="169.83138801875003" cx="308.5355051125609"></circle><circle style=""  fill="#FFFFFF" fill-opacity="1" stroke-width="1" stroke="#80ff00" stroke-opacity="1" r="3" cy="163.81234286249992" cx="213.88978691111555"></circle><circle style=""  fill="#FFFFFF" fill-opacity="1" stroke-width="1" stroke="#80ff00" stroke-opacity="1" r="3" cy="26.87996187499992" cx="256"></circle></g><g transform="translate(180,301)"  class="highcharts-legend"><rect visibility="" transform="translate(1,1)"  fill-opacity="1" stroke="rgb(0,0,0)" stroke-opacity="0.06" stroke-width="5" height="22" width="181" y="0.5" x="0.5" fill="none" ry="0" rx="0"></rect><rect visibility="" transform="translate(1,1)"  fill-opacity="1" stroke="rgb(0,0,0)" stroke-opacity="0.12" stroke-width="3" height="22" width="181" y="0.5" x="0.5" fill="none" ry="0" rx="0"></rect><rect visibility="" transform="translate(1,1)"  fill-opacity="1" stroke="rgb(0,0,0)" stroke-opacity="0.18" stroke-width="1" height="22" width="181" y="0.5" x="0.5" fill="none" ry="0" rx="0"></rect><rect visibility="" fill-opacity="1" stroke="rgb(84,84,84)" stroke-opacity="1" stroke-width="1" height="22" width="181" y="0.5" x="0.5" fill="rgb(255,255,255)" ry="0" rx="0"></rect><text transform="translate(23,15)"  style="font-family:verdana;font-size:10px;cursor:pointer;color:#555555;line-height:14px;fill:#555555;" y="0" x="0"><tspan x="0">Total </tspan></text><text transform="translate(110,15)"  style="font-family:verdana;font-size:10px;cursor:pointer;color:#555555;line-height:14px;fill:#555555;" y="0" x="0"><tspan x="0">Total Check </tspan></text><path transform="translate(23,14)" style="_cursor:hand;cursor:pointer;" stroke="#990000"  stroke-width="0.5" fill="url('#highcharts-13')" d="M -16 -7 L -7 -7 -7 2 -16 2 Z"></path><path transform="translate(110,14)" style="_cursor:hand;cursor:pointer;" stroke="#4c9900"  stroke-width="0.5" fill="url('#highcharts-14')" d="M -16 -7 L -7 -7 -7 2 -16 2 Z"></path></g></svg>