<svg xmlns:xlink="http://www.w3.org/1999/xlink" height="339" width="542" version="1.1" xmlns="http://www.w3.org/2000/svg"><defs><linearGradient y2="0%" x2="50%" y1="100%" x1="50%" gradientUnits="objectBoundingBox" id="highcharts-55"><stop stop-opacity="1" stop-color="#FF0000" offset="0%"></stop><stop stop-opacity="1" stop-color="#FF0000" offset="30%"></stop><stop stop-opacity="1" stop-color="#ff9999" offset="60%"></stop><stop stop-opacity="1" stop-color="#FF0000" offset="90%"></stop><stop stop-opacity="1" stop-color="#FF0000" offset="100%"></stop></linearGradient><linearGradient y2="0%" x2="50%" y1="100%" x1="50%" gradientUnits="objectBoundingBox" id="highcharts-56"><stop stop-opacity="1" stop-color="#80ff00" offset="0%"></stop><stop stop-opacity="1" stop-color="#80ff00" offset="30%"></stop><stop stop-opacity="1" stop-color="#ccff99" offset="60%"></stop><stop stop-opacity="1" stop-color="#80ff00" offset="90%"></stop><stop stop-opacity="1" stop-color="#80ff00" offset="100%"></stop></linearGradient><clipPath id="highcharts-57"><rect stroke-width="0" height="337" width="540" y="1" x="1" fill="none" ry="0" rx="0"></rect></clipPath><linearGradient y2="80%" x2="100%" y1="20%" x1="0%" gradientUnits="objectBoundingBox" id="highcharts-58"><stop stop-opacity="1" stop-color="#bbc0b5" offset="0%"></stop><stop stop-opacity="1" stop-color="#ecf0e8" offset="100%"></stop></linearGradient><linearGradient y2="49%" x2="100%" y1="51%" x1="0%" gradientUnits="objectBoundingBox" id="highcharts-59"><stop stop-opacity="1" stop-color="#929e82" offset="0%"></stop><stop stop-opacity="1" stop-color="#e2e7db" offset="100%"></stop></linearGradient><linearGradient y2="0%" x2="25%" y1="100%" x1="75%" gradientUnits="objectBoundingBox" id="highcharts-60"><stop stop-opacity="1" stop-color="#3c4135" offset="0%"></stop><stop stop-opacity="1" stop-color="#818c72" offset="100%"></stop></linearGradient><linearGradient y2="0%" x2="50%" y1="100%" x1="50%" gradientUnits="objectBoundingBox" id="highcharts-61"><stop stop-opacity="1" stop-color="#6f7963" offset="0%"></stop><stop stop-opacity="1" stop-color="#d1dac7" offset="100%"></stop></linearGradient><linearGradient y2="42%" x2="100%" y1="58%" x1="0%" gradientUnits="objectBoundingBox" id="highcharts-62"><stop stop-opacity="1" stop-color="#d80000" offset="0%"></stop><stop stop-opacity="1" stop-color="#ffa6a6" offset="100%"></stop></linearGradient><linearGradient y2="0%" x2="45%" y1="100%" x1="55%" gradientUnits="objectBoundingBox" id="highcharts-63"><stop stop-opacity="1" stop-color="#590000" offset="0%"></stop><stop stop-opacity="1" stop-color="#bf0000" offset="100%"></stop></linearGradient><linearGradient y2="0%" x2="50%" y1="100%" x1="50%" gradientUnits="objectBoundingBox" id="highcharts-64"><stop stop-opacity="1" stop-color="#a50000" offset="0%"></stop><stop stop-opacity="1" stop-color="#ff7373" offset="100%"></stop></linearGradient><linearGradient y2="42%" x2="100%" y1="58%" x1="0%" gradientUnits="objectBoundingBox" id="highcharts-65"><stop stop-opacity="1" stop-color="#6cd800" offset="0%"></stop><stop stop-opacity="1" stop-color="#d3ffa6" offset="100%"></stop></linearGradient><linearGradient y2="0%" x2="45%" y1="100%" x1="55%" gradientUnits="objectBoundingBox" id="highcharts-66"><stop stop-opacity="1" stop-color="#2c5900" offset="0%"></stop><stop stop-opacity="1" stop-color="#60bf00" offset="100%"></stop></linearGradient><linearGradient y2="0%" x2="50%" y1="100%" x1="50%" gradientUnits="objectBoundingBox" id="highcharts-67"><stop stop-opacity="1" stop-color="#53a500" offset="0%"></stop><stop stop-opacity="1" stop-color="#b9ff73" offset="100%"></stop></linearGradient><linearGradient y2="42%" x2="100%" y1="58%" x1="0%" gradientUnits="objectBoundingBox" id="highcharts-68"><stop stop-opacity="1" stop-color="#d80000" offset="0%"></stop><stop stop-opacity="1" stop-color="#ffa6a6" offset="100%"></stop></linearGradient><linearGradient y2="0%" x2="46%" y1="100%" x1="54%" gradientUnits="objectBoundingBox" id="highcharts-69"><stop stop-opacity="1" stop-color="#590000" offset="0%"></stop><stop stop-opacity="1" stop-color="#bf0000" offset="100%"></stop></linearGradient><linearGradient y2="0%" x2="50%" y1="100%" x1="50%" gradientUnits="objectBoundingBox" id="highcharts-70"><stop stop-opacity="1" stop-color="#a50000" offset="0%"></stop><stop stop-opacity="1" stop-color="#ff7373" offset="100%"></stop></linearGradient><linearGradient y2="42%" x2="100%" y1="58%" x1="0%" gradientUnits="objectBoundingBox" id="highcharts-71"><stop stop-opacity="1" stop-color="#6cd800" offset="0%"></stop><stop stop-opacity="1" stop-color="#d3ffa6" offset="100%"></stop></linearGradient><linearGradient y2="0%" x2="46%" y1="100%" x1="54%" gradientUnits="objectBoundingBox" id="highcharts-72"><stop stop-opacity="1" stop-color="#2c5900" offset="0%"></stop><stop stop-opacity="1" stop-color="#60bf00" offset="100%"></stop></linearGradient><linearGradient y2="0%" x2="50%" y1="100%" x1="50%" gradientUnits="objectBoundingBox" id="highcharts-73"><stop stop-opacity="1" stop-color="#53a500" offset="0%"></stop><stop stop-opacity="1" stop-color="#b9ff73" offset="100%"></stop></linearGradient><linearGradient y2="42%" x2="100%" y1="58%" x1="0%" gradientUnits="objectBoundingBox" id="highcharts-74"><stop stop-opacity="1" stop-color="#d80000" offset="0%"></stop><stop stop-opacity="1" stop-color="#ffa6a6" offset="100%"></stop></linearGradient><linearGradient y2="0%" x2="42%" y1="100%" x1="58%" gradientUnits="objectBoundingBox" id="highcharts-75"><stop stop-opacity="1" stop-color="#590000" offset="0%"></stop><stop stop-opacity="1" stop-color="#bf0000" offset="100%"></stop></linearGradient><linearGradient y2="0%" x2="50%" y1="100%" x1="50%" gradientUnits="objectBoundingBox" id="highcharts-76"><stop stop-opacity="1" stop-color="#a50000" offset="0%"></stop><stop stop-opacity="1" stop-color="#ff7373" offset="100%"></stop></linearGradient><linearGradient y2="42%" x2="100%" y1="58%" x1="0%" gradientUnits="objectBoundingBox" id="highcharts-77"><stop stop-opacity="1" stop-color="#6cd800" offset="0%"></stop><stop stop-opacity="1" stop-color="#d3ffa6" offset="100%"></stop></linearGradient><linearGradient y2="0%" x2="42%" y1="100%" x1="58%" gradientUnits="objectBoundingBox" id="highcharts-78"><stop stop-opacity="1" stop-color="#2c5900" offset="0%"></stop><stop stop-opacity="1" stop-color="#60bf00" offset="100%"></stop></linearGradient><linearGradient y2="0%" x2="50%" y1="100%" x1="50%" gradientUnits="objectBoundingBox" id="highcharts-79"><stop stop-opacity="1" stop-color="#53a500" offset="0%"></stop><stop stop-opacity="1" stop-color="#b9ff73" offset="100%"></stop></linearGradient></defs><rect fill-opacity="0" stroke="rgb(255,255,255)" stroke-opacity="1" stroke-width="1" height="338" width="541" y="0.5" x="0.5" fill="#FFFFFF" ry="0" rx="0"></rect><rect stroke-width="0" height="243" width="482" y="15" x="42" fill="url('#highcharts-58')" ry="0" rx="0"></rect><path fill-opacity="0" fill="rgb(0,0,0)" d="M 52 15 L 52 258 131 258 131 15"></path><path fill-opacity="0" fill="rgb(0,0,0)" d="M 209 15 L 209 258 288 258 288 15"></path><path fill-opacity="0" fill="rgb(0,0,0)" d="M 367 15 L 367 258 445 258 445 15"></path><path stroke-width="0.1" stroke="rgb(0,0,0)" stroke-opacity="0" fill="none" d="M 131.05 15 L 131.05 258"></path><text visibility="" text-anchor="middle" style="font-family:verdana;font-size:10px;line-height:14px;color:#49563a;fill:#49563a;" y="294" x="121"><tspan x="121">2008</tspan></text><path stroke-width="0.1" stroke="rgb(0,0,0)" stroke-opacity="0" fill="none" d="M 288.05 15 L 288.05 258"></path><text visibility="" text-anchor="middle" style="font-family:verdana;font-size:10px;line-height:14px;color:#49563a;fill:#49563a;" y="294" x="278"><tspan x="278">2009</tspan></text><path stroke-width="0.1" stroke="rgb(0,0,0)" stroke-opacity="0" fill="none" d="M 445.05 15 L 445.05 258"></path><text visibility="" text-anchor="middle" style="font-family:verdana;font-size:10px;line-height:14px;color:#49563a;fill:#49563a;" y="294" x="435"><tspan x="435">2010</tspan></text><path fill-opacity="0" fill="rgb(0,0,0)" d="M 42 258 L 524 258 524 209 42 209"></path><path fill-opacity="0" fill="rgb(0,0,0)" d="M 42 161 L 524 161 524 112 42 112"></path><path fill-opacity="0" fill="rgb(0,0,0)" d="M 42 64 L 524 64 524 15 42 15"></path><g lighting3D="true" class="highcharts-canvasBase3D"><path fill="none" d="M 42 258 L 524 258 524 268"></path><rect stroke-width="0" height="10" width="482" y="268" x="32" fill="url('#highcharts-61')" ry="0" rx="0"></rect><path stroke-width="0" fill="url('#highcharts-59')" d="M 32 268 L 514 268 524 258 42 258 Z"></path><path stroke-width="0" fill="url('#highcharts-60')" d="M 514 268 L 524 258 524 268 514 278 Z"></path></g><path fill-opacity="1" fill="rgb(176,181,170)" d="M 524 15 L 527 18.6 527 255 524 258 Z"></path><g  class="highcharts-grid"></g><g  class="highcharts-grid"></g><g  class="highcharts-grid"></g><path  stroke-width="0.1" stroke="rgb(0,0,0)" stroke-opacity="0" fill="none" d="M 42 258.05 L 524 258.05"></path><text visibility=""  text-anchor="end" style="font-family:verdana;font-size:10px;line-height:14px;color:#49563a;fill:#49563a;" y="262" x="38"><tspan x="38">0</tspan></text><path  stroke-width="1" stroke="rgb(172,187,153)" stroke-opacity="1" fill="none" d="M 42 209.5 L 524 209.5"></path><text visibility=""  text-anchor="end" style="font-family:verdana;font-size:10px;line-height:14px;color:#49563a;fill:#49563a;" y="213" x="38"><tspan x="38">2M</tspan></text><path  stroke-width="1" stroke="rgb(172,187,153)" stroke-opacity="1" fill="none" d="M 42 161.5 L 524 161.5"></path><text visibility=""  text-anchor="end" style="font-family:verdana;font-size:10px;line-height:14px;color:#49563a;fill:#49563a;" y="165" x="38"><tspan x="38">4M</tspan></text><path  stroke-width="1" stroke="rgb(172,187,153)" stroke-opacity="1" fill="none" d="M 42 112.5 L 524 112.5"></path><text visibility=""  text-anchor="end" style="font-family:verdana;font-size:10px;line-height:14px;color:#49563a;fill:#49563a;" y="116" x="38"><tspan x="38">6M</tspan></text><path  stroke-width="1" stroke="rgb(172,187,153)" stroke-opacity="1" fill="none" d="M 42 64.5 L 524 64.5"></path><text visibility=""  text-anchor="end" style="font-family:verdana;font-size:10px;line-height:14px;color:#49563a;fill:#49563a;" y="68" x="38"><tspan x="38">8M</tspan></text><path  stroke-width="0.1" stroke="rgb(0,0,0)" stroke-opacity="0" fill="none" d="M 42 15.05 L 524 15.05"></path><text visibility=""  text-anchor="end" style="font-family:verdana;font-size:10px;line-height:14px;color:#49563a;fill:#49563a;" y="19" x="38"><tspan x="38">10M</tspan></text><g  class="highcharts-series-group"><g transform="translate(32,25)" class="highcharts-series-3d"><g  class="highcharts-point"><path transform="translate(1,1)" stroke-width="5" stroke-opacity="0.06" stroke="rgb(0,0,0)"  fill="none" d="M 74 143 L 124 143 124 233"></path><path transform="translate(1,1)" stroke-width="3" stroke-opacity="0.12" stroke="rgb(0,0,0)"  fill="none" d="M 74 143 L 124 143 124 233"></path><path transform="translate(1,1)" stroke-width="1" stroke-opacity="0.18" stroke="rgb(0,0,0)"  fill="none" d="M 74 143 L 124 143 124 233"></path><path fill="none" d="M 74 143 L 124 143 124 233"></path><rect stroke="#FFFFFF" stroke-opacity="0" stroke-width="1" height="90" width="50" y="153" x="64" fill="url('#highcharts-64')" ry="0" rx="0"></rect><path stroke="#FFFFFF" stroke-opacity="0" stroke-width="1" fill="url('#highcharts-62')" d="M 64 153 L 114 153 124 143 74 143 Z"></path><path stroke="#FFFFFF" stroke-opacity="0" stroke-width="1" fill="url('#highcharts-63')" d="M 114 153 L 124 143 124 233 114 243 Z"></path></g><g  class="highcharts-point"><path transform="translate(1,1)" stroke-width="5" stroke-opacity="0.06" stroke="rgb(0,0,0)"  fill="none" d="M 74 54 L 124 54 124 144"></path><path transform="translate(1,1)" stroke-width="3" stroke-opacity="0.12" stroke="rgb(0,0,0)"  fill="none" d="M 74 54 L 124 54 124 144"></path><path transform="translate(1,1)" stroke-width="1" stroke-opacity="0.18" stroke="rgb(0,0,0)"  fill="none" d="M 74 54 L 124 54 124 144"></path><path fill="none" d="M 74 54 L 124 54 124 144"></path><rect stroke="#FFFFFF" stroke-opacity="0" stroke-width="1" height="90" width="50" y="64" x="64" fill="url('#highcharts-67')" ry="0" rx="0"></rect><path stroke="#FFFFFF" stroke-opacity="0" stroke-width="1" fill="url('#highcharts-65')" d="M 64 64 L 114 64 124 54 74 54 Z"></path><path stroke="#FFFFFF" stroke-opacity="0" stroke-width="1" fill="url('#highcharts-66')" d="M 114 64 L 124 54 124 144 114 154 Z"></path></g><g  class="highcharts-point"><path transform="translate(1,1)" stroke-width="5" stroke-opacity="0.06" stroke="rgb(0,0,0)"  fill="none" d="M 231 111 L 281 111 281 233"></path><path transform="translate(1,1)" stroke-width="3" stroke-opacity="0.12" stroke="rgb(0,0,0)"  fill="none" d="M 231 111 L 281 111 281 233"></path><path transform="translate(1,1)" stroke-width="1" stroke-opacity="0.18" stroke="rgb(0,0,0)"  fill="none" d="M 231 111 L 281 111 281 233"></path><path fill="none" d="M 231 111 L 281 111 281 233"></path><rect stroke="#FFFFFF" stroke-opacity="0" stroke-width="1" height="122" width="50" y="121" x="221" fill="url('#highcharts-70')" ry="0" rx="0"></rect><path stroke="#FFFFFF" stroke-opacity="0" stroke-width="1" fill="url('#highcharts-68')" d="M 221 121 L 271 121 281 111 231 111 Z"></path><path stroke="#FFFFFF" stroke-opacity="0" stroke-width="1" fill="url('#highcharts-69')" d="M 271 121 L 281 111 281 233 271 243 Z"></path></g><g  class="highcharts-point"><path transform="translate(1,1)" stroke-width="5" stroke-opacity="0.06" stroke="rgb(0,0,0)"  fill="none" d="M 231 -10 L 281 -10 281 112"></path><path transform="translate(1,1)" stroke-width="3" stroke-opacity="0.12" stroke="rgb(0,0,0)"  fill="none" d="M 231 -10 L 281 -10 281 112"></path><path transform="translate(1,1)" stroke-width="1" stroke-opacity="0.18" stroke="rgb(0,0,0)"  fill="none" d="M 231 -10 L 281 -10 281 112"></path><path fill="none" d="M 231 -10 L 281 -10 281 112"></path><rect stroke="#FFFFFF" stroke-opacity="0" stroke-width="1" height="122" width="50" y="0" x="221" fill="url('#highcharts-73')" ry="0" rx="0"></rect><path stroke="#FFFFFF" stroke-opacity="0" stroke-width="1" fill="url('#highcharts-71')" d="M 221 0 L 271 0 281 -10 231 -10 Z"></path><path stroke="#FFFFFF" stroke-opacity="0" stroke-width="1" fill="url('#highcharts-72')" d="M 271 0 L 281 -10 281 112 271 122 Z"></path></g><g  class="highcharts-point"><path transform="translate(1,1)" stroke-width="5" stroke-opacity="0.06" stroke="rgb(0,0,0)"  fill="none" d="M 388 184 L 438 184 438 233"></path><path transform="translate(1,1)" stroke-width="3" stroke-opacity="0.12" stroke="rgb(0,0,0)"  fill="none" d="M 388 184 L 438 184 438 233"></path><path transform="translate(1,1)" stroke-width="1" stroke-opacity="0.18" stroke="rgb(0,0,0)"  fill="none" d="M 388 184 L 438 184 438 233"></path><path fill="none" d="M 388 184 L 438 184 438 233"></path><rect stroke="#FFFFFF" stroke-opacity="0" stroke-width="1" height="49" width="50" y="194" x="378" fill="url('#highcharts-76')" ry="0" rx="0"></rect><path stroke="#FFFFFF" stroke-opacity="0" stroke-width="1" fill="url('#highcharts-74')" d="M 378 194 L 428 194 438 184 388 184 Z"></path><path stroke="#FFFFFF" stroke-opacity="0" stroke-width="1" fill="url('#highcharts-75')" d="M 428 194 L 438 184 438 233 428 243 Z"></path></g><g  class="highcharts-point"><path transform="translate(1,1)" stroke-width="5" stroke-opacity="0.06" stroke="rgb(0,0,0)"  fill="none" d="M 388 136 L 438 136 438 185"></path><path transform="translate(1,1)" stroke-width="3" stroke-opacity="0.12" stroke="rgb(0,0,0)"  fill="none" d="M 388 136 L 438 136 438 185"></path><path transform="translate(1,1)" stroke-width="1" stroke-opacity="0.18" stroke="rgb(0,0,0)"  fill="none" d="M 388 136 L 438 136 438 185"></path><path fill="none" d="M 388 136 L 438 136 438 185"></path><rect stroke="#FFFFFF" stroke-opacity="0" stroke-width="1" height="49" width="50" y="146" x="378" fill="url('#highcharts-79')" ry="0" rx="0"></rect><path stroke="#FFFFFF" stroke-opacity="0" stroke-width="1" fill="url('#highcharts-77')" d="M 378 146 L 428 146 438 136 388 136 Z"></path><path stroke="#FFFFFF" stroke-opacity="0" stroke-width="1" fill="url('#highcharts-78')" d="M 428 146 L 438 136 438 185 428 195 Z"></path></g></g></g><g transform="translate(42,15)"  visibility="" class="highcharts-data-labels"><text  text-anchor="middle" style="font-family:verdana;font-size:10px;color:#49563a;line-height:14px;text-decoration:none;font-weight:normal;font-style:normal;fill:#49563a;" y="203" x="79"><tspan x="79">3.68M</tspan></text><text  text-anchor="middle" style="font-family:verdana;font-size:10px;color:#49563a;line-height:14px;text-decoration:none;font-weight:normal;font-style:normal;fill:#49563a;" y="187" x="236"><tspan x="236">4.99M</tspan></text><text  text-anchor="middle" style="font-family:verdana;font-size:10px;color:#49563a;line-height:14px;text-decoration:none;font-weight:normal;font-style:normal;fill:#49563a;" y="223" x="393"><tspan x="393">1.98M</tspan></text></g><g transform="translate(42,15)"  visibility="" class="highcharts-data-labels"><text  text-anchor="middle" style="font-family:verdana;font-size:10px;color:#49563a;line-height:14px;text-decoration:none;font-weight:normal;font-style:normal;fill:#49563a;" y="114" x="79"><tspan x="79">3.68M</tspan></text><text  text-anchor="middle" style="font-family:verdana;font-size:10px;color:#49563a;line-height:14px;text-decoration:none;font-weight:normal;font-style:normal;fill:#49563a;" y="66" x="236"><tspan x="236">4.99M</tspan></text><text  text-anchor="middle" style="font-family:verdana;font-size:10px;color:#49563a;line-height:14px;text-decoration:none;font-weight:normal;font-style:normal;fill:#49563a;" y="175" x="393"><tspan x="393">1.98M</tspan></text></g><g  class="highcharts-axis"></g><g  class="highcharts-axis"></g><g  class="highcharts-axis"></g><g visibility="hidden"  class="highcharts-tooltip"><rect fill-opacity="1" stroke-width="1" height="0" width="0" y="1.5" x="1.5" fill="rgb(255,255,255)" ry="1" rx="1"></rect><text  style="font-family:verdana;font-size:10px;color:#49563a;padding:0;white-space:nowrap;line-height:14px;fill:#49563a;" y="11" x="1"><tspan x="1"> </tspan></text></g><text  text-anchor="end" style="font-family:'lucida grande', 'lucida sans unicode', verdana, arial, helvetica, sans-serif;font-size:10px;cursor:pointer;color:#909090;fill:#909090;" y="334" x="532"><tspan x="532">FusionCharts</tspan></text><g transform="translate(42,15)"  class="highcharts-tracker"><path style=""  visibility="" fill-opacity="0.000001"  fill="rgb(192,192,192)" d="M 54 163 L 54 253 104 253 114 243 114 153 64 153 Z"></path><path style=""  visibility="" fill-opacity="0.000001"  fill="rgb(192,192,192)" d="M 54 74 L 54 164 104 164 114 154 114 64 64 64 Z"></path><path style=""  visibility="" fill-opacity="0.000001"  fill="rgb(192,192,192)" d="M 211 131 L 211 253 261 253 271 243 271 121 221 121 Z"></path><path style=""  visibility="" fill-opacity="0.000001"  fill="rgb(192,192,192)" d="M 211 10 L 211 132 261 132 271 122 271 0 221 0 Z"></path><path style=""  visibility="" fill-opacity="0.000001"  fill="rgb(192,192,192)" d="M 368 204 L 368 253 418 253 428 243 428 194 378 194 Z"></path><path style=""  visibility="" fill-opacity="0.000001"  fill="rgb(192,192,192)" d="M 368 156 L 368 205 418 205 428 195 428 146 378 146 Z"></path></g><g transform="translate(194,301)"  class="highcharts-legend"><rect visibility="" transform="translate(1,1)"  fill-opacity="1" stroke="rgb(0,0,0)" stroke-opacity="0.06" stroke-width="5" height="22" width="181" y="0.5" x="0.5" fill="none" ry="0" rx="0"></rect><rect visibility="" transform="translate(1,1)"  fill-opacity="1" stroke="rgb(0,0,0)" stroke-opacity="0.12" stroke-width="3" height="22" width="181" y="0.5" x="0.5" fill="none" ry="0" rx="0"></rect><rect visibility="" transform="translate(1,1)"  fill-opacity="1" stroke="rgb(0,0,0)" stroke-opacity="0.18" stroke-width="1" height="22" width="181" y="0.5" x="0.5" fill="none" ry="0" rx="0"></rect><rect visibility="" fill-opacity="1" stroke="rgb(198,207,184)" stroke-opacity="1" stroke-width="1" height="22" width="181" y="0.5" x="0.5" fill="rgb(240,243,237)" ry="0" rx="0"></rect><text transform="translate(23,15)"  style="font-family:verdana;font-size:10px;cursor:pointer;color:#49563a;line-height:14px;fill:#49563a;" y="0" x="0"><tspan x="0">Total </tspan></text><text transform="translate(110,15)"  style="font-family:verdana;font-size:10px;cursor:pointer;color:#49563a;line-height:14px;fill:#49563a;" y="0" x="0"><tspan x="0">Total Check </tspan></text><path transform="translate(23,14)" style="_cursor:hand;cursor:pointer;" stroke="#990000"  stroke-width="0.5" fill="url('#highcharts-55')" d="M -16 2 L -16 -4.3 -13.75 -4.3 -13.75 2 -12.629999999999999 2 -12.629999999999999 -7 -10.379999999999999 -7 -10.379999999999999 2 -9.259999999999998 2 -9.259999999999998 -1.5999999999999996 -7 -1.5999999999999996 -7 2 Z"></path><path transform="translate(110,14)" style="_cursor:hand;cursor:pointer;" stroke="#4c9900"  stroke-width="0.5" fill="url('#highcharts-56')" d="M -16 2 L -16 -4.3 -13.75 -4.3 -13.75 2 -12.629999999999999 2 -12.629999999999999 -7 -10.379999999999999 -7 -10.379999999999999 2 -9.259999999999998 2 -9.259999999999998 -1.5999999999999996 -7 -1.5999999999999996 -7 2 Z"></path></g></svg>