<svg xmlns:xlink="http://www.w3.org/1999/xlink" height="339" width="542" version="1.1" xmlns="http://www.w3.org/2000/svg"><defs><linearGradient y2="0%" x2="50%" y1="100%" x1="50%" gradientUnits="objectBoundingBox" id="highcharts-17"><stop stop-opacity="1" stop-color="#FF0000" offset="0%"></stop><stop stop-opacity="1" stop-color="#FF0000" offset="30%"></stop><stop stop-opacity="1" stop-color="#ff9999" offset="60%"></stop><stop stop-opacity="1" stop-color="#FF0000" offset="90%"></stop><stop stop-opacity="1" stop-color="#FF0000" offset="100%"></stop></linearGradient><linearGradient y2="0%" x2="50%" y1="100%" x1="50%" gradientUnits="objectBoundingBox" id="highcharts-18"><stop stop-opacity="1" stop-color="#80ff00" offset="0%"></stop><stop stop-opacity="1" stop-color="#80ff00" offset="30%"></stop><stop stop-opacity="1" stop-color="#ccff99" offset="60%"></stop><stop stop-opacity="1" stop-color="#80ff00" offset="90%"></stop><stop stop-opacity="1" stop-color="#80ff00" offset="100%"></stop></linearGradient><clipPath id="highcharts-19"><rect stroke-width="0" height="337" width="540" y="1" x="1" fill="none" ry="0" rx="0"></rect></clipPath><clipPath id="highcharts-20"><rect stroke-width="0" height="339" width="542" y="-15" x="-47" fill="none" ry="0" rx="0"></rect></clipPath><linearGradient y2="0%" x2="50%" y1="100%" x1="50%" gradientUnits="objectBoundingBox" id="highcharts-21"><stop stop-opacity="0.7" stop-color="#FF0000" offset="0%"></stop><stop stop-opacity="0.7" stop-color="#FFFFFF" offset="100%"></stop></linearGradient><linearGradient y2="0%" x2="50%" y1="100%" x1="50%" gradientUnits="objectBoundingBox" id="highcharts-22"><stop stop-opacity="0.7" stop-color="#80ff00" offset="0%"></stop><stop stop-opacity="0.7" stop-color="#FFFFFF" offset="100%"></stop></linearGradient></defs><rect fill-opacity="0" stroke="rgb(255,255,255)" stroke-opacity="0.5" stroke-width="1" height="338" width="541" y="0.5" x="0.5" fill="#FFFFFF" ry="0" rx="0"></rect><rect fill-opacity="1" stroke-width="0" height="263" width="475" y="15" x="47" fill="#FFFFFF" ry="0" rx="0"></rect><path fill-opacity="0" fill="rgb(0,0,0)" d="M 47 15 L 47 278 166 278 166 15"></path><path fill-opacity="0" fill="rgb(0,0,0)" d="M 285 15 L 285 278 403 278 403 15"></path><path stroke-width="0.1" stroke="rgb(0,0,0)" stroke-opacity="0" fill="none" d="M 47.05 15 L 47.05 278"></path><text visibility="" text-anchor="middle" style="font-family:verdana;font-size:10px;line-height:14px;color:#555555;fill:#555555;" y="294" x="47"><tspan x="47">2008</tspan></text><path stroke-width="0.1" stroke="rgb(0,0,0)" stroke-opacity="0" fill="none" d="M 285.05 15 L 285.05 278"></path><text visibility="" text-anchor="middle" style="font-family:verdana;font-size:10px;line-height:14px;color:#555555;fill:#555555;" y="294" x="285"><tspan x="285">2009</tspan></text><path stroke-width="0.1" stroke="rgb(0,0,0)" stroke-opacity="0" fill="none" d="M 522.05 15 L 522.05 278"></path><text visibility="" text-anchor="middle" style="font-family:verdana;font-size:10px;line-height:14px;color:#555555;fill:#555555;" y="294" x="522"><tspan x="522">2010</tspan></text><path fill-opacity="0" fill="rgb(0,0,0)" d="M 47 278 L 522.002079002079 278 522.002079002079 225 47 225"></path><path fill-opacity="0" fill="rgb(0,0,0)" d="M 47 173 L 522.002079002079 173 522.002079002079 120 47 120"></path><path fill-opacity="0" fill="rgb(0,0,0)" d="M 47 68 L 522.002079002079 68 522.002079002079 15 47 15"></path><g  class="highcharts-grid"></g><g  class="highcharts-grid"></g><g  class="highcharts-grid"></g><path  stroke-width="0.1" stroke="rgb(0,0,0)" stroke-opacity="0" fill="none" d="M 47 278.05 L 522.002079002079 278.05"></path><text visibility=""  text-anchor="end" style="font-family:verdana;font-size:10px;line-height:14px;color:#555555;fill:#555555;" y="282" x="43"><tspan x="43">0</tspan></text><path  fill-opacity="0.5" fill="rgb(238,238,238)" d="M 47 225 L 522.002079002079 225 522.002079002079 173 47 173"></path><path  fill-opacity="0.5" fill="rgb(238,238,238)" d="M 47 120 L 522.002079002079 120 522.002079002079 68 47 68"></path><rect  stroke-linejoin="round" stroke="rgb(84,84,84)" stroke-opacity="1" stroke-width="2" height="265" width="477" y="14" x="46" fill="none" ry="0" rx="0"></rect><path  stroke-width="1" stroke="rgb(113,113,112)" stroke-opacity="0.4" fill="none" d="M 47 225.5 L 522.002079002079 225.5"></path><text visibility=""  text-anchor="end" style="font-family:verdana;font-size:10px;line-height:14px;color:#555555;fill:#555555;" y="229" x="43"><tspan x="43">800K</tspan></text><path  stroke-width="1" stroke="rgb(113,113,112)" stroke-opacity="0.4" fill="none" d="M 47 173.5 L 522.002079002079 173.5"></path><text visibility=""  text-anchor="end" style="font-family:verdana;font-size:10px;line-height:14px;color:#555555;fill:#555555;" y="177" x="43"><tspan x="43">1.6M</tspan></text><path  stroke-width="1" stroke="rgb(113,113,112)" stroke-opacity="0.4" fill="none" d="M 47 120.5 L 522.002079002079 120.5"></path><text visibility=""  text-anchor="end" style="font-family:verdana;font-size:10px;line-height:14px;color:#555555;fill:#555555;" y="124" x="43"><tspan x="43">2.4M</tspan></text><path  stroke-width="1" stroke="rgb(113,113,112)" stroke-opacity="0.4" fill="none" d="M 47 68.5 L 522.002079002079 68.5"></path><text visibility=""  text-anchor="end" style="font-family:verdana;font-size:10px;line-height:14px;color:#555555;fill:#555555;" y="72" x="43"><tspan x="43">3.2M</tspan></text><path  stroke-width="0.1" stroke="rgb(0,0,0)" stroke-opacity="0" fill="none" d="M 47 15.05 L 522.002079002079 15.05"></path><text visibility=""  text-anchor="end" style="font-family:verdana;font-size:10px;line-height:14px;color:#555555;fill:#555555;" y="19" x="43"><tspan x="43">4M</tspan></text><g  class="highcharts-series-group"><g transform="translate(47,15)" visibility="" clip-path="url('#highcharts-20')" class="highcharts-series"><path fill="url('#highcharts-21')" d="M 0 159.2866732499998 L 237.5 125.73077677000026 L 475 60.43573389499997 L 475 263 L 0 263"></path><path stroke-linecap="round" stroke-width="1" stroke="#767575" stroke-opacity="0.95" fill="none" d="M 0 159.2866732499998 L 237.5 125.73077677000026 L 475 60.43573389499997"></path><circle fill="#FFFFFF" fill-opacity="0" stroke-width="1" stroke="#FF0000" stroke-opacity="0" r="3" cy="60.43573389499997" cx="475"></circle><circle fill="#FFFFFF" fill-opacity="0" stroke-width="1" stroke="#FF0000" stroke-opacity="0" r="3" cy="125.73077677000026" cx="237.5"></circle><circle fill="#FFFFFF" fill-opacity="0" stroke-width="1" stroke="#FF0000" stroke-opacity="0" r="3" cy="159.2866732499998" cx="0"></circle></g><g transform="translate(47,15)" visibility="" clip-path="url('#highcharts-20')" class="highcharts-series"><path fill="url('#highcharts-22')" d="M 0 21.21167324999982 L 237.5 158.60577677000026 L 475 132.76073389499996 L 475 263 L 0 263"></path><path stroke-linecap="round" stroke-width="1" stroke="#767575" stroke-opacity="0.95" fill="none" d="M 0 21.21167324999982 L 237.5 158.60577677000026 L 475 132.76073389499996"></path><circle fill="#FFFFFF" fill-opacity="0" stroke-width="1" stroke="#80ff00" stroke-opacity="0" r="3" cy="132.76073389499996" cx="475"></circle><circle fill="#FFFFFF" fill-opacity="0" stroke-width="1" stroke="#80ff00" stroke-opacity="0" r="3" cy="158.60577677000026" cx="237.5"></circle><circle fill="#FFFFFF" fill-opacity="0" stroke-width="1" stroke="#80ff00" stroke-opacity="0" r="3" cy="21.21167324999982" cx="0"></circle></g></g><g transform="translate(47,15)"  visibility="" class="highcharts-data-labels"><text  text-anchor="middle" style="font-family:verdana;font-size:10px;color:#555555;line-height:14px;text-decoration:none;font-weight:normal;font-style:normal;fill:#555555;" y="153" x="0"><tspan x="0">1.58M</tspan></text><text  text-anchor="middle" style="font-family:verdana;font-size:10px;color:#555555;line-height:14px;text-decoration:none;font-weight:normal;font-style:normal;fill:#555555;" y="120" x="238"><tspan x="238">2.09M</tspan></text><text  text-anchor="middle" style="font-family:verdana;font-size:10px;color:#555555;line-height:14px;text-decoration:none;font-weight:normal;font-style:normal;fill:#555555;" y="54" x="475"><tspan x="475">3.08M</tspan></text></g><g transform="translate(47,15)"  visibility="" class="highcharts-data-labels"><text  text-anchor="middle" style="font-family:verdana;font-size:10px;color:#555555;line-height:14px;text-decoration:none;font-weight:normal;font-style:normal;fill:#555555;" y="15" x="0"><tspan x="0">3.68M</tspan></text><text  text-anchor="middle" style="font-family:verdana;font-size:10px;color:#555555;line-height:14px;text-decoration:none;font-weight:normal;font-style:normal;fill:#555555;" y="175" x="238"><tspan x="238">1.59M</tspan></text><text  text-anchor="middle" style="font-family:verdana;font-size:10px;color:#555555;line-height:14px;text-decoration:none;font-weight:normal;font-style:normal;fill:#555555;" y="127" x="475"><tspan x="475">1.98M</tspan></text></g><g  class="highcharts-axis"></g><g  class="highcharts-axis"></g><g  class="highcharts-axis"></g><g visibility="hidden"  class="highcharts-tooltip"><rect fill-opacity="1" stroke-width="1" height="0" width="0" y="1.5" x="1.5" fill="rgb(255,255,255)" ry="1" rx="1"></rect><text  style="font-family:verdana;font-size:10px;color:#555555;padding:0;white-space:nowrap;line-height:14px;fill:#555555;" y="11" x="1"><tspan x="1"> </tspan></text></g><text  text-anchor="end" style="font-family:'lucida grande', 'lucida sans unicode', verdana, arial, helvetica, sans-serif;font-size:10px;cursor:pointer;color:#909090;fill:#909090;" y="334" x="532"><tspan x="532">FusionCharts</tspan></text><g transform="translate(47,15)"  class="highcharts-tracker"><path style=""  visibility="" stroke-width="21" stroke="rgb(192,192,192)" stroke-opacity="0.000001"  fill="none" d="M -10 159.2866732499998 L 0 159.2866732499998 L 237.5 125.73077677000026 L 475 60.43573389499997 L 485 60.43573389499997"></path><path style=""  visibility="" stroke-width="21" stroke="rgb(192,192,192)" stroke-opacity="0.000001"  fill="none" d="M -10 21.21167324999982 L 0 21.21167324999982 L 237.5 158.60577677000026 L 475 132.76073389499996 L 485 132.76073389499996"></path></g><g transform="translate(196,301)"  class="highcharts-legend"><rect visibility="" transform="translate(1,1)"  fill-opacity="1" stroke="rgb(0,0,0)" stroke-opacity="0.06" stroke-width="5" height="22" width="181" y="0.5" x="0.5" fill="none" ry="0" rx="0"></rect><rect visibility="" transform="translate(1,1)"  fill-opacity="1" stroke="rgb(0,0,0)" stroke-opacity="0.12" stroke-width="3" height="22" width="181" y="0.5" x="0.5" fill="none" ry="0" rx="0"></rect><rect visibility="" transform="translate(1,1)"  fill-opacity="1" stroke="rgb(0,0,0)" stroke-opacity="0.18" stroke-width="1" height="22" width="181" y="0.5" x="0.5" fill="none" ry="0" rx="0"></rect><rect visibility="" fill-opacity="1" stroke="rgb(84,84,84)" stroke-opacity="1" stroke-width="1" height="22" width="181" y="0.5" x="0.5" fill="rgb(255,255,255)" ry="0" rx="0"></rect><text transform="translate(23,15)"  style="font-family:verdana;font-size:10px;cursor:pointer;color:#555555;line-height:14px;fill:#555555;" y="0" x="0"><tspan x="0">Total </tspan></text><text transform="translate(110,15)"  style="font-family:verdana;font-size:10px;cursor:pointer;color:#555555;line-height:14px;fill:#555555;" y="0" x="0"><tspan x="0">Total Check </tspan></text><path transform="translate(23,14)" style="_cursor:hand;cursor:pointer;" stroke="#990000"  stroke-width="0.5" fill="url('#highcharts-17')" d="M -16 0.20000000000000018 L -16 -1.6000000000000005 -13.3 -5.2 -10.600000000000001 -1.6000000000000005 -7 -5.2 -7 0.20000000000000018 Z"></path><path transform="translate(110,14)" style="_cursor:hand;cursor:pointer;" stroke="#4c9900"  stroke-width="0.5" fill="url('#highcharts-18')" d="M -16 0.20000000000000018 L -16 -1.6000000000000005 -13.3 -5.2 -10.600000000000001 -1.6000000000000005 -7 -5.2 -7 0.20000000000000018 Z"></path></g></svg>