<svg xmlns:xlink="http://www.w3.org/1999/xlink" height="339" width="542" version="1.1" xmlns="http://www.w3.org/2000/svg"><defs><linearGradient y2="50%" x2="100%" y1="50%" x1="0%" gradientUnits="objectBoundingBox" id="highcharts-25"><stop stop-opacity="1" stop-color="#FF0000" offset="0%"></stop><stop stop-opacity="1" stop-color="#FF0000" offset="30%"></stop><stop stop-opacity="1" stop-color="#ff9999" offset="60%"></stop><stop stop-opacity="1" stop-color="#FF0000" offset="90%"></stop><stop stop-opacity="1" stop-color="#FF0000" offset="100%"></stop></linearGradient><linearGradient y2="50%" x2="100%" y1="50%" x1="0%" gradientUnits="objectBoundingBox" id="highcharts-26"><stop stop-opacity="1" stop-color="#80ff00" offset="0%"></stop><stop stop-opacity="1" stop-color="#80ff00" offset="30%"></stop><stop stop-opacity="1" stop-color="#ccff99" offset="60%"></stop><stop stop-opacity="1" stop-color="#80ff00" offset="90%"></stop><stop stop-opacity="1" stop-color="#80ff00" offset="100%"></stop></linearGradient><clipPath id="highcharts-27"><rect stroke-width="0" height="337" width="540" y="1" x="1" fill="none" ry="0" rx="0"></rect></clipPath><clipPath id="highcharts-28"><rect stroke-width="0" height="542" width="339" y="-47" x="-15" fill="none" ry="0" rx="0"></rect></clipPath><linearGradient y2="100%" x2="50%" y1="0%" x1="50%" gradientUnits="objectBoundingBox" id="highcharts-29"><stop stop-opacity="1" stop-color="#FF0000" offset="0%"></stop><stop stop-opacity="1" stop-color="#FFFFFF" offset="100%"></stop></linearGradient><linearGradient y2="100%" x2="50%" y1="0%" x1="50%" gradientUnits="objectBoundingBox" id="highcharts-30"><stop stop-opacity="1" stop-color="#FF0000" offset="0%"></stop><stop stop-opacity="1" stop-color="#FFFFFF" offset="100%"></stop></linearGradient><linearGradient y2="100%" x2="50%" y1="0%" x1="50%" gradientUnits="objectBoundingBox" id="highcharts-31"><stop stop-opacity="1" stop-color="#FF0000" offset="0%"></stop><stop stop-opacity="1" stop-color="#FFFFFF" offset="100%"></stop></linearGradient><linearGradient y2="100%" x2="50%" y1="0%" x1="50%" gradientUnits="objectBoundingBox" id="highcharts-32"><stop stop-opacity="1" stop-color="#80ff00" offset="0%"></stop><stop stop-opacity="1" stop-color="#FFFFFF" offset="100%"></stop></linearGradient><linearGradient y2="100%" x2="50%" y1="0%" x1="50%" gradientUnits="objectBoundingBox" id="highcharts-33"><stop stop-opacity="1" stop-color="#80ff00" offset="0%"></stop><stop stop-opacity="1" stop-color="#FFFFFF" offset="100%"></stop></linearGradient><linearGradient y2="100%" x2="50%" y1="0%" x1="50%" gradientUnits="objectBoundingBox" id="highcharts-34"><stop stop-opacity="1" stop-color="#80ff00" offset="0%"></stop><stop stop-opacity="1" stop-color="#FFFFFF" offset="100%"></stop></linearGradient></defs><rect fill-opacity="0" stroke="rgb(255,255,255)" stroke-opacity="0.5" stroke-width="1" height="338" width="541" y="0.5" x="0.5" fill="#FFFFFF" ry="0" rx="0"></rect><rect fill-opacity="1" stroke-width="0" height="263" width="480" y="15" x="47" fill="#FFFFFF" ry="0" rx="0"></rect><path fill-opacity="0" fill="rgb(0,0,0)" d="M 47 62 L 527 62 527 147 47 147"></path><path fill-opacity="0" fill="rgb(0,0,0)" d="M 47 231 L 527 231 527 278 47 278"></path><path stroke-width="0.1" stroke="rgb(0,0,0)" stroke-opacity="0" fill="none" d="M 47 62.05 L 527 62.05"></path><text visibility="" text-anchor="end" style="font-family:verdana;font-size:10px;line-height:14px;color:#555555;fill:#555555;" y="66" x="43"><tspan x="43">2008</tspan></text><path stroke-width="0.1" stroke="rgb(0,0,0)" stroke-opacity="0" fill="none" d="M 47 147.05 L 527 147.05"></path><text visibility="" text-anchor="end" style="font-family:verdana;font-size:10px;line-height:14px;color:#555555;fill:#555555;" y="151" x="43"><tspan x="43">2009</tspan></text><path stroke-width="0.1" stroke="rgb(0,0,0)" stroke-opacity="0" fill="none" d="M 47 231.05 L 527 231.05"></path><text visibility="" text-anchor="end" style="font-family:verdana;font-size:10px;line-height:14px;color:#555555;fill:#555555;" y="235" x="43"><tspan x="43">2010</tspan></text><path fill-opacity="0" fill="rgb(0,0,0)" d="M 47 15 L 47 278 143 278 143 15"></path><path fill-opacity="0" fill="rgb(0,0,0)" d="M 239 15 L 239 278 335 278 335 15"></path><path fill-opacity="0" fill="rgb(0,0,0)" d="M 431 15 L 431 278 527 278 527 15"></path><g  class="highcharts-grid"></g><g  class="highcharts-grid"></g><g  class="highcharts-grid"></g><path  stroke-width="0.1" stroke="rgb(0,0,0)" stroke-opacity="0" fill="none" d="M 47.05 15 L 47.05 278"></path><text visibility=""  text-anchor="middle" style="font-family:verdana;font-size:10px;line-height:14px;color:#555555;fill:#555555;" y="294" x="47"><tspan x="47">0</tspan></text><path  fill-opacity="0.1" fill="rgb(118,117,117)" d="M 143 15 L 143 278 239 278 239 15"></path><path  fill-opacity="0.1" fill="rgb(118,117,117)" d="M 335 15 L 335 278 431 278 431 15"></path><rect  stroke-linejoin="round" stroke="rgb(84,84,84)" stroke-opacity="1" stroke-width="2" height="265" width="482" y="14" x="46" fill="none" ry="0" rx="0"></rect><path  stroke-width="1" stroke="rgb(113,113,112)" stroke-opacity="0.4" fill="none" d="M 143.5 15 L 143.5 278"></path><text visibility=""  text-anchor="middle" style="font-family:verdana;font-size:10px;line-height:14px;color:#555555;fill:#555555;" y="294" x="144"><tspan x="144">2M</tspan></text><path  stroke-width="1" stroke="rgb(113,113,112)" stroke-opacity="0.4" fill="none" d="M 239.5 15 L 239.5 278"></path><text visibility=""  text-anchor="middle" style="font-family:verdana;font-size:10px;line-height:14px;color:#555555;fill:#555555;" y="294" x="240"><tspan x="240">4M</tspan></text><path  stroke-width="1" stroke="rgb(113,113,112)" stroke-opacity="0.4" fill="none" d="M 335.5 15 L 335.5 278"></path><text visibility=""  text-anchor="middle" style="font-family:verdana;font-size:10px;line-height:14px;color:#555555;fill:#555555;" y="294" x="336"><tspan x="336">6M</tspan></text><path  stroke-width="1" stroke="rgb(113,113,112)" stroke-opacity="0.4" fill="none" d="M 431.5 15 L 431.5 278"></path><text visibility=""  text-anchor="middle" style="font-family:verdana;font-size:10px;line-height:14px;color:#555555;fill:#555555;" y="294" x="432"><tspan x="432">8M</tspan></text><path  stroke-width="0.1" stroke="rgb(0,0,0)" stroke-opacity="0" fill="none" d="M 527.05 15 L 527.05 278"></path><text visibility=""  text-anchor="middle" style="font-family:verdana;font-size:10px;line-height:14px;color:#555555;fill:#555555;" y="294" x="527"><tspan x="527">10M</tspan></text><g  class="highcharts-series-group"><g visibility="" clip-path="url('#highcharts-28')" transform="translate(527,278) rotate(90) scale(-1,1)" height="263" width="480" class="highcharts-series"><rect r="0" stroke="#333333" stroke-opacity="1" stroke-width="1" height="176" width="49" y="303.5" x="191.5" fill="url('#highcharts-29')" ry="0" rx="0"></rect><rect r="0" stroke="#333333" stroke-opacity="1" stroke-width="1" height="239" width="49" y="240.5" x="107.5" fill="url('#highcharts-30')" ry="0" rx="0"></rect><rect r="0" stroke="#333333" stroke-opacity="1" stroke-width="1" height="95" width="49" y="384.5" x="22.5" fill="url('#highcharts-31')" ry="0" rx="0"></rect></g><g visibility="" clip-path="url('#highcharts-28')" transform="translate(527,278) rotate(90) scale(-1,1)" height="263" width="480" class="highcharts-series"><rect r="0" stroke="#333333" stroke-opacity="1" stroke-width="1" height="177" width="49" y="126.5" x="191.5" fill="url('#highcharts-32')" ry="0" rx="0"></rect><rect r="0" stroke="#333333" stroke-opacity="1" stroke-width="1" height="239" width="49" y="1.5" x="107.5" fill="url('#highcharts-33')" ry="0" rx="0"></rect><rect r="0" stroke="#333333" stroke-opacity="1" stroke-width="1" height="95" width="49" y="289.5" x="22.5" fill="url('#highcharts-34')" ry="0" rx="0"></rect></g></g><g transform="translate(47,15)"  visibility="" class="highcharts-data-labels"><text  text-anchor="middle" style="font-family:verdana;font-size:10px;color:#555555;line-height:14px;text-decoration:none;font-weight:normal;font-style:normal;fill:#555555;" y="52" x="93"><tspan x="93">3.68M</tspan></text><text  text-anchor="middle" style="font-family:verdana;font-size:10px;color:#555555;line-height:14px;text-decoration:none;font-weight:normal;font-style:normal;fill:#555555;" y="137" x="125"><tspan x="125">4.99M</tspan></text><text  text-anchor="middle" style="font-family:verdana;font-size:10px;color:#555555;line-height:14px;text-decoration:none;font-weight:normal;font-style:normal;fill:#555555;" y="221" x="53"><tspan x="53">1.98M</tspan></text></g><g transform="translate(47,15)"  visibility="" class="highcharts-data-labels"><text  text-anchor="middle" style="font-family:verdana;font-size:10px;color:#555555;line-height:14px;text-decoration:none;font-weight:normal;font-style:normal;fill:#555555;" y="52" x="270"><tspan x="270">3.68M</tspan></text><text  text-anchor="middle" style="font-family:verdana;font-size:10px;color:#555555;line-height:14px;text-decoration:none;font-weight:normal;font-style:normal;fill:#555555;" y="137" x="364"><tspan x="364">4.99M</tspan></text><text  text-anchor="middle" style="font-family:verdana;font-size:10px;color:#555555;line-height:14px;text-decoration:none;font-weight:normal;font-style:normal;fill:#555555;" y="221" x="148"><tspan x="148">1.98M</tspan></text></g><g  class="highcharts-axis"></g><g  class="highcharts-axis"></g><g  class="highcharts-axis"></g><g visibility="hidden"  class="highcharts-tooltip"><rect fill-opacity="1" stroke-width="1" height="0" width="0" y="1.5" x="1.5" fill="rgb(255,255,255)" ry="1" rx="1"></rect><text  style="font-family:verdana;font-size:10px;color:#555555;padding:0;white-space:nowrap;line-height:14px;fill:#555555;" y="11" x="1"><tspan x="1"> </tspan></text></g><text  text-anchor="end" style="font-family:'lucida grande', 'lucida sans unicode', verdana, arial, helvetica, sans-serif;font-size:10px;cursor:pointer;color:#909090;fill:#909090;" y="334" x="532"><tspan x="532">FusionCharts</tspan></text><g height="263" width="480" transform="translate(527,278) rotate(90) scale(-1,1)"  class="highcharts-tracker"><rect style=""  visibility="" fill-opacity="0.000001"  stroke-width="0" height="177" width="50" y="303" x="191" fill="rgb(192,192,192)" ry="0" rx="0"></rect><rect style=""  visibility="" fill-opacity="0.000001"  stroke-width="0" height="240" width="50" y="240" x="107" fill="rgb(192,192,192)" ry="0" rx="0"></rect><rect style=""  visibility="" fill-opacity="0.000001"  stroke-width="0" height="96" width="50" y="384" x="22" fill="rgb(192,192,192)" ry="0" rx="0"></rect><rect style=""  visibility="" fill-opacity="0.000001"  stroke-width="0" height="178" width="50" y="126" x="191" fill="rgb(192,192,192)" ry="0" rx="0"></rect><rect style=""  visibility="" fill-opacity="0.000001"  stroke-width="0" height="240" width="50" y="1" x="107" fill="rgb(192,192,192)" ry="0" rx="0"></rect><rect style=""  visibility="" fill-opacity="0.000001"  stroke-width="0" height="96" width="50" y="289" x="22" fill="rgb(192,192,192)" ry="0" rx="0"></rect></g><g transform="translate(196,301)"  class="highcharts-legend"><rect visibility="" transform="translate(1,1)"  fill-opacity="1" stroke="rgb(0,0,0)" stroke-opacity="0.06" stroke-width="5" height="22" width="181" y="0.5" x="0.5" fill="none" ry="0" rx="0"></rect><rect visibility="" transform="translate(1,1)"  fill-opacity="1" stroke="rgb(0,0,0)" stroke-opacity="0.12" stroke-width="3" height="22" width="181" y="0.5" x="0.5" fill="none" ry="0" rx="0"></rect><rect visibility="" transform="translate(1,1)"  fill-opacity="1" stroke="rgb(0,0,0)" stroke-opacity="0.18" stroke-width="1" height="22" width="181" y="0.5" x="0.5" fill="none" ry="0" rx="0"></rect><rect visibility="" fill-opacity="1" stroke="rgb(84,84,84)" stroke-opacity="1" stroke-width="1" height="22" width="181" y="0.5" x="0.5" fill="rgb(255,255,255)" ry="0" rx="0"></rect><text transform="translate(23,15)"  style="font-family:verdana;font-size:10px;cursor:pointer;color:#555555;line-height:14px;fill:#555555;" y="0" x="0"><tspan x="0">Total </tspan></text><text transform="translate(110,15)"  style="font-family:verdana;font-size:10px;cursor:pointer;color:#555555;line-height:14px;fill:#555555;" y="0" x="0"><tspan x="0">Total Check </tspan></text><path transform="translate(23,14)" style="_cursor:hand;cursor:pointer;" stroke="#990000"  stroke-width="0.5" fill="url('#highcharts-25')" d="M -16 -7 L -10.600000000000001 -7 -10.600000000000001 -4.75 -16 -4.75 -16 -3.625 -7 -3.625 -7 -1.375 -16 -1.375 -16 -0.25 -13.3 -0.25 -13.3 2 -16 2 Z"></path><path transform="translate(110,14)" style="_cursor:hand;cursor:pointer;" stroke="#4c9900"  stroke-width="0.5" fill="url('#highcharts-26')" d="M -16 -7 L -10.600000000000001 -7 -10.600000000000001 -4.75 -16 -4.75 -16 -3.625 -7 -3.625 -7 -1.375 -16 -1.375 -16 -0.25 -13.3 -0.25 -13.3 2 -16 2 Z"></path></g></svg>