<svg xmlns:xlink="http://www.w3.org/1999/xlink" height="339" width="542" version="1.1" xmlns="http://www.w3.org/2000/svg"><defs><linearGradient y2="50%" x2="100%" y1="50%" x1="0%" gradientUnits="objectBoundingBox" id="highcharts-58"><stop stop-opacity="1" stop-color="#FF0000" offset="0%"></stop><stop stop-opacity="1" stop-color="#FF0000" offset="30%"></stop><stop stop-opacity="1" stop-color="#ff9999" offset="60%"></stop><stop stop-opacity="1" stop-color="#FF0000" offset="90%"></stop><stop stop-opacity="1" stop-color="#FF0000" offset="100%"></stop></linearGradient><linearGradient y2="50%" x2="100%" y1="50%" x1="0%" gradientUnits="objectBoundingBox" id="highcharts-59"><stop stop-opacity="1" stop-color="#80ff00" offset="0%"></stop><stop stop-opacity="1" stop-color="#80ff00" offset="30%"></stop><stop stop-opacity="1" stop-color="#ccff99" offset="60%"></stop><stop stop-opacity="1" stop-color="#80ff00" offset="90%"></stop><stop stop-opacity="1" stop-color="#80ff00" offset="100%"></stop></linearGradient><clipPath id="highcharts-60"><rect stroke-width="0" height="337" width="540" y="1" x="1" fill="none" ry="0" rx="0"></rect></clipPath><linearGradient y2="80%" x2="100%" y1="20%" x1="0%" gradientUnits="objectBoundingBox" id="highcharts-61"><stop stop-opacity="1" stop-color="#bbc0b5" offset="0%"></stop><stop stop-opacity="1" stop-color="#ecf0e8" offset="100%"></stop></linearGradient><linearGradient y2="33%" x2="100%" y1="67%" x1="0%" gradientUnits="objectBoundingBox" id="highcharts-62"><stop stop-opacity="1" stop-color="#929e82" offset="0%"></stop><stop stop-opacity="1" stop-color="#e2e7db" offset="100%"></stop></linearGradient><linearGradient y2="0%" x2="49%" y1="100%" x1="51%" gradientUnits="objectBoundingBox" id="highcharts-63"><stop stop-opacity="1" stop-color="#3c4135" offset="0%"></stop><stop stop-opacity="1" stop-color="#818c72" offset="100%"></stop></linearGradient><linearGradient y2="0%" x2="50%" y1="100%" x1="50%" gradientUnits="objectBoundingBox" id="highcharts-64"><stop stop-opacity="1" stop-color="#6f7963" offset="0%"></stop><stop stop-opacity="1" stop-color="#d1dac7" offset="100%"></stop></linearGradient><linearGradient y2="47%" x2="100%" y1="53%" x1="0%" gradientUnits="objectBoundingBox" id="highcharts-65"><stop stop-opacity="1" stop-color="#d80000" offset="0%"></stop><stop stop-opacity="1" stop-color="#ffa6a6" offset="100%"></stop></linearGradient><linearGradient y2="0%" x2="45%" y1="100%" x1="55%" gradientUnits="objectBoundingBox" id="highcharts-66"><stop stop-opacity="1" stop-color="#590000" offset="0%"></stop><stop stop-opacity="1" stop-color="#bf0000" offset="100%"></stop></linearGradient><linearGradient y2="0%" x2="50%" y1="100%" x1="50%" gradientUnits="objectBoundingBox" id="highcharts-67"><stop stop-opacity="1" stop-color="#a50000" offset="0%"></stop><stop stop-opacity="1" stop-color="#ff7373" offset="100%"></stop></linearGradient><linearGradient y2="47%" x2="100%" y1="53%" x1="0%" gradientUnits="objectBoundingBox" id="highcharts-68"><stop stop-opacity="1" stop-color="#6cd800" offset="0%"></stop><stop stop-opacity="1" stop-color="#d3ffa6" offset="100%"></stop></linearGradient><linearGradient y2="0%" x2="45%" y1="100%" x1="55%" gradientUnits="objectBoundingBox" id="highcharts-69"><stop stop-opacity="1" stop-color="#2c5900" offset="0%"></stop><stop stop-opacity="1" stop-color="#60bf00" offset="100%"></stop></linearGradient><linearGradient y2="0%" x2="50%" y1="100%" x1="50%" gradientUnits="objectBoundingBox" id="highcharts-70"><stop stop-opacity="1" stop-color="#53a500" offset="0%"></stop><stop stop-opacity="1" stop-color="#b9ff73" offset="100%"></stop></linearGradient><linearGradient y2="49%" x2="100%" y1="51%" x1="0%" gradientUnits="objectBoundingBox" id="highcharts-71"><stop stop-opacity="1" stop-color="#d80000" offset="0%"></stop><stop stop-opacity="1" stop-color="#ffa6a6" offset="100%"></stop></linearGradient><linearGradient y2="0%" x2="45%" y1="100%" x1="55%" gradientUnits="objectBoundingBox" id="highcharts-72"><stop stop-opacity="1" stop-color="#590000" offset="0%"></stop><stop stop-opacity="1" stop-color="#bf0000" offset="100%"></stop></linearGradient><linearGradient y2="0%" x2="50%" y1="100%" x1="50%" gradientUnits="objectBoundingBox" id="highcharts-73"><stop stop-opacity="1" stop-color="#a50000" offset="0%"></stop><stop stop-opacity="1" stop-color="#ff7373" offset="100%"></stop></linearGradient><linearGradient y2="49%" x2="100%" y1="51%" x1="0%" gradientUnits="objectBoundingBox" id="highcharts-74"><stop stop-opacity="1" stop-color="#6cd800" offset="0%"></stop><stop stop-opacity="1" stop-color="#d3ffa6" offset="100%"></stop></linearGradient><linearGradient y2="0%" x2="45%" y1="100%" x1="55%" gradientUnits="objectBoundingBox" id="highcharts-75"><stop stop-opacity="1" stop-color="#2c5900" offset="0%"></stop><stop stop-opacity="1" stop-color="#60bf00" offset="100%"></stop></linearGradient><linearGradient y2="0%" x2="50%" y1="100%" x1="50%" gradientUnits="objectBoundingBox" id="highcharts-76"><stop stop-opacity="1" stop-color="#53a500" offset="0%"></stop><stop stop-opacity="1" stop-color="#b9ff73" offset="100%"></stop></linearGradient><linearGradient y2="49%" x2="100%" y1="51%" x1="0%" gradientUnits="objectBoundingBox" id="highcharts-77"><stop stop-opacity="1" stop-color="#d80000" offset="0%"></stop><stop stop-opacity="1" stop-color="#ffa6a6" offset="100%"></stop></linearGradient><linearGradient y2="0%" x2="45%" y1="100%" x1="55%" gradientUnits="objectBoundingBox" id="highcharts-78"><stop stop-opacity="1" stop-color="#590000" offset="0%"></stop><stop stop-opacity="1" stop-color="#bf0000" offset="100%"></stop></linearGradient><linearGradient y2="0%" x2="50%" y1="100%" x1="50%" gradientUnits="objectBoundingBox" id="highcharts-79"><stop stop-opacity="1" stop-color="#a50000" offset="0%"></stop><stop stop-opacity="1" stop-color="#ff7373" offset="100%"></stop></linearGradient><linearGradient y2="49%" x2="100%" y1="51%" x1="0%" gradientUnits="objectBoundingBox" id="highcharts-80"><stop stop-opacity="1" stop-color="#6cd800" offset="0%"></stop><stop stop-opacity="1" stop-color="#d3ffa6" offset="100%"></stop></linearGradient><linearGradient y2="0%" x2="45%" y1="100%" x1="55%" gradientUnits="objectBoundingBox" id="highcharts-81"><stop stop-opacity="1" stop-color="#2c5900" offset="0%"></stop><stop stop-opacity="1" stop-color="#60bf00" offset="100%"></stop></linearGradient><linearGradient y2="0%" x2="50%" y1="100%" x1="50%" gradientUnits="objectBoundingBox" id="highcharts-82"><stop stop-opacity="1" stop-color="#53a500" offset="0%"></stop><stop stop-opacity="1" stop-color="#b9ff73" offset="100%"></stop></linearGradient></defs><rect fill-opacity="0" stroke="rgb(255,255,255)" stroke-opacity="1" stroke-width="1" height="338" width="541" y="0.5" x="0.5" fill="#FFFFFF" ry="0" rx="0"></rect><rect stroke-width="0" height="255" width="465" y="18" x="62" fill="url('#highcharts-61')" ry="0" rx="0"></rect><path fill-opacity="0" fill="rgb(0,0,0)" d="M 62 65 L 527 65 527 147 62 147"></path><path fill-opacity="0" fill="rgb(0,0,0)" d="M 62 228 L 527 228 527 273 62 273"></path><path stroke-width="0.1" stroke="rgb(0,0,0)" stroke-opacity="0" fill="none" d="M 62 65.05 L 527 65.05"></path><text visibility="" text-anchor="end" style="font-family:verdana;font-size:10px;line-height:14px;color:#49563a;fill:#49563a;" y="69" x="43"><tspan x="43">2008</tspan></text><path stroke-width="0.1" stroke="rgb(0,0,0)" stroke-opacity="0" fill="none" d="M 62 147.05 L 527 147.05"></path><text visibility="" text-anchor="end" style="font-family:verdana;font-size:10px;line-height:14px;color:#49563a;fill:#49563a;" y="151" x="43"><tspan x="43">2009</tspan></text><path stroke-width="0.1" stroke="rgb(0,0,0)" stroke-opacity="0" fill="none" d="M 62 228.05 L 527 228.05"></path><text visibility="" text-anchor="end" style="font-family:verdana;font-size:10px;line-height:14px;color:#49563a;fill:#49563a;" y="232" x="43"><tspan x="43">2010</tspan></text><path fill-opacity="0" fill="rgb(0,0,0)" d="M 62 18 L 62 273 155 273 155 18"></path><path fill-opacity="0" fill="rgb(0,0,0)" d="M 248 18 L 248 273 341 273 341 18"></path><path fill-opacity="0" fill="rgb(0,0,0)" d="M 434 18 L 434 273 527 273 527 18"></path><g lighting3D="true" class="highcharts-canvasBase3D"><path fill="none" d="M 52 18 L 62 18 62 273"></path><rect stroke-width="0" height="255" width="10" y="23" x="47" fill="url('#highcharts-64')" ry="0" rx="0"></rect><path stroke-width="0" fill="url('#highcharts-62')" d="M 47 23 L 57 23 62 18 52 18 Z"></path><path stroke-width="0" fill="url('#highcharts-63')" d="M 57 23 L 62 18 62 273 57 278 Z"></path></g><path fill-opacity="1" fill="rgb(176,181,170)" d="M 62 18 L 65.6 15 524 15 527 18 Z"></path><g  class="highcharts-grid"></g><g  class="highcharts-grid"></g><g  class="highcharts-grid"></g><path  stroke-width="0.1" stroke="rgb(0,0,0)" stroke-opacity="0" fill="none" d="M 62.05 18 L 62.05 273"></path><text visibility=""  text-anchor="middle" style="font-family:verdana;font-size:10px;line-height:14px;color:#49563a;fill:#49563a;" y="294" x="57"><tspan x="57">0</tspan></text><path  stroke-width="1" stroke="rgb(172,187,153)" stroke-opacity="1" fill="none" d="M 155.5 18 L 155.5 273"></path><text visibility=""  text-anchor="middle" style="font-family:verdana;font-size:10px;line-height:14px;color:#49563a;fill:#49563a;" y="294" x="151"><tspan x="151">2M</tspan></text><path  stroke-width="1" stroke="rgb(172,187,153)" stroke-opacity="1" fill="none" d="M 248.5 18 L 248.5 273"></path><text visibility=""  text-anchor="middle" style="font-family:verdana;font-size:10px;line-height:14px;color:#49563a;fill:#49563a;" y="294" x="244"><tspan x="244">4M</tspan></text><path  stroke-width="1" stroke="rgb(172,187,153)" stroke-opacity="1" fill="none" d="M 341.5 18 L 341.5 273"></path><text visibility=""  text-anchor="middle" style="font-family:verdana;font-size:10px;line-height:14px;color:#49563a;fill:#49563a;" y="294" x="337"><tspan x="337">6M</tspan></text><path  stroke-width="1" stroke="rgb(172,187,153)" stroke-opacity="1" fill="none" d="M 434.5 18 L 434.5 273"></path><text visibility=""  text-anchor="middle" style="font-family:verdana;font-size:10px;line-height:14px;color:#49563a;fill:#49563a;" y="294" x="430"><tspan x="430">8M</tspan></text><path  stroke-width="0.1" stroke="rgb(0,0,0)" stroke-opacity="0" fill="none" d="M 527.05 18 L 527.05 273"></path><text visibility=""  text-anchor="middle" style="font-family:verdana;font-size:10px;line-height:14px;color:#49563a;fill:#49563a;" y="294" x="522"><tspan x="522">10M</tspan></text><g  class="highcharts-series-group"><g transform="translate(57,23)" class="highcharts-series-3d"><g  class="highcharts-point"><path transform="translate(1,1)" stroke-width="5" stroke-opacity="0.06" stroke="rgb(0,0,0)"  fill="none" d="M 5 180 L 98 180 98 230"></path><path transform="translate(1,1)" stroke-width="3" stroke-opacity="0.12" stroke="rgb(0,0,0)"  fill="none" d="M 5 180 L 98 180 98 230"></path><path transform="translate(1,1)" stroke-width="1" stroke-opacity="0.18" stroke="rgb(0,0,0)"  fill="none" d="M 5 180 L 98 180 98 230"></path><path fill="none" d="M 5 180 L 98 180 98 230"></path><rect stroke="#FFFFFF" stroke-opacity="0" stroke-width="1" height="50" width="93" y="185" x="0" fill="url('#highcharts-67')" ry="0" rx="0"></rect><path stroke="#FFFFFF" stroke-opacity="0" stroke-width="1" fill="url('#highcharts-65')" d="M 0 185 L 93 185 98 180 5 180 Z"></path><path stroke="#FFFFFF" stroke-opacity="0" stroke-width="1" fill="url('#highcharts-66')" d="M 93 185 L 98 180 98 230 93 235 Z"></path></g><g  class="highcharts-point"><path transform="translate(1,1)" stroke-width="5" stroke-opacity="0.06" stroke="rgb(0,0,0)"  fill="none" d="M 97 180 L 190 180 190 230"></path><path transform="translate(1,1)" stroke-width="3" stroke-opacity="0.12" stroke="rgb(0,0,0)"  fill="none" d="M 97 180 L 190 180 190 230"></path><path transform="translate(1,1)" stroke-width="1" stroke-opacity="0.18" stroke="rgb(0,0,0)"  fill="none" d="M 97 180 L 190 180 190 230"></path><path fill="none" d="M 97 180 L 190 180 190 230"></path><rect stroke="#FFFFFF" stroke-opacity="0" stroke-width="1" height="50" width="93" y="185" x="92" fill="url('#highcharts-70')" ry="0" rx="0"></rect><path stroke="#FFFFFF" stroke-opacity="0" stroke-width="1" fill="url('#highcharts-68')" d="M 92 185 L 185 185 190 180 97 180 Z"></path><path stroke="#FFFFFF" stroke-opacity="0" stroke-width="1" fill="url('#highcharts-69')" d="M 185 185 L 190 180 190 230 185 235 Z"></path></g><g  class="highcharts-point"><path transform="translate(1,1)" stroke-width="5" stroke-opacity="0.06" stroke="rgb(0,0,0)"  fill="none" d="M 5 99 L 237 99 237 149"></path><path transform="translate(1,1)" stroke-width="3" stroke-opacity="0.12" stroke="rgb(0,0,0)"  fill="none" d="M 5 99 L 237 99 237 149"></path><path transform="translate(1,1)" stroke-width="1" stroke-opacity="0.18" stroke="rgb(0,0,0)"  fill="none" d="M 5 99 L 237 99 237 149"></path><path fill="none" d="M 5 99 L 237 99 237 149"></path><rect stroke="#FFFFFF" stroke-opacity="0" stroke-width="1" height="50" width="232" y="104" x="0" fill="url('#highcharts-73')" ry="0" rx="0"></rect><path stroke="#FFFFFF" stroke-opacity="0" stroke-width="1" fill="url('#highcharts-71')" d="M 0 104 L 232 104 237 99 5 99 Z"></path><path stroke="#FFFFFF" stroke-opacity="0" stroke-width="1" fill="url('#highcharts-72')" d="M 232 104 L 237 99 237 149 232 154 Z"></path></g><g  class="highcharts-point"><path transform="translate(1,1)" stroke-width="5" stroke-opacity="0.06" stroke="rgb(0,0,0)"  fill="none" d="M 236 99 L 469 99 469 149"></path><path transform="translate(1,1)" stroke-width="3" stroke-opacity="0.12" stroke="rgb(0,0,0)"  fill="none" d="M 236 99 L 469 99 469 149"></path><path transform="translate(1,1)" stroke-width="1" stroke-opacity="0.18" stroke="rgb(0,0,0)"  fill="none" d="M 236 99 L 469 99 469 149"></path><path fill="none" d="M 236 99 L 469 99 469 149"></path><rect stroke="#FFFFFF" stroke-opacity="0" stroke-width="1" height="50" width="233" y="104" x="231" fill="url('#highcharts-76')" ry="0" rx="0"></rect><path stroke="#FFFFFF" stroke-opacity="0" stroke-width="1" fill="url('#highcharts-74')" d="M 231 104 L 464 104 469 99 236 99 Z"></path><path stroke="#FFFFFF" stroke-opacity="0" stroke-width="1" fill="url('#highcharts-75')" d="M 464 104 L 469 99 469 149 464 154 Z"></path></g><g  class="highcharts-point"><path transform="translate(1,1)" stroke-width="5" stroke-opacity="0.06" stroke="rgb(0,0,0)"  fill="none" d="M 5 17 L 176 17 176 67"></path><path transform="translate(1,1)" stroke-width="3" stroke-opacity="0.12" stroke="rgb(0,0,0)"  fill="none" d="M 5 17 L 176 17 176 67"></path><path transform="translate(1,1)" stroke-width="1" stroke-opacity="0.18" stroke="rgb(0,0,0)"  fill="none" d="M 5 17 L 176 17 176 67"></path><path fill="none" d="M 5 17 L 176 17 176 67"></path><rect stroke="#FFFFFF" stroke-opacity="0" stroke-width="1" height="50" width="171" y="22" x="0" fill="url('#highcharts-79')" ry="0" rx="0"></rect><path stroke="#FFFFFF" stroke-opacity="0" stroke-width="1" fill="url('#highcharts-77')" d="M 0 22 L 171 22 176 17 5 17 Z"></path><path stroke="#FFFFFF" stroke-opacity="0" stroke-width="1" fill="url('#highcharts-78')" d="M 171 22 L 176 17 176 67 171 72 Z"></path></g><g  class="highcharts-point"><path transform="translate(1,1)" stroke-width="5" stroke-opacity="0.06" stroke="rgb(0,0,0)"  fill="none" d="M 175 17 L 347 17 347 67"></path><path transform="translate(1,1)" stroke-width="3" stroke-opacity="0.12" stroke="rgb(0,0,0)"  fill="none" d="M 175 17 L 347 17 347 67"></path><path transform="translate(1,1)" stroke-width="1" stroke-opacity="0.18" stroke="rgb(0,0,0)"  fill="none" d="M 175 17 L 347 17 347 67"></path><path fill="none" d="M 175 17 L 347 17 347 67"></path><rect stroke="#FFFFFF" stroke-opacity="0" stroke-width="1" height="50" width="172" y="22" x="170" fill="url('#highcharts-82')" ry="0" rx="0"></rect><path stroke="#FFFFFF" stroke-opacity="0" stroke-width="1" fill="url('#highcharts-80')" d="M 170 22 L 342 22 347 17 175 17 Z"></path><path stroke="#FFFFFF" stroke-opacity="0" stroke-width="1" fill="url('#highcharts-81')" d="M 342 22 L 347 17 347 67 342 72 Z"></path></g></g></g><g transform="translate(62,18)"  visibility="" class="highcharts-data-labels"><text  text-anchor="middle" style="font-family:verdana;font-size:10px;color:#49563a;line-height:14px;text-decoration:none;font-weight:normal;font-style:normal;fill:#49563a;" y="57" x="90"><tspan x="90">3.68M</tspan></text><text  text-anchor="middle" style="font-family:verdana;font-size:10px;color:#49563a;line-height:14px;text-decoration:none;font-weight:normal;font-style:normal;fill:#49563a;" y="139" x="121"><tspan x="121">4.99M</tspan></text><text  text-anchor="middle" style="font-family:verdana;font-size:10px;color:#49563a;line-height:14px;text-decoration:none;font-weight:normal;font-style:normal;fill:#49563a;" y="220" x="51"><tspan x="51">1.98M</tspan></text></g><g transform="translate(62,18)"  visibility="" class="highcharts-data-labels"><text  text-anchor="middle" style="font-family:verdana;font-size:10px;color:#49563a;line-height:14px;text-decoration:none;font-weight:normal;font-style:normal;fill:#49563a;" y="57" x="261"><tspan x="261">3.68M</tspan></text><text  text-anchor="middle" style="font-family:verdana;font-size:10px;color:#49563a;line-height:14px;text-decoration:none;font-weight:normal;font-style:normal;fill:#49563a;" y="139" x="352"><tspan x="352">4.99M</tspan></text><text  text-anchor="middle" style="font-family:verdana;font-size:10px;color:#49563a;line-height:14px;text-decoration:none;font-weight:normal;font-style:normal;fill:#49563a;" y="220" x="143"><tspan x="143">1.98M</tspan></text></g><g  class="highcharts-axis"></g><g  class="highcharts-axis"></g><g  class="highcharts-axis"></g><g visibility="hidden"  class="highcharts-tooltip"><rect fill-opacity="1" stroke-width="1" height="0" width="0" y="1.5" x="1.5" fill="rgb(255,255,255)" ry="1" rx="1"></rect><text  style="font-family:verdana;font-size:10px;color:#49563a;padding:0;white-space:nowrap;line-height:14px;fill:#49563a;" y="11" x="1"><tspan x="1"> </tspan></text></g><text  text-anchor="end" style="font-family:'lucida grande', 'lucida sans unicode', verdana, arial, helvetica, sans-serif;font-size:10px;cursor:pointer;color:#909090;fill:#909090;" y="334" x="532"><tspan x="532">FusionCharts</tspan></text><g height="255" width="465" transform="translate(527,273) rotate(90) scale(-1,1)"  class="highcharts-tracker"><path style=""  visibility="" fill-opacity="0.000001"  fill="rgb(192,192,192)" d="M 15 377 L 15 470 65 470 70 465 70 372 20 372 Z"></path><path style=""  visibility="" fill-opacity="0.000001"  fill="rgb(192,192,192)" d="M 15 285 L 15 378 65 378 70 373 70 280 20 280 Z"></path><path style=""  visibility="" fill-opacity="0.000001"  fill="rgb(192,192,192)" d="M 96 238 L 96 470 146 470 151 465 151 233 101 233 Z"></path><path style=""  visibility="" fill-opacity="0.000001"  fill="rgb(192,192,192)" d="M 96 6 L 96 239 146 239 151 234 151 1 101 1 Z"></path><path style=""  visibility="" fill-opacity="0.000001"  fill="rgb(192,192,192)" d="M 178 299 L 178 470 228 470 233 465 233 294 183 294 Z"></path><path style=""  visibility="" fill-opacity="0.000001"  fill="rgb(192,192,192)" d="M 178 128 L 178 300 228 300 233 295 233 123 183 123 Z"></path></g><g transform="translate(196,301)"  class="highcharts-legend"><rect visibility="" transform="translate(1,1)"  fill-opacity="1" stroke="rgb(0,0,0)" stroke-opacity="0.06" stroke-width="5" height="22" width="181" y="0.5" x="0.5" fill="none" ry="0" rx="0"></rect><rect visibility="" transform="translate(1,1)"  fill-opacity="1" stroke="rgb(0,0,0)" stroke-opacity="0.12" stroke-width="3" height="22" width="181" y="0.5" x="0.5" fill="none" ry="0" rx="0"></rect><rect visibility="" transform="translate(1,1)"  fill-opacity="1" stroke="rgb(0,0,0)" stroke-opacity="0.18" stroke-width="1" height="22" width="181" y="0.5" x="0.5" fill="none" ry="0" rx="0"></rect><rect visibility="" fill-opacity="1" stroke="rgb(198,207,184)" stroke-opacity="1" stroke-width="1" height="22" width="181" y="0.5" x="0.5" fill="rgb(240,243,237)" ry="0" rx="0"></rect><text transform="translate(23,15)"  style="font-family:verdana;font-size:10px;cursor:pointer;color:#49563a;line-height:14px;fill:#49563a;" y="0" x="0"><tspan x="0">Total </tspan></text><text transform="translate(110,15)"  style="font-family:verdana;font-size:10px;cursor:pointer;color:#49563a;line-height:14px;fill:#49563a;" y="0" x="0"><tspan x="0">Total Check </tspan></text><path transform="translate(23,14)" style="_cursor:hand;cursor:pointer;" stroke="#990000"  stroke-width="0.5" fill="url('#highcharts-58')" d="M -16 -7 L -10.600000000000001 -7 -10.600000000000001 -4.75 -16 -4.75 -16 -3.625 -7 -3.625 -7 -1.375 -16 -1.375 -16 -0.25 -13.3 -0.25 -13.3 2 -16 2 Z"></path><path transform="translate(110,14)" style="_cursor:hand;cursor:pointer;" stroke="#4c9900"  stroke-width="0.5" fill="url('#highcharts-59')" d="M -16 -7 L -10.600000000000001 -7 -10.600000000000001 -4.75 -16 -4.75 -16 -3.625 -7 -3.625 -7 -1.375 -16 -1.375 -16 -0.25 -13.3 -0.25 -13.3 2 -16 2 Z"></path></g></svg>